<svg width="173" height="34" viewBox="0 0 173 34" fill="none" xmlns="http://www.w3.org/2000/svg">
<path d="M0 3.66667H12.7985C14.2532 3.66667 15.6939 3.81945 17.1206 4.125C18.5753 4.40278 19.8622 4.91667 20.9812 5.66667C22.1282 6.38889 23.0513 7.375 23.7507 8.625C24.4501 9.84722 24.7998 11.3889 24.7998 13.25C24.7998 15.0556 24.3522 16.6528 23.457 18.0417C22.5618 19.4028 21.2749 20.4583 19.5964 21.2083L27.1497 33.1667H15.652L9.94508 22.625H9.65134V33.1667H0V3.66667ZM9.56742 16.125H11.5396C11.8753 16.125 12.239 16.0972 12.6307 16.0417C13.0503 15.9861 13.428 15.875 13.7637 15.7083C14.1273 15.5139 14.4211 15.2639 14.6449 14.9583C14.8966 14.625 15.0225 14.1944 15.0225 13.6667C15.0225 13.1389 14.9246 12.7222 14.7288 12.4167C14.533 12.1111 14.2812 11.8889 13.9735 11.75C13.6657 11.5833 13.33 11.4861 12.9664 11.4583C12.6027 11.4028 12.267 11.375 11.9593 11.375H9.56742V16.125Z" fill="#333942"/>
<path d="M43.6051 19.2917C43.6051 18.5139 43.3114 17.875 42.7239 17.375C42.1644 16.875 41.3951 16.625 40.416 16.625C39.3529 16.625 38.5277 16.9167 37.9402 17.5C37.3527 18.0833 37.017 18.6806 36.9331 19.2917H43.6051ZM51.9556 22.4167C51.9556 22.7778 51.9416 23.1528 51.9137 23.5417C51.9137 23.9028 51.8997 24.2083 51.8717 24.4583H37.017C37.045 24.8472 37.1709 25.1944 37.3947 25.5C37.6465 25.8056 37.9402 26.0694 38.2759 26.2917C38.6396 26.5139 39.0312 26.6806 39.4509 26.7917C39.8984 26.9028 40.346 26.9583 40.7936 26.9583C41.6888 26.9583 42.4302 26.8056 43.0177 26.5C43.6331 26.1667 44.0947 25.8056 44.4024 25.4167L51.2842 28.875C50.3051 30.4583 48.8784 31.7083 47.0041 32.625C45.1577 33.5417 43.0037 34 40.5419 34C38.9473 34 37.3947 33.75 35.884 33.25C34.3734 32.75 33.0306 32.0139 31.8557 31.0417C30.7087 30.0417 29.7855 28.8056 29.0861 27.3333C28.3868 25.8611 28.0371 24.1528 28.0371 22.2083C28.0371 20.4028 28.3588 18.7778 29.0022 17.3333C29.6456 15.8611 30.5129 14.625 31.6039 13.625C32.7229 12.5972 34.0237 11.8056 35.5064 11.25C37.017 10.6944 38.6256 10.4167 40.3321 10.4167C42.0665 10.4167 43.6471 10.7222 45.0738 11.3333C46.5005 11.9167 47.7174 12.75 48.7245 13.8333C49.7596 14.8889 50.5569 16.1528 51.1164 17.625C51.6759 19.0972 51.9556 20.6944 51.9556 22.4167Z" fill="#333942"/>
<path d="M66.8952 24.0833C65.4685 24.0833 64.3215 24.2361 63.4543 24.5417C62.5871 24.8472 62.1535 25.4167 62.1535 26.25C62.1535 26.5556 62.2234 26.8194 62.3633 27.0417C62.5032 27.2361 62.685 27.4028 62.9088 27.5417C63.1326 27.6806 63.3704 27.7917 63.6222 27.875C63.9019 27.9306 64.1537 27.9583 64.3775 27.9583C65.3006 27.9583 66.042 27.6667 66.6015 27.0833C67.161 26.5 67.4407 25.75 67.4407 24.8333V24.0833H66.8952ZM66.8113 19.25C66.8113 18.5833 66.5735 18.0972 66.0979 17.7917C65.6503 17.4583 65.0489 17.2917 64.2935 17.2917C63.3983 17.2917 62.5451 17.4861 61.7338 17.875C60.9505 18.2361 60.2512 18.6667 59.6357 19.1667L54.8101 14.4167C56.1529 13.1389 57.7474 12.1528 59.5938 11.4583C61.4401 10.7639 63.3424 10.4167 65.3006 10.4167C67.3988 10.4167 69.1332 10.7083 70.504 11.2917C71.8748 11.875 72.9518 12.6806 73.7351 13.7083C74.5464 14.7361 75.1059 15.9306 75.4136 17.2917C75.7493 18.6528 75.9171 20.0972 75.9171 21.625V33.1667H67.147V31.4167H67.0631C66.5036 32.25 65.7063 32.8472 64.6712 33.2083C63.6361 33.5694 62.629 33.75 61.6499 33.75C60.7827 33.75 59.8875 33.625 58.9643 33.375C58.0691 33.125 57.2439 32.7222 56.4885 32.1667C55.7612 31.6111 55.1597 30.8889 54.6842 30C54.2086 29.1111 53.9708 28.0139 53.9708 26.7083C53.9708 25.1806 54.3625 23.9444 55.1458 23C55.957 22.0278 56.9781 21.2778 58.209 20.75C59.4399 20.1944 60.8107 19.8194 62.3213 19.625C63.8599 19.4306 65.3566 19.3333 66.8113 19.3333V19.25Z" fill="#333942"/>
<path d="M79.896 1.66667H89.7991V33.1667H79.896V1.66667Z" fill="#333942"/>
<path d="M94.2806 11.25H103.974V33.1667H94.2806V11.25ZM94.1127 4.91667C94.1127 4.25 94.2386 3.625 94.4904 3.04167C94.7701 2.43056 95.1338 1.90278 95.5814 1.45833C96.057 1.01389 96.6025 0.666669 97.2179 0.416669C97.8334 0.13889 98.4908 0 99.1902 0C99.8616 0 100.491 0.13889 101.078 0.416669C101.666 0.666669 102.183 1.01389 102.631 1.45833C103.107 1.90278 103.47 2.43056 103.722 3.04167C104.002 3.625 104.142 4.25 104.142 4.91667C104.142 5.61111 104.002 6.26389 103.722 6.875C103.47 7.45833 103.107 7.97222 102.631 8.41667C102.183 8.83333 101.666 9.16667 101.078 9.41667C100.491 9.66667 99.8616 9.79167 99.1902 9.79167C98.4908 9.79167 97.8334 9.66667 97.2179 9.41667C96.6025 9.16667 96.057 8.83333 95.5814 8.41667C95.1338 7.97222 94.7701 7.45833 94.4904 6.875C94.2386 6.26389 94.1127 5.61111 94.1127 4.91667Z" fill="#333942"/>
<path d="M131.831 33.1667H122.39V30.75H122.306C121.746 31.5556 120.907 32.2639 119.788 32.875C118.697 33.4583 117.438 33.75 116.012 33.75C114.445 33.75 113.158 33.4861 112.151 32.9583C111.144 32.4028 110.333 31.6944 109.717 30.8333C109.13 29.9444 108.71 28.9583 108.458 27.875C108.234 26.7639 108.123 25.6667 108.123 24.5833V11.25H117.858V22.8333C117.858 23.9444 118.026 24.7222 118.361 25.1667C118.725 25.6111 119.257 25.8333 119.956 25.8333C120.599 25.8333 121.117 25.5833 121.509 25.0833C121.928 24.5556 122.138 23.8056 122.138 22.8333V11.25H131.831V33.1667Z" fill="#333942"/>
<path d="M149.795 33.1667V21.6667C149.795 20.5556 149.655 19.75 149.375 19.25C149.095 18.75 148.634 18.5 147.99 18.5C147.515 18.5 147.053 18.7222 146.606 19.1667C146.186 19.6111 145.976 20.4028 145.976 21.5417V33.1667H136.283V11.25H145.724V13.6667H145.808C146.088 13.3056 146.424 12.9583 146.815 12.625C147.235 12.2639 147.697 11.9444 148.2 11.6667C148.732 11.3611 149.319 11.125 149.963 10.9583C150.606 10.7639 151.305 10.6667 152.061 10.6667C153.515 10.6667 154.774 10.9306 155.837 11.4583C156.9 11.9583 157.74 12.75 158.355 13.8333C159.082 12.9444 159.978 12.1944 161.041 11.5833C162.104 10.9722 163.447 10.6667 165.069 10.6667C166.636 10.6667 167.923 10.9722 168.93 11.5833C169.965 12.1944 170.776 12.9583 171.363 13.875C171.979 14.7917 172.399 15.7917 172.622 16.875C172.874 17.9306 173 18.9167 173 19.8333V33.1667H163.307V21.5C163.307 20.3056 163.153 19.5139 162.845 19.125C162.565 18.7083 162.118 18.5 161.502 18.5C160.943 18.5 160.467 18.7639 160.076 19.2917C159.684 19.7917 159.488 20.5417 159.488 21.5417V33.1667H149.795Z" fill="#333942"/>
</svg>
