<svg width="512" height="80" viewBox="0 0 512 80" fill="none" xmlns="http://www.w3.org/2000/svg">
<path d="M108.02 41.4773C106.111 41.4773 104.281 41.1705 102.531 40.5568C100.781 39.9318 99.2243 38.9432 97.8607 37.5909C96.497 36.2273 95.4232 34.4432 94.6391 32.2386C93.855 30.0227 93.4686 27.3239 93.48 24.142C93.4913 21.267 93.8436 18.6875 94.5368 16.4034C95.23 14.108 96.2186 12.1591 97.5027 10.5568C98.7982 8.95454 100.344 7.73295 102.139 6.89204C103.946 6.03977 105.963 5.61364 108.19 5.61364C110.633 5.61364 112.787 6.09091 114.65 7.04545C116.525 7.98864 118.025 9.26136 119.15 10.8636C120.275 12.4545 120.94 14.2273 121.145 16.1818H112.844C112.594 15.0795 112.042 14.2443 111.19 13.6761C110.349 13.0966 109.349 12.8068 108.19 12.8068C106.054 12.8068 104.457 13.733 103.4 15.5852C102.355 17.4375 101.821 19.9148 101.798 23.017H102.02C102.497 21.9716 103.185 21.0739 104.082 20.3239C104.98 19.5739 106.008 19 107.167 18.6023C108.338 18.1932 109.577 17.9886 110.883 17.9886C112.974 17.9886 114.821 18.4716 116.423 19.4375C118.025 20.4034 119.281 21.7273 120.19 23.4091C121.099 25.0795 121.548 26.9943 121.537 29.1534C121.548 31.5852 120.98 33.733 119.832 35.5966C118.685 37.4489 117.094 38.892 115.06 39.9261C113.037 40.9602 110.69 41.4773 108.02 41.4773ZM107.969 35C109.003 35 109.929 34.7557 110.747 34.267C111.565 33.7784 112.207 33.1136 112.673 32.2727C113.139 31.4318 113.366 30.483 113.355 29.4261C113.366 28.358 113.139 27.4091 112.673 26.5795C112.219 25.75 111.582 25.0909 110.764 24.6023C109.957 24.1136 109.031 23.8693 107.986 23.8693C107.224 23.8693 106.514 24.0114 105.855 24.2955C105.196 24.5795 104.622 24.9773 104.133 25.4886C103.656 25.9886 103.281 26.5795 103.008 27.2614C102.736 27.9318 102.594 28.6591 102.582 29.4432C102.594 30.4773 102.832 31.4148 103.298 32.2557C103.764 33.0966 104.4 33.767 105.207 34.267C106.014 34.7557 106.935 35 107.969 35ZM144.673 34.4545V32.6136C144.673 31.1818 144.98 29.858 145.594 28.642C146.219 27.4261 147.122 26.4489 148.304 25.7102C149.486 24.9716 150.929 24.6023 152.634 24.6023C154.372 24.6023 155.833 24.9716 157.014 25.7102C158.208 26.4375 159.105 27.4091 159.708 28.625C160.321 29.8295 160.628 31.1591 160.628 32.6136V34.4545C160.628 35.8864 160.321 37.2102 159.708 38.4261C159.094 39.642 158.19 40.6193 156.997 41.358C155.804 42.0966 154.35 42.4659 152.634 42.4659C150.906 42.4659 149.452 42.0966 148.27 41.358C147.088 40.6193 146.19 39.642 145.577 38.4261C144.975 37.2102 144.673 35.8864 144.673 34.4545ZM150.111 32.6136V34.4545C150.111 35.1818 150.287 35.8807 150.639 36.5511C151.003 37.2216 151.668 37.5568 152.634 37.5568C153.622 37.5568 154.287 37.233 154.628 36.5852C154.969 35.9261 155.139 35.2159 155.139 34.4545V32.6136C155.139 31.8523 154.975 31.1364 154.645 30.4659C154.327 29.7841 153.656 29.4432 152.634 29.4432C151.679 29.4432 151.02 29.7841 150.656 30.4659C150.293 31.1364 150.111 31.8523 150.111 32.6136ZM126.571 14.4773V12.6364C126.571 11.1818 126.884 9.85227 127.509 8.64773C128.145 7.43182 129.054 6.46023 130.236 5.73295C131.418 4.99432 132.85 4.625 134.531 4.625C136.27 4.625 137.73 4.99432 138.912 5.73295C140.105 6.46023 141.009 7.43182 141.622 8.64773C142.236 9.85227 142.543 11.1818 142.543 12.6364V14.4773C142.543 15.9318 142.23 17.2614 141.605 18.4659C140.992 19.6705 140.088 20.6307 138.895 21.3466C137.702 22.0625 136.247 22.4205 134.531 22.4205C132.815 22.4205 131.361 22.0568 130.168 21.3295C128.986 20.6023 128.088 19.6364 127.475 18.4318C126.872 17.2273 126.571 15.9091 126.571 14.4773ZM132.06 12.6364V14.4773C132.06 15.2386 132.236 15.9489 132.588 16.608C132.952 17.2557 133.6 17.5795 134.531 17.5795C135.531 17.5795 136.196 17.2557 136.526 16.608C136.867 15.9489 137.037 15.2386 137.037 14.4773V12.6364C137.037 11.875 136.878 11.1591 136.56 10.4886C136.242 9.80682 135.565 9.46591 134.531 9.46591C133.577 9.46591 132.923 9.8125 132.571 10.5057C132.23 11.1989 132.06 11.9091 132.06 12.6364ZM129.145 41L153.145 6.09091H157.798L133.798 41H129.145Z" fill="white"/>
<path d="M87.4453 65.4205C87.3847 64.8826 87.1347 64.4659 86.6953 64.1705C86.2559 63.8712 85.7029 63.7216 85.0362 63.7216C84.5589 63.7216 84.1461 63.7973 83.7976 63.9489C83.4491 64.0966 83.1783 64.3011 82.9851 64.5625C82.7957 64.8201 82.701 65.1136 82.701 65.4432C82.701 65.7197 82.7654 65.9583 82.8942 66.1591C83.0268 66.3598 83.1991 66.5284 83.4112 66.6648C83.6271 66.7973 83.8582 66.9091 84.1044 67C84.3506 67.0871 84.5874 67.1591 84.8146 67.2159L85.951 67.5114C86.3222 67.6023 86.7029 67.7254 87.093 67.8807C87.4832 68.036 87.8449 68.2405 88.1783 68.4943C88.5116 68.7481 88.7805 69.0625 88.9851 69.4375C89.1934 69.8125 89.2976 70.2614 89.2976 70.7841C89.2976 71.4432 89.1271 72.0284 88.7862 72.5398C88.4491 73.0511 87.9586 73.4545 87.3146 73.75C86.6745 74.0455 85.8999 74.1932 84.9908 74.1932C84.1196 74.1932 83.3658 74.0549 82.7294 73.7784C82.093 73.5019 81.5949 73.1098 81.2351 72.6023C80.8752 72.0909 80.6764 71.4848 80.6385 70.7841H82.3999C82.4339 71.2045 82.5703 71.5549 82.8089 71.8352C83.0514 72.1117 83.3601 72.3182 83.7351 72.4545C84.1139 72.5871 84.5286 72.6534 84.9794 72.6534C85.4756 72.6534 85.9169 72.5758 86.3033 72.4205C86.6934 72.2614 87.0002 72.0417 87.2237 71.7614C87.4472 71.4773 87.5589 71.1458 87.5589 70.767C87.5589 70.4223 87.4605 70.1402 87.2635 69.9205C87.0703 69.7008 86.8071 69.5189 86.4737 69.375C86.1442 69.2311 85.7711 69.1042 85.3544 68.9943L83.9794 68.6193C83.0476 68.3655 82.3089 67.9924 81.7635 67.5C81.2218 67.0076 80.951 66.3561 80.951 65.5455C80.951 64.875 81.1328 64.2898 81.4964 63.7898C81.8601 63.2898 82.3525 62.9015 82.9737 62.625C83.5949 62.3447 84.2957 62.2045 85.076 62.2045C85.8639 62.2045 86.5589 62.3428 87.1612 62.6193C87.7673 62.8958 88.2446 63.2765 88.593 63.7614C88.9415 64.2424 89.1233 64.7955 89.1385 65.4205H87.4453ZM94.9354 74.1761C94.1172 74.1761 93.4032 73.9886 92.7933 73.6136C92.1835 73.2386 91.71 72.714 91.3729 72.0398C91.0357 71.3655 90.8672 70.5777 90.8672 69.6761C90.8672 68.7708 91.0357 67.9792 91.3729 67.3011C91.71 66.6231 92.1835 66.0966 92.7933 65.7216C93.4032 65.3466 94.1172 65.1591 94.9354 65.1591C95.7536 65.1591 96.4676 65.3466 97.0774 65.7216C97.6873 66.0966 98.1607 66.6231 98.4979 67.3011C98.835 67.9792 99.0036 68.7708 99.0036 69.6761C99.0036 70.5777 98.835 71.3655 98.4979 72.0398C98.1607 72.714 97.6873 73.2386 97.0774 73.6136C96.4676 73.9886 95.7536 74.1761 94.9354 74.1761ZM94.9411 72.75C95.4714 72.75 95.9107 72.6098 96.2592 72.3295C96.6077 72.0492 96.8653 71.6761 97.032 71.2102C97.2024 70.7443 97.2876 70.2311 97.2876 69.6705C97.2876 69.1136 97.2024 68.6023 97.032 68.1364C96.8653 67.6667 96.6077 67.2898 96.2592 67.0057C95.9107 66.7216 95.4714 66.5795 94.9411 66.5795C94.407 66.5795 93.9638 66.7216 93.6115 67.0057C93.263 67.2898 93.0036 67.6667 92.8331 68.1364C92.6664 68.6023 92.5831 69.1136 92.5831 69.6705C92.5831 70.2311 92.6664 70.7443 92.8331 71.2102C93.0036 71.6761 93.263 72.0492 93.6115 72.3295C93.9638 72.6098 94.407 72.75 94.9411 72.75ZM106.428 70.3807V65.2727H108.133V74H106.462V72.4886H106.371C106.171 72.9545 105.849 73.3428 105.406 73.6534C104.966 73.9602 104.419 74.1136 103.763 74.1136C103.203 74.1136 102.707 73.9905 102.275 73.7443C101.847 73.4943 101.51 73.125 101.263 72.6364C101.021 72.1477 100.9 71.5436 100.9 70.8239V65.2727H102.599V70.6193C102.599 71.214 102.763 71.6875 103.093 72.0398C103.423 72.392 103.851 72.5682 104.377 72.5682C104.695 72.5682 105.012 72.4886 105.326 72.3295C105.644 72.1705 105.907 71.9299 106.116 71.608C106.328 71.286 106.432 70.8769 106.428 70.3807ZM110.415 74V65.2727H112.058V66.6591H112.148C112.308 66.1894 112.588 65.8201 112.989 65.5511C113.395 65.2784 113.853 65.142 114.364 65.142C114.47 65.142 114.595 65.1458 114.739 65.1534C114.887 65.161 115.003 65.1705 115.086 65.1818V66.8068C115.018 66.7879 114.897 66.767 114.722 66.7443C114.548 66.7178 114.374 66.7045 114.2 66.7045C113.798 66.7045 113.44 66.7898 113.126 66.9602C112.815 67.1269 112.569 67.3598 112.387 67.6591C112.205 67.9545 112.114 68.2917 112.114 68.6705V74H110.415ZM119.92 74.1761C119.075 74.1761 118.348 73.9848 117.738 73.6023C117.132 73.2159 116.666 72.6837 116.34 72.0057C116.014 71.3277 115.852 70.5511 115.852 69.6761C115.852 68.7898 116.018 68.0076 116.352 67.3295C116.685 66.6477 117.155 66.1155 117.761 65.733C118.367 65.3504 119.081 65.1591 119.903 65.1591C120.566 65.1591 121.156 65.2822 121.675 65.5284C122.194 65.7708 122.613 66.1117 122.931 66.5511C123.253 66.9905 123.444 67.5038 123.505 68.0909H121.852C121.761 67.6818 121.552 67.3295 121.227 67.0341C120.905 66.7386 120.473 66.5909 119.931 66.5909C119.458 66.5909 119.043 66.7159 118.687 66.9659C118.335 67.2121 118.06 67.5644 117.863 68.0227C117.666 68.4773 117.567 69.0152 117.567 69.6364C117.567 70.2727 117.664 70.822 117.857 71.2841C118.05 71.7462 118.323 72.1042 118.675 72.358C119.031 72.6117 119.45 72.7386 119.931 72.7386C120.253 72.7386 120.545 72.6799 120.806 72.5625C121.071 72.4413 121.293 72.2689 121.471 72.0455C121.653 71.822 121.78 71.553 121.852 71.2386H123.505C123.444 71.803 123.261 72.3068 122.954 72.75C122.647 73.1932 122.236 73.5417 121.721 73.7955C121.21 74.0492 120.609 74.1761 119.92 74.1761ZM125.322 74V65.2727H127.021V74H125.322ZM126.18 63.9261C125.884 63.9261 125.63 63.8277 125.418 63.6307C125.21 63.4299 125.106 63.1913 125.106 62.9148C125.106 62.6345 125.21 62.3958 125.418 62.1989C125.63 61.9981 125.884 61.8977 126.18 61.8977C126.475 61.8977 126.727 61.9981 126.935 62.1989C127.147 62.3958 127.254 62.6345 127.254 62.9148C127.254 63.1913 127.147 63.4299 126.935 63.6307C126.727 63.8277 126.475 63.9261 126.18 63.9261ZM131.005 68.8182V74H129.306V65.2727H130.937V66.6932H131.045C131.246 66.2311 131.56 65.8598 131.988 65.5795C132.42 65.2992 132.963 65.1591 133.619 65.1591C134.213 65.1591 134.734 65.2841 135.181 65.5341C135.628 65.7803 135.975 66.1477 136.221 66.6364C136.467 67.125 136.59 67.7292 136.59 68.4489V74H134.891V68.6534C134.891 68.0208 134.727 67.5265 134.397 67.1705C134.067 66.8106 133.615 66.6307 133.039 66.6307C132.645 66.6307 132.295 66.7159 131.988 66.8864C131.685 67.0568 131.444 67.3068 131.266 67.6364C131.092 67.9621 131.005 68.3561 131.005 68.8182ZM142.528 77.4545C141.835 77.4545 141.238 77.3636 140.738 77.1818C140.242 77 139.836 76.7595 139.522 76.4602C139.208 76.161 138.973 75.8333 138.817 75.4773L140.278 74.875C140.38 75.0417 140.516 75.2178 140.687 75.4034C140.861 75.5928 141.096 75.7538 141.391 75.8864C141.691 76.0189 142.075 76.0852 142.545 76.0852C143.189 76.0852 143.721 75.928 144.141 75.6136C144.562 75.303 144.772 74.8068 144.772 74.125V72.4091H144.664C144.562 72.5947 144.414 72.8011 144.221 73.0284C144.031 73.2557 143.77 73.4527 143.437 73.6193C143.103 73.786 142.67 73.8693 142.136 73.8693C141.446 73.8693 140.825 73.7083 140.272 73.3864C139.723 73.0606 139.287 72.5814 138.965 71.9489C138.647 71.3125 138.488 70.5303 138.488 69.6023C138.488 68.6742 138.645 67.8788 138.96 67.2159C139.278 66.553 139.713 66.0455 140.266 65.6932C140.819 65.3371 141.446 65.1591 142.147 65.1591C142.689 65.1591 143.126 65.25 143.46 65.4318C143.793 65.6098 144.052 65.8182 144.238 66.0568C144.427 66.2955 144.573 66.5057 144.675 66.6875H144.8V65.2727H146.465V74.1932C146.465 74.9432 146.291 75.5587 145.942 76.0398C145.594 76.5208 145.122 76.8769 144.528 77.108C143.937 77.339 143.27 77.4545 142.528 77.4545ZM142.511 72.4602C142.999 72.4602 143.412 72.3466 143.749 72.1193C144.09 71.8883 144.348 71.5587 144.522 71.1307C144.7 70.6989 144.789 70.1818 144.789 69.5795C144.789 68.9924 144.702 68.4754 144.528 68.0284C144.353 67.5814 144.098 67.233 143.761 66.983C143.424 66.7292 143.007 66.6023 142.511 66.6023C141.999 66.6023 141.573 66.7348 141.232 67C140.891 67.2614 140.634 67.6174 140.46 68.0682C140.289 68.5189 140.204 69.0227 140.204 69.5795C140.204 70.1515 140.291 70.6534 140.465 71.0852C140.639 71.517 140.897 71.8542 141.238 72.0966C141.583 72.339 142.007 72.4602 142.511 72.4602ZM157.131 65.2727V66.6364H152.2V65.2727H157.131ZM153.552 74V64.2614C153.552 63.7159 153.671 63.2633 153.91 62.9034C154.148 62.5398 154.465 62.2689 154.859 62.0909C155.253 61.9091 155.681 61.8182 156.143 61.8182C156.484 61.8182 156.775 61.8466 157.018 61.9034C157.26 61.9564 157.44 62.0057 157.558 62.0511L157.16 63.4261C157.08 63.4034 156.978 63.3769 156.853 63.3466C156.728 63.3125 156.576 63.2955 156.398 63.2955C155.986 63.2955 155.69 63.3977 155.512 63.6023C155.338 63.8068 155.251 64.1023 155.251 64.4886V74H153.552ZM162.302 74.1761C161.442 74.1761 160.701 73.9924 160.08 73.625C159.463 73.2538 158.986 72.733 158.648 72.0625C158.315 71.3883 158.148 70.5985 158.148 69.6932C158.148 68.7992 158.315 68.0114 158.648 67.3295C158.986 66.6477 159.455 66.1155 160.058 65.733C160.664 65.3504 161.372 65.1591 162.183 65.1591C162.675 65.1591 163.152 65.2405 163.614 65.4034C164.076 65.5663 164.491 65.822 164.859 66.1705C165.226 66.5189 165.516 66.9716 165.728 67.5284C165.94 68.0814 166.046 68.7538 166.046 69.5455V70.1477H159.109V68.875H164.381C164.381 68.428 164.29 68.0322 164.109 67.6875C163.927 67.339 163.671 67.0644 163.342 66.8636C163.016 66.6629 162.633 66.5625 162.194 66.5625C161.717 66.5625 161.3 66.6799 160.944 66.9148C160.592 67.1458 160.319 67.4489 160.126 67.8239C159.936 68.1951 159.842 68.5985 159.842 69.0341V70.0284C159.842 70.6117 159.944 71.108 160.148 71.517C160.357 71.9261 160.647 72.2386 161.018 72.4545C161.389 72.6667 161.823 72.7727 162.319 72.7727C162.641 72.7727 162.934 72.7273 163.2 72.6364C163.465 72.5417 163.694 72.4015 163.887 72.2159C164.08 72.0303 164.228 71.8011 164.33 71.5284L165.938 71.8182C165.809 72.2917 165.578 72.7064 165.245 73.0625C164.915 73.4148 164.501 73.6894 164.001 73.8864C163.504 74.0795 162.938 74.1761 162.302 74.1761ZM171.692 74.1761C170.833 74.1761 170.092 73.9924 169.471 73.625C168.853 73.2538 168.376 72.733 168.039 72.0625C167.706 71.3883 167.539 70.5985 167.539 69.6932C167.539 68.7992 167.706 68.0114 168.039 67.3295C168.376 66.6477 168.846 66.1155 169.448 65.733C170.054 65.3504 170.763 65.1591 171.573 65.1591C172.066 65.1591 172.543 65.2405 173.005 65.4034C173.467 65.5663 173.882 65.822 174.249 66.1705C174.617 66.5189 174.906 66.9716 175.119 67.5284C175.331 68.0814 175.437 68.7538 175.437 69.5455V70.1477H168.499V68.875H173.772C173.772 68.428 173.681 68.0322 173.499 67.6875C173.317 67.339 173.062 67.0644 172.732 66.8636C172.406 66.6629 172.024 66.5625 171.585 66.5625C171.107 66.5625 170.691 66.6799 170.335 66.9148C169.982 67.1458 169.71 67.4489 169.516 67.8239C169.327 68.1951 169.232 68.5985 169.232 69.0341V70.0284C169.232 70.6117 169.335 71.108 169.539 71.517C169.747 71.9261 170.037 72.2386 170.408 72.4545C170.78 72.6667 171.213 72.7727 171.71 72.7727C172.031 72.7727 172.325 72.7273 172.59 72.6364C172.855 72.5417 173.085 72.4015 173.278 72.2159C173.471 72.0303 173.619 71.8011 173.721 71.5284L175.329 71.8182C175.2 72.2917 174.969 72.7064 174.636 73.0625C174.306 73.4148 173.891 73.6894 173.391 73.8864C172.895 74.0795 172.329 74.1761 171.692 74.1761Z" fill="#C7D2FE"/>
<path d="M370.386 6.09091V41H361.966V13.9659H361.761L353.954 18.7386V11.4432L362.562 6.09091H370.386ZM396.455 34.4545V32.6136C396.455 31.1818 396.761 29.858 397.375 28.642C398 27.4261 398.904 26.4489 400.085 25.7102C401.267 24.9716 402.71 24.6023 404.415 24.6023C406.154 24.6023 407.614 24.9716 408.796 25.7102C409.989 26.4375 410.887 27.4091 411.489 28.625C412.102 29.8295 412.409 31.1591 412.409 32.6136V34.4545C412.409 35.8864 412.102 37.2102 411.489 38.4261C410.875 39.642 409.972 40.6193 408.779 41.358C407.585 42.0966 406.131 42.4659 404.415 42.4659C402.688 42.4659 401.233 42.0966 400.051 41.358C398.869 40.6193 397.972 39.642 397.358 38.4261C396.756 37.2102 396.455 35.8864 396.455 34.4545ZM401.892 32.6136V34.4545C401.892 35.1818 402.068 35.8807 402.421 36.5511C402.784 37.2216 403.449 37.5568 404.415 37.5568C405.404 37.5568 406.068 37.233 406.409 36.5852C406.75 35.9261 406.921 35.2159 406.921 34.4545V32.6136C406.921 31.8523 406.756 31.1364 406.426 30.4659C406.108 29.7841 405.438 29.4432 404.415 29.4432C403.46 29.4432 402.801 29.7841 402.438 30.4659C402.074 31.1364 401.892 31.8523 401.892 32.6136ZM378.352 14.4773V12.6364C378.352 11.1818 378.665 9.85227 379.29 8.64773C379.926 7.43182 380.835 6.46023 382.017 5.73295C383.199 4.99432 384.631 4.625 386.313 4.625C388.051 4.625 389.511 4.99432 390.693 5.73295C391.886 6.46023 392.79 7.43182 393.404 8.64773C394.017 9.85227 394.324 11.1818 394.324 12.6364V14.4773C394.324 15.9318 394.012 17.2614 393.387 18.4659C392.773 19.6705 391.869 20.6307 390.676 21.3466C389.483 22.0625 388.029 22.4205 386.313 22.4205C384.597 22.4205 383.142 22.0568 381.949 21.3295C380.767 20.6023 379.869 19.6364 379.256 18.4318C378.654 17.2273 378.352 15.9091 378.352 14.4773ZM383.841 12.6364V14.4773C383.841 15.2386 384.017 15.9489 384.369 16.608C384.733 17.2557 385.381 17.5795 386.313 17.5795C387.313 17.5795 387.977 17.2557 388.307 16.608C388.648 15.9489 388.818 15.2386 388.818 14.4773V12.6364C388.818 11.875 388.659 11.1591 388.341 10.4886C388.023 9.80682 387.347 9.46591 386.313 9.46591C385.358 9.46591 384.705 9.8125 384.352 10.5057C384.012 11.1989 383.841 11.9091 383.841 12.6364ZM380.926 41L404.926 6.09091H409.58L385.58 41H380.926Z" fill="white"/>
<path d="M325.337 63.875V62.3636H334.343V63.875H330.712V74H328.962V63.875H325.337ZM335.29 74V65.2727H336.933V66.6591H337.023C337.183 66.1894 337.463 65.8201 337.864 65.5511C338.27 65.2784 338.728 65.142 339.239 65.142C339.345 65.142 339.47 65.1458 339.614 65.1534C339.762 65.161 339.878 65.1705 339.961 65.1818V66.8068C339.893 66.7879 339.772 66.767 339.597 66.7443C339.423 66.7178 339.249 66.7045 339.075 66.7045C338.673 66.7045 338.315 66.7898 338.001 66.9602C337.69 67.1269 337.444 67.3598 337.262 67.6591C337.08 67.9545 336.989 68.2917 336.989 68.6705V74H335.29ZM343.893 74.1932C343.34 74.1932 342.84 74.0909 342.393 73.8864C341.946 73.678 341.592 73.3769 341.33 72.983C341.073 72.589 340.944 72.1061 340.944 71.5341C340.944 71.0417 341.039 70.6364 341.228 70.3182C341.417 70 341.673 69.7481 341.995 69.5625C342.317 69.3769 342.677 69.2367 343.075 69.142C343.472 69.0473 343.878 68.9754 344.29 68.9261C344.813 68.8655 345.237 68.8163 345.563 68.7784C345.889 68.7367 346.126 68.6705 346.273 68.5795C346.421 68.4886 346.495 68.3409 346.495 68.1364V68.0966C346.495 67.6004 346.355 67.2159 346.075 66.9432C345.798 66.6705 345.385 66.5341 344.836 66.5341C344.264 66.5341 343.813 66.661 343.484 66.9148C343.158 67.1648 342.933 67.4432 342.808 67.75L341.211 67.3864C341.4 66.8561 341.677 66.428 342.04 66.1023C342.408 65.7727 342.83 65.5341 343.308 65.3864C343.785 65.2348 344.287 65.1591 344.813 65.1591C345.162 65.1591 345.531 65.2008 345.921 65.2841C346.315 65.3636 346.683 65.5114 347.023 65.7273C347.368 65.9432 347.65 66.2519 347.87 66.6534C348.09 67.0511 348.2 67.5682 348.2 68.2045V74H346.54V72.8068H346.472C346.362 73.0265 346.198 73.2424 345.978 73.4545C345.758 73.6667 345.476 73.8428 345.131 73.983C344.787 74.1231 344.374 74.1932 343.893 74.1932ZM344.262 72.8295C344.732 72.8295 345.133 72.7367 345.467 72.5511C345.804 72.3655 346.059 72.1231 346.234 71.8239C346.412 71.5208 346.501 71.197 346.501 70.8523V69.7273C346.44 69.7879 346.323 69.8447 346.148 69.8977C345.978 69.947 345.783 69.9905 345.563 70.0284C345.344 70.0625 345.129 70.0947 344.921 70.125C344.713 70.1515 344.539 70.1742 344.398 70.1932C344.069 70.2348 343.768 70.3049 343.495 70.4034C343.226 70.5019 343.01 70.6439 342.847 70.8295C342.688 71.0114 342.609 71.2538 342.609 71.5568C342.609 71.9773 342.764 72.2955 343.075 72.5114C343.385 72.7235 343.781 72.8295 344.262 72.8295ZM352.161 68.8182V74H350.462V65.2727H352.093V66.6932H352.201C352.402 66.2311 352.716 65.8598 353.144 65.5795C353.576 65.2992 354.12 65.1591 354.775 65.1591C355.37 65.1591 355.89 65.2841 356.337 65.5341C356.784 65.7803 357.131 66.1477 357.377 66.6364C357.623 67.125 357.746 67.7292 357.746 68.4489V74H356.048V68.6534C356.048 68.0208 355.883 67.5265 355.553 67.1705C355.224 66.8106 354.771 66.6307 354.195 66.6307C353.801 66.6307 353.451 66.7159 353.144 66.8864C352.841 67.0568 352.601 67.3068 352.423 67.6364C352.248 67.9621 352.161 68.3561 352.161 68.8182ZM366.565 67.4034L365.025 67.6761C364.96 67.4792 364.858 67.2917 364.718 67.1136C364.582 66.9356 364.396 66.7898 364.161 66.6761C363.926 66.5625 363.633 66.5057 363.281 66.5057C362.799 66.5057 362.398 66.6136 362.076 66.8295C361.754 67.0417 361.593 67.3163 361.593 67.6534C361.593 67.9451 361.701 68.1799 361.917 68.358C362.133 68.536 362.481 68.6818 362.962 68.7955L364.349 69.1136C365.152 69.2992 365.75 69.5852 366.144 69.9716C366.538 70.358 366.735 70.8598 366.735 71.4773C366.735 72 366.584 72.4659 366.281 72.875C365.981 73.2803 365.563 73.5985 365.025 73.8295C364.491 74.0606 363.871 74.1761 363.167 74.1761C362.19 74.1761 361.392 73.9678 360.775 73.5511C360.157 73.1307 359.779 72.5341 359.638 71.7614L361.281 71.5114C361.383 71.9394 361.593 72.2633 361.911 72.483C362.229 72.6989 362.644 72.8068 363.156 72.8068C363.712 72.8068 364.157 72.6913 364.491 72.4602C364.824 72.2254 364.991 71.9394 364.991 71.6023C364.991 71.3295 364.888 71.1004 364.684 70.9148C364.483 70.7292 364.174 70.589 363.758 70.4943L362.281 70.1705C361.466 69.9848 360.864 69.6894 360.474 69.2841C360.087 68.8788 359.894 68.3655 359.894 67.7443C359.894 67.2292 360.038 66.7784 360.326 66.392C360.614 66.0057 361.012 65.7045 361.519 65.4886C362.027 65.2689 362.608 65.1591 363.263 65.1591C364.207 65.1591 364.949 65.3636 365.491 65.7727C366.032 66.178 366.39 66.7216 366.565 67.4034ZM371.143 74.1932C370.59 74.1932 370.09 74.0909 369.643 73.8864C369.196 73.678 368.842 73.3769 368.58 72.983C368.323 72.589 368.194 72.1061 368.194 71.5341C368.194 71.0417 368.289 70.6364 368.478 70.3182C368.667 70 368.923 69.7481 369.245 69.5625C369.567 69.3769 369.927 69.2367 370.325 69.142C370.722 69.0473 371.128 68.9754 371.54 68.9261C372.063 68.8655 372.487 68.8163 372.813 68.7784C373.139 68.7367 373.376 68.6705 373.523 68.5795C373.671 68.4886 373.745 68.3409 373.745 68.1364V68.0966C373.745 67.6004 373.605 67.2159 373.325 66.9432C373.048 66.6705 372.635 66.5341 372.086 66.5341C371.514 66.5341 371.063 66.661 370.734 66.9148C370.408 67.1648 370.183 67.4432 370.058 67.75L368.461 67.3864C368.65 66.8561 368.927 66.428 369.29 66.1023C369.658 65.7727 370.08 65.5341 370.558 65.3864C371.035 65.2348 371.537 65.1591 372.063 65.1591C372.412 65.1591 372.781 65.2008 373.171 65.2841C373.565 65.3636 373.933 65.5114 374.273 65.7273C374.618 65.9432 374.9 66.2519 375.12 66.6534C375.34 67.0511 375.45 67.5682 375.45 68.2045V74H373.79V72.8068H373.722C373.612 73.0265 373.448 73.2424 373.228 73.4545C373.008 73.6667 372.726 73.8428 372.381 73.983C372.037 74.1231 371.624 74.1932 371.143 74.1932ZM371.512 72.8295C371.982 72.8295 372.383 72.7367 372.717 72.5511C373.054 72.3655 373.309 72.1231 373.484 71.8239C373.662 71.5208 373.751 71.197 373.751 70.8523V69.7273C373.69 69.7879 373.573 69.8447 373.398 69.8977C373.228 69.947 373.033 69.9905 372.813 70.0284C372.594 70.0625 372.379 70.0947 372.171 70.125C371.963 70.1515 371.789 70.1742 371.648 70.1932C371.319 70.2348 371.018 70.3049 370.745 70.4034C370.476 70.5019 370.26 70.6439 370.097 70.8295C369.938 71.0114 369.859 71.2538 369.859 71.5568C369.859 71.9773 370.014 72.2955 370.325 72.5114C370.635 72.7235 371.031 72.8295 371.512 72.8295ZM381.388 74.1761C380.544 74.1761 379.817 73.9848 379.207 73.6023C378.601 73.2159 378.135 72.6837 377.809 72.0057C377.483 71.3277 377.32 70.5511 377.32 69.6761C377.32 68.7898 377.487 68.0076 377.82 67.3295C378.154 66.6477 378.623 66.1155 379.229 65.733C379.835 65.3504 380.549 65.1591 381.371 65.1591C382.034 65.1591 382.625 65.2822 383.144 65.5284C383.663 65.7708 384.082 66.1117 384.4 66.5511C384.722 66.9905 384.913 67.5038 384.974 68.0909H383.32C383.229 67.6818 383.021 67.3295 382.695 67.0341C382.373 66.7386 381.942 66.5909 381.4 66.5909C380.926 66.5909 380.512 66.7159 380.156 66.9659C379.803 67.2121 379.529 67.5644 379.332 68.0227C379.135 68.4773 379.036 69.0152 379.036 69.6364C379.036 70.2727 379.133 70.822 379.326 71.2841C379.519 71.7462 379.792 72.1042 380.144 72.358C380.5 72.6117 380.919 72.7386 381.4 72.7386C381.722 72.7386 382.013 72.6799 382.275 72.5625C382.54 72.4413 382.762 72.2689 382.94 72.0455C383.121 71.822 383.248 71.553 383.32 71.2386H384.974C384.913 71.803 384.729 72.3068 384.423 72.75C384.116 73.1932 383.705 73.5417 383.19 73.7955C382.678 74.0492 382.078 74.1761 381.388 74.1761ZM390.864 65.2727V66.6364H386.097V65.2727H390.864ZM387.376 63.1818H389.075V71.4375C389.075 71.767 389.124 72.0152 389.222 72.1818C389.321 72.3447 389.448 72.4564 389.603 72.517C389.762 72.5739 389.934 72.6023 390.12 72.6023C390.256 72.6023 390.376 72.5928 390.478 72.5739C390.58 72.5549 390.66 72.5398 390.717 72.5284L391.023 73.9318C390.925 73.9697 390.785 74.0076 390.603 74.0455C390.421 74.0871 390.194 74.1098 389.921 74.1136C389.474 74.1212 389.058 74.0417 388.671 73.875C388.285 73.7083 387.972 73.4508 387.734 73.1023C387.495 72.7538 387.376 72.3163 387.376 71.7898V63.1818ZM392.744 74V65.2727H394.442V74H392.744ZM393.602 63.9261C393.306 63.9261 393.052 63.8277 392.84 63.6307C392.632 63.4299 392.528 63.1913 392.528 62.9148C392.528 62.6345 392.632 62.3958 392.84 62.1989C393.052 61.9981 393.306 61.8977 393.602 61.8977C393.897 61.8977 394.149 61.9981 394.357 62.1989C394.569 62.3958 394.675 62.6345 394.675 62.9148C394.675 63.1913 394.569 63.4299 394.357 63.6307C394.149 63.8277 393.897 63.9261 393.602 63.9261ZM400.404 74.1761C399.586 74.1761 398.872 73.9886 398.262 73.6136C397.652 73.2386 397.179 72.714 396.842 72.0398C396.504 71.3655 396.336 70.5777 396.336 69.6761C396.336 68.7708 396.504 67.9792 396.842 67.3011C397.179 66.6231 397.652 66.0966 398.262 65.7216C398.872 65.3466 399.586 65.1591 400.404 65.1591C401.222 65.1591 401.936 65.3466 402.546 65.7216C403.156 66.0966 403.629 66.6231 403.967 67.3011C404.304 67.9792 404.472 68.7708 404.472 69.6761C404.472 70.5777 404.304 71.3655 403.967 72.0398C403.629 72.714 403.156 73.2386 402.546 73.6136C401.936 73.9886 401.222 74.1761 400.404 74.1761ZM400.41 72.75C400.94 72.75 401.379 72.6098 401.728 72.3295C402.076 72.0492 402.334 71.6761 402.501 71.2102C402.671 70.7443 402.756 70.2311 402.756 69.6705C402.756 69.1136 402.671 68.6023 402.501 68.1364C402.334 67.6667 402.076 67.2898 401.728 67.0057C401.379 66.7216 400.94 66.5795 400.41 66.5795C399.876 66.5795 399.433 66.7216 399.08 67.0057C398.732 67.2898 398.472 67.6667 398.302 68.1364C398.135 68.6023 398.052 69.1136 398.052 69.6705C398.052 70.2311 398.135 70.7443 398.302 71.2102C398.472 71.6761 398.732 72.0492 399.08 72.3295C399.433 72.6098 399.876 72.75 400.41 72.75ZM408.067 68.8182V74H406.369V65.2727H407.999V66.6932H408.107C408.308 66.2311 408.622 65.8598 409.05 65.5795C409.482 65.2992 410.026 65.1591 410.681 65.1591C411.276 65.1591 411.797 65.2841 412.244 65.5341C412.691 65.7803 413.037 66.1477 413.283 66.6364C413.53 67.125 413.653 67.7292 413.653 68.4489V74H411.954V68.6534C411.954 68.0208 411.789 67.5265 411.46 67.1705C411.13 66.8106 410.677 66.6307 410.102 66.6307C409.708 66.6307 409.357 66.7159 409.05 66.8864C408.747 67.0568 408.507 67.3068 408.329 67.6364C408.155 67.9621 408.067 68.3561 408.067 68.8182ZM424.319 65.2727V66.6364H419.387V65.2727H424.319ZM420.739 74V64.2614C420.739 63.7159 420.859 63.2633 421.097 62.9034C421.336 62.5398 421.652 62.2689 422.046 62.0909C422.44 61.9091 422.868 61.8182 423.33 61.8182C423.671 61.8182 423.963 61.8466 424.205 61.9034C424.448 61.9564 424.628 62.0057 424.745 62.0511L424.347 63.4261C424.268 63.4034 424.165 63.3769 424.04 63.3466C423.915 63.3125 423.764 63.2955 423.586 63.2955C423.173 63.2955 422.878 63.3977 422.7 63.6023C422.525 63.8068 422.438 64.1023 422.438 64.4886V74H420.739ZM429.489 74.1761C428.629 74.1761 427.889 73.9924 427.268 73.625C426.65 73.2538 426.173 72.733 425.836 72.0625C425.503 71.3883 425.336 70.5985 425.336 69.6932C425.336 68.7992 425.503 68.0114 425.836 67.3295C426.173 66.6477 426.643 66.1155 427.245 65.733C427.851 65.3504 428.559 65.1591 429.37 65.1591C429.862 65.1591 430.34 65.2405 430.802 65.4034C431.264 65.5663 431.679 65.822 432.046 66.1705C432.414 66.5189 432.703 66.9716 432.915 67.5284C433.128 68.0814 433.234 68.7538 433.234 69.5455V70.1477H426.296V68.875H431.569C431.569 68.428 431.478 68.0322 431.296 67.6875C431.114 67.339 430.859 67.0644 430.529 66.8636C430.203 66.6629 429.821 66.5625 429.381 66.5625C428.904 66.5625 428.487 66.6799 428.131 66.9148C427.779 67.1458 427.506 67.4489 427.313 67.8239C427.124 68.1951 427.029 68.5985 427.029 69.0341V70.0284C427.029 70.6117 427.131 71.108 427.336 71.517C427.544 71.9261 427.834 72.2386 428.205 72.4545C428.576 72.6667 429.01 72.7727 429.506 72.7727C429.828 72.7727 430.122 72.7273 430.387 72.6364C430.652 72.5417 430.881 72.4015 431.075 72.2159C431.268 72.0303 431.415 71.8011 431.518 71.5284L433.126 71.8182C432.997 72.2917 432.766 72.7064 432.433 73.0625C432.103 73.4148 431.688 73.6894 431.188 73.8864C430.692 74.0795 430.126 74.1761 429.489 74.1761ZM438.88 74.1761C438.02 74.1761 437.28 73.9924 436.658 73.625C436.041 73.2538 435.564 72.733 435.227 72.0625C434.893 71.3883 434.727 70.5985 434.727 69.6932C434.727 68.7992 434.893 68.0114 435.227 67.3295C435.564 66.6477 436.033 66.1155 436.636 65.733C437.242 65.3504 437.95 65.1591 438.761 65.1591C439.253 65.1591 439.73 65.2405 440.192 65.4034C440.655 65.5663 441.069 65.822 441.437 66.1705C441.804 66.5189 442.094 66.9716 442.306 67.5284C442.518 68.0814 442.624 68.7538 442.624 69.5455V70.1477H435.687V68.875H440.96C440.96 68.428 440.869 68.0322 440.687 67.6875C440.505 67.339 440.249 67.0644 439.92 66.8636C439.594 66.6629 439.211 66.5625 438.772 66.5625C438.295 66.5625 437.878 66.6799 437.522 66.9148C437.17 67.1458 436.897 67.4489 436.704 67.8239C436.514 68.1951 436.42 68.5985 436.42 69.0341V70.0284C436.42 70.6117 436.522 71.108 436.727 71.517C436.935 71.9261 437.225 72.2386 437.596 72.4545C437.967 72.6667 438.401 72.7727 438.897 72.7727C439.219 72.7727 439.513 72.7273 439.778 72.6364C440.043 72.5417 440.272 72.4015 440.465 72.2159C440.658 72.0303 440.806 71.8011 440.908 71.5284L442.516 71.8182C442.388 72.2917 442.156 72.7064 441.823 73.0625C441.494 73.4148 441.079 73.6894 440.579 73.8864C440.083 74.0795 439.516 74.1761 438.88 74.1761Z" fill="#C7D2FE"/>
<path d="M256 18V24M256 24V30M256 24H262M256 24L250 24" stroke="#A5B4FC" stroke-width="2" stroke-linecap="round" stroke-linejoin="round"/>
<path d="M256 18V24M256 24V30M256 24H262M256 24L250 24" stroke="#A5B4FC" stroke-width="2" stroke-linecap="round" stroke-linejoin="round"/>
</svg>
