<svg width="41" height="40" viewBox="0 0 41 40" fill="none" xmlns="http://www.w3.org/2000/svg">
<path fill-rule="evenodd" clip-rule="evenodd" d="M20.9659 10C15.4429 10 10.9659 14.484 10.9659 20.017C10.9659 24.442 13.8309 28.197 17.8049 29.521C18.3049 29.613 18.4869 29.304 18.4869 29.038C18.4869 28.801 18.4789 28.17 18.4739 27.335C15.6919 27.94 15.1049 25.992 15.1049 25.992C14.6509 24.834 13.9949 24.526 13.9949 24.526C13.0869 23.906 14.0639 23.918 14.0639 23.918C15.0669 23.988 15.5949 24.95 15.5949 24.95C16.4869 26.48 17.9359 26.038 18.5049 25.782C18.5969 25.135 18.8549 24.694 19.1409 24.444C16.9209 24.191 14.5859 23.331 14.5859 19.493C14.5859 18.4 14.9759 17.505 15.6149 16.805C15.5119 16.552 15.1689 15.533 15.7129 14.155C15.7129 14.155 16.5529 13.885 18.4629 15.181C19.2787 14.9585 20.1204 14.8452 20.9659 14.844C21.8159 14.848 22.6709 14.959 23.4699 15.181C25.3789 13.885 26.2169 14.154 26.2169 14.154C26.7629 15.533 26.4189 16.552 26.3169 16.805C26.9569 17.505 27.3449 18.4 27.3449 19.493C27.3449 23.341 25.0059 24.188 22.7789 24.436C23.1379 24.745 23.4569 25.356 23.4569 26.291C23.4569 27.629 23.4449 28.71 23.4449 29.038C23.4449 29.306 23.6249 29.618 24.1329 29.52C26.1242 28.8521 27.8553 27.5753 29.0814 25.87C30.3076 24.1648 30.9668 22.1173 30.9659 20.017C30.9659 14.484 26.4879 10 20.9659 10Z" fill="#9CA3AF"/>
<rect x="1.46594" y="0.5" width="39" height="39" rx="5.5" stroke="#D1D5DB"/>
</svg>
