<svg width="511" height="290" viewBox="0 0 511 290" fill="none" xmlns="http://www.w3.org/2000/svg">
<g filter="url(#filter0_dd)">
<path d="M5.5 7C5.5 3.68629 8.18629 1 11.5 1H499.5C502.814 1 505.5 3.68629 505.5 7V59C505.5 62.3137 502.814 65 499.5 65H11.5C8.1863 65 5.5 62.3137 5.5 59V7Z" fill="white"/>
<g clip-path="url(#clip0)">
<path d="M29.5 33C29.5 24.1634 36.6634 17 45.5 17C54.3366 17 61.5 24.1634 61.5 33C61.5 41.8366 54.3366 49 45.5 49C36.6634 49 29.5 41.8366 29.5 33Z" fill="white"/>
<g clip-path="url(#clip1)">
<path d="M29.5 33C29.5 24.1634 36.6634 17 45.5 17C54.3366 17 61.5 24.1634 61.5 33C61.5 41.8366 54.3366 49 45.5 49C36.6634 49 29.5 41.8366 29.5 33Z" fill="#F3F4F6"/>
<path d="M61.5 44.9918V49.0012H29.5V45.0065C31.3613 42.5191 33.7772 40.5003 36.5557 39.1106C39.3342 37.7209 42.3987 36.9986 45.5053 37.0012C52.044 37.0012 57.852 40.1398 61.5 44.9918ZM50.836 28.9998C50.836 30.4143 50.2741 31.7709 49.2739 32.7711C48.2737 33.7713 46.9172 34.3332 45.5027 34.3332C44.0882 34.3332 42.7316 33.7713 41.7314 32.7711C40.7312 31.7709 40.1693 30.4143 40.1693 28.9998C40.1693 27.5853 40.7312 26.2288 41.7314 25.2286C42.7316 24.2284 44.0882 23.6665 45.5027 23.6665C46.9172 23.6665 48.2737 24.2284 49.2739 25.2286C50.2741 26.2288 50.836 27.5853 50.836 28.9998Z" fill="#D1D5DB"/>
</g>
</g>
<path d="M45.5 47C37.768 47 31.5 40.732 31.5 33H27.5C27.5 42.9411 35.5589 51 45.5 51V47ZM59.5 33C59.5 40.732 53.232 47 45.5 47V51C55.4411 51 63.5 42.9411 63.5 33H59.5ZM45.5 19C53.232 19 59.5 25.268 59.5 33H63.5C63.5 23.0589 55.4411 15 45.5 15V19ZM45.5 15C35.5589 15 27.5 23.0589 27.5 33H31.5C31.5 25.268 37.768 19 45.5 19V15Z" fill="#E5E7EB"/>
<path d="M86.5043 28H88.3487V24.2713H90.228L92.2266 28H94.2848L92.0824 23.9631C93.2805 23.4808 93.9119 22.4567 93.9119 21.0746C93.9119 19.1307 92.6591 17.8182 90.3224 17.8182H86.5043V28ZM88.3487 22.7401V19.3594H90.0391C91.4162 19.3594 92.0327 19.9908 92.0327 21.0746C92.0327 22.1584 91.4162 22.7401 90.049 22.7401H88.3487ZM98.7518 28.1491C100.989 28.1491 102.411 26.5732 102.411 24.2116C102.411 21.8452 100.989 20.2642 98.7518 20.2642C96.5146 20.2642 95.0927 21.8452 95.0927 24.2116C95.0927 26.5732 96.5146 28.1491 98.7518 28.1491ZM98.7617 26.7074C97.5238 26.7074 96.9173 25.6037 96.9173 24.2067C96.9173 22.8097 97.5238 21.6911 98.7617 21.6911C99.9798 21.6911 100.586 22.8097 100.586 24.2067C100.586 25.6037 99.9798 26.7074 98.7617 26.7074ZM107.269 28.1491C109.188 28.1491 110.411 27.0107 110.541 25.3899H108.82C108.666 26.2102 108.075 26.6825 107.284 26.6825C106.161 26.6825 105.435 25.7429 105.435 24.1818C105.435 22.6406 106.176 21.7159 107.284 21.7159C108.149 21.7159 108.681 22.2727 108.82 23.0085H110.541C110.416 21.353 109.124 20.2642 107.259 20.2642C105.022 20.2642 103.61 21.88 103.61 24.2116C103.61 26.5234 104.987 28.1491 107.269 28.1491ZM112.018 28H113.818V25.4347L114.474 24.7337L116.811 28H118.964L115.832 23.6598L118.79 20.3636H116.687L113.942 23.4311H113.818V17.8182H112.018V28ZM121.19 30.8636C122.592 30.8636 123.402 30.1428 123.835 28.9247L126.902 20.3736L124.978 20.3636L123.213 26.1307H123.134L121.374 20.3636H119.465L122.234 28.1591L122.08 28.5717C121.747 29.4418 121.22 29.5014 120.434 29.2727L120.017 30.6747C120.26 30.7741 120.698 30.8636 121.19 30.8636ZM131.703 28H133.548V24.5597H135.497C137.848 24.5597 139.111 23.1477 139.111 21.1889C139.111 19.245 137.863 17.8182 135.522 17.8182H131.703V28ZM133.548 23.0433V19.3594H135.238C136.62 19.3594 137.232 20.1051 137.232 21.1889C137.232 22.2727 136.62 23.0433 135.248 23.0433H133.548ZM143.855 28.1491C146.093 28.1491 147.514 26.5732 147.514 24.2116C147.514 21.8452 146.093 20.2642 143.855 20.2642C141.618 20.2642 140.196 21.8452 140.196 24.2116C140.196 26.5732 141.618 28.1491 143.855 28.1491ZM143.865 26.7074C142.627 26.7074 142.021 25.6037 142.021 24.2067C142.021 22.8097 142.627 21.6911 143.865 21.6911C145.083 21.6911 145.69 22.8097 145.69 24.2067C145.69 25.6037 145.083 26.7074 143.865 26.7074ZM149.042 28H150.842V20.3636H149.042V28ZM149.947 19.2798C150.518 19.2798 150.986 18.8423 150.986 18.3054C150.986 17.7635 150.518 17.326 149.947 17.326C149.37 17.326 148.903 17.7635 148.903 18.3054C148.903 18.8423 149.37 19.2798 149.947 19.2798ZM154.492 23.5256C154.492 22.4219 155.158 21.7855 156.108 21.7855C157.037 21.7855 157.594 22.397 157.594 23.4162V28H159.394V23.1378C159.399 21.3082 158.355 20.2642 156.779 20.2642C155.635 20.2642 154.85 20.8111 154.502 21.6612H154.412V20.3636H152.692V28H154.492V23.5256ZM165.037 20.3636H163.53V18.5341H161.731V20.3636H160.647V21.7557H161.731V26.0014C161.721 27.4382 162.765 28.1442 164.117 28.1044C164.629 28.0895 164.982 27.9901 165.176 27.9254L164.873 26.5185C164.773 26.5433 164.569 26.5881 164.346 26.5881C163.893 26.5881 163.53 26.429 163.53 25.7031V21.7557H165.037V20.3636ZM176.05 22.3821C175.801 21.0895 174.767 20.2642 172.978 20.2642C171.138 20.2642 169.885 21.169 169.89 22.581C169.885 23.6946 170.571 24.4304 172.038 24.7337L173.341 25.0071C174.042 25.1612 174.37 25.4446 174.37 25.8771C174.37 26.3991 173.803 26.7919 172.948 26.7919C172.123 26.7919 171.586 26.4339 171.431 25.7479L169.676 25.9169C169.9 27.3189 171.078 28.1491 172.953 28.1491C174.862 28.1491 176.209 27.1598 176.214 25.7131C176.209 24.6243 175.508 23.9581 174.066 23.6449L172.764 23.3665C171.988 23.1925 171.68 22.924 171.685 22.4815C171.68 21.9645 172.252 21.6065 173.002 21.6065C173.833 21.6065 174.27 22.0589 174.409 22.5611L176.05 22.3821ZM179.896 28.1541C181.094 28.1541 181.81 27.5923 182.138 26.951H182.197V28H183.928V22.8892C183.928 20.8707 182.282 20.2642 180.825 20.2642C179.219 20.2642 177.987 20.9801 177.589 22.3722L179.269 22.6108C179.448 22.0888 179.955 21.6413 180.835 21.6413C181.67 21.6413 182.128 22.0689 182.128 22.8196V22.8494C182.128 23.3665 181.586 23.3913 180.239 23.5355C178.757 23.6946 177.34 24.1371 177.34 25.8572C177.34 27.3587 178.439 28.1541 179.896 28.1541ZM180.363 26.8317C179.612 26.8317 179.075 26.4886 179.075 25.8274C179.075 25.1364 179.677 24.848 180.482 24.7337C180.955 24.669 181.899 24.5497 182.133 24.3608V25.2607C182.133 26.1108 181.447 26.8317 180.363 26.8317ZM187.537 17.8182H185.737V28H187.537V17.8182ZM192.768 28.1491C194.548 28.1491 195.771 27.2791 196.089 25.9517L194.409 25.7628C194.165 26.4091 193.569 26.7472 192.793 26.7472C191.63 26.7472 190.859 25.9815 190.844 24.674H196.164V24.1222C196.164 21.4425 194.553 20.2642 192.674 20.2642C190.486 20.2642 189.059 21.87 189.059 24.2266C189.059 26.6229 190.466 28.1491 192.768 28.1491ZM190.849 23.4609C190.904 22.4865 191.625 21.6662 192.699 21.6662C193.733 21.6662 194.429 22.4219 194.439 23.4609H190.849Z" fill="#111827"/>
<path d="M89.4716 40.2727H88.4148L86.233 41.7216V42.7955L88.3636 41.3807H88.4148V49H89.4716V40.2727ZM95.0497 40.2727H93.9929L91.8111 41.7216V42.7955L93.9418 41.3807H93.9929V49H95.0497V40.2727ZM105.588 43.9205C105.273 42.9915 104.565 42.3693 103.27 42.3693C101.889 42.3693 100.866 43.1534 100.866 44.2614C100.866 45.1648 101.403 45.7699 102.605 46.0511L103.696 46.3068C104.357 46.4602 104.668 46.7756 104.668 47.2273C104.668 47.7898 104.071 48.25 103.134 48.25C102.311 48.25 101.795 47.8963 101.616 47.1932L100.662 47.4318C100.896 48.544 101.812 49.1364 103.151 49.1364C104.672 49.1364 105.707 48.3054 105.707 47.1761C105.707 46.2642 105.136 45.6889 103.969 45.4034L102.997 45.1648C102.222 44.973 101.872 44.7131 101.872 44.2102C101.872 43.6477 102.469 43.2386 103.27 43.2386C104.148 43.2386 104.51 43.7244 104.685 44.1761L105.588 43.9205ZM108.227 45.0625C108.227 43.9205 108.956 43.2727 109.949 43.2727C110.895 43.2727 111.466 43.8693 111.466 44.9091V49H112.471V44.8409C112.471 43.1577 111.576 42.3693 110.238 42.3693C109.207 42.3693 108.619 42.7997 108.312 43.4773H108.227V40.2727H107.221V49H108.227V45.0625ZM116.237 49.1534C117.379 49.1534 117.976 48.5398 118.18 48.1136H118.232V49H119.237V44.6875C119.237 42.608 117.652 42.3693 116.817 42.3693C115.828 42.3693 114.703 42.7102 114.192 43.9034L115.146 44.2443C115.368 43.767 115.892 43.2557 116.851 43.2557C117.776 43.2557 118.232 43.7457 118.232 44.5852V44.6193C118.232 45.1051 117.737 45.0625 116.544 45.2159C115.33 45.3736 114.004 45.642 114.004 47.142C114.004 48.4205 114.993 49.1534 116.237 49.1534ZM116.391 48.25C115.589 48.25 115.01 47.892 115.01 47.1932C115.01 46.4261 115.709 46.1875 116.493 46.0852C116.919 46.0341 118.061 45.9148 118.232 45.7102V46.6307C118.232 47.4489 117.584 48.25 116.391 48.25ZM121.073 49H122.078V44.858C122.078 43.9716 122.777 43.3239 123.732 43.3239C124 43.3239 124.277 43.375 124.346 43.392V42.3693C124.23 42.3608 123.966 42.3523 123.817 42.3523C123.033 42.3523 122.351 42.7955 122.113 43.4432H122.044V42.4545H121.073V49ZM128.083 49.1364C129.412 49.1364 130.384 48.4716 130.691 47.483L129.719 47.2102C129.463 47.892 128.871 48.233 128.083 48.233C126.902 48.233 126.088 47.4702 126.042 46.0682H130.793V45.642C130.793 43.2045 129.344 42.3693 127.98 42.3693C126.208 42.3693 125.032 43.767 125.032 45.7784C125.032 47.7898 126.191 49.1364 128.083 49.1364ZM126.042 45.1989C126.11 44.1804 126.83 43.2727 127.98 43.2727C129.071 43.2727 129.77 44.0909 129.77 45.1989H126.042ZM136.959 43.9205C136.644 42.9915 135.936 42.3693 134.641 42.3693C133.26 42.3693 132.238 43.1534 132.238 44.2614C132.238 45.1648 132.775 45.7699 133.976 46.0511L135.067 46.3068C135.728 46.4602 136.039 46.7756 136.039 47.2273C136.039 47.7898 135.442 48.25 134.505 48.25C133.682 48.25 133.167 47.8963 132.988 47.1932L132.033 47.4318C132.267 48.544 133.184 49.1364 134.522 49.1364C136.043 49.1364 137.078 48.3054 137.078 47.1761C137.078 46.2642 136.507 45.6889 135.34 45.4034L134.368 45.1648C133.593 44.973 133.243 44.7131 133.243 44.2102C133.243 43.6477 133.84 43.2386 134.641 43.2386C135.519 43.2386 135.881 43.7244 136.056 44.1761L136.959 43.9205ZM143.893 49.1534C145.036 49.1534 145.632 48.5398 145.837 48.1136H145.888V49H146.893V44.6875C146.893 42.608 145.308 42.3693 144.473 42.3693C143.484 42.3693 142.359 42.7102 141.848 43.9034L142.803 44.2443C143.024 43.767 143.548 43.2557 144.507 43.2557C145.432 43.2557 145.888 43.7457 145.888 44.5852V44.6193C145.888 45.1051 145.393 45.0625 144.2 45.2159C142.986 45.3736 141.661 45.642 141.661 47.142C141.661 48.4205 142.649 49.1534 143.893 49.1534ZM144.047 48.25C143.246 48.25 142.666 47.892 142.666 47.1932C142.666 46.4261 143.365 46.1875 144.149 46.0852C144.575 46.0341 145.717 45.9148 145.888 45.7102V46.6307C145.888 47.4489 145.24 48.25 144.047 48.25ZM151.576 42.4545H150.178V40.8864H149.172V42.4545H148.184V43.3068H149.172V47.3977C149.172 48.5398 150.093 49.0852 150.945 49.0852C151.32 49.0852 151.559 49.017 151.695 48.9659L151.49 48.0625C151.405 48.0795 151.269 48.1136 151.047 48.1136C150.604 48.1136 150.178 47.9773 150.178 47.125V43.3068H151.576V42.4545ZM156.446 49H161.952V48.0625H157.895V47.9943L159.855 45.8977C161.355 44.2912 161.799 43.5412 161.799 42.5739C161.799 41.2273 160.708 40.1534 159.174 40.1534C157.644 40.1534 156.48 41.1932 156.48 42.7273H157.486C157.486 41.7344 158.13 41.0739 159.14 41.0739C160.086 41.0739 160.81 41.6534 160.81 42.5739C160.81 43.3793 160.337 43.9759 159.327 45.0795L156.446 48.233V49Z" fill="#6B7280"/>
<path fill-rule="evenodd" clip-rule="evenodd" d="M177.5 45C177.5 48.3137 174.814 51 171.5 51C168.186 51 165.5 48.3137 165.5 45C165.5 41.6863 168.186 39 171.5 39C174.814 39 177.5 41.6863 177.5 45ZM171.167 40.6903L167.275 47.5314C167.136 47.7746 167.312 48.0765 167.592 48.0765H170.03C170.16 48.0765 170.281 48.0064 170.346 47.8929L173.032 43.199C173.096 43.0866 173.096 42.9487 173.031 42.8364L171.8 40.6892C171.66 40.4443 171.306 40.445 171.167 40.6903ZM172.566 48.0941H175.408C175.697 48.0941 175.879 47.7809 175.734 47.5299L174.319 45.0706C174.175 44.8195 173.813 44.8188 173.667 45.0694L172.24 47.5287C172.094 47.7797 172.275 48.0941 172.566 48.0941Z" fill="#6B7280"/>
<path d="M390.5 25C390.5 22.7909 392.291 21 394.5 21H477.5C479.709 21 481.5 22.7909 481.5 25V41C481.5 43.2091 479.709 45 477.5 45H394.5C392.291 45 390.5 43.2091 390.5 41V25Z" fill="#D1FAE5"/>
<circle cx="402.5" cy="33" r="3" fill="#34D399"/>
<path d="M419.446 30.4929H420.928C420.883 28.8622 419.441 27.679 417.373 27.679C415.33 27.679 413.764 28.8473 413.764 30.6023C413.764 32.0192 414.778 32.8494 416.414 33.2919L417.617 33.62C418.706 33.9084 419.546 34.2663 419.546 35.1712C419.546 36.1655 418.596 36.8217 417.289 36.8217C416.105 36.8217 415.121 36.2947 415.032 35.1861H413.49C413.59 37.0305 415.017 38.169 417.299 38.169C419.69 38.169 421.067 36.9112 421.067 35.1861C421.067 33.3516 419.431 32.6406 418.139 32.3224L417.144 32.0639C416.349 31.8601 415.29 31.4872 415.295 30.5128C415.295 29.6477 416.085 29.0064 417.338 29.0064C418.507 29.0064 419.337 29.5533 419.446 30.4929ZM427.621 34.8331C427.626 36.1307 426.661 36.7472 425.826 36.7472C424.906 36.7472 424.27 36.081 424.27 35.0419V30.3636H422.783V35.2209C422.783 37.1151 423.823 38.0994 425.289 38.0994C426.438 38.0994 427.218 37.4929 427.571 36.6776H427.651V38H429.112V30.3636H427.621V34.8331ZM434.326 38.1541C436.131 38.1541 437.299 37.0703 437.463 35.5838H436.017C435.828 36.4091 435.186 36.8963 434.336 36.8963C433.078 36.8963 432.268 35.8473 432.268 34.1818C432.268 32.5462 433.093 31.517 434.336 31.517C435.281 31.517 435.858 32.1136 436.017 32.8295H437.463C437.304 31.2884 436.046 30.2642 434.311 30.2642C432.159 30.2642 430.767 31.8849 430.767 34.2166C430.767 36.5185 432.109 38.1541 434.326 38.1541ZM442.27 38.1541C444.074 38.1541 445.243 37.0703 445.407 35.5838H443.96C443.771 36.4091 443.13 36.8963 442.28 36.8963C441.022 36.8963 440.211 35.8473 440.211 34.1818C440.211 32.5462 441.037 31.517 442.28 31.517C443.224 31.517 443.801 32.1136 443.96 32.8295H445.407C445.248 31.2884 443.99 30.2642 442.255 30.2642C440.102 30.2642 438.71 31.8849 438.71 34.2166C438.71 36.5185 440.052 38.1541 442.27 38.1541ZM450.288 38.1541C451.953 38.1541 453.131 37.3338 453.469 36.0909L452.062 35.8374C451.794 36.5582 451.148 36.9261 450.302 36.9261C449.03 36.9261 448.175 36.1009 448.135 34.6293H453.564V34.1023C453.564 31.343 451.913 30.2642 450.183 30.2642C448.055 30.2642 446.653 31.8849 446.653 34.2315C446.653 36.603 448.035 38.1541 450.288 38.1541ZM448.14 33.5156C448.199 32.4318 448.985 31.4922 450.193 31.4922C451.347 31.4922 452.102 32.3473 452.107 33.5156H448.14ZM460.935 32.228C460.627 31.0398 459.698 30.2642 458.047 30.2642C456.322 30.2642 455.099 31.174 455.099 32.5263C455.099 33.6101 455.755 34.331 457.187 34.6491L458.479 34.9325C459.215 35.0966 459.558 35.4247 459.558 35.902C459.558 36.4936 458.927 36.956 457.953 36.956C457.063 36.956 456.491 36.5732 456.312 35.8224L454.875 36.0412C455.124 37.3935 456.247 38.1541 457.962 38.1541C459.807 38.1541 461.085 37.1747 461.085 35.7926C461.085 34.7138 460.399 34.0476 458.997 33.7244L457.783 33.446C456.943 33.2472 456.58 32.9638 456.585 32.4467C456.58 31.8601 457.217 31.4425 458.062 31.4425C458.987 31.4425 459.414 31.9545 459.588 32.4666L460.935 32.228ZM468.441 32.228C468.133 31.0398 467.203 30.2642 465.553 30.2642C463.828 30.2642 462.605 31.174 462.605 32.5263C462.605 33.6101 463.261 34.331 464.693 34.6491L465.985 34.9325C466.721 35.0966 467.064 35.4247 467.064 35.902C467.064 36.4936 466.433 36.956 465.458 36.956C464.568 36.956 463.997 36.5732 463.818 35.8224L462.381 36.0412C462.63 37.3935 463.753 38.1541 465.468 38.1541C467.313 38.1541 468.59 37.1747 468.59 35.7926C468.59 34.7138 467.904 34.0476 466.502 33.7244L465.289 33.446C464.449 33.2472 464.086 32.9638 464.091 32.4467C464.086 31.8601 464.723 31.4425 465.568 31.4425C466.492 31.4425 466.92 31.9545 467.094 32.4666L468.441 32.228Z" fill="#065F46"/>
<path d="M11.5 2H499.5V0H11.5V2ZM504.5 7V59H506.5V7H504.5ZM499.5 64H11.5V66H499.5V64ZM6.5 59V7H4.5V59H6.5ZM11.5 64C8.73859 64 6.5 61.7614 6.5 59H4.5C4.5 62.866 7.63402 66 11.5 66V64ZM504.5 59C504.5 61.7614 502.261 64 499.5 64V66C503.366 66 506.5 62.866 506.5 59H504.5ZM499.5 2C502.261 2 504.5 4.23858 504.5 7H506.5C506.5 3.134 503.366 0 499.5 0V2ZM11.5 0C7.63401 0 4.5 3.13401 4.5 7H6.5C6.5 4.23858 8.73858 2 11.5 2V0Z" fill="#D1D5DB"/>
</g>
<g filter="url(#filter1_dd)">
<path d="M5.5 79C5.5 75.6863 8.18629 73 11.5 73H499.5C502.814 73 505.5 75.6863 505.5 79V131C505.5 134.314 502.814 137 499.5 137H11.5C8.1863 137 5.5 134.314 5.5 131V79Z" fill="white"/>
<g clip-path="url(#clip2)">
<path d="M29.5 105C29.5 96.1634 36.6634 89 45.5 89C54.3366 89 61.5 96.1634 61.5 105C61.5 113.837 54.3366 121 45.5 121C36.6634 121 29.5 113.837 29.5 105Z" fill="white"/>
<g clip-path="url(#clip3)">
<path d="M29.5 105C29.5 96.1634 36.6634 89 45.5 89C54.3366 89 61.5 96.1634 61.5 105C61.5 113.837 54.3366 121 45.5 121C36.6634 121 29.5 113.837 29.5 105Z" fill="#F3F4F6"/>
<path d="M61.5 116.992V121.001H29.5V117.007C31.3613 114.519 33.7772 112.5 36.5557 111.111C39.3342 109.721 42.3987 108.999 45.5053 109.001C52.044 109.001 57.852 112.14 61.5 116.992ZM50.836 101C50.836 102.414 50.2741 103.771 49.2739 104.771C48.2737 105.771 46.9172 106.333 45.5027 106.333C44.0882 106.333 42.7316 105.771 41.7314 104.771C40.7312 103.771 40.1693 102.414 40.1693 101C40.1693 99.5853 40.7312 98.2288 41.7314 97.2286C42.7316 96.2284 44.0882 95.6665 45.5027 95.6665C46.9172 95.6665 48.2737 96.2284 49.2739 97.2286C50.2741 98.2288 50.836 99.5853 50.836 101Z" fill="#D1D5DB"/>
</g>
</g>
<path d="M45.5 119C37.768 119 31.5 112.732 31.5 105H27.5C27.5 114.941 35.5589 123 45.5 123V119ZM59.5 105C59.5 112.732 53.232 119 45.5 119V123C55.4411 123 63.5 114.941 63.5 105H59.5ZM45.5 91C53.232 91 59.5 97.268 59.5 105H63.5C63.5 95.0589 55.4411 87 45.5 87V91ZM45.5 87C35.5589 87 27.5 95.0589 27.5 105H31.5C31.5 97.268 37.768 91 45.5 91V87Z" fill="#E5E7EB"/>
<path d="M95.2195 93.2536C94.9062 90.9915 93.1662 89.679 90.9091 89.679C88.2493 89.679 86.2457 91.6179 86.2457 94.9091C86.2457 98.1953 88.2244 100.139 90.9091 100.139C93.3303 100.139 94.9361 98.5732 95.2195 96.6293L93.3601 96.6193C93.1264 97.8125 92.152 98.4837 90.9339 98.4837C89.2834 98.4837 88.1001 97.2457 88.1001 94.9091C88.1001 92.6122 89.2734 91.3345 90.9389 91.3345C92.1768 91.3345 93.1463 92.0355 93.3601 93.2536H95.2195ZM96.829 100H98.6287V95.5107C98.6287 94.5412 99.3596 93.8551 100.349 93.8551C100.652 93.8551 101.03 93.9098 101.184 93.9595V92.304C101.02 92.2741 100.737 92.2543 100.538 92.2543C99.6628 92.2543 98.932 92.7514 98.6536 93.6364H98.574V92.3636H96.829V100ZM103.731 102.864C105.133 102.864 105.943 102.143 106.376 100.925L109.443 92.3736L107.519 92.3636L105.754 98.1307H105.675L103.915 92.3636H102.006L104.775 100.159L104.621 100.572C104.288 101.442 103.761 101.501 102.975 101.273L102.558 102.675C102.801 102.774 103.239 102.864 103.731 102.864ZM116.728 94.3821C116.479 93.0895 115.445 92.2642 113.655 92.2642C111.816 92.2642 110.563 93.169 110.568 94.581C110.563 95.6946 111.249 96.4304 112.716 96.7337L114.018 97.0071C114.719 97.1612 115.047 97.4446 115.047 97.8771C115.047 98.3991 114.481 98.7919 113.626 98.7919C112.8 98.7919 112.263 98.4339 112.109 97.7479L110.354 97.9169C110.578 99.3189 111.756 100.149 113.631 100.149C115.54 100.149 116.887 99.1598 116.892 97.7131C116.887 96.6243 116.186 95.9581 114.744 95.6449L113.442 95.3665C112.666 95.1925 112.358 94.924 112.363 94.4815C112.358 93.9645 112.93 93.6065 113.68 93.6065C114.51 93.6065 114.948 94.0589 115.087 94.5611L116.728 94.3821ZM122.189 92.3636H120.683V90.5341H118.883V92.3636H117.799V93.7557H118.883V98.0014C118.873 99.4382 119.917 100.144 121.269 100.104C121.781 100.089 122.134 99.9901 122.328 99.9254L122.025 98.5185C121.926 98.5433 121.722 98.5881 121.498 98.5881C121.046 98.5881 120.683 98.429 120.683 97.7031V93.7557H122.189V92.3636ZM125.892 100.154C127.09 100.154 127.806 99.5923 128.134 98.951H128.194V100H129.924V94.8892C129.924 92.8707 128.278 92.2642 126.821 92.2642C125.216 92.2642 123.983 92.9801 123.585 94.3722L125.265 94.6108C125.444 94.0888 125.951 93.6413 126.831 93.6413C127.667 93.6413 128.124 94.0689 128.124 94.8196V94.8494C128.124 95.3665 127.582 95.3913 126.235 95.5355C124.753 95.6946 123.336 96.1371 123.336 97.8572C123.336 99.3587 124.435 100.154 125.892 100.154ZM126.359 98.8317C125.608 98.8317 125.071 98.4886 125.071 97.8274C125.071 97.1364 125.673 96.848 126.478 96.7337C126.951 96.669 127.895 96.5497 128.129 96.3608V97.2607C128.129 98.1108 127.443 98.8317 126.359 98.8317ZM133.533 89.8182H131.733V100H133.533V89.8182ZM147.651 93.2536C147.338 90.9915 145.598 89.679 143.341 89.679C140.681 89.679 138.677 91.6179 138.677 94.9091C138.677 98.1953 140.656 100.139 143.341 100.139C145.762 100.139 147.368 98.5732 147.651 96.6293L145.792 96.6193C145.558 97.8125 144.584 98.4837 143.366 98.4837C141.715 98.4837 140.532 97.2457 140.532 94.9091C140.532 92.6122 141.705 91.3345 143.371 91.3345C144.608 91.3345 145.578 92.0355 145.792 93.2536H147.651ZM152.592 100.149C154.829 100.149 156.251 98.5732 156.251 96.2116C156.251 93.8452 154.829 92.2642 152.592 92.2642C150.354 92.2642 148.933 93.8452 148.933 96.2116C148.933 98.5732 150.354 100.149 152.592 100.149ZM152.602 98.7074C151.364 98.7074 150.757 97.6037 150.757 96.2067C150.757 94.8097 151.364 93.6911 152.602 93.6911C153.82 93.6911 154.426 94.8097 154.426 96.2067C154.426 97.6037 153.82 98.7074 152.602 98.7074ZM164.339 92.3636H162.425L160.665 98.0362H160.586L158.831 92.3636H156.912L159.631 100H161.62L164.339 92.3636ZM168.706 100.149C170.486 100.149 171.709 99.2791 172.027 97.9517L170.346 97.7628C170.103 98.4091 169.506 98.7472 168.731 98.7472C167.567 98.7472 166.797 97.9815 166.782 96.674H172.101V96.1222C172.101 93.4425 170.491 92.2642 168.611 92.2642C166.424 92.2642 164.997 93.87 164.997 96.2266C164.997 98.6229 166.404 100.149 168.706 100.149ZM166.787 95.4609C166.841 94.4865 167.562 93.6662 168.636 93.6662C169.67 93.6662 170.366 94.4219 170.376 95.4609H166.787ZM173.624 100H175.424V95.5107C175.424 94.5412 176.154 93.8551 177.144 93.8551C177.447 93.8551 177.825 93.9098 177.979 93.9595V92.304C177.815 92.2741 177.532 92.2543 177.333 92.2543C176.458 92.2543 175.727 92.7514 175.449 93.6364H175.369V92.3636H173.624V100ZM185.978 100.149C188.216 100.149 189.637 98.5732 189.637 96.2116C189.637 93.8452 188.216 92.2642 185.978 92.2642C183.741 92.2642 182.319 93.8452 182.319 96.2116C182.319 98.5732 183.741 100.149 185.978 100.149ZM185.988 98.7074C184.75 98.7074 184.144 97.6037 184.144 96.2067C184.144 94.8097 184.75 93.6911 185.988 93.6911C187.206 93.6911 187.813 94.8097 187.813 96.2067C187.813 97.6037 187.206 98.7074 185.988 98.7074ZM195.033 92.3636H193.447V91.7621C193.447 91.1655 193.695 90.8324 194.367 90.8324C194.65 90.8324 194.889 90.897 195.038 90.9418L195.401 89.5497C195.167 89.4702 194.655 89.3409 194.034 89.3409C192.706 89.3409 191.647 90.1016 191.647 91.6428V92.3636H190.519V93.7557H191.647V100H193.447V93.7557H195.033V92.3636ZM200.31 92.3636H198.724V91.7621C198.724 91.1655 198.973 90.8324 199.644 90.8324C199.927 90.8324 200.166 90.897 200.315 90.9418L200.678 89.5497C200.444 89.4702 199.932 89.3409 199.311 89.3409C197.983 89.3409 196.925 90.1016 196.925 91.6428V92.3636H195.796V93.7557H196.925V100H198.724V93.7557H200.31V92.3636ZM204.813 100.149C206.593 100.149 207.816 99.2791 208.134 97.9517L206.454 97.7628C206.21 98.4091 205.614 98.7472 204.838 98.7472C203.675 98.7472 202.904 97.9815 202.889 96.674H208.209V96.1222C208.209 93.4425 206.598 92.2642 204.719 92.2642C202.531 92.2642 201.104 93.87 201.104 96.2266C201.104 98.6229 202.511 100.149 204.813 100.149ZM202.894 95.4609C202.949 94.4865 203.67 93.6662 204.744 93.6662C205.778 93.6662 206.474 94.4219 206.484 95.4609H202.894ZM209.731 100H211.531V95.5107C211.531 94.5412 212.262 93.8551 213.251 93.8551C213.555 93.8551 213.932 93.9098 214.086 93.9595V92.304C213.922 92.2741 213.639 92.2543 213.44 92.2543C212.565 92.2543 211.834 92.7514 211.556 93.6364H211.476V92.3636H209.731V100ZM224.79 94.3821C224.542 93.0895 223.508 92.2642 221.718 92.2642C219.878 92.2642 218.626 93.169 218.631 94.581C218.626 95.6946 219.312 96.4304 220.778 96.7337L222.081 97.0071C222.782 97.1612 223.11 97.4446 223.11 97.8771C223.11 98.3991 222.543 98.7919 221.688 98.7919C220.863 98.7919 220.326 98.4339 220.172 97.7479L218.417 97.9169C218.64 99.3189 219.819 100.149 221.693 100.149C223.602 100.149 224.949 99.1598 224.954 97.7131C224.949 96.6243 224.248 95.9581 222.807 95.6449L221.504 95.3665C220.729 95.1925 220.42 94.924 220.425 94.4815C220.42 93.9645 220.992 93.6065 221.743 93.6065C222.573 93.6065 223.01 94.0589 223.15 94.5611L224.79 94.3821ZM231.306 96.7884C231.306 97.9517 230.475 98.5284 229.68 98.5284C228.815 98.5284 228.238 97.9169 228.238 96.9474V92.3636H226.438V97.2259C226.438 99.0604 227.482 100.099 228.984 100.099C230.127 100.099 230.933 99.4979 231.281 98.6428H231.36V100H233.105V92.3636H231.306V96.7884ZM235.036 100H236.805V98.7969H236.91C237.193 99.3537 237.785 100.134 239.097 100.134C240.897 100.134 242.244 98.7074 242.244 96.1918C242.244 93.6463 240.857 92.2642 239.092 92.2642C237.745 92.2642 237.183 93.0746 236.91 93.6264H236.835V89.8182H235.036V100ZM236.8 96.1818C236.8 94.7003 237.437 93.7408 238.595 93.7408C239.793 93.7408 240.41 94.7599 240.41 96.1818C240.41 97.6136 239.783 98.6577 238.595 98.6577C237.447 98.6577 236.8 97.6634 236.8 96.1818ZM243.774 100H245.574V95.3565C245.574 94.4169 246.2 93.7805 246.976 93.7805C247.737 93.7805 248.259 94.2926 248.259 95.0781V100H250.024V95.2372C250.024 94.3771 250.536 93.7805 251.406 93.7805C252.132 93.7805 252.708 94.2081 252.708 95.1527V100H254.513V94.8743C254.513 93.169 253.529 92.2642 252.127 92.2642C251.018 92.2642 250.173 92.8111 249.835 93.6612H249.755C249.462 92.7962 248.721 92.2642 247.692 92.2642C246.668 92.2642 245.902 92.7912 245.584 93.6612H245.494V92.3636H243.774V100ZM256.339 100H258.138V92.3636H256.339V100ZM257.244 91.2798C257.815 91.2798 258.283 90.8423 258.283 90.3054C258.283 89.7635 257.815 89.326 257.244 89.326C256.667 89.326 256.2 89.7635 256.2 90.3054C256.2 90.8423 256.667 91.2798 257.244 91.2798ZM263.802 92.3636H262.296V90.5341H260.496V92.3636H259.412V93.7557H260.496V98.0014C260.486 99.4382 261.53 100.144 262.883 100.104C263.395 100.089 263.748 99.9901 263.942 99.9254L263.638 98.5185C263.539 98.5433 263.335 98.5881 263.111 98.5881C262.659 98.5881 262.296 98.429 262.296 97.7031V93.7557H263.802V92.3636ZM269.121 92.3636H267.614V90.5341H265.815V92.3636H264.731V93.7557H265.815V98.0014C265.805 99.4382 266.849 100.144 268.201 100.104C268.713 100.089 269.066 99.9901 269.26 99.9254L268.957 98.5185C268.857 98.5433 268.653 98.5881 268.43 98.5881C267.977 98.5881 267.614 98.429 267.614 97.7031V93.7557H269.121V92.3636ZM273.925 100.149C275.704 100.149 276.927 99.2791 277.246 97.9517L275.565 97.7628C275.322 98.4091 274.725 98.7472 273.949 98.7472C272.786 98.7472 272.015 97.9815 272.001 96.674H277.32V96.1222C277.32 93.4425 275.709 92.2642 273.83 92.2642C271.643 92.2642 270.216 93.87 270.216 96.2266C270.216 98.6229 271.623 100.149 273.925 100.149ZM272.006 95.4609C272.06 94.4865 272.781 93.6662 273.855 93.6662C274.889 93.6662 275.585 94.4219 275.595 95.4609H272.006ZM281.676 100.134C282.989 100.134 283.581 99.3537 283.864 98.7969H283.973V100H285.743V89.8182H283.939V93.6264H283.864C283.591 93.0746 283.029 92.2642 281.681 92.2642C279.917 92.2642 278.529 93.6463 278.529 96.1918C278.529 98.7074 279.877 100.134 281.676 100.134ZM282.179 98.6577C280.99 98.6577 280.364 97.6136 280.364 96.1818C280.364 94.7599 280.98 93.7408 282.179 93.7408C283.337 93.7408 283.973 94.7003 283.973 96.1818C283.973 97.6634 283.327 98.6577 282.179 98.6577Z" fill="#111827"/>
<path d="M89.4716 112.273H88.4148L86.233 113.722V114.795L88.3636 113.381H88.4148V121H89.4716V112.273ZM100.01 115.92C99.6946 114.991 98.9872 114.369 97.6918 114.369C96.3111 114.369 95.2884 115.153 95.2884 116.261C95.2884 117.165 95.8253 117.77 97.027 118.051L98.1179 118.307C98.7784 118.46 99.0895 118.776 99.0895 119.227C99.0895 119.79 98.4929 120.25 97.5554 120.25C96.733 120.25 96.2173 119.896 96.0384 119.193L95.0838 119.432C95.3182 120.544 96.2344 121.136 97.5724 121.136C99.0938 121.136 100.129 120.305 100.129 119.176C100.129 118.264 99.5582 117.689 98.3906 117.403L97.419 117.165C96.6435 116.973 96.294 116.713 96.294 116.21C96.294 115.648 96.8906 115.239 97.6918 115.239C98.5696 115.239 98.9318 115.724 99.1065 116.176L100.01 115.92ZM102.649 117.062C102.649 115.92 103.377 115.273 104.37 115.273C105.316 115.273 105.887 115.869 105.887 116.909V121H106.893V116.841C106.893 115.158 105.998 114.369 104.66 114.369C103.629 114.369 103.041 114.8 102.734 115.477H102.649V112.273H101.643V121H102.649V117.062ZM110.659 121.153C111.801 121.153 112.398 120.54 112.602 120.114H112.653V121H113.659V116.688C113.659 114.608 112.074 114.369 111.239 114.369C110.25 114.369 109.125 114.71 108.614 115.903L109.568 116.244C109.79 115.767 110.314 115.256 111.273 115.256C112.197 115.256 112.653 115.746 112.653 116.585V116.619C112.653 117.105 112.159 117.062 110.966 117.216C109.751 117.374 108.426 117.642 108.426 119.142C108.426 120.42 109.415 121.153 110.659 121.153ZM110.812 120.25C110.011 120.25 109.432 119.892 109.432 119.193C109.432 118.426 110.131 118.188 110.915 118.085C111.341 118.034 112.483 117.915 112.653 117.71V118.631C112.653 119.449 112.006 120.25 110.812 120.25ZM115.495 121H116.5V116.858C116.5 115.972 117.199 115.324 118.154 115.324C118.422 115.324 118.699 115.375 118.767 115.392V114.369C118.652 114.361 118.388 114.352 118.239 114.352C117.455 114.352 116.773 114.795 116.534 115.443H116.466V114.455H115.495V121ZM122.505 121.136C123.834 121.136 124.806 120.472 125.113 119.483L124.141 119.21C123.885 119.892 123.293 120.233 122.505 120.233C121.324 120.233 120.51 119.47 120.463 118.068H125.215V117.642C125.215 115.205 123.766 114.369 122.402 114.369C120.63 114.369 119.453 115.767 119.453 117.778C119.453 119.79 120.613 121.136 122.505 121.136ZM120.463 117.199C120.532 116.18 121.252 115.273 122.402 115.273C123.493 115.273 124.192 116.091 124.192 117.199H120.463ZM132.046 121.153C133.188 121.153 133.784 120.54 133.989 120.114H134.04V121H135.046V116.688C135.046 114.608 133.461 114.369 132.625 114.369C131.637 114.369 130.512 114.71 130 115.903L130.955 116.244C131.176 115.767 131.701 115.256 132.659 115.256C133.584 115.256 134.04 115.746 134.04 116.585V116.619C134.04 117.105 133.546 117.062 132.353 117.216C131.138 117.374 129.813 117.642 129.813 119.142C129.813 120.42 130.801 121.153 132.046 121.153ZM132.199 120.25C131.398 120.25 130.819 119.892 130.819 119.193C130.819 118.426 131.517 118.188 132.301 118.085C132.728 118.034 133.87 117.915 134.04 117.71V118.631C134.04 119.449 133.392 120.25 132.199 120.25ZM139.728 114.455H138.33V112.886H137.325V114.455H136.336V115.307H137.325V119.398C137.325 120.54 138.245 121.085 139.097 121.085C139.472 121.085 139.711 121.017 139.847 120.966L139.643 120.062C139.558 120.08 139.421 120.114 139.2 120.114C138.756 120.114 138.33 119.977 138.33 119.125V115.307H139.728V114.455ZM147.548 121.119C149.239 121.119 150.496 120.058 150.496 118.631C150.496 117.523 149.84 116.717 148.741 116.534V116.466C149.623 116.197 150.173 115.473 150.173 114.489C150.173 113.253 149.197 112.153 147.582 112.153C146.073 112.153 144.82 113.082 144.769 114.455H145.792C145.83 113.585 146.657 113.074 147.565 113.074C148.528 113.074 149.15 113.658 149.15 114.54C149.15 115.46 148.43 116.057 147.394 116.057H146.695V116.994H147.394C148.719 116.994 149.457 117.668 149.457 118.631C149.457 119.555 148.651 120.182 147.531 120.182C146.521 120.182 145.719 119.662 145.656 118.818H144.582C144.646 120.19 145.856 121.119 147.548 121.119Z" fill="#6B7280"/>
<path fill-rule="evenodd" clip-rule="evenodd" d="M165.5 117C165.5 120.314 162.814 123 159.5 123C156.186 123 153.5 120.314 153.5 117C153.5 113.686 156.186 111 159.5 111C162.814 111 165.5 113.686 165.5 117ZM159.167 112.69L155.275 119.531C155.136 119.775 155.312 120.076 155.592 120.076H158.03C158.16 120.076 158.281 120.006 158.346 119.893L161.032 115.199C161.096 115.087 161.096 114.949 161.031 114.836L159.8 112.689C159.66 112.444 159.306 112.445 159.167 112.69ZM160.566 120.094H163.408C163.697 120.094 163.879 119.781 163.734 119.53L162.319 117.071C162.175 116.819 161.813 116.819 161.667 117.069L160.24 119.529C160.094 119.78 160.275 120.094 160.566 120.094Z" fill="#6B7280"/>
<path d="M380.5 97C380.5 94.7909 382.291 93 384.5 93H477.5C479.709 93 481.5 94.7909 481.5 97V113C481.5 115.209 479.709 117 477.5 117H384.5C382.291 117 380.5 115.209 380.5 113V97Z" fill="#FEF3C7"/>
<circle cx="392.5" cy="105" r="3" fill="#FBBF24"/>
<path d="M404.8 99.8182H403.139L406.803 110H408.578L412.242 99.8182H410.581L407.748 108.111H407.633L404.8 99.8182ZM415.05 110.169C416.312 110.169 417.023 109.528 417.307 108.956H417.366V110H418.818V104.929C418.818 102.707 417.068 102.264 415.855 102.264C414.473 102.264 413.2 102.821 412.703 104.213L414.1 104.531C414.319 103.989 414.876 103.467 415.875 103.467C416.835 103.467 417.327 103.969 417.327 104.835V104.869C417.327 105.411 416.77 105.401 415.398 105.56C413.951 105.729 412.469 106.107 412.469 107.842C412.469 109.344 413.598 110.169 415.05 110.169ZM415.373 108.976C414.533 108.976 413.926 108.598 413.926 107.862C413.926 107.067 414.632 106.783 415.492 106.669C415.974 106.604 417.118 106.475 417.332 106.261V107.246C417.332 108.151 416.611 108.976 415.373 108.976ZM422.285 99.8182H420.798V110H422.285V99.8182ZM424.284 110H425.771V102.364H424.284V110ZM425.035 101.185C425.547 101.185 425.975 100.788 425.975 100.3C425.975 99.8132 425.547 99.4105 425.035 99.4105C424.518 99.4105 424.096 99.8132 424.096 100.3C424.096 100.788 424.518 101.185 425.035 101.185ZM430.629 110.149C432.021 110.149 432.568 109.299 432.837 108.812H432.961V110H434.413V99.8182H432.926V103.602H432.837C432.568 103.129 432.061 102.264 430.639 102.264C428.795 102.264 427.438 103.721 427.438 106.197C427.438 108.668 428.775 110.149 430.629 110.149ZM430.958 108.881C429.63 108.881 428.939 107.713 428.939 106.182C428.939 104.665 429.615 103.527 430.958 103.527C432.255 103.527 432.951 104.586 432.951 106.182C432.951 107.788 432.24 108.881 430.958 108.881ZM438.757 110.169C440.02 110.169 440.73 109.528 441.014 108.956H441.074V110H442.525V104.929C442.525 102.707 440.775 102.264 439.562 102.264C438.18 102.264 436.907 102.821 436.41 104.213L437.807 104.531C438.026 103.989 438.583 103.467 439.582 103.467C440.542 103.467 441.034 103.969 441.034 104.835V104.869C441.034 105.411 440.477 105.401 439.105 105.56C437.658 105.729 436.176 106.107 436.176 107.842C436.176 109.344 437.305 110.169 438.757 110.169ZM439.08 108.976C438.24 108.976 437.633 108.598 437.633 107.862C437.633 107.067 438.339 106.783 439.199 106.669C439.681 106.604 440.825 106.475 441.039 106.261V107.246C441.039 108.151 440.318 108.976 439.08 108.976ZM448.07 102.364H446.504V100.534H445.017V102.364H443.899V103.557H445.017V108.066C445.012 109.453 446.071 110.124 447.244 110.099C447.717 110.094 448.035 110.005 448.209 109.94L447.941 108.712C447.841 108.732 447.657 108.777 447.419 108.777C446.936 108.777 446.504 108.618 446.504 107.758V103.557H448.07V102.364ZM449.714 110H451.201V102.364H449.714V110ZM450.465 101.185C450.977 101.185 451.404 100.788 451.404 100.3C451.404 99.8132 450.977 99.4105 450.465 99.4105C449.948 99.4105 449.525 99.8132 449.525 100.3C449.525 100.788 449.948 101.185 450.465 101.185ZM454.687 105.466C454.687 104.248 455.433 103.552 456.467 103.552C457.476 103.552 458.088 104.213 458.088 105.322V110H459.574V105.143C459.574 103.254 458.535 102.264 456.974 102.264C455.825 102.264 455.075 102.796 454.722 103.607H454.627V102.364H453.2V110H454.687V105.466ZM464.769 113.023C466.713 113.023 468.215 112.133 468.215 110.169V102.364H466.758V103.602H466.649C466.385 103.129 465.858 102.264 464.436 102.264C462.592 102.264 461.235 103.721 461.235 106.152C461.235 108.588 462.622 109.886 464.426 109.886C465.828 109.886 466.37 109.095 466.639 108.608H466.733V110.109C466.733 111.308 465.913 111.825 464.784 111.825C463.546 111.825 463.064 111.203 462.801 110.766L461.523 111.293C461.926 112.227 462.945 113.023 464.769 113.023ZM464.754 108.653C463.427 108.653 462.736 107.634 462.736 106.132C462.736 104.665 463.412 103.527 464.754 103.527C466.052 103.527 466.748 104.586 466.748 106.132C466.748 107.708 466.037 108.653 464.754 108.653Z" fill="#92400E"/>
<path d="M11.5 74H499.5V72H11.5V74ZM504.5 79V131H506.5V79H504.5ZM499.5 136H11.5V138H499.5V136ZM6.5 131V79H4.5V131H6.5ZM11.5 136C8.73859 136 6.5 133.761 6.5 131H4.5C4.5 134.866 7.63402 138 11.5 138V136ZM504.5 131C504.5 133.761 502.261 136 499.5 136V138C503.366 138 506.5 134.866 506.5 131H504.5ZM499.5 74C502.261 74 504.5 76.2386 504.5 79H506.5C506.5 75.134 503.366 72 499.5 72V74ZM11.5 72C7.63401 72 4.5 75.134 4.5 79H6.5C6.5 76.2386 8.73858 74 11.5 74V72Z" fill="#D1D5DB"/>
</g>
<g filter="url(#filter2_dd)">
<path d="M5.5 151C5.5 147.686 8.18629 145 11.5 145H499.5C502.814 145 505.5 147.686 505.5 151V203C505.5 206.314 502.814 209 499.5 209H11.5C8.1863 209 5.5 206.314 5.5 203V151Z" fill="white"/>
<g clip-path="url(#clip4)">
<path d="M29.5 177C29.5 168.163 36.6634 161 45.5 161C54.3366 161 61.5 168.163 61.5 177C61.5 185.837 54.3366 193 45.5 193C36.6634 193 29.5 185.837 29.5 177Z" fill="white"/>
<g clip-path="url(#clip5)">
<path d="M29.5 177C29.5 168.163 36.6634 161 45.5 161C54.3366 161 61.5 168.163 61.5 177C61.5 185.837 54.3366 193 45.5 193C36.6634 193 29.5 185.837 29.5 177Z" fill="#F3F4F6"/>
<path d="M61.5 188.992V193.001H29.5V189.007C31.3613 186.519 33.7772 184.5 36.5557 183.111C39.3342 181.721 42.3987 180.999 45.5053 181.001C52.044 181.001 57.852 184.14 61.5 188.992ZM50.836 173C50.836 174.414 50.2741 175.771 49.2739 176.771C48.2737 177.771 46.9172 178.333 45.5027 178.333C44.0882 178.333 42.7316 177.771 41.7314 176.771C40.7312 175.771 40.1693 174.414 40.1693 173C40.1693 171.585 40.7312 170.229 41.7314 169.229C42.7316 168.228 44.0882 167.667 45.5027 167.667C46.9172 167.667 48.2737 168.228 49.2739 169.229C50.2741 170.229 50.836 171.585 50.836 173Z" fill="#D1D5DB"/>
</g>
</g>
<path d="M45.5 191C37.768 191 31.5 184.732 31.5 177H27.5C27.5 186.941 35.5589 195 45.5 195V191ZM59.5 177C59.5 184.732 53.232 191 45.5 191V195C55.4411 195 63.5 186.941 63.5 177H59.5ZM45.5 163C53.232 163 59.5 169.268 59.5 177H63.5C63.5 167.059 55.4411 159 45.5 159V163ZM45.5 159C35.5589 159 27.5 167.059 27.5 177H31.5C31.5 169.268 37.768 163 45.5 163V159Z" fill="#E5E7EB"/>
<path d="M86.5043 172H93.1662V170.454H88.3487V167.675H92.7834V166.129H88.3487V163.364H93.1264V161.818H86.5043V172ZM97.1261 172.154C98.3242 172.154 99.0401 171.592 99.3683 170.951H99.4279V172H101.158V166.889C101.158 164.871 99.5124 164.264 98.0558 164.264C96.4499 164.264 95.217 164.98 94.8192 166.372L96.4996 166.611C96.6786 166.089 97.1857 165.641 98.0657 165.641C98.9009 165.641 99.3583 166.069 99.3583 166.82V166.849C99.3583 167.366 98.8164 167.391 97.4691 167.536C95.9876 167.695 94.5707 168.137 94.5707 169.857C94.5707 171.359 95.6694 172.154 97.1261 172.154ZM97.5934 170.832C96.8427 170.832 96.3058 170.489 96.3058 169.827C96.3058 169.136 96.9073 168.848 97.7127 168.734C98.185 168.669 99.1296 168.55 99.3633 168.361V169.261C99.3633 170.111 98.6772 170.832 97.5934 170.832ZM109.003 166.382C108.755 165.089 107.721 164.264 105.931 164.264C104.091 164.264 102.838 165.169 102.843 166.581C102.838 167.695 103.525 168.43 104.991 168.734L106.294 169.007C106.995 169.161 107.323 169.445 107.323 169.877C107.323 170.399 106.756 170.792 105.901 170.792C105.076 170.792 104.539 170.434 104.385 169.748L102.63 169.917C102.853 171.319 104.032 172.149 105.906 172.149C107.815 172.149 109.162 171.16 109.167 169.713C109.162 168.624 108.461 167.958 107.02 167.645L105.717 167.366C104.941 167.192 104.633 166.924 104.638 166.482C104.633 165.964 105.205 165.607 105.956 165.607C106.786 165.607 107.223 166.059 107.363 166.561L109.003 166.382ZM114.464 164.364H112.958V162.534H111.158V164.364H110.075V165.756H111.158V170.001C111.148 171.438 112.192 172.144 113.545 172.104C114.057 172.089 114.41 171.99 114.604 171.925L114.3 170.518C114.201 170.543 113.997 170.588 113.773 170.588C113.321 170.588 112.958 170.429 112.958 169.703V165.756H114.464V164.364ZM119.522 172H121.366V168.56H123.315C125.667 168.56 126.93 167.148 126.93 165.189C126.93 163.245 125.682 161.818 123.34 161.818H119.522V172ZM121.366 167.043V163.359H123.057C124.439 163.359 125.05 164.105 125.05 165.189C125.05 166.273 124.439 167.043 123.067 167.043H121.366ZM131.723 172.149C133.503 172.149 134.726 171.279 135.044 169.952L133.364 169.763C133.12 170.409 132.524 170.747 131.748 170.747C130.585 170.747 129.814 169.982 129.799 168.674H135.119V168.122C135.119 165.442 133.508 164.264 131.629 164.264C129.441 164.264 128.015 165.87 128.015 168.227C128.015 170.623 129.422 172.149 131.723 172.149ZM129.804 167.461C129.859 166.487 130.58 165.666 131.654 165.666C132.688 165.666 133.384 166.422 133.394 167.461H129.804ZM138.839 172.154C140.037 172.154 140.753 171.592 141.081 170.951H141.141V172H142.871V166.889C142.871 164.871 141.225 164.264 139.769 164.264C138.163 164.264 136.93 164.98 136.532 166.372L138.213 166.611C138.392 166.089 138.899 165.641 139.779 165.641C140.614 165.641 141.071 166.069 141.071 166.82V166.849C141.071 167.366 140.529 167.391 139.182 167.536C137.7 167.695 136.284 168.137 136.284 169.857C136.284 171.359 137.382 172.154 138.839 172.154ZM139.306 170.832C138.556 170.832 138.019 170.489 138.019 169.827C138.019 169.136 138.62 168.848 139.426 168.734C139.898 168.669 140.843 168.55 141.076 168.361V169.261C141.076 170.111 140.39 170.832 139.306 170.832ZM144.681 172H146.48V169.435L147.137 168.734L149.473 172H151.626L148.494 167.66L151.452 164.364H149.349L146.605 167.431H146.48V161.818H144.681V172ZM157.924 161.818H156.124V172H157.924V161.818ZM159.774 172H161.574V164.364H159.774V172ZM160.679 163.28C161.251 163.28 161.718 162.842 161.718 162.305C161.718 161.763 161.251 161.326 160.679 161.326C160.102 161.326 159.635 161.763 159.635 162.305C159.635 162.842 160.102 163.28 160.679 163.28ZM169.46 166.382C169.212 165.089 168.178 164.264 166.388 164.264C164.548 164.264 163.295 165.169 163.3 166.581C163.295 167.695 163.982 168.43 165.448 168.734L166.751 169.007C167.452 169.161 167.78 169.445 167.78 169.877C167.78 170.399 167.213 170.792 166.358 170.792C165.533 170.792 164.996 170.434 164.842 169.748L163.087 169.917C163.31 171.319 164.489 172.149 166.363 172.149C168.272 172.149 169.619 171.16 169.624 169.713C169.619 168.624 168.918 167.958 167.477 167.645L166.174 167.366C165.398 167.192 165.09 166.924 165.095 166.482C165.09 165.964 165.662 165.607 166.413 165.607C167.243 165.607 167.68 166.059 167.82 166.561L169.46 166.382ZM174.922 164.364H173.415V162.534H171.615V164.364H170.532V165.756H171.615V170.001C171.605 171.438 172.65 172.144 174.002 172.104C174.514 172.089 174.867 171.99 175.061 171.925L174.757 170.518C174.658 170.543 174.454 170.588 174.23 170.588C173.778 170.588 173.415 170.429 173.415 169.703V165.756H174.922V164.364ZM176.427 172H178.226V164.364H176.427V172ZM177.331 163.28C177.903 163.28 178.371 162.842 178.371 162.305C178.371 161.763 177.903 161.326 177.331 161.326C176.755 161.326 176.287 161.763 176.287 162.305C176.287 162.842 176.755 163.28 177.331 163.28ZM181.877 167.526C181.877 166.422 182.543 165.786 183.493 165.786C184.422 165.786 184.979 166.397 184.979 167.416V172H186.779V167.138C186.784 165.308 185.74 164.264 184.164 164.264C183.02 164.264 182.235 164.811 181.887 165.661H181.797V164.364H180.077V172H181.877V167.526ZM191.929 175.023C193.993 175.023 195.514 174.078 195.514 172.124V164.364H193.739V165.626H193.64C193.366 165.075 192.794 164.264 191.447 164.264C189.682 164.264 188.295 165.646 188.295 168.157C188.295 170.648 189.682 171.891 191.442 171.891C192.75 171.891 193.361 171.19 193.64 170.628H193.729V172.075C193.729 173.198 192.983 173.661 191.959 173.661C190.875 173.661 190.398 173.148 190.179 172.701L188.559 173.094C188.887 174.163 189.985 175.023 191.929 175.023ZM191.944 170.479C190.756 170.479 190.13 169.554 190.13 168.147C190.13 166.76 190.746 165.741 191.944 165.741C193.103 165.741 193.739 166.7 193.739 168.147C193.739 169.604 193.093 170.479 191.944 170.479ZM204.162 172.149C206.081 172.149 207.304 171.011 207.433 169.39H205.713C205.559 170.21 204.967 170.683 204.177 170.683C203.053 170.683 202.327 169.743 202.327 168.182C202.327 166.641 203.068 165.716 204.177 165.716C205.042 165.716 205.574 166.273 205.713 167.009H207.433C207.309 165.353 206.016 164.264 204.152 164.264C201.915 164.264 200.503 165.88 200.503 168.212C200.503 170.523 201.88 172.149 204.162 172.149ZM208.911 172H210.711V167.511C210.711 166.541 211.442 165.855 212.431 165.855C212.734 165.855 213.112 165.91 213.266 165.96V164.304C213.102 164.274 212.819 164.254 212.62 164.254C211.745 164.254 211.014 164.751 210.736 165.636H210.656V164.364H208.911V172ZM217.528 172.149C219.308 172.149 220.531 171.279 220.849 169.952L219.169 169.763C218.925 170.409 218.328 170.747 217.553 170.747C216.39 170.747 215.619 169.982 215.604 168.674H220.924V168.122C220.924 165.442 219.313 164.264 217.434 164.264C215.246 164.264 213.819 165.87 213.819 168.227C213.819 170.623 215.226 172.149 217.528 172.149ZM215.609 167.461C215.664 166.487 216.385 165.666 217.458 165.666C218.493 165.666 219.189 166.422 219.199 167.461H215.609ZM224.644 172.154C225.842 172.154 226.558 171.592 226.886 170.951H226.945V172H228.676V166.889C228.676 164.871 227.03 164.264 225.573 164.264C223.968 164.264 222.735 164.98 222.337 166.372L224.017 166.611C224.196 166.089 224.703 165.641 225.583 165.641C226.419 165.641 226.876 166.069 226.876 166.82V166.849C226.876 167.366 226.334 167.391 224.987 167.536C223.505 167.695 222.088 168.137 222.088 169.857C222.088 171.359 223.187 172.154 224.644 172.154ZM225.111 170.832C224.36 170.832 223.823 170.489 223.823 169.827C223.823 169.136 224.425 168.848 225.23 168.734C225.703 168.669 226.647 168.55 226.881 168.361V169.261C226.881 170.111 226.195 170.832 225.111 170.832ZM234.298 164.364H232.792V162.534H230.992V164.364H229.909V165.756H230.992V170.001C230.982 171.438 232.026 172.144 233.379 172.104C233.891 172.089 234.244 171.99 234.438 171.925L234.134 170.518C234.035 170.543 233.831 170.588 233.607 170.588C233.155 170.588 232.792 170.429 232.792 169.703V165.756H234.298V164.364ZM239.102 172.149C240.882 172.149 242.105 171.279 242.423 169.952L240.743 169.763C240.499 170.409 239.903 170.747 239.127 170.747C237.964 170.747 237.193 169.982 237.178 168.674H242.498V168.122C242.498 165.442 240.887 164.264 239.008 164.264C236.82 164.264 235.393 165.87 235.393 168.227C235.393 170.623 236.8 172.149 239.102 172.149ZM237.183 167.461C237.238 166.487 237.959 165.666 239.033 165.666C240.067 165.666 240.763 166.422 240.773 167.461H237.183ZM246.854 172.134C248.167 172.134 248.758 171.354 249.042 170.797H249.151V172H250.921V161.818H249.116V165.626H249.042C248.768 165.075 248.206 164.264 246.859 164.264C245.094 164.264 243.707 165.646 243.707 168.192C243.707 170.707 245.055 172.134 246.854 172.134ZM247.356 170.658C246.168 170.658 245.542 169.614 245.542 168.182C245.542 166.76 246.158 165.741 247.356 165.741C248.515 165.741 249.151 166.7 249.151 168.182C249.151 169.663 248.505 170.658 247.356 170.658Z" fill="#111827"/>
<path d="M89.4716 184.273H88.4148L86.233 185.722V186.795L88.3636 185.381H88.4148V193H89.4716V184.273ZM92.983 191.807H91.892L91.8409 192.284C91.7173 193.439 91.4744 194.589 91.3636 195.131H92.1307C92.3352 194.551 92.7699 193.239 92.9148 192.267L92.983 191.807ZM97.3711 193.119C99.2972 193.119 100.405 191.487 100.405 188.636C100.405 185.807 99.2802 184.153 97.3711 184.153C95.462 184.153 94.337 185.807 94.337 188.636C94.337 191.487 95.445 193.119 97.3711 193.119ZM97.3711 192.182C96.1012 192.182 95.3597 190.908 95.3597 188.636C95.3597 186.369 96.1097 185.074 97.3711 185.074C98.6325 185.074 99.3825 186.369 99.3825 188.636C99.3825 190.908 98.641 192.182 97.3711 192.182ZM104.871 193.119C106.797 193.119 107.905 191.487 107.905 188.636C107.905 185.807 106.78 184.153 104.871 184.153C102.962 184.153 101.837 185.807 101.837 188.636C101.837 191.487 102.945 193.119 104.871 193.119ZM104.871 192.182C103.601 192.182 102.86 190.908 102.86 188.636C102.86 186.369 103.61 185.074 104.871 185.074C106.132 185.074 106.882 186.369 106.882 188.636C106.882 190.908 106.141 192.182 104.871 192.182ZM112.371 193.119C114.297 193.119 115.405 191.487 115.405 188.636C115.405 185.807 114.28 184.153 112.371 184.153C110.462 184.153 109.337 185.807 109.337 188.636C109.337 191.487 110.445 193.119 112.371 193.119ZM112.371 192.182C111.101 192.182 110.36 190.908 110.36 188.636C110.36 186.369 111.11 185.074 112.371 185.074C113.632 185.074 114.382 186.369 114.382 188.636C114.382 190.908 113.641 192.182 112.371 192.182ZM125.053 187.92C124.738 186.991 124.03 186.369 122.735 186.369C121.354 186.369 120.331 187.153 120.331 188.261C120.331 189.165 120.868 189.77 122.07 190.051L123.161 190.307C123.821 190.46 124.132 190.776 124.132 191.227C124.132 191.79 123.536 192.25 122.598 192.25C121.776 192.25 121.26 191.896 121.081 191.193L120.127 191.432C120.361 192.544 121.277 193.136 122.615 193.136C124.137 193.136 125.172 192.305 125.172 191.176C125.172 190.264 124.601 189.689 123.434 189.403L122.462 189.165C121.686 188.973 121.337 188.713 121.337 188.21C121.337 187.648 121.934 187.239 122.735 187.239C123.613 187.239 123.975 187.724 124.15 188.176L125.053 187.92ZM127.692 189.062C127.692 187.92 128.42 187.273 129.413 187.273C130.359 187.273 130.93 187.869 130.93 188.909V193H131.936V188.841C131.936 187.158 131.041 186.369 129.703 186.369C128.672 186.369 128.084 186.8 127.777 187.477H127.692V184.273H126.686V193H127.692V189.062ZM135.702 193.153C136.844 193.153 137.441 192.54 137.645 192.114H137.696V193H138.702V188.688C138.702 186.608 137.117 186.369 136.282 186.369C135.293 186.369 134.168 186.71 133.657 187.903L134.611 188.244C134.833 187.767 135.357 187.256 136.316 187.256C137.24 187.256 137.696 187.746 137.696 188.585V188.619C137.696 189.105 137.202 189.062 136.009 189.216C134.794 189.374 133.469 189.642 133.469 191.142C133.469 192.42 134.458 193.153 135.702 193.153ZM135.855 192.25C135.054 192.25 134.475 191.892 134.475 191.193C134.475 190.426 135.174 190.188 135.958 190.085C136.384 190.034 137.526 189.915 137.696 189.71V190.631C137.696 191.449 137.049 192.25 135.855 192.25ZM140.538 193H141.543V188.858C141.543 187.972 142.242 187.324 143.197 187.324C143.465 187.324 143.742 187.375 143.81 187.392V186.369C143.695 186.361 143.431 186.352 143.282 186.352C142.498 186.352 141.816 186.795 141.577 187.443H141.509V186.455H140.538V193ZM147.548 193.136C148.877 193.136 149.849 192.472 150.156 191.483L149.184 191.21C148.928 191.892 148.336 192.233 147.548 192.233C146.367 192.233 145.553 191.47 145.506 190.068H150.258V189.642C150.258 187.205 148.809 186.369 147.445 186.369C145.673 186.369 144.496 187.767 144.496 189.778C144.496 191.79 145.656 193.136 147.548 193.136ZM145.506 189.199C145.575 188.18 146.295 187.273 147.445 187.273C148.536 187.273 149.235 188.091 149.235 189.199H145.506ZM156.424 187.92C156.109 186.991 155.401 186.369 154.106 186.369C152.725 186.369 151.702 187.153 151.702 188.261C151.702 189.165 152.239 189.77 153.441 190.051L154.532 190.307C155.192 190.46 155.504 190.776 155.504 191.227C155.504 191.79 154.907 192.25 153.969 192.25C153.147 192.25 152.631 191.896 152.452 191.193L151.498 191.432C151.732 192.544 152.648 193.136 153.987 193.136C155.508 193.136 156.543 192.305 156.543 191.176C156.543 190.264 155.972 189.689 154.805 189.403L153.833 189.165C153.058 188.973 152.708 188.713 152.708 188.21C152.708 187.648 153.305 187.239 154.106 187.239C154.984 187.239 155.346 187.724 155.521 188.176L156.424 187.92ZM163.358 193.153C164.5 193.153 165.097 192.54 165.301 192.114H165.353V193H166.358V188.688C166.358 186.608 164.773 186.369 163.938 186.369C162.949 186.369 161.824 186.71 161.313 187.903L162.267 188.244C162.489 187.767 163.013 187.256 163.972 187.256C164.897 187.256 165.353 187.746 165.353 188.585V188.619C165.353 189.105 164.858 189.062 163.665 189.216C162.451 189.374 161.125 189.642 161.125 191.142C161.125 192.42 162.114 193.153 163.358 193.153ZM163.512 192.25C162.711 192.25 162.131 191.892 162.131 191.193C162.131 190.426 162.83 190.188 163.614 190.085C164.04 190.034 165.182 189.915 165.353 189.71V190.631C165.353 191.449 164.705 192.25 163.512 192.25ZM171.04 186.455H169.643V184.886H168.637V186.455H167.648V187.307H168.637V191.398C168.637 192.54 169.558 193.085 170.41 193.085C170.785 193.085 171.023 193.017 171.16 192.966L170.955 192.062C170.87 192.08 170.734 192.114 170.512 192.114C170.069 192.114 169.643 191.977 169.643 191.125V187.307H171.04V186.455ZM178.86 193.119C180.552 193.119 181.809 192.058 181.809 190.631C181.809 189.523 181.153 188.717 180.053 188.534V188.466C180.935 188.197 181.485 187.473 181.485 186.489C181.485 185.253 180.509 184.153 178.894 184.153C177.386 184.153 176.133 185.082 176.082 186.455H177.104C177.143 185.585 177.969 185.074 178.877 185.074C179.84 185.074 180.462 185.658 180.462 186.54C180.462 187.46 179.742 188.057 178.707 188.057H178.008V188.994H178.707C180.032 188.994 180.769 189.668 180.769 190.631C180.769 191.555 179.964 192.182 178.843 192.182C177.833 192.182 177.032 191.662 176.968 190.818H175.894C175.958 192.19 177.168 193.119 178.86 193.119ZM186.398 193.119C188.325 193.119 189.433 191.487 189.433 188.636C189.433 185.807 188.308 184.153 186.398 184.153C184.489 184.153 183.364 185.807 183.364 188.636C183.364 191.487 184.472 193.119 186.398 193.119ZM186.398 192.182C185.129 192.182 184.387 190.908 184.387 188.636C184.387 186.369 185.137 185.074 186.398 185.074C187.66 185.074 188.41 186.369 188.41 188.636C188.41 190.908 187.668 192.182 186.398 192.182Z" fill="#6B7280"/>
<path fill-rule="evenodd" clip-rule="evenodd" d="M204.5 189C204.5 192.314 201.814 195 198.5 195C195.186 195 192.5 192.314 192.5 189C192.5 185.686 195.186 183 198.5 183C201.814 183 204.5 185.686 204.5 189ZM198.167 184.69L194.275 191.531C194.136 191.775 194.312 192.076 194.592 192.076H197.03C197.16 192.076 197.281 192.006 197.346 191.893L200.032 187.199C200.096 187.087 200.096 186.949 200.031 186.836L198.8 184.689C198.66 184.444 198.306 184.445 198.167 184.69ZM199.566 192.094H202.408C202.697 192.094 202.879 191.781 202.734 191.53L201.319 189.071C201.175 188.819 200.813 188.819 200.667 189.069L199.24 191.529C199.094 191.78 199.275 192.094 199.566 192.094Z" fill="#6B7280"/>
<path d="M390.5 169C390.5 166.791 392.291 165 394.5 165H477.5C479.709 165 481.5 166.791 481.5 169V185C481.5 187.209 479.709 189 477.5 189H394.5C392.291 189 390.5 187.209 390.5 185V169Z" fill="#D1FAE5"/>
<circle cx="402.5" cy="177" r="3" fill="#34D399"/>
<path d="M419.446 174.493H420.928C420.883 172.862 419.441 171.679 417.373 171.679C415.33 171.679 413.764 172.847 413.764 174.602C413.764 176.019 414.778 176.849 416.414 177.292L417.617 177.62C418.706 177.908 419.546 178.266 419.546 179.171C419.546 180.165 418.596 180.822 417.289 180.822C416.105 180.822 415.121 180.295 415.032 179.186H413.49C413.59 181.031 415.017 182.169 417.299 182.169C419.69 182.169 421.067 180.911 421.067 179.186C421.067 177.352 419.431 176.641 418.139 176.322L417.144 176.064C416.349 175.86 415.29 175.487 415.295 174.513C415.295 173.648 416.085 173.006 417.338 173.006C418.507 173.006 419.337 173.553 419.446 174.493ZM427.621 178.833C427.626 180.131 426.661 180.747 425.826 180.747C424.906 180.747 424.27 180.081 424.27 179.042V174.364H422.783V179.221C422.783 181.115 423.823 182.099 425.289 182.099C426.438 182.099 427.218 181.493 427.571 180.678H427.651V182H429.112V174.364H427.621V178.833ZM434.326 182.154C436.131 182.154 437.299 181.07 437.463 179.584H436.017C435.828 180.409 435.186 180.896 434.336 180.896C433.078 180.896 432.268 179.847 432.268 178.182C432.268 176.546 433.093 175.517 434.336 175.517C435.281 175.517 435.858 176.114 436.017 176.83H437.463C437.304 175.288 436.046 174.264 434.311 174.264C432.159 174.264 430.767 175.885 430.767 178.217C430.767 180.518 432.109 182.154 434.326 182.154ZM442.27 182.154C444.074 182.154 445.243 181.07 445.407 179.584H443.96C443.771 180.409 443.13 180.896 442.28 180.896C441.022 180.896 440.211 179.847 440.211 178.182C440.211 176.546 441.037 175.517 442.28 175.517C443.224 175.517 443.801 176.114 443.96 176.83H445.407C445.248 175.288 443.99 174.264 442.255 174.264C440.102 174.264 438.71 175.885 438.71 178.217C438.71 180.518 440.052 182.154 442.27 182.154ZM450.288 182.154C451.953 182.154 453.131 181.334 453.469 180.091L452.062 179.837C451.794 180.558 451.148 180.926 450.302 180.926C449.03 180.926 448.175 180.101 448.135 178.629H453.564V178.102C453.564 175.343 451.913 174.264 450.183 174.264C448.055 174.264 446.653 175.885 446.653 178.232C446.653 180.603 448.035 182.154 450.288 182.154ZM448.14 177.516C448.199 176.432 448.985 175.492 450.193 175.492C451.347 175.492 452.102 176.347 452.107 177.516H448.14ZM460.935 176.228C460.627 175.04 459.698 174.264 458.047 174.264C456.322 174.264 455.099 175.174 455.099 176.526C455.099 177.61 455.755 178.331 457.187 178.649L458.479 178.933C459.215 179.097 459.558 179.425 459.558 179.902C459.558 180.494 458.927 180.956 457.953 180.956C457.063 180.956 456.491 180.573 456.312 179.822L454.875 180.041C455.124 181.393 456.247 182.154 457.962 182.154C459.807 182.154 461.085 181.175 461.085 179.793C461.085 178.714 460.399 178.048 458.997 177.724L457.783 177.446C456.943 177.247 456.58 176.964 456.585 176.447C456.58 175.86 457.217 175.442 458.062 175.442C458.987 175.442 459.414 175.955 459.588 176.467L460.935 176.228ZM468.441 176.228C468.133 175.04 467.203 174.264 465.553 174.264C463.828 174.264 462.605 175.174 462.605 176.526C462.605 177.61 463.261 178.331 464.693 178.649L465.985 178.933C466.721 179.097 467.064 179.425 467.064 179.902C467.064 180.494 466.433 180.956 465.458 180.956C464.568 180.956 463.997 180.573 463.818 179.822L462.381 180.041C462.63 181.393 463.753 182.154 465.468 182.154C467.313 182.154 468.59 181.175 468.59 179.793C468.59 178.714 467.904 178.048 466.502 177.724L465.289 177.446C464.449 177.247 464.086 176.964 464.091 176.447C464.086 175.86 464.723 175.442 465.568 175.442C466.492 175.442 466.92 175.955 467.094 176.467L468.441 176.228Z" fill="#065F46"/>
<path d="M11.5 146H499.5V144H11.5V146ZM504.5 151V203H506.5V151H504.5ZM499.5 208H11.5V210H499.5V208ZM6.5 203V151H4.5V203H6.5ZM11.5 208C8.73859 208 6.5 205.761 6.5 203H4.5C4.5 206.866 7.63402 210 11.5 210V208ZM504.5 203C504.5 205.761 502.261 208 499.5 208V210C503.366 210 506.5 206.866 506.5 203H504.5ZM499.5 146C502.261 146 504.5 148.239 504.5 151H506.5C506.5 147.134 503.366 144 499.5 144V146ZM11.5 144C7.63401 144 4.5 147.134 4.5 151H6.5C6.5 148.239 8.73858 146 11.5 146V144Z" fill="#D1D5DB"/>
</g>
<g filter="url(#filter3_dd)">
<path d="M5.5 223C5.5 219.686 8.18629 217 11.5 217H499.5C502.814 217 505.5 219.686 505.5 223V275C505.5 278.314 502.814 281 499.5 281H11.5C8.1863 281 5.5 278.314 5.5 275V223Z" fill="white"/>
<g clip-path="url(#clip6)">
<path d="M29.5 249C29.5 240.163 36.6634 233 45.5 233C54.3366 233 61.5 240.163 61.5 249C61.5 257.837 54.3366 265 45.5 265C36.6634 265 29.5 257.837 29.5 249Z" fill="white"/>
<g clip-path="url(#clip7)">
<path d="M29.5 249C29.5 240.163 36.6634 233 45.5 233C54.3366 233 61.5 240.163 61.5 249C61.5 257.837 54.3366 265 45.5 265C36.6634 265 29.5 257.837 29.5 249Z" fill="#F3F4F6"/>
<path d="M61.5 260.992V265.001H29.5V261.007C31.3613 258.519 33.7772 256.5 36.5557 255.111C39.3342 253.721 42.3987 252.999 45.5053 253.001C52.044 253.001 57.852 256.14 61.5 260.992ZM50.836 245C50.836 246.414 50.2741 247.771 49.2739 248.771C48.2737 249.771 46.9172 250.333 45.5027 250.333C44.0882 250.333 42.7316 249.771 41.7314 248.771C40.7312 247.771 40.1693 246.414 40.1693 245C40.1693 243.585 40.7312 242.229 41.7314 241.229C42.7316 240.228 44.0882 239.667 45.5027 239.667C46.9172 239.667 48.2737 240.228 49.2739 241.229C50.2741 242.229 50.836 243.585 50.836 245Z" fill="#D1D5DB"/>
</g>
</g>
<path d="M45.5 263C37.768 263 31.5 256.732 31.5 249H27.5C27.5 258.941 35.5589 267 45.5 267V263ZM59.5 249C59.5 256.732 53.232 263 45.5 263V267C55.4411 267 63.5 258.941 63.5 249H59.5ZM45.5 235C53.232 235 59.5 241.268 59.5 249H63.5C63.5 239.059 55.4411 231 45.5 231V235ZM45.5 231C35.5589 231 27.5 239.059 27.5 249H31.5C31.5 241.268 37.768 235 45.5 235V231Z" fill="#E5E7EB"/>
<path d="M86.5043 244H90.6257C92.9574 244 94.1009 242.812 94.1009 241.226C94.1009 239.685 93.0071 238.78 91.9233 238.725V238.626C92.9176 238.392 93.7031 237.696 93.7031 236.458C93.7031 234.942 92.6094 233.818 90.402 233.818H86.5043V244ZM88.3487 242.459V239.476H90.3821C91.5206 239.476 92.2266 240.172 92.2266 241.082C92.2266 241.892 91.6697 242.459 90.3324 242.459H88.3487ZM88.3487 238.148V235.339H90.2131C91.2969 235.339 91.8587 235.911 91.8587 236.697C91.8587 237.592 91.1328 238.148 90.1733 238.148H88.3487ZM95.6259 244H97.4256V239.511C97.4256 238.541 98.1564 237.855 99.1458 237.855C99.449 237.855 99.8269 237.91 99.981 237.96V236.304C99.8169 236.274 99.5336 236.254 99.3347 236.254C98.4597 236.254 97.7289 236.751 97.4505 237.636H97.3709V236.364H95.6259V244ZM101.177 244H102.976V236.364H101.177V244ZM102.081 235.28C102.653 235.28 103.121 234.842 103.121 234.305C103.121 233.763 102.653 233.326 102.081 233.326C101.505 233.326 101.037 233.763 101.037 234.305C101.037 234.842 101.505 235.28 102.081 235.28ZM106.299 236.364H104.39L106.657 240.182L104.33 244H106.239L107.84 241.251L109.456 244H111.35L109.008 240.182L111.31 236.364H109.406L107.84 239.183L106.299 236.364ZM115.746 244.149C117.983 244.149 119.405 242.573 119.405 240.212C119.405 237.845 117.983 236.264 115.746 236.264C113.509 236.264 112.087 237.845 112.087 240.212C112.087 242.573 113.509 244.149 115.746 244.149ZM115.756 242.707C114.518 242.707 113.911 241.604 113.911 240.207C113.911 238.81 114.518 237.691 115.756 237.691C116.974 237.691 117.58 238.81 117.58 240.207C117.58 241.604 116.974 242.707 115.756 242.707ZM122.732 239.526C122.732 238.422 123.398 237.786 124.348 237.786C125.278 237.786 125.835 238.397 125.835 239.416V244H127.634V239.138C127.639 237.308 126.595 236.264 125.019 236.264C123.876 236.264 123.09 236.811 122.742 237.661H122.653V236.364H120.933V244H122.732V239.526ZM141.731 237.254C141.418 234.991 139.678 233.679 137.421 233.679C134.761 233.679 132.757 235.618 132.757 238.909C132.757 242.195 134.736 244.139 137.421 244.139C139.842 244.139 141.448 242.573 141.731 240.629L139.872 240.619C139.638 241.812 138.664 242.484 137.446 242.484C135.795 242.484 134.612 241.246 134.612 238.909C134.612 236.612 135.785 235.335 137.451 235.335C138.689 235.335 139.658 236.036 139.872 237.254H141.731ZM146.672 244.149C148.909 244.149 150.331 242.573 150.331 240.212C150.331 237.845 148.909 236.264 146.672 236.264C144.434 236.264 143.013 237.845 143.013 240.212C143.013 242.573 144.434 244.149 146.672 244.149ZM146.682 242.707C145.444 242.707 144.837 241.604 144.837 240.207C144.837 238.81 145.444 237.691 146.682 237.691C147.9 237.691 148.506 238.81 148.506 240.207C148.506 241.604 147.9 242.707 146.682 242.707ZM156.725 240.788C156.725 241.952 155.895 242.528 155.1 242.528C154.235 242.528 153.658 241.917 153.658 240.947V236.364H151.858V241.226C151.858 243.06 152.902 244.099 154.404 244.099C155.547 244.099 156.353 243.498 156.701 242.643H156.78V244H158.525V236.364H156.725V240.788ZM160.376 244H162.176V239.511C162.176 238.541 162.906 237.855 163.896 237.855C164.199 237.855 164.577 237.91 164.731 237.96V236.304C164.567 236.274 164.284 236.254 164.085 236.254C163.21 236.254 162.479 236.751 162.2 237.636H162.121V236.364H160.376V244ZM170.15 236.364H168.644V234.534H166.844V236.364H165.76V237.756H166.844V242.001C166.834 243.438 167.878 244.144 169.23 244.104C169.742 244.089 170.095 243.99 170.289 243.925L169.986 242.518C169.887 242.543 169.683 242.588 169.459 242.588C169.007 242.588 168.644 242.429 168.644 241.703V237.756H170.15V236.364ZM181.163 238.382C180.915 237.089 179.881 236.264 178.091 236.264C176.251 236.264 174.999 237.169 175.004 238.581C174.999 239.695 175.685 240.43 177.151 240.734L178.454 241.007C179.155 241.161 179.483 241.445 179.483 241.877C179.483 242.399 178.916 242.792 178.061 242.792C177.236 242.792 176.699 242.434 176.545 241.748L174.79 241.917C175.013 243.319 176.192 244.149 178.066 244.149C179.975 244.149 181.322 243.16 181.327 241.713C181.322 240.624 180.621 239.958 179.18 239.645L177.877 239.366C177.102 239.192 176.793 238.924 176.798 238.482C176.793 237.964 177.365 237.607 178.116 237.607C178.946 237.607 179.384 238.059 179.523 238.561L181.163 238.382ZM185.009 244.154C186.207 244.154 186.923 243.592 187.251 242.951H187.311V244H189.041V238.889C189.041 236.871 187.395 236.264 185.939 236.264C184.333 236.264 183.1 236.98 182.702 238.372L184.382 238.611C184.561 238.089 185.069 237.641 185.949 237.641C186.784 237.641 187.241 238.069 187.241 238.82V238.849C187.241 239.366 186.699 239.391 185.352 239.536C183.87 239.695 182.453 240.137 182.453 241.857C182.453 243.359 183.552 244.154 185.009 244.154ZM185.476 242.832C184.725 242.832 184.189 242.489 184.189 241.827C184.189 241.136 184.79 240.848 185.596 240.734C186.068 240.669 187.012 240.55 187.246 240.361V241.261C187.246 242.111 186.56 242.832 185.476 242.832ZM192.65 233.818H190.85V244H192.65V233.818ZM197.882 244.149C199.661 244.149 200.884 243.279 201.203 241.952L199.522 241.763C199.279 242.409 198.682 242.747 197.906 242.747C196.743 242.747 195.972 241.982 195.958 240.674H201.277V240.122C201.277 237.442 199.666 236.264 197.787 236.264C195.6 236.264 194.173 237.87 194.173 240.227C194.173 242.623 195.58 244.149 197.882 244.149ZM195.963 239.461C196.017 238.487 196.738 237.666 197.812 237.666C198.846 237.666 199.542 238.422 199.552 239.461H195.963Z" fill="#111827"/>
<path d="M89.4716 256.273H88.4148L86.233 257.722V258.795L88.3636 257.381H88.4148V265H89.4716V256.273ZM94.8281 265.119C96.7543 265.119 97.8622 263.487 97.8622 260.636C97.8622 257.807 96.7372 256.153 94.8281 256.153C92.919 256.153 91.794 257.807 91.794 260.636C91.794 263.487 92.902 265.119 94.8281 265.119ZM94.8281 264.182C93.5582 264.182 92.8168 262.908 92.8168 260.636C92.8168 258.369 93.5668 257.074 94.8281 257.074C96.0895 257.074 96.8395 258.369 96.8395 260.636C96.8395 262.908 96.098 264.182 94.8281 264.182ZM107.51 259.92C107.195 258.991 106.487 258.369 105.192 258.369C103.811 258.369 102.788 259.153 102.788 260.261C102.788 261.165 103.325 261.77 104.527 262.051L105.618 262.307C106.278 262.46 106.589 262.776 106.589 263.227C106.589 263.79 105.993 264.25 105.055 264.25C104.233 264.25 103.717 263.896 103.538 263.193L102.584 263.432C102.818 264.544 103.734 265.136 105.072 265.136C106.594 265.136 107.629 264.305 107.629 263.176C107.629 262.264 107.058 261.689 105.891 261.403L104.919 261.165C104.143 260.973 103.794 260.713 103.794 260.21C103.794 259.648 104.391 259.239 105.192 259.239C106.07 259.239 106.432 259.724 106.607 260.176L107.51 259.92ZM110.149 261.062C110.149 259.92 110.877 259.273 111.87 259.273C112.816 259.273 113.387 259.869 113.387 260.909V265H114.393V260.841C114.393 259.158 113.498 258.369 112.16 258.369C111.129 258.369 110.541 258.8 110.234 259.477H110.149V256.273H109.143V265H110.149V261.062ZM118.159 265.153C119.301 265.153 119.898 264.54 120.102 264.114H120.153V265H121.159V260.688C121.159 258.608 119.574 258.369 118.739 258.369C117.75 258.369 116.625 258.71 116.114 259.903L117.068 260.244C117.29 259.767 117.814 259.256 118.773 259.256C119.697 259.256 120.153 259.746 120.153 260.585V260.619C120.153 261.105 119.659 261.062 118.466 261.216C117.251 261.374 115.926 261.642 115.926 263.142C115.926 264.42 116.915 265.153 118.159 265.153ZM118.312 264.25C117.511 264.25 116.932 263.892 116.932 263.193C116.932 262.426 117.631 262.188 118.415 262.085C118.841 262.034 119.983 261.915 120.153 261.71V262.631C120.153 263.449 119.506 264.25 118.312 264.25ZM122.995 265H124V260.858C124 259.972 124.699 259.324 125.654 259.324C125.922 259.324 126.199 259.375 126.267 259.392V258.369C126.152 258.361 125.888 258.352 125.739 258.352C124.955 258.352 124.273 258.795 124.034 259.443H123.966V258.455H122.995V265ZM130.005 265.136C131.334 265.136 132.306 264.472 132.613 263.483L131.641 263.21C131.385 263.892 130.793 264.233 130.005 264.233C128.824 264.233 128.01 263.47 127.963 262.068H132.715V261.642C132.715 259.205 131.266 258.369 129.902 258.369C128.13 258.369 126.953 259.767 126.953 261.778C126.953 263.79 128.113 265.136 130.005 265.136ZM127.963 261.199C128.032 260.18 128.752 259.273 129.902 259.273C130.993 259.273 131.692 260.091 131.692 261.199H127.963ZM138.881 259.92C138.566 258.991 137.858 258.369 136.563 258.369C135.182 258.369 134.159 259.153 134.159 260.261C134.159 261.165 134.696 261.77 135.898 262.051L136.989 262.307C137.65 262.46 137.961 262.776 137.961 263.227C137.961 263.79 137.364 264.25 136.426 264.25C135.604 264.25 135.088 263.896 134.909 263.193L133.955 263.432C134.189 264.544 135.105 265.136 136.444 265.136C137.965 265.136 139 264.305 139 263.176C139 262.264 138.429 261.689 137.262 261.403L136.29 261.165C135.515 260.973 135.165 260.713 135.165 260.21C135.165 259.648 135.762 259.239 136.563 259.239C137.441 259.239 137.803 259.724 137.978 260.176L138.881 259.92ZM145.815 265.153C146.957 265.153 147.554 264.54 147.759 264.114H147.81V265H148.815V260.688C148.815 258.608 147.23 258.369 146.395 258.369C145.406 258.369 144.281 258.71 143.77 259.903L144.724 260.244C144.946 259.767 145.47 259.256 146.429 259.256C147.354 259.256 147.81 259.746 147.81 260.585V260.619C147.81 261.105 147.315 261.062 146.122 261.216C144.908 261.374 143.582 261.642 143.582 263.142C143.582 264.42 144.571 265.153 145.815 265.153ZM145.969 264.25C145.168 264.25 144.588 263.892 144.588 263.193C144.588 262.426 145.287 262.188 146.071 262.085C146.497 262.034 147.639 261.915 147.81 261.71V262.631C147.81 263.449 147.162 264.25 145.969 264.25ZM153.498 258.455H152.1V256.886H151.094V258.455H150.105V259.307H151.094V263.398C151.094 264.54 152.015 265.085 152.867 265.085C153.242 265.085 153.48 265.017 153.617 264.966L153.412 264.062C153.327 264.08 153.191 264.114 152.969 264.114C152.526 264.114 152.1 263.977 152.1 263.125V259.307H153.498V258.455ZM161.317 265.119C163.009 265.119 164.266 264.058 164.266 262.631C164.266 261.523 163.61 260.717 162.51 260.534V260.466C163.392 260.197 163.942 259.473 163.942 258.489C163.942 257.253 162.966 256.153 161.351 256.153C159.843 256.153 158.59 257.082 158.539 258.455H159.561C159.6 257.585 160.426 257.074 161.334 257.074C162.297 257.074 162.919 257.658 162.919 258.54C162.919 259.46 162.199 260.057 161.164 260.057H160.465V260.994H161.164C162.489 260.994 163.226 261.668 163.226 262.631C163.226 263.555 162.421 264.182 161.3 264.182C160.29 264.182 159.489 263.662 159.425 262.818H158.351C158.415 264.19 159.625 265.119 161.317 265.119ZM168.855 265.119C170.782 265.119 171.89 263.487 171.89 260.636C171.89 257.807 170.765 256.153 168.855 256.153C166.946 256.153 165.821 257.807 165.821 260.636C165.821 263.487 166.929 265.119 168.855 265.119ZM168.855 264.182C167.586 264.182 166.844 262.908 166.844 260.636C166.844 258.369 167.594 257.074 168.855 257.074C170.117 257.074 170.867 258.369 170.867 260.636C170.867 262.908 170.125 264.182 168.855 264.182Z" fill="#6B7280"/>
<path fill-rule="evenodd" clip-rule="evenodd" d="M187.5 261C187.5 264.314 184.814 267 181.5 267C178.186 267 175.5 264.314 175.5 261C175.5 257.686 178.186 255 181.5 255C184.814 255 187.5 257.686 187.5 261ZM181.167 256.69L177.275 263.531C177.136 263.775 177.312 264.076 177.592 264.076H180.03C180.16 264.076 180.281 264.006 180.346 263.893L183.032 259.199C183.096 259.087 183.096 258.949 183.031 258.836L181.8 256.689C181.66 256.444 181.306 256.445 181.167 256.69ZM182.566 264.094H185.408C185.697 264.094 185.879 263.781 185.734 263.53L184.319 261.071C184.175 260.819 183.813 260.819 183.667 261.069L182.24 263.529C182.094 263.78 182.275 264.094 182.566 264.094Z" fill="#6B7280"/>
<path d="M327.5 241C327.5 238.791 329.291 237 331.5 237H477.5C479.709 237 481.5 238.791 481.5 241V257C481.5 259.209 479.709 261 477.5 261H331.5C329.291 261 327.5 259.209 327.5 257V241Z" fill="#FEE2E2"/>
<circle cx="339.5" cy="249" r="3" fill="#F87171"/>
<path d="M352.45 243.818H350.914V254H352.45V243.818ZM356.054 249.466C356.054 248.248 356.8 247.552 357.834 247.552C358.843 247.552 359.455 248.213 359.455 249.322V254H360.941V249.143C360.941 247.254 359.902 246.264 358.341 246.264C357.193 246.264 356.442 246.796 356.089 247.607H355.994V246.364H354.568V254H356.054V249.466ZM368.657 248.228C368.349 247.04 367.419 246.264 365.769 246.264C364.044 246.264 362.82 247.174 362.82 248.526C362.82 249.61 363.477 250.331 364.909 250.649L366.201 250.933C366.937 251.097 367.28 251.425 367.28 251.902C367.28 252.494 366.649 252.956 365.674 252.956C364.784 252.956 364.213 252.573 364.034 251.822L362.597 252.041C362.845 253.393 363.969 254.154 365.684 254.154C367.529 254.154 368.806 253.175 368.806 251.793C368.806 250.714 368.12 250.048 366.718 249.724L365.505 249.446C364.665 249.247 364.302 248.964 364.307 248.447C364.302 247.86 364.938 247.442 365.784 247.442C366.708 247.442 367.136 247.955 367.31 248.467L368.657 248.228ZM375.278 250.833C375.283 252.131 374.319 252.747 373.483 252.747C372.564 252.747 371.927 252.081 371.927 251.042V246.364H370.441V251.221C370.441 253.115 371.48 254.099 372.946 254.099C374.095 254.099 374.875 253.493 375.228 252.678H375.308V254H376.77V246.364H375.278V250.833ZM382.401 246.364H380.756V245.678C380.756 245.001 381.034 244.634 381.76 244.634C382.068 244.634 382.287 244.703 382.426 244.748L382.774 243.545C382.565 243.465 382.133 243.341 381.531 243.341C380.323 243.341 379.264 244.047 379.264 245.479V246.364H378.086V247.557H379.264V254H380.756V247.557H382.401V246.364ZM387.569 246.364H385.923V245.678C385.923 245.001 386.202 244.634 386.928 244.634C387.236 244.634 387.455 244.703 387.594 244.748L387.942 243.545C387.733 243.465 387.301 243.341 386.699 243.341C385.491 243.341 384.432 244.047 384.432 245.479V246.364H383.254V247.557H384.432V254H385.923V247.557H387.569V246.364ZM389.103 254H390.589V246.364H389.103V254ZM389.854 245.185C390.366 245.185 390.793 244.788 390.793 244.3C390.793 243.813 390.366 243.411 389.854 243.411C389.336 243.411 388.914 243.813 388.914 244.3C388.914 244.788 389.336 245.185 389.854 245.185ZM395.806 254.154C397.61 254.154 398.779 253.07 398.943 251.584H397.496C397.307 252.409 396.666 252.896 395.816 252.896C394.558 252.896 393.748 251.847 393.748 250.182C393.748 248.546 394.573 247.517 395.816 247.517C396.76 247.517 397.337 248.114 397.496 248.83H398.943C398.784 247.288 397.526 246.264 395.791 246.264C393.638 246.264 392.246 247.885 392.246 250.217C392.246 252.518 393.588 254.154 395.806 254.154ZM400.532 254H402.019V246.364H400.532V254ZM401.283 245.185C401.795 245.185 402.223 244.788 402.223 244.3C402.223 243.813 401.795 243.411 401.283 243.411C400.766 243.411 400.344 243.813 400.344 244.3C400.344 244.788 400.766 245.185 401.283 245.185ZM407.31 254.154C408.975 254.154 410.154 253.334 410.492 252.091L409.085 251.837C408.816 252.558 408.17 252.926 407.325 252.926C406.052 252.926 405.197 252.101 405.157 250.629H410.586V250.102C410.586 247.343 408.936 246.264 407.206 246.264C405.078 246.264 403.676 247.885 403.676 250.232C403.676 252.603 405.058 254.154 407.31 254.154ZM405.162 249.516C405.222 248.432 406.007 247.492 407.216 247.492C408.369 247.492 409.125 248.347 409.13 249.516H405.162ZM413.722 249.466C413.722 248.248 414.468 247.552 415.502 247.552C416.511 247.552 417.123 248.213 417.123 249.322V254H418.609V249.143C418.609 247.254 417.57 246.264 416.009 246.264C414.861 246.264 414.11 246.796 413.757 247.607H413.662V246.364H412.236V254H413.722V249.466ZM424.167 246.364H422.601V244.534H421.115V246.364H419.996V247.557H421.115V252.066C421.11 253.453 422.169 254.124 423.342 254.099C423.814 254.094 424.133 254.005 424.307 253.94L424.038 252.712C423.939 252.732 423.755 252.777 423.516 252.777C423.034 252.777 422.601 252.618 422.601 251.758V247.557H424.167V246.364ZM429.636 254H431.172V249.56H435.498V248.243H431.172V245.141H435.95V243.818H429.636V254ZM442.079 250.833C442.084 252.131 441.119 252.747 440.284 252.747C439.364 252.747 438.728 252.081 438.728 251.042V246.364H437.241V251.221C437.241 253.115 438.281 254.099 439.747 254.099C440.896 254.099 441.676 253.493 442.029 252.678H442.109V254H443.57V246.364H442.079V250.833ZM447.054 249.466C447.054 248.248 447.8 247.552 448.834 247.552C449.843 247.552 450.455 248.213 450.455 249.322V254H451.941V249.143C451.941 247.254 450.902 246.264 449.341 246.264C448.193 246.264 447.442 246.796 447.089 247.607H446.994V246.364H445.568V254H447.054V249.466ZM456.794 254.149C458.186 254.149 458.732 253.299 459.001 252.812H459.125V254H460.577V243.818H459.09V247.602H459.001C458.732 247.129 458.225 246.264 456.803 246.264C454.959 246.264 453.602 247.721 453.602 250.197C453.602 252.668 454.939 254.149 456.794 254.149ZM457.122 252.881C455.794 252.881 455.103 251.713 455.103 250.182C455.103 248.665 455.779 247.527 457.122 247.527C458.419 247.527 459.115 248.586 459.115 250.182C459.115 251.788 458.404 252.881 457.122 252.881ZM468.421 248.228C468.113 247.04 467.183 246.264 465.532 246.264C463.807 246.264 462.584 247.174 462.584 248.526C462.584 249.61 463.24 250.331 464.672 250.649L465.965 250.933C466.701 251.097 467.044 251.425 467.044 251.902C467.044 252.494 466.412 252.956 465.438 252.956C464.548 252.956 463.976 252.573 463.797 251.822L462.36 252.041C462.609 253.393 463.733 254.154 465.448 254.154C467.292 254.154 468.57 253.175 468.57 251.793C468.57 250.714 467.884 250.048 466.482 249.724L465.269 249.446C464.429 249.247 464.066 248.964 464.071 248.447C464.066 247.86 464.702 247.442 465.547 247.442C466.472 247.442 466.9 247.955 467.074 248.467L468.421 248.228Z" fill="#991B1B"/>
<path d="M11.5 218H499.5V216H11.5V218ZM504.5 223V275H506.5V223H504.5ZM499.5 280H11.5V282H499.5V280ZM6.5 275V223H4.5V275H6.5ZM11.5 280C8.73859 280 6.5 277.761 6.5 275H4.5C4.5 278.866 7.63402 282 11.5 282V280ZM504.5 275C504.5 277.761 502.261 280 499.5 280V282C503.366 282 506.5 278.866 506.5 275H504.5ZM499.5 218C502.261 218 504.5 220.239 504.5 223H506.5C506.5 219.134 503.366 216 499.5 216V218ZM11.5 216C7.63401 216 4.5 219.134 4.5 223H6.5C6.5 220.239 8.73858 218 11.5 218V216Z" fill="#D1D5DB"/>
</g>
<defs>
<filter id="filter0_dd" x="0.5" y="0" width="510" height="74" filterUnits="userSpaceOnUse" color-interpolation-filters="sRGB">
<feFlood flood-opacity="0" result="BackgroundImageFix"/>
<feColorMatrix in="SourceAlpha" type="matrix" values="0 0 0 0 0 0 0 0 0 0 0 0 0 0 0 0 0 0 127 0"/>
<feMorphology radius="1" operator="erode" in="SourceAlpha" result="effect1_dropShadow"/>
<feOffset dy="2"/>
<feGaussianBlur stdDeviation="2"/>
<feColorMatrix type="matrix" values="0 0 0 0 0 0 0 0 0 0 0 0 0 0 0 0 0 0 0.06 0"/>
<feBlend mode="normal" in2="BackgroundImageFix" result="effect1_dropShadow"/>
<feColorMatrix in="SourceAlpha" type="matrix" values="0 0 0 0 0 0 0 0 0 0 0 0 0 0 0 0 0 0 127 0"/>
<feMorphology radius="1" operator="erode" in="SourceAlpha" result="effect2_dropShadow"/>
<feOffset dy="4"/>
<feGaussianBlur stdDeviation="3"/>
<feColorMatrix type="matrix" values="0 0 0 0 0 0 0 0 0 0 0 0 0 0 0 0 0 0 0.1 0"/>
<feBlend mode="normal" in2="effect1_dropShadow" result="effect2_dropShadow"/>
<feBlend mode="normal" in="SourceGraphic" in2="effect2_dropShadow" result="shape"/>
</filter>
<filter id="filter1_dd" x="0.5" y="72" width="510" height="74" filterUnits="userSpaceOnUse" color-interpolation-filters="sRGB">
<feFlood flood-opacity="0" result="BackgroundImageFix"/>
<feColorMatrix in="SourceAlpha" type="matrix" values="0 0 0 0 0 0 0 0 0 0 0 0 0 0 0 0 0 0 127 0"/>
<feMorphology radius="1" operator="erode" in="SourceAlpha" result="effect1_dropShadow"/>
<feOffset dy="2"/>
<feGaussianBlur stdDeviation="2"/>
<feColorMatrix type="matrix" values="0 0 0 0 0 0 0 0 0 0 0 0 0 0 0 0 0 0 0.06 0"/>
<feBlend mode="normal" in2="BackgroundImageFix" result="effect1_dropShadow"/>
<feColorMatrix in="SourceAlpha" type="matrix" values="0 0 0 0 0 0 0 0 0 0 0 0 0 0 0 0 0 0 127 0"/>
<feMorphology radius="1" operator="erode" in="SourceAlpha" result="effect2_dropShadow"/>
<feOffset dy="4"/>
<feGaussianBlur stdDeviation="3"/>
<feColorMatrix type="matrix" values="0 0 0 0 0 0 0 0 0 0 0 0 0 0 0 0 0 0 0.1 0"/>
<feBlend mode="normal" in2="effect1_dropShadow" result="effect2_dropShadow"/>
<feBlend mode="normal" in="SourceGraphic" in2="effect2_dropShadow" result="shape"/>
</filter>
<filter id="filter2_dd" x="0.5" y="144" width="510" height="74" filterUnits="userSpaceOnUse" color-interpolation-filters="sRGB">
<feFlood flood-opacity="0" result="BackgroundImageFix"/>
<feColorMatrix in="SourceAlpha" type="matrix" values="0 0 0 0 0 0 0 0 0 0 0 0 0 0 0 0 0 0 127 0"/>
<feMorphology radius="1" operator="erode" in="SourceAlpha" result="effect1_dropShadow"/>
<feOffset dy="2"/>
<feGaussianBlur stdDeviation="2"/>
<feColorMatrix type="matrix" values="0 0 0 0 0 0 0 0 0 0 0 0 0 0 0 0 0 0 0.06 0"/>
<feBlend mode="normal" in2="BackgroundImageFix" result="effect1_dropShadow"/>
<feColorMatrix in="SourceAlpha" type="matrix" values="0 0 0 0 0 0 0 0 0 0 0 0 0 0 0 0 0 0 127 0"/>
<feMorphology radius="1" operator="erode" in="SourceAlpha" result="effect2_dropShadow"/>
<feOffset dy="4"/>
<feGaussianBlur stdDeviation="3"/>
<feColorMatrix type="matrix" values="0 0 0 0 0 0 0 0 0 0 0 0 0 0 0 0 0 0 0.1 0"/>
<feBlend mode="normal" in2="effect1_dropShadow" result="effect2_dropShadow"/>
<feBlend mode="normal" in="SourceGraphic" in2="effect2_dropShadow" result="shape"/>
</filter>
<filter id="filter3_dd" x="0.5" y="216" width="510" height="74" filterUnits="userSpaceOnUse" color-interpolation-filters="sRGB">
<feFlood flood-opacity="0" result="BackgroundImageFix"/>
<feColorMatrix in="SourceAlpha" type="matrix" values="0 0 0 0 0 0 0 0 0 0 0 0 0 0 0 0 0 0 127 0"/>
<feMorphology radius="1" operator="erode" in="SourceAlpha" result="effect1_dropShadow"/>
<feOffset dy="2"/>
<feGaussianBlur stdDeviation="2"/>
<feColorMatrix type="matrix" values="0 0 0 0 0 0 0 0 0 0 0 0 0 0 0 0 0 0 0.06 0"/>
<feBlend mode="normal" in2="BackgroundImageFix" result="effect1_dropShadow"/>
<feColorMatrix in="SourceAlpha" type="matrix" values="0 0 0 0 0 0 0 0 0 0 0 0 0 0 0 0 0 0 127 0"/>
<feMorphology radius="1" operator="erode" in="SourceAlpha" result="effect2_dropShadow"/>
<feOffset dy="4"/>
<feGaussianBlur stdDeviation="3"/>
<feColorMatrix type="matrix" values="0 0 0 0 0 0 0 0 0 0 0 0 0 0 0 0 0 0 0.1 0"/>
<feBlend mode="normal" in2="effect1_dropShadow" result="effect2_dropShadow"/>
<feBlend mode="normal" in="SourceGraphic" in2="effect2_dropShadow" result="shape"/>
</filter>
<clipPath id="clip0">
<path d="M29.5 33C29.5 24.1634 36.6634 17 45.5 17C54.3366 17 61.5 24.1634 61.5 33C61.5 41.8366 54.3366 49 45.5 49C36.6634 49 29.5 41.8366 29.5 33Z" fill="white"/>
</clipPath>
<clipPath id="clip1">
<path d="M29.5 33C29.5 24.1634 36.6634 17 45.5 17C54.3366 17 61.5 24.1634 61.5 33C61.5 41.8366 54.3366 49 45.5 49C36.6634 49 29.5 41.8366 29.5 33Z" fill="white"/>
</clipPath>
<clipPath id="clip2">
<path d="M29.5 105C29.5 96.1634 36.6634 89 45.5 89C54.3366 89 61.5 96.1634 61.5 105C61.5 113.837 54.3366 121 45.5 121C36.6634 121 29.5 113.837 29.5 105Z" fill="white"/>
</clipPath>
<clipPath id="clip3">
<path d="M29.5 105C29.5 96.1634 36.6634 89 45.5 89C54.3366 89 61.5 96.1634 61.5 105C61.5 113.837 54.3366 121 45.5 121C36.6634 121 29.5 113.837 29.5 105Z" fill="white"/>
</clipPath>
<clipPath id="clip4">
<path d="M29.5 177C29.5 168.163 36.6634 161 45.5 161C54.3366 161 61.5 168.163 61.5 177C61.5 185.837 54.3366 193 45.5 193C36.6634 193 29.5 185.837 29.5 177Z" fill="white"/>
</clipPath>
<clipPath id="clip5">
<path d="M29.5 177C29.5 168.163 36.6634 161 45.5 161C54.3366 161 61.5 168.163 61.5 177C61.5 185.837 54.3366 193 45.5 193C36.6634 193 29.5 185.837 29.5 177Z" fill="white"/>
</clipPath>
<clipPath id="clip6">
<path d="M29.5 249C29.5 240.163 36.6634 233 45.5 233C54.3366 233 61.5 240.163 61.5 249C61.5 257.837 54.3366 265 45.5 265C36.6634 265 29.5 257.837 29.5 249Z" fill="white"/>
</clipPath>
<clipPath id="clip7">
<path d="M29.5 249C29.5 240.163 36.6634 233 45.5 233C54.3366 233 61.5 240.163 61.5 249C61.5 257.837 54.3366 265 45.5 265C36.6634 265 29.5 257.837 29.5 249Z" fill="white"/>
</clipPath>
</defs>
</svg>
