<svg width="838" height="465" viewBox="0 0 838 465" fill="none" xmlns="http://www.w3.org/2000/svg">
<g clip-path="url(#clip0_2475_8462)">
<rect x="310.5" y="38" width="217" height="56" rx="2" fill="#E5E7EB"/>
<path d="M343.5 74H348.5V72C348.5 70.3431 347.157 69 345.5 69C344.544 69 343.693 69.4468 343.144 70.1429M343.5 74H333.5M343.5 74V72C343.5 71.3438 343.374 70.717 343.144 70.1429M333.5 74H328.5V72C328.5 70.3431 329.843 69 331.5 69C332.456 69 333.307 69.4468 333.856 70.1429M333.5 74V72C333.5 71.3438 333.626 70.717 333.856 70.1429M333.856 70.1429C334.594 68.301 336.395 67 338.5 67C340.605 67 342.406 68.301 343.144 70.1429M341.5 61C341.5 62.6569 340.157 64 338.5 64C336.843 64 335.5 62.6569 335.5 61C335.5 59.3431 336.843 58 338.5 58C340.157 58 341.5 59.3431 341.5 61ZM347.5 64C347.5 65.1046 346.605 66 345.5 66C344.395 66 343.5 65.1046 343.5 64C343.5 62.8954 344.395 62 345.5 62C346.605 62 347.5 62.8954 347.5 64ZM333.5 64C333.5 65.1046 332.605 66 331.5 66C330.395 66 329.5 65.1046 329.5 64C329.5 62.8954 330.395 62 331.5 62C332.605 62 333.5 62.8954 333.5 64Z" stroke="#333942" stroke-width="2" stroke-linecap="round" stroke-linejoin="round"/>
<path d="M361.909 72V60.3636H365.841C366.75 60.3636 367.496 60.5189 368.08 60.8295C368.663 61.1364 369.095 61.5587 369.375 62.0966C369.655 62.6345 369.795 63.2462 369.795 63.9318C369.795 64.6174 369.655 65.2254 369.375 65.7557C369.095 66.286 368.665 66.7027 368.085 67.0057C367.506 67.3049 366.765 67.4545 365.864 67.4545H362.682V66.1818H365.818C366.439 66.1818 366.939 66.0909 367.318 65.9091C367.701 65.7273 367.977 65.4697 368.148 65.1364C368.322 64.7992 368.409 64.3977 368.409 63.9318C368.409 63.4659 368.322 63.0587 368.148 62.7102C367.973 62.3617 367.695 62.0928 367.312 61.9034C366.93 61.7102 366.424 61.6136 365.795 61.6136H363.318V72H361.909ZM367.386 66.7727L370.25 72H368.614L365.795 66.7727H367.386ZM375.527 72.1818C374.686 72.1818 373.961 71.9962 373.351 71.625C372.745 71.25 372.277 70.7273 371.947 70.0568C371.622 69.3826 371.459 68.5985 371.459 67.7045C371.459 66.8106 371.622 66.0227 371.947 65.3409C372.277 64.6553 372.735 64.1212 373.322 63.7386C373.913 63.3523 374.603 63.1591 375.391 63.1591C375.845 63.1591 376.294 63.2348 376.737 63.3864C377.18 63.5379 377.584 63.7841 377.947 64.125C378.311 64.4621 378.601 64.9091 378.817 65.4659C379.033 66.0227 379.141 66.7083 379.141 67.5227V68.0909H372.413V66.9318H377.777C377.777 66.4394 377.679 66 377.482 65.6136C377.288 65.2273 377.012 64.9223 376.652 64.6989C376.296 64.4754 375.875 64.3636 375.391 64.3636C374.857 64.3636 374.394 64.4962 374.004 64.7614C373.618 65.0227 373.321 65.3636 373.112 65.7841C372.904 66.2045 372.8 66.6553 372.8 67.1364V67.9091C372.8 68.5682 372.913 69.1269 373.141 69.5852C373.372 70.0398 373.692 70.3864 374.101 70.625C374.51 70.8598 374.985 70.9773 375.527 70.9773C375.879 70.9773 376.197 70.928 376.482 70.8295C376.769 70.7273 377.018 70.5758 377.226 70.375C377.434 70.1705 377.595 69.9167 377.709 69.6136L379.004 69.9773C378.868 70.4167 378.639 70.803 378.317 71.1364C377.995 71.4659 377.597 71.7235 377.124 71.9091C376.65 72.0909 376.118 72.1818 375.527 72.1818ZM383.749 72.2045C383.196 72.2045 382.694 72.1004 382.243 71.892C381.792 71.6799 381.434 71.375 381.169 70.9773C380.904 70.5758 380.771 70.0909 380.771 69.5227C380.771 69.0227 380.87 68.6174 381.067 68.3068C381.264 67.9924 381.527 67.7462 381.857 67.5682C382.186 67.3902 382.55 67.2576 382.947 67.1705C383.349 67.0795 383.752 67.0076 384.158 66.9545C384.688 66.8864 385.118 66.8352 385.447 66.8011C385.781 66.7633 386.023 66.7008 386.175 66.6136C386.33 66.5265 386.408 66.375 386.408 66.1591V66.1136C386.408 65.553 386.254 65.1174 385.947 64.8068C385.644 64.4962 385.184 64.3409 384.567 64.3409C383.927 64.3409 383.425 64.4811 383.061 64.7614C382.697 65.0417 382.442 65.3409 382.294 65.6591L381.021 65.2045C381.249 64.6742 381.552 64.2614 381.93 63.9659C382.313 63.6667 382.73 63.4583 383.18 63.3409C383.635 63.2197 384.082 63.1591 384.521 63.1591C384.802 63.1591 385.124 63.1932 385.487 63.2614C385.855 63.3258 386.209 63.4602 386.55 63.6648C386.894 63.8693 387.18 64.178 387.408 64.5909C387.635 65.0038 387.749 65.5568 387.749 66.25V72H386.408V70.8182H386.339C386.249 71.0076 386.097 71.2102 385.885 71.4261C385.673 71.642 385.391 71.8258 385.038 71.9773C384.686 72.1288 384.256 72.2045 383.749 72.2045ZM383.953 71C384.483 71 384.93 70.8958 385.294 70.6875C385.661 70.4792 385.938 70.2102 386.124 69.8807C386.313 69.5511 386.408 69.2045 386.408 68.8409V67.6136C386.351 67.6818 386.226 67.7443 386.033 67.8011C385.843 67.8542 385.624 67.9015 385.374 67.9432C385.127 67.9811 384.887 68.0152 384.652 68.0455C384.421 68.072 384.233 68.0947 384.089 68.1136C383.741 68.1591 383.415 68.233 383.112 68.3352C382.813 68.4337 382.571 68.5833 382.385 68.7841C382.203 68.9811 382.112 69.25 382.112 69.5909C382.112 70.0568 382.285 70.4091 382.629 70.6477C382.978 70.8826 383.419 71 383.953 71ZM391.537 60.3636V72H390.196V60.3636H391.537ZM393.993 72V63.2727H395.334V72H393.993ZM394.675 61.8182C394.413 61.8182 394.188 61.7292 393.999 61.5511C393.813 61.3731 393.72 61.1591 393.72 60.9091C393.72 60.6591 393.813 60.4451 393.999 60.267C394.188 60.089 394.413 60 394.675 60C394.936 60 395.16 60.089 395.345 60.267C395.535 60.4451 395.629 60.6591 395.629 60.9091C395.629 61.1591 395.535 61.3731 395.345 61.5511C395.16 61.7292 394.936 61.8182 394.675 61.8182ZM403.29 68.4318V63.2727H404.631V72H403.29V70.5227H403.199C402.994 70.9659 402.676 71.3428 402.244 71.6534C401.813 71.9602 401.267 72.1136 400.608 72.1136C400.062 72.1136 399.578 71.9943 399.153 71.7557C398.729 71.5133 398.396 71.1496 398.153 70.6648C397.911 70.1761 397.79 69.5606 397.79 68.8182V63.2727H399.131V68.7273C399.131 69.3636 399.309 69.8712 399.665 70.25C400.025 70.6288 400.483 70.8182 401.04 70.8182C401.373 70.8182 401.712 70.733 402.057 70.5625C402.405 70.392 402.697 70.1307 402.932 69.7784C403.17 69.4261 403.29 68.9773 403.29 68.4318ZM407.087 72V63.2727H408.382V64.6364H408.496C408.678 64.1705 408.971 63.8087 409.376 63.5511C409.782 63.2898 410.268 63.1591 410.837 63.1591C411.412 63.1591 411.892 63.2898 412.274 63.5511C412.661 63.8087 412.962 64.1705 413.178 64.6364H413.268C413.492 64.1856 413.827 63.8277 414.274 63.5625C414.721 63.2936 415.257 63.1591 415.882 63.1591C416.662 63.1591 417.301 63.4034 417.797 63.892C418.293 64.3769 418.541 65.1326 418.541 66.1591V72H417.2V66.1591C417.2 65.5152 417.024 65.0549 416.672 64.7784C416.32 64.5019 415.905 64.3636 415.428 64.3636C414.814 64.3636 414.339 64.5492 414.001 64.9205C413.664 65.2879 413.496 65.7538 413.496 66.3182V72H412.132V66.0227C412.132 65.5265 411.971 65.1269 411.649 64.8239C411.327 64.517 410.912 64.3636 410.405 64.3636C410.056 64.3636 409.731 64.4564 409.428 64.642C409.128 64.8277 408.886 65.0852 408.7 65.4148C408.518 65.7405 408.428 66.1174 408.428 66.5455V72H407.087ZM425.675 60.3636H427.357L431.311 70.0227H431.447L435.402 60.3636H437.084V72H435.766V63.1591H435.652L432.016 72H430.743L427.107 63.1591H426.993V72H425.675V60.3636ZM442.295 72.2045C441.742 72.2045 441.241 72.1004 440.79 71.892C440.339 71.6799 439.981 71.375 439.716 70.9773C439.451 70.5758 439.318 70.0909 439.318 69.5227C439.318 69.0227 439.417 68.6174 439.614 68.3068C439.811 67.9924 440.074 67.7462 440.403 67.5682C440.733 67.3902 441.097 67.2576 441.494 67.1705C441.896 67.0795 442.299 67.0076 442.705 66.9545C443.235 66.8864 443.665 66.8352 443.994 66.8011C444.328 66.7633 444.57 66.7008 444.722 66.6136C444.877 66.5265 444.955 66.375 444.955 66.1591V66.1136C444.955 65.553 444.801 65.1174 444.494 64.8068C444.191 64.4962 443.731 64.3409 443.114 64.3409C442.473 64.3409 441.972 64.4811 441.608 64.7614C441.244 65.0417 440.989 65.3409 440.841 65.6591L439.568 65.2045C439.795 64.6742 440.098 64.2614 440.477 63.9659C440.86 63.6667 441.277 63.4583 441.727 63.3409C442.182 63.2197 442.629 63.1591 443.068 63.1591C443.348 63.1591 443.67 63.1932 444.034 63.2614C444.402 63.3258 444.756 63.4602 445.097 63.6648C445.441 63.8693 445.727 64.178 445.955 64.5909C446.182 65.0038 446.295 65.5568 446.295 66.25V72H444.955V70.8182H444.886C444.795 71.0076 444.644 71.2102 444.432 71.4261C444.22 71.642 443.938 71.8258 443.585 71.9773C443.233 72.1288 442.803 72.2045 442.295 72.2045ZM442.5 71C443.03 71 443.477 70.8958 443.841 70.6875C444.208 70.4792 444.485 70.2102 444.67 69.8807C444.86 69.5511 444.955 69.2045 444.955 68.8409V67.6136C444.898 67.6818 444.773 67.7443 444.58 67.8011C444.39 67.8542 444.17 67.9015 443.92 67.9432C443.674 67.9811 443.434 68.0152 443.199 68.0455C442.968 68.072 442.78 68.0947 442.636 68.1136C442.288 68.1591 441.962 68.233 441.659 68.3352C441.36 68.4337 441.117 68.5833 440.932 68.7841C440.75 68.9811 440.659 69.25 440.659 69.5909C440.659 70.0568 440.831 70.4091 441.176 70.6477C441.525 70.8826 441.966 71 442.5 71ZM454.925 65.2273L453.72 65.5682C453.644 65.3674 453.533 65.1723 453.385 64.983C453.241 64.7898 453.044 64.6307 452.794 64.5057C452.544 64.3807 452.224 64.3182 451.834 64.3182C451.3 64.3182 450.855 64.4413 450.499 64.6875C450.146 64.9299 449.97 65.2386 449.97 65.6136C449.97 65.947 450.091 66.2102 450.334 66.4034C450.576 66.5966 450.955 66.7576 451.47 66.8864L452.766 67.2045C453.546 67.3939 454.127 67.6837 454.51 68.0739C454.893 68.4602 455.084 68.9583 455.084 69.5682C455.084 70.0682 454.94 70.5152 454.652 70.9091C454.368 71.303 453.97 71.6136 453.459 71.8409C452.947 72.0682 452.353 72.1818 451.675 72.1818C450.785 72.1818 450.048 71.9886 449.464 71.6023C448.881 71.2159 448.512 70.6515 448.357 69.9091L449.629 69.5909C449.75 70.0606 449.98 70.4129 450.317 70.6477C450.658 70.8826 451.103 71 451.652 71C452.277 71 452.773 70.8674 453.141 70.6023C453.512 70.3333 453.697 70.0114 453.697 69.6364C453.697 69.3333 453.591 69.0795 453.379 68.875C453.167 68.6667 452.841 68.5114 452.402 68.4091L450.947 68.0682C450.148 67.8788 449.561 67.5852 449.186 67.1875C448.815 66.786 448.629 66.2841 448.629 65.6818C448.629 65.1894 448.768 64.7538 449.044 64.375C449.324 63.9962 449.705 63.6989 450.186 63.483C450.671 63.267 451.22 63.1591 451.834 63.1591C452.697 63.1591 453.375 63.3485 453.868 63.7273C454.364 64.1061 454.716 64.6061 454.925 65.2273ZM460.898 63.2727V64.4091H456.375V63.2727H460.898ZM457.693 61.1818H459.034V69.5C459.034 69.8788 459.089 70.1629 459.199 70.3523C459.313 70.5379 459.456 70.6629 459.631 70.7273C459.809 70.7879 459.996 70.8182 460.193 70.8182C460.341 70.8182 460.462 70.8106 460.557 70.7955C460.652 70.7765 460.727 70.7614 460.784 70.75L461.057 71.9545C460.966 71.9886 460.839 72.0227 460.676 72.0568C460.513 72.0947 460.307 72.1136 460.057 72.1136C459.678 72.1136 459.307 72.0322 458.943 71.8693C458.583 71.7064 458.284 71.4583 458.045 71.125C457.811 70.7917 457.693 70.3712 457.693 69.8636V61.1818ZM466.48 72.1818C465.639 72.1818 464.914 71.9962 464.304 71.625C463.698 71.25 463.23 70.7273 462.901 70.0568C462.575 69.3826 462.412 68.5985 462.412 67.7045C462.412 66.8106 462.575 66.0227 462.901 65.3409C463.23 64.6553 463.688 64.1212 464.276 63.7386C464.866 63.3523 465.556 63.1591 466.344 63.1591C466.798 63.1591 467.247 63.2348 467.69 63.3864C468.134 63.5379 468.537 63.7841 468.901 64.125C469.264 64.4621 469.554 64.9091 469.77 65.4659C469.986 66.0227 470.094 66.7083 470.094 67.5227V68.0909H463.366V66.9318H468.73C468.73 66.4394 468.632 66 468.435 65.6136C468.241 65.2273 467.965 64.9223 467.605 64.6989C467.249 64.4754 466.829 64.3636 466.344 64.3636C465.81 64.3636 465.348 64.4962 464.957 64.7614C464.571 65.0227 464.274 65.3636 464.065 65.7841C463.857 66.2045 463.753 66.6553 463.753 67.1364V67.9091C463.753 68.5682 463.866 69.1269 464.094 69.5852C464.325 70.0398 464.645 70.3864 465.054 70.625C465.463 70.8598 465.938 70.9773 466.48 70.9773C466.832 70.9773 467.151 70.928 467.435 70.8295C467.723 70.7273 467.971 70.5758 468.179 70.375C468.387 70.1705 468.548 69.9167 468.662 69.6136L469.957 69.9773C469.821 70.4167 469.592 70.803 469.27 71.1364C468.948 71.4659 468.55 71.7235 468.077 71.9091C467.603 72.0909 467.071 72.1818 466.48 72.1818ZM472.134 72V63.2727H473.429V64.5909H473.52C473.679 64.1591 473.967 63.8087 474.384 63.5398C474.8 63.2708 475.27 63.1364 475.793 63.1364C475.891 63.1364 476.014 63.1383 476.162 63.142C476.31 63.1458 476.421 63.1515 476.497 63.1591V64.5227C476.452 64.5114 476.348 64.4943 476.185 64.4716C476.026 64.4451 475.857 64.4318 475.679 64.4318C475.255 64.4318 474.876 64.5208 474.543 64.6989C474.213 64.8731 473.952 65.1155 473.759 65.4261C473.569 65.733 473.474 66.0833 473.474 66.4773V72H472.134ZM482.768 72V60.3636H484.178V70.75H489.587V72H482.768ZM491.768 72V60.3636H493.178V70.75H498.587V72H491.768ZM509.679 64H508.27C508.187 63.5947 508.041 63.2386 507.832 62.9318C507.628 62.625 507.378 62.3674 507.082 62.1591C506.791 61.947 506.467 61.7879 506.111 61.6818C505.755 61.5758 505.384 61.5227 504.997 61.5227C504.293 61.5227 503.654 61.7008 503.082 62.0568C502.514 62.4129 502.062 62.9375 501.724 63.6307C501.391 64.3239 501.224 65.1742 501.224 66.1818C501.224 67.1894 501.391 68.0398 501.724 68.733C502.062 69.4261 502.514 69.9508 503.082 70.3068C503.654 70.6629 504.293 70.8409 504.997 70.8409C505.384 70.8409 505.755 70.7879 506.111 70.6818C506.467 70.5758 506.791 70.4186 507.082 70.2102C507.378 69.9981 507.628 69.7386 507.832 69.4318C508.041 69.1212 508.187 68.7652 508.27 68.3636H509.679C509.573 68.9583 509.38 69.4905 509.099 69.9602C508.819 70.4299 508.471 70.8295 508.054 71.1591C507.637 71.4848 507.17 71.733 506.651 71.9034C506.135 72.0739 505.584 72.1591 504.997 72.1591C504.005 72.1591 503.122 71.9167 502.349 71.4318C501.577 70.947 500.969 70.2576 500.526 69.3636C500.082 68.4697 499.861 67.4091 499.861 66.1818C499.861 64.9545 500.082 63.8939 500.526 63C500.969 62.1061 501.577 61.4167 502.349 60.9318C503.122 60.447 504.005 60.2045 504.997 60.2045C505.584 60.2045 506.135 60.2898 506.651 60.4602C507.17 60.6307 507.637 60.8807 508.054 61.2102C508.471 61.536 508.819 61.9337 509.099 62.4034C509.38 62.8693 509.573 63.4015 509.679 64Z" fill="#333942"/>
<rect width="223" height="56" transform="translate(32.5 157)" fill="#F3F4F6"/>
<path d="M51.5 185L53.5 183M53.5 183L60.5 176L67.5 183M53.5 183V193C53.5 193.552 53.9477 194 54.5 194H57.5M67.5 183L69.5 185M67.5 183V193C67.5 193.552 67.0523 194 66.5 194H63.5M57.5 194C58.0523 194 58.5 193.552 58.5 193V189C58.5 188.448 58.9477 188 59.5 188H61.5C62.0523 188 62.5 188.448 62.5 189V193C62.5 193.552 62.9477 194 63.5 194M57.5 194H63.5" stroke="#333942" stroke-width="2" stroke-linecap="round" stroke-linejoin="round"/>
<path d="M83.9091 191V179.364H87.8409C88.75 179.364 89.4962 179.519 90.0795 179.83C90.6629 180.136 91.0947 180.559 91.375 181.097C91.6553 181.634 91.7955 182.246 91.7955 182.932C91.7955 183.617 91.6553 184.225 91.375 184.756C91.0947 185.286 90.6648 185.703 90.0852 186.006C89.5057 186.305 88.7652 186.455 87.8636 186.455H84.6818V185.182H87.8182C88.4394 185.182 88.9394 185.091 89.3182 184.909C89.7008 184.727 89.9773 184.47 90.1477 184.136C90.322 183.799 90.4091 183.398 90.4091 182.932C90.4091 182.466 90.322 182.059 90.1477 181.71C89.9735 181.362 89.6951 181.093 89.3125 180.903C88.9299 180.71 88.4242 180.614 87.7955 180.614H85.3182V191H83.9091ZM89.3864 185.773L92.25 191H90.6136L87.7955 185.773H89.3864ZM97.527 191.182C96.6861 191.182 95.9607 190.996 95.3509 190.625C94.7448 190.25 94.277 189.727 93.9474 189.057C93.6217 188.383 93.4588 187.598 93.4588 186.705C93.4588 185.811 93.6217 185.023 93.9474 184.341C94.277 183.655 94.7353 183.121 95.3224 182.739C95.9134 182.352 96.6027 182.159 97.3906 182.159C97.8452 182.159 98.294 182.235 98.7372 182.386C99.1804 182.538 99.5838 182.784 99.9474 183.125C100.311 183.462 100.601 183.909 100.817 184.466C101.033 185.023 101.141 185.708 101.141 186.523V187.091H94.4134V185.932H99.777C99.777 185.439 99.6785 185 99.4815 184.614C99.2884 184.227 99.0118 183.922 98.652 183.699C98.2959 183.475 97.8755 183.364 97.3906 183.364C96.8565 183.364 96.3944 183.496 96.0043 183.761C95.6179 184.023 95.3205 184.364 95.1122 184.784C94.9039 185.205 94.7997 185.655 94.7997 186.136V186.909C94.7997 187.568 94.9134 188.127 95.1406 188.585C95.3717 189.04 95.6918 189.386 96.1009 189.625C96.5099 189.86 96.9853 189.977 97.527 189.977C97.8793 189.977 98.1974 189.928 98.4815 189.83C98.7694 189.727 99.0175 189.576 99.2259 189.375C99.4342 189.17 99.5952 188.917 99.7088 188.614L101.004 188.977C100.868 189.417 100.639 189.803 100.317 190.136C99.9948 190.466 99.5971 190.723 99.1236 190.909C98.6501 191.091 98.1179 191.182 97.527 191.182ZM105.749 191.205C105.196 191.205 104.694 191.1 104.243 190.892C103.792 190.68 103.434 190.375 103.169 189.977C102.904 189.576 102.771 189.091 102.771 188.523C102.771 188.023 102.87 187.617 103.067 187.307C103.264 186.992 103.527 186.746 103.857 186.568C104.186 186.39 104.55 186.258 104.947 186.17C105.349 186.08 105.752 186.008 106.158 185.955C106.688 185.886 107.118 185.835 107.447 185.801C107.781 185.763 108.023 185.701 108.175 185.614C108.33 185.527 108.408 185.375 108.408 185.159V185.114C108.408 184.553 108.254 184.117 107.947 183.807C107.644 183.496 107.184 183.341 106.567 183.341C105.927 183.341 105.425 183.481 105.061 183.761C104.697 184.042 104.442 184.341 104.294 184.659L103.021 184.205C103.249 183.674 103.552 183.261 103.93 182.966C104.313 182.667 104.73 182.458 105.18 182.341C105.635 182.22 106.082 182.159 106.521 182.159C106.802 182.159 107.124 182.193 107.487 182.261C107.855 182.326 108.209 182.46 108.55 182.665C108.894 182.869 109.18 183.178 109.408 183.591C109.635 184.004 109.749 184.557 109.749 185.25V191H108.408V189.818H108.339C108.249 190.008 108.097 190.21 107.885 190.426C107.673 190.642 107.391 190.826 107.038 190.977C106.686 191.129 106.256 191.205 105.749 191.205ZM105.953 190C106.483 190 106.93 189.896 107.294 189.688C107.661 189.479 107.938 189.21 108.124 188.881C108.313 188.551 108.408 188.205 108.408 187.841V186.614C108.351 186.682 108.226 186.744 108.033 186.801C107.843 186.854 107.624 186.902 107.374 186.943C107.127 186.981 106.887 187.015 106.652 187.045C106.421 187.072 106.233 187.095 106.089 187.114C105.741 187.159 105.415 187.233 105.112 187.335C104.813 187.434 104.571 187.583 104.385 187.784C104.203 187.981 104.112 188.25 104.112 188.591C104.112 189.057 104.285 189.409 104.629 189.648C104.978 189.883 105.419 190 105.953 190ZM113.537 179.364V191H112.196V179.364H113.537ZM115.993 191V182.273H117.334V191H115.993ZM116.675 180.818C116.413 180.818 116.188 180.729 115.999 180.551C115.813 180.373 115.72 180.159 115.72 179.909C115.72 179.659 115.813 179.445 115.999 179.267C116.188 179.089 116.413 179 116.675 179C116.936 179 117.16 179.089 117.345 179.267C117.535 179.445 117.629 179.659 117.629 179.909C117.629 180.159 117.535 180.373 117.345 180.551C117.16 180.729 116.936 180.818 116.675 180.818ZM125.29 187.432V182.273H126.631V191H125.29V189.523H125.199C124.994 189.966 124.676 190.343 124.244 190.653C123.813 190.96 123.267 191.114 122.608 191.114C122.062 191.114 121.578 190.994 121.153 190.756C120.729 190.513 120.396 190.15 120.153 189.665C119.911 189.176 119.79 188.561 119.79 187.818V182.273H121.131V187.727C121.131 188.364 121.309 188.871 121.665 189.25C122.025 189.629 122.483 189.818 123.04 189.818C123.373 189.818 123.712 189.733 124.057 189.562C124.405 189.392 124.697 189.131 124.932 188.778C125.17 188.426 125.29 187.977 125.29 187.432ZM129.087 191V182.273H130.382V183.636H130.496C130.678 183.17 130.971 182.809 131.376 182.551C131.782 182.29 132.268 182.159 132.837 182.159C133.412 182.159 133.892 182.29 134.274 182.551C134.661 182.809 134.962 183.17 135.178 183.636H135.268C135.492 183.186 135.827 182.828 136.274 182.562C136.721 182.294 137.257 182.159 137.882 182.159C138.662 182.159 139.301 182.403 139.797 182.892C140.293 183.377 140.541 184.133 140.541 185.159V191H139.2V185.159C139.2 184.515 139.024 184.055 138.672 183.778C138.32 183.502 137.905 183.364 137.428 183.364C136.814 183.364 136.339 183.549 136.001 183.92C135.664 184.288 135.496 184.754 135.496 185.318V191H134.132V185.023C134.132 184.527 133.971 184.127 133.649 183.824C133.327 183.517 132.912 183.364 132.405 183.364C132.056 183.364 131.731 183.456 131.428 183.642C131.128 183.828 130.886 184.085 130.7 184.415C130.518 184.741 130.428 185.117 130.428 185.545V191H129.087ZM154.038 182.273C153.97 181.697 153.694 181.25 153.209 180.932C152.724 180.614 152.129 180.455 151.425 180.455C150.91 180.455 150.459 180.538 150.072 180.705C149.69 180.871 149.391 181.1 149.175 181.392C148.963 181.684 148.857 182.015 148.857 182.386C148.857 182.697 148.93 182.964 149.078 183.188C149.23 183.407 149.423 183.591 149.658 183.739C149.893 183.883 150.139 184.002 150.396 184.097C150.654 184.187 150.891 184.261 151.107 184.318L152.288 184.636C152.591 184.716 152.929 184.826 153.3 184.966C153.675 185.106 154.033 185.297 154.374 185.54C154.718 185.778 155.002 186.085 155.226 186.46C155.449 186.835 155.561 187.295 155.561 187.841C155.561 188.47 155.396 189.038 155.067 189.545C154.741 190.053 154.264 190.456 153.635 190.756C153.01 191.055 152.25 191.205 151.357 191.205C150.523 191.205 149.802 191.07 149.192 190.801C148.586 190.532 148.108 190.157 147.76 189.676C147.415 189.195 147.22 188.636 147.175 188H148.629C148.667 188.439 148.815 188.803 149.072 189.091C149.334 189.375 149.663 189.587 150.061 189.727C150.463 189.864 150.894 189.932 151.357 189.932C151.894 189.932 152.377 189.845 152.805 189.67C153.233 189.492 153.572 189.246 153.822 188.932C154.072 188.614 154.197 188.242 154.197 187.818C154.197 187.432 154.089 187.117 153.874 186.875C153.658 186.633 153.374 186.436 153.021 186.284C152.669 186.133 152.288 186 151.879 185.886L150.447 185.477C149.538 185.216 148.819 184.843 148.288 184.358C147.758 183.873 147.493 183.239 147.493 182.455C147.493 181.803 147.669 181.235 148.021 180.75C148.377 180.261 148.855 179.883 149.453 179.614C150.055 179.341 150.728 179.205 151.47 179.205C152.22 179.205 152.887 179.339 153.47 179.608C154.054 179.873 154.516 180.237 154.857 180.699C155.201 181.161 155.383 181.686 155.402 182.273H154.038ZM161.355 191.182C160.514 191.182 159.789 190.996 159.179 190.625C158.573 190.25 158.105 189.727 157.776 189.057C157.45 188.383 157.287 187.598 157.287 186.705C157.287 185.811 157.45 185.023 157.776 184.341C158.105 183.655 158.563 183.121 159.151 182.739C159.741 182.352 160.431 182.159 161.219 182.159C161.673 182.159 162.122 182.235 162.565 182.386C163.009 182.538 163.412 182.784 163.776 183.125C164.139 183.462 164.429 183.909 164.645 184.466C164.861 185.023 164.969 185.708 164.969 186.523V187.091H158.241V185.932H163.605C163.605 185.439 163.507 185 163.31 184.614C163.116 184.227 162.84 183.922 162.48 183.699C162.124 183.475 161.704 183.364 161.219 183.364C160.685 183.364 160.223 183.496 159.832 183.761C159.446 184.023 159.149 184.364 158.94 184.784C158.732 185.205 158.628 185.655 158.628 186.136V186.909C158.628 187.568 158.741 188.127 158.969 188.585C159.2 189.04 159.52 189.386 159.929 189.625C160.338 189.86 160.813 189.977 161.355 189.977C161.707 189.977 162.026 189.928 162.31 189.83C162.598 189.727 162.846 189.576 163.054 189.375C163.262 189.17 163.423 188.917 163.537 188.614L164.832 188.977C164.696 189.417 164.467 189.803 164.145 190.136C163.823 190.466 163.425 190.723 162.952 190.909C162.478 191.091 161.946 191.182 161.355 191.182ZM167.009 191V182.273H168.304V183.591H168.395C168.554 183.159 168.842 182.809 169.259 182.54C169.675 182.271 170.145 182.136 170.668 182.136C170.766 182.136 170.889 182.138 171.037 182.142C171.185 182.146 171.296 182.152 171.372 182.159V183.523C171.327 183.511 171.223 183.494 171.06 183.472C170.901 183.445 170.732 183.432 170.554 183.432C170.13 183.432 169.751 183.521 169.418 183.699C169.088 183.873 168.827 184.116 168.634 184.426C168.444 184.733 168.349 185.083 168.349 185.477V191H167.009ZM172.962 191V182.273H174.303V191H172.962ZM173.643 180.818C173.382 180.818 173.157 180.729 172.967 180.551C172.782 180.373 172.689 180.159 172.689 179.909C172.689 179.659 172.782 179.445 172.967 179.267C173.157 179.089 173.382 179 173.643 179C173.905 179 174.128 179.089 174.314 179.267C174.503 179.445 174.598 179.659 174.598 179.909C174.598 180.159 174.503 180.373 174.314 180.551C174.128 180.729 173.905 180.818 173.643 180.818ZM180.418 191.182C179.577 191.182 178.851 190.996 178.241 190.625C177.635 190.25 177.168 189.727 176.838 189.057C176.512 188.383 176.349 187.598 176.349 186.705C176.349 185.811 176.512 185.023 176.838 184.341C177.168 183.655 177.626 183.121 178.213 182.739C178.804 182.352 179.493 182.159 180.281 182.159C180.736 182.159 181.185 182.235 181.628 182.386C182.071 182.538 182.474 182.784 182.838 183.125C183.202 183.462 183.491 183.909 183.707 184.466C183.923 185.023 184.031 185.708 184.031 186.523V187.091H177.304V185.932H182.668C182.668 185.439 182.569 185 182.372 184.614C182.179 184.227 181.902 183.922 181.543 183.699C181.187 183.475 180.766 183.364 180.281 183.364C179.747 183.364 179.285 183.496 178.895 183.761C178.509 184.023 178.211 184.364 178.003 184.784C177.795 185.205 177.69 185.655 177.69 186.136V186.909C177.69 187.568 177.804 188.127 178.031 188.585C178.262 189.04 178.582 189.386 178.991 189.625C179.401 189.86 179.876 189.977 180.418 189.977C180.77 189.977 181.088 189.928 181.372 189.83C181.66 189.727 181.908 189.576 182.116 189.375C182.325 189.17 182.486 188.917 182.599 188.614L183.895 188.977C183.759 189.417 183.529 189.803 183.207 190.136C182.885 190.466 182.488 190.723 182.014 190.909C181.541 191.091 181.009 191.182 180.418 191.182ZM192.253 184.227L191.048 184.568C190.973 184.367 190.861 184.172 190.713 183.983C190.569 183.79 190.372 183.631 190.122 183.506C189.872 183.381 189.552 183.318 189.162 183.318C188.628 183.318 188.183 183.441 187.827 183.688C187.474 183.93 187.298 184.239 187.298 184.614C187.298 184.947 187.42 185.21 187.662 185.403C187.904 185.597 188.283 185.758 188.798 185.886L190.094 186.205C190.874 186.394 191.455 186.684 191.838 187.074C192.221 187.46 192.412 187.958 192.412 188.568C192.412 189.068 192.268 189.515 191.98 189.909C191.696 190.303 191.298 190.614 190.787 190.841C190.276 191.068 189.681 191.182 189.003 191.182C188.113 191.182 187.376 190.989 186.793 190.602C186.209 190.216 185.84 189.652 185.685 188.909L186.957 188.591C187.079 189.061 187.308 189.413 187.645 189.648C187.986 189.883 188.431 190 188.98 190C189.605 190 190.101 189.867 190.469 189.602C190.84 189.333 191.026 189.011 191.026 188.636C191.026 188.333 190.92 188.08 190.707 187.875C190.495 187.667 190.17 187.511 189.73 187.409L188.276 187.068C187.476 186.879 186.889 186.585 186.514 186.188C186.143 185.786 185.957 185.284 185.957 184.682C185.957 184.189 186.096 183.754 186.372 183.375C186.652 182.996 187.033 182.699 187.514 182.483C187.999 182.267 188.548 182.159 189.162 182.159C190.026 182.159 190.704 182.348 191.196 182.727C191.692 183.106 192.045 183.606 192.253 184.227ZM202.999 179.364V191H201.589V180.841H201.521L198.68 182.727V181.295L201.589 179.364H202.999ZM211.05 191V179.364H212.459V189.75H217.868V191H211.05ZM220.05 191V179.364H221.459V189.75H226.868V191H220.05ZM237.96 183H236.551C236.468 182.595 236.322 182.239 236.114 181.932C235.909 181.625 235.659 181.367 235.364 181.159C235.072 180.947 234.748 180.788 234.392 180.682C234.036 180.576 233.665 180.523 233.278 180.523C232.574 180.523 231.936 180.701 231.364 181.057C230.795 181.413 230.343 181.938 230.006 182.631C229.672 183.324 229.506 184.174 229.506 185.182C229.506 186.189 229.672 187.04 230.006 187.733C230.343 188.426 230.795 188.951 231.364 189.307C231.936 189.663 232.574 189.841 233.278 189.841C233.665 189.841 234.036 189.788 234.392 189.682C234.748 189.576 235.072 189.419 235.364 189.21C235.659 188.998 235.909 188.739 236.114 188.432C236.322 188.121 236.468 187.765 236.551 187.364H237.96C237.854 187.958 237.661 188.491 237.381 188.96C237.1 189.43 236.752 189.83 236.335 190.159C235.919 190.485 235.451 190.733 234.932 190.903C234.417 191.074 233.866 191.159 233.278 191.159C232.286 191.159 231.403 190.917 230.631 190.432C229.858 189.947 229.25 189.258 228.807 188.364C228.364 187.47 228.142 186.409 228.142 185.182C228.142 183.955 228.364 182.894 228.807 182C229.25 181.106 229.858 180.417 230.631 179.932C231.403 179.447 232.286 179.205 233.278 179.205C233.866 179.205 234.417 179.29 234.932 179.46C235.451 179.631 235.919 179.881 236.335 180.21C236.752 180.536 237.1 180.934 237.381 181.403C237.661 181.869 237.854 182.402 237.96 183Z" fill="#333942"/>
<rect width="225" height="56" transform="translate(306.5 157)" fill="#F3F4F6"/>
<path d="M325.5 185L327.5 183M327.5 183L334.5 176L341.5 183M327.5 183V193C327.5 193.552 327.948 194 328.5 194H331.5M341.5 183L343.5 185M341.5 183V193C341.5 193.552 341.052 194 340.5 194H337.5M331.5 194C332.052 194 332.5 193.552 332.5 193V189C332.5 188.448 332.948 188 333.5 188H335.5C336.052 188 336.5 188.448 336.5 189V193C336.5 193.552 336.948 194 337.5 194M331.5 194H337.5" stroke="#333942" stroke-width="2" stroke-linecap="round" stroke-linejoin="round"/>
<path d="M357.909 191V179.364H361.841C362.75 179.364 363.496 179.519 364.08 179.83C364.663 180.136 365.095 180.559 365.375 181.097C365.655 181.634 365.795 182.246 365.795 182.932C365.795 183.617 365.655 184.225 365.375 184.756C365.095 185.286 364.665 185.703 364.085 186.006C363.506 186.305 362.765 186.455 361.864 186.455H358.682V185.182H361.818C362.439 185.182 362.939 185.091 363.318 184.909C363.701 184.727 363.977 184.47 364.148 184.136C364.322 183.799 364.409 183.398 364.409 182.932C364.409 182.466 364.322 182.059 364.148 181.71C363.973 181.362 363.695 181.093 363.312 180.903C362.93 180.71 362.424 180.614 361.795 180.614H359.318V191H357.909ZM363.386 185.773L366.25 191H364.614L361.795 185.773H363.386ZM371.527 191.182C370.686 191.182 369.961 190.996 369.351 190.625C368.745 190.25 368.277 189.727 367.947 189.057C367.622 188.383 367.459 187.598 367.459 186.705C367.459 185.811 367.622 185.023 367.947 184.341C368.277 183.655 368.735 183.121 369.322 182.739C369.913 182.352 370.603 182.159 371.391 182.159C371.845 182.159 372.294 182.235 372.737 182.386C373.18 182.538 373.584 182.784 373.947 183.125C374.311 183.462 374.601 183.909 374.817 184.466C375.033 185.023 375.141 185.708 375.141 186.523V187.091H368.413V185.932H373.777C373.777 185.439 373.679 185 373.482 184.614C373.288 184.227 373.012 183.922 372.652 183.699C372.296 183.475 371.875 183.364 371.391 183.364C370.857 183.364 370.394 183.496 370.004 183.761C369.618 184.023 369.321 184.364 369.112 184.784C368.904 185.205 368.8 185.655 368.8 186.136V186.909C368.8 187.568 368.913 188.127 369.141 188.585C369.372 189.04 369.692 189.386 370.101 189.625C370.51 189.86 370.985 189.977 371.527 189.977C371.879 189.977 372.197 189.928 372.482 189.83C372.769 189.727 373.018 189.576 373.226 189.375C373.434 189.17 373.595 188.917 373.709 188.614L375.004 188.977C374.868 189.417 374.639 189.803 374.317 190.136C373.995 190.466 373.597 190.723 373.124 190.909C372.65 191.091 372.118 191.182 371.527 191.182ZM379.749 191.205C379.196 191.205 378.694 191.1 378.243 190.892C377.792 190.68 377.434 190.375 377.169 189.977C376.904 189.576 376.771 189.091 376.771 188.523C376.771 188.023 376.87 187.617 377.067 187.307C377.264 186.992 377.527 186.746 377.857 186.568C378.186 186.39 378.55 186.258 378.947 186.17C379.349 186.08 379.752 186.008 380.158 185.955C380.688 185.886 381.118 185.835 381.447 185.801C381.781 185.763 382.023 185.701 382.175 185.614C382.33 185.527 382.408 185.375 382.408 185.159V185.114C382.408 184.553 382.254 184.117 381.947 183.807C381.644 183.496 381.184 183.341 380.567 183.341C379.927 183.341 379.425 183.481 379.061 183.761C378.697 184.042 378.442 184.341 378.294 184.659L377.021 184.205C377.249 183.674 377.552 183.261 377.93 182.966C378.313 182.667 378.73 182.458 379.18 182.341C379.635 182.22 380.082 182.159 380.521 182.159C380.802 182.159 381.124 182.193 381.487 182.261C381.855 182.326 382.209 182.46 382.55 182.665C382.894 182.869 383.18 183.178 383.408 183.591C383.635 184.004 383.749 184.557 383.749 185.25V191H382.408V189.818H382.339C382.249 190.008 382.097 190.21 381.885 190.426C381.673 190.642 381.391 190.826 381.038 190.977C380.686 191.129 380.256 191.205 379.749 191.205ZM379.953 190C380.483 190 380.93 189.896 381.294 189.688C381.661 189.479 381.938 189.21 382.124 188.881C382.313 188.551 382.408 188.205 382.408 187.841V186.614C382.351 186.682 382.226 186.744 382.033 186.801C381.843 186.854 381.624 186.902 381.374 186.943C381.127 186.981 380.887 187.015 380.652 187.045C380.421 187.072 380.233 187.095 380.089 187.114C379.741 187.159 379.415 187.233 379.112 187.335C378.813 187.434 378.571 187.583 378.385 187.784C378.203 187.981 378.112 188.25 378.112 188.591C378.112 189.057 378.285 189.409 378.629 189.648C378.978 189.883 379.419 190 379.953 190ZM387.537 179.364V191H386.196V179.364H387.537ZM389.993 191V182.273H391.334V191H389.993ZM390.675 180.818C390.413 180.818 390.188 180.729 389.999 180.551C389.813 180.373 389.72 180.159 389.72 179.909C389.72 179.659 389.813 179.445 389.999 179.267C390.188 179.089 390.413 179 390.675 179C390.936 179 391.16 179.089 391.345 179.267C391.535 179.445 391.629 179.659 391.629 179.909C391.629 180.159 391.535 180.373 391.345 180.551C391.16 180.729 390.936 180.818 390.675 180.818ZM399.29 187.432V182.273H400.631V191H399.29V189.523H399.199C398.994 189.966 398.676 190.343 398.244 190.653C397.813 190.96 397.267 191.114 396.608 191.114C396.062 191.114 395.578 190.994 395.153 190.756C394.729 190.513 394.396 190.15 394.153 189.665C393.911 189.176 393.79 188.561 393.79 187.818V182.273H395.131V187.727C395.131 188.364 395.309 188.871 395.665 189.25C396.025 189.629 396.483 189.818 397.04 189.818C397.373 189.818 397.712 189.733 398.057 189.562C398.405 189.392 398.697 189.131 398.932 188.778C399.17 188.426 399.29 187.977 399.29 187.432ZM403.087 191V182.273H404.382V183.636H404.496C404.678 183.17 404.971 182.809 405.376 182.551C405.782 182.29 406.268 182.159 406.837 182.159C407.412 182.159 407.892 182.29 408.274 182.551C408.661 182.809 408.962 183.17 409.178 183.636H409.268C409.492 183.186 409.827 182.828 410.274 182.562C410.721 182.294 411.257 182.159 411.882 182.159C412.662 182.159 413.301 182.403 413.797 182.892C414.293 183.377 414.541 184.133 414.541 185.159V191H413.2V185.159C413.2 184.515 413.024 184.055 412.672 183.778C412.32 183.502 411.905 183.364 411.428 183.364C410.814 183.364 410.339 183.549 410.001 183.92C409.664 184.288 409.496 184.754 409.496 185.318V191H408.132V185.023C408.132 184.527 407.971 184.127 407.649 183.824C407.327 183.517 406.912 183.364 406.405 183.364C406.056 183.364 405.731 183.456 405.428 183.642C405.128 183.828 404.886 184.085 404.7 184.415C404.518 184.741 404.428 185.117 404.428 185.545V191H403.087ZM428.038 182.273C427.97 181.697 427.694 181.25 427.209 180.932C426.724 180.614 426.129 180.455 425.425 180.455C424.91 180.455 424.459 180.538 424.072 180.705C423.69 180.871 423.391 181.1 423.175 181.392C422.963 181.684 422.857 182.015 422.857 182.386C422.857 182.697 422.93 182.964 423.078 183.188C423.23 183.407 423.423 183.591 423.658 183.739C423.893 183.883 424.139 184.002 424.396 184.097C424.654 184.187 424.891 184.261 425.107 184.318L426.288 184.636C426.591 184.716 426.929 184.826 427.3 184.966C427.675 185.106 428.033 185.297 428.374 185.54C428.718 185.778 429.002 186.085 429.226 186.46C429.449 186.835 429.561 187.295 429.561 187.841C429.561 188.47 429.396 189.038 429.067 189.545C428.741 190.053 428.264 190.456 427.635 190.756C427.01 191.055 426.25 191.205 425.357 191.205C424.523 191.205 423.802 191.07 423.192 190.801C422.586 190.532 422.108 190.157 421.76 189.676C421.415 189.195 421.22 188.636 421.175 188H422.629C422.667 188.439 422.815 188.803 423.072 189.091C423.334 189.375 423.663 189.587 424.061 189.727C424.463 189.864 424.894 189.932 425.357 189.932C425.894 189.932 426.377 189.845 426.805 189.67C427.233 189.492 427.572 189.246 427.822 188.932C428.072 188.614 428.197 188.242 428.197 187.818C428.197 187.432 428.089 187.117 427.874 186.875C427.658 186.633 427.374 186.436 427.021 186.284C426.669 186.133 426.288 186 425.879 185.886L424.447 185.477C423.538 185.216 422.819 184.843 422.288 184.358C421.758 183.873 421.493 183.239 421.493 182.455C421.493 181.803 421.669 181.235 422.021 180.75C422.377 180.261 422.855 179.883 423.453 179.614C424.055 179.341 424.728 179.205 425.47 179.205C426.22 179.205 426.887 179.339 427.47 179.608C428.054 179.873 428.516 180.237 428.857 180.699C429.201 181.161 429.383 181.686 429.402 182.273H428.038ZM435.355 191.182C434.514 191.182 433.789 190.996 433.179 190.625C432.573 190.25 432.105 189.727 431.776 189.057C431.45 188.383 431.287 187.598 431.287 186.705C431.287 185.811 431.45 185.023 431.776 184.341C432.105 183.655 432.563 183.121 433.151 182.739C433.741 182.352 434.431 182.159 435.219 182.159C435.673 182.159 436.122 182.235 436.565 182.386C437.009 182.538 437.412 182.784 437.776 183.125C438.139 183.462 438.429 183.909 438.645 184.466C438.861 185.023 438.969 185.708 438.969 186.523V187.091H432.241V185.932H437.605C437.605 185.439 437.507 185 437.31 184.614C437.116 184.227 436.84 183.922 436.48 183.699C436.124 183.475 435.704 183.364 435.219 183.364C434.685 183.364 434.223 183.496 433.832 183.761C433.446 184.023 433.149 184.364 432.94 184.784C432.732 185.205 432.628 185.655 432.628 186.136V186.909C432.628 187.568 432.741 188.127 432.969 188.585C433.2 189.04 433.52 189.386 433.929 189.625C434.338 189.86 434.813 189.977 435.355 189.977C435.707 189.977 436.026 189.928 436.31 189.83C436.598 189.727 436.846 189.576 437.054 189.375C437.262 189.17 437.423 188.917 437.537 188.614L438.832 188.977C438.696 189.417 438.467 189.803 438.145 190.136C437.823 190.466 437.425 190.723 436.952 190.909C436.478 191.091 435.946 191.182 435.355 191.182ZM441.009 191V182.273H442.304V183.591H442.395C442.554 183.159 442.842 182.809 443.259 182.54C443.675 182.271 444.145 182.136 444.668 182.136C444.766 182.136 444.889 182.138 445.037 182.142C445.185 182.146 445.296 182.152 445.372 182.159V183.523C445.327 183.511 445.223 183.494 445.06 183.472C444.901 183.445 444.732 183.432 444.554 183.432C444.13 183.432 443.751 183.521 443.418 183.699C443.088 183.873 442.827 184.116 442.634 184.426C442.444 184.733 442.349 185.083 442.349 185.477V191H441.009ZM446.962 191V182.273H448.303V191H446.962ZM447.643 180.818C447.382 180.818 447.157 180.729 446.967 180.551C446.782 180.373 446.689 180.159 446.689 179.909C446.689 179.659 446.782 179.445 446.967 179.267C447.157 179.089 447.382 179 447.643 179C447.905 179 448.128 179.089 448.314 179.267C448.503 179.445 448.598 179.659 448.598 179.909C448.598 180.159 448.503 180.373 448.314 180.551C448.128 180.729 447.905 180.818 447.643 180.818ZM454.418 191.182C453.577 191.182 452.851 190.996 452.241 190.625C451.635 190.25 451.168 189.727 450.838 189.057C450.512 188.383 450.349 187.598 450.349 186.705C450.349 185.811 450.512 185.023 450.838 184.341C451.168 183.655 451.626 183.121 452.213 182.739C452.804 182.352 453.493 182.159 454.281 182.159C454.736 182.159 455.185 182.235 455.628 182.386C456.071 182.538 456.474 182.784 456.838 183.125C457.202 183.462 457.491 183.909 457.707 184.466C457.923 185.023 458.031 185.708 458.031 186.523V187.091H451.304V185.932H456.668C456.668 185.439 456.569 185 456.372 184.614C456.179 184.227 455.902 183.922 455.543 183.699C455.187 183.475 454.766 183.364 454.281 183.364C453.747 183.364 453.285 183.496 452.895 183.761C452.509 184.023 452.211 184.364 452.003 184.784C451.795 185.205 451.69 185.655 451.69 186.136V186.909C451.69 187.568 451.804 188.127 452.031 188.585C452.262 189.04 452.582 189.386 452.991 189.625C453.401 189.86 453.876 189.977 454.418 189.977C454.77 189.977 455.088 189.928 455.372 189.83C455.66 189.727 455.908 189.576 456.116 189.375C456.325 189.17 456.486 188.917 456.599 188.614L457.895 188.977C457.759 189.417 457.529 189.803 457.207 190.136C456.885 190.466 456.488 190.723 456.014 190.909C455.541 191.091 455.009 191.182 454.418 191.182ZM466.253 184.227L465.048 184.568C464.973 184.367 464.861 184.172 464.713 183.983C464.569 183.79 464.372 183.631 464.122 183.506C463.872 183.381 463.552 183.318 463.162 183.318C462.628 183.318 462.183 183.441 461.827 183.688C461.474 183.93 461.298 184.239 461.298 184.614C461.298 184.947 461.42 185.21 461.662 185.403C461.904 185.597 462.283 185.758 462.798 185.886L464.094 186.205C464.874 186.394 465.455 186.684 465.838 187.074C466.221 187.46 466.412 187.958 466.412 188.568C466.412 189.068 466.268 189.515 465.98 189.909C465.696 190.303 465.298 190.614 464.787 190.841C464.276 191.068 463.681 191.182 463.003 191.182C462.113 191.182 461.376 190.989 460.793 190.602C460.209 190.216 459.84 189.652 459.685 188.909L460.957 188.591C461.079 189.061 461.308 189.413 461.645 189.648C461.986 189.883 462.431 190 462.98 190C463.605 190 464.101 189.867 464.469 189.602C464.84 189.333 465.026 189.011 465.026 188.636C465.026 188.333 464.92 188.08 464.707 187.875C464.495 187.667 464.17 187.511 463.73 187.409L462.276 187.068C461.476 186.879 460.889 186.585 460.514 186.188C460.143 185.786 459.957 185.284 459.957 184.682C459.957 184.189 460.096 183.754 460.372 183.375C460.652 182.996 461.033 182.699 461.514 182.483C461.999 182.267 462.548 182.159 463.162 182.159C464.026 182.159 464.704 182.348 465.196 182.727C465.692 183.106 466.045 183.606 466.253 184.227ZM472.908 191V189.977L476.749 185.773C477.199 185.28 477.571 184.852 477.862 184.489C478.154 184.121 478.37 183.777 478.51 183.455C478.654 183.129 478.726 182.788 478.726 182.432C478.726 182.023 478.627 181.669 478.43 181.369C478.237 181.07 477.972 180.839 477.635 180.676C477.298 180.513 476.919 180.432 476.499 180.432C476.052 180.432 475.661 180.525 475.328 180.71C474.999 180.892 474.743 181.148 474.561 181.477C474.383 181.807 474.294 182.193 474.294 182.636H472.953C472.953 181.955 473.11 181.356 473.425 180.841C473.739 180.326 474.167 179.924 474.709 179.636C475.254 179.348 475.866 179.205 476.544 179.205C477.226 179.205 477.83 179.348 478.357 179.636C478.883 179.924 479.296 180.312 479.595 180.801C479.894 181.29 480.044 181.833 480.044 182.432C480.044 182.86 479.966 183.278 479.811 183.688C479.66 184.093 479.394 184.545 479.016 185.045C478.641 185.542 478.12 186.148 477.453 186.864L474.839 189.659V189.75H480.249V191H472.908ZM487.3 191V179.364H488.709V189.75H494.118V191H487.3ZM496.3 191V179.364H497.709V189.75H503.118V191H496.3ZM514.21 183H512.801C512.718 182.595 512.572 182.239 512.364 181.932C512.159 181.625 511.909 181.367 511.614 181.159C511.322 180.947 510.998 180.788 510.642 180.682C510.286 180.576 509.915 180.523 509.528 180.523C508.824 180.523 508.186 180.701 507.614 181.057C507.045 181.413 506.593 181.938 506.256 182.631C505.922 183.324 505.756 184.174 505.756 185.182C505.756 186.189 505.922 187.04 506.256 187.733C506.593 188.426 507.045 188.951 507.614 189.307C508.186 189.663 508.824 189.841 509.528 189.841C509.915 189.841 510.286 189.788 510.642 189.682C510.998 189.576 511.322 189.419 511.614 189.21C511.909 188.998 512.159 188.739 512.364 188.432C512.572 188.121 512.718 187.765 512.801 187.364H514.21C514.104 187.958 513.911 188.491 513.631 188.96C513.35 189.43 513.002 189.83 512.585 190.159C512.169 190.485 511.701 190.733 511.182 190.903C510.667 191.074 510.116 191.159 509.528 191.159C508.536 191.159 507.653 190.917 506.881 190.432C506.108 189.947 505.5 189.258 505.057 188.364C504.614 187.47 504.392 186.409 504.392 185.182C504.392 183.955 504.614 182.894 505.057 182C505.5 181.106 506.108 180.417 506.881 179.932C507.653 179.447 508.536 179.205 509.528 179.205C510.116 179.205 510.667 179.29 511.182 179.46C511.701 179.631 512.169 179.881 512.585 180.21C513.002 180.536 513.35 180.934 513.631 181.403C513.911 181.869 514.104 182.402 514.21 183Z" fill="#333942"/>
<rect width="226" height="56" transform="translate(567.5 157)" fill="#F3F4F6"/>
<path d="M586.5 185L588.5 183M588.5 183L595.5 176L602.5 183M588.5 183V193C588.5 193.552 588.948 194 589.5 194H592.5M602.5 183L604.5 185M602.5 183V193C602.5 193.552 602.052 194 601.5 194H598.5M592.5 194C593.052 194 593.5 193.552 593.5 193V189C593.5 188.448 593.948 188 594.5 188H596.5C597.052 188 597.5 188.448 597.5 189V193C597.5 193.552 597.948 194 598.5 194M592.5 194H598.5" stroke="#333942" stroke-width="2" stroke-linecap="round" stroke-linejoin="round"/>
<path d="M618.909 191V179.364H622.841C623.75 179.364 624.496 179.519 625.08 179.83C625.663 180.136 626.095 180.559 626.375 181.097C626.655 181.634 626.795 182.246 626.795 182.932C626.795 183.617 626.655 184.225 626.375 184.756C626.095 185.286 625.665 185.703 625.085 186.006C624.506 186.305 623.765 186.455 622.864 186.455H619.682V185.182H622.818C623.439 185.182 623.939 185.091 624.318 184.909C624.701 184.727 624.977 184.47 625.148 184.136C625.322 183.799 625.409 183.398 625.409 182.932C625.409 182.466 625.322 182.059 625.148 181.71C624.973 181.362 624.695 181.093 624.312 180.903C623.93 180.71 623.424 180.614 622.795 180.614H620.318V191H618.909ZM624.386 185.773L627.25 191H625.614L622.795 185.773H624.386ZM632.527 191.182C631.686 191.182 630.961 190.996 630.351 190.625C629.745 190.25 629.277 189.727 628.947 189.057C628.622 188.383 628.459 187.598 628.459 186.705C628.459 185.811 628.622 185.023 628.947 184.341C629.277 183.655 629.735 183.121 630.322 182.739C630.913 182.352 631.603 182.159 632.391 182.159C632.845 182.159 633.294 182.235 633.737 182.386C634.18 182.538 634.584 182.784 634.947 183.125C635.311 183.462 635.601 183.909 635.817 184.466C636.033 185.023 636.141 185.708 636.141 186.523V187.091H629.413V185.932H634.777C634.777 185.439 634.679 185 634.482 184.614C634.288 184.227 634.012 183.922 633.652 183.699C633.296 183.475 632.875 183.364 632.391 183.364C631.857 183.364 631.394 183.496 631.004 183.761C630.618 184.023 630.321 184.364 630.112 184.784C629.904 185.205 629.8 185.655 629.8 186.136V186.909C629.8 187.568 629.913 188.127 630.141 188.585C630.372 189.04 630.692 189.386 631.101 189.625C631.51 189.86 631.985 189.977 632.527 189.977C632.879 189.977 633.197 189.928 633.482 189.83C633.769 189.727 634.018 189.576 634.226 189.375C634.434 189.17 634.595 188.917 634.709 188.614L636.004 188.977C635.868 189.417 635.639 189.803 635.317 190.136C634.995 190.466 634.597 190.723 634.124 190.909C633.65 191.091 633.118 191.182 632.527 191.182ZM640.749 191.205C640.196 191.205 639.694 191.1 639.243 190.892C638.792 190.68 638.434 190.375 638.169 189.977C637.904 189.576 637.771 189.091 637.771 188.523C637.771 188.023 637.87 187.617 638.067 187.307C638.264 186.992 638.527 186.746 638.857 186.568C639.186 186.39 639.55 186.258 639.947 186.17C640.349 186.08 640.752 186.008 641.158 185.955C641.688 185.886 642.118 185.835 642.447 185.801C642.781 185.763 643.023 185.701 643.175 185.614C643.33 185.527 643.408 185.375 643.408 185.159V185.114C643.408 184.553 643.254 184.117 642.947 183.807C642.644 183.496 642.184 183.341 641.567 183.341C640.927 183.341 640.425 183.481 640.061 183.761C639.697 184.042 639.442 184.341 639.294 184.659L638.021 184.205C638.249 183.674 638.552 183.261 638.93 182.966C639.313 182.667 639.73 182.458 640.18 182.341C640.635 182.22 641.082 182.159 641.521 182.159C641.802 182.159 642.124 182.193 642.487 182.261C642.855 182.326 643.209 182.46 643.55 182.665C643.894 182.869 644.18 183.178 644.408 183.591C644.635 184.004 644.749 184.557 644.749 185.25V191H643.408V189.818H643.339C643.249 190.008 643.097 190.21 642.885 190.426C642.673 190.642 642.391 190.826 642.038 190.977C641.686 191.129 641.256 191.205 640.749 191.205ZM640.953 190C641.483 190 641.93 189.896 642.294 189.688C642.661 189.479 642.938 189.21 643.124 188.881C643.313 188.551 643.408 188.205 643.408 187.841V186.614C643.351 186.682 643.226 186.744 643.033 186.801C642.843 186.854 642.624 186.902 642.374 186.943C642.127 186.981 641.887 187.015 641.652 187.045C641.421 187.072 641.233 187.095 641.089 187.114C640.741 187.159 640.415 187.233 640.112 187.335C639.813 187.434 639.571 187.583 639.385 187.784C639.203 187.981 639.112 188.25 639.112 188.591C639.112 189.057 639.285 189.409 639.629 189.648C639.978 189.883 640.419 190 640.953 190ZM648.537 179.364V191H647.196V179.364H648.537ZM650.993 191V182.273H652.334V191H650.993ZM651.675 180.818C651.413 180.818 651.188 180.729 650.999 180.551C650.813 180.373 650.72 180.159 650.72 179.909C650.72 179.659 650.813 179.445 650.999 179.267C651.188 179.089 651.413 179 651.675 179C651.936 179 652.16 179.089 652.345 179.267C652.535 179.445 652.629 179.659 652.629 179.909C652.629 180.159 652.535 180.373 652.345 180.551C652.16 180.729 651.936 180.818 651.675 180.818ZM660.29 187.432V182.273H661.631V191H660.29V189.523H660.199C659.994 189.966 659.676 190.343 659.244 190.653C658.813 190.96 658.267 191.114 657.608 191.114C657.062 191.114 656.578 190.994 656.153 190.756C655.729 190.513 655.396 190.15 655.153 189.665C654.911 189.176 654.79 188.561 654.79 187.818V182.273H656.131V187.727C656.131 188.364 656.309 188.871 656.665 189.25C657.025 189.629 657.483 189.818 658.04 189.818C658.373 189.818 658.712 189.733 659.057 189.562C659.405 189.392 659.697 189.131 659.932 188.778C660.17 188.426 660.29 187.977 660.29 187.432ZM664.087 191V182.273H665.382V183.636H665.496C665.678 183.17 665.971 182.809 666.376 182.551C666.782 182.29 667.268 182.159 667.837 182.159C668.412 182.159 668.892 182.29 669.274 182.551C669.661 182.809 669.962 183.17 670.178 183.636H670.268C670.492 183.186 670.827 182.828 671.274 182.562C671.721 182.294 672.257 182.159 672.882 182.159C673.662 182.159 674.301 182.403 674.797 182.892C675.293 183.377 675.541 184.133 675.541 185.159V191H674.2V185.159C674.2 184.515 674.024 184.055 673.672 183.778C673.32 183.502 672.905 183.364 672.428 183.364C671.814 183.364 671.339 183.549 671.001 183.92C670.664 184.288 670.496 184.754 670.496 185.318V191H669.132V185.023C669.132 184.527 668.971 184.127 668.649 183.824C668.327 183.517 667.912 183.364 667.405 183.364C667.056 183.364 666.731 183.456 666.428 183.642C666.128 183.828 665.886 184.085 665.7 184.415C665.518 184.741 665.428 185.117 665.428 185.545V191H664.087ZM689.038 182.273C688.97 181.697 688.694 181.25 688.209 180.932C687.724 180.614 687.129 180.455 686.425 180.455C685.91 180.455 685.459 180.538 685.072 180.705C684.69 180.871 684.391 181.1 684.175 181.392C683.963 181.684 683.857 182.015 683.857 182.386C683.857 182.697 683.93 182.964 684.078 183.188C684.23 183.407 684.423 183.591 684.658 183.739C684.893 183.883 685.139 184.002 685.396 184.097C685.654 184.187 685.891 184.261 686.107 184.318L687.288 184.636C687.591 184.716 687.929 184.826 688.3 184.966C688.675 185.106 689.033 185.297 689.374 185.54C689.718 185.778 690.002 186.085 690.226 186.46C690.449 186.835 690.561 187.295 690.561 187.841C690.561 188.47 690.396 189.038 690.067 189.545C689.741 190.053 689.264 190.456 688.635 190.756C688.01 191.055 687.25 191.205 686.357 191.205C685.523 191.205 684.802 191.07 684.192 190.801C683.586 190.532 683.108 190.157 682.76 189.676C682.415 189.195 682.22 188.636 682.175 188H683.629C683.667 188.439 683.815 188.803 684.072 189.091C684.334 189.375 684.663 189.587 685.061 189.727C685.463 189.864 685.894 189.932 686.357 189.932C686.894 189.932 687.377 189.845 687.805 189.67C688.233 189.492 688.572 189.246 688.822 188.932C689.072 188.614 689.197 188.242 689.197 187.818C689.197 187.432 689.089 187.117 688.874 186.875C688.658 186.633 688.374 186.436 688.021 186.284C687.669 186.133 687.288 186 686.879 185.886L685.447 185.477C684.538 185.216 683.819 184.843 683.288 184.358C682.758 183.873 682.493 183.239 682.493 182.455C682.493 181.803 682.669 181.235 683.021 180.75C683.377 180.261 683.855 179.883 684.453 179.614C685.055 179.341 685.728 179.205 686.47 179.205C687.22 179.205 687.887 179.339 688.47 179.608C689.054 179.873 689.516 180.237 689.857 180.699C690.201 181.161 690.383 181.686 690.402 182.273H689.038ZM696.355 191.182C695.514 191.182 694.789 190.996 694.179 190.625C693.573 190.25 693.105 189.727 692.776 189.057C692.45 188.383 692.287 187.598 692.287 186.705C692.287 185.811 692.45 185.023 692.776 184.341C693.105 183.655 693.563 183.121 694.151 182.739C694.741 182.352 695.431 182.159 696.219 182.159C696.673 182.159 697.122 182.235 697.565 182.386C698.009 182.538 698.412 182.784 698.776 183.125C699.139 183.462 699.429 183.909 699.645 184.466C699.861 185.023 699.969 185.708 699.969 186.523V187.091H693.241V185.932H698.605C698.605 185.439 698.507 185 698.31 184.614C698.116 184.227 697.84 183.922 697.48 183.699C697.124 183.475 696.704 183.364 696.219 183.364C695.685 183.364 695.223 183.496 694.832 183.761C694.446 184.023 694.149 184.364 693.94 184.784C693.732 185.205 693.628 185.655 693.628 186.136V186.909C693.628 187.568 693.741 188.127 693.969 188.585C694.2 189.04 694.52 189.386 694.929 189.625C695.338 189.86 695.813 189.977 696.355 189.977C696.707 189.977 697.026 189.928 697.31 189.83C697.598 189.727 697.846 189.576 698.054 189.375C698.262 189.17 698.423 188.917 698.537 188.614L699.832 188.977C699.696 189.417 699.467 189.803 699.145 190.136C698.823 190.466 698.425 190.723 697.952 190.909C697.478 191.091 696.946 191.182 696.355 191.182ZM702.009 191V182.273H703.304V183.591H703.395C703.554 183.159 703.842 182.809 704.259 182.54C704.675 182.271 705.145 182.136 705.668 182.136C705.766 182.136 705.889 182.138 706.037 182.142C706.185 182.146 706.296 182.152 706.372 182.159V183.523C706.327 183.511 706.223 183.494 706.06 183.472C705.901 183.445 705.732 183.432 705.554 183.432C705.13 183.432 704.751 183.521 704.418 183.699C704.088 183.873 703.827 184.116 703.634 184.426C703.444 184.733 703.349 185.083 703.349 185.477V191H702.009ZM707.962 191V182.273H709.303V191H707.962ZM708.643 180.818C708.382 180.818 708.157 180.729 707.967 180.551C707.782 180.373 707.689 180.159 707.689 179.909C707.689 179.659 707.782 179.445 707.967 179.267C708.157 179.089 708.382 179 708.643 179C708.905 179 709.128 179.089 709.314 179.267C709.503 179.445 709.598 179.659 709.598 179.909C709.598 180.159 709.503 180.373 709.314 180.551C709.128 180.729 708.905 180.818 708.643 180.818ZM715.418 191.182C714.577 191.182 713.851 190.996 713.241 190.625C712.635 190.25 712.168 189.727 711.838 189.057C711.512 188.383 711.349 187.598 711.349 186.705C711.349 185.811 711.512 185.023 711.838 184.341C712.168 183.655 712.626 183.121 713.213 182.739C713.804 182.352 714.493 182.159 715.281 182.159C715.736 182.159 716.185 182.235 716.628 182.386C717.071 182.538 717.474 182.784 717.838 183.125C718.202 183.462 718.491 183.909 718.707 184.466C718.923 185.023 719.031 185.708 719.031 186.523V187.091H712.304V185.932H717.668C717.668 185.439 717.569 185 717.372 184.614C717.179 184.227 716.902 183.922 716.543 183.699C716.187 183.475 715.766 183.364 715.281 183.364C714.747 183.364 714.285 183.496 713.895 183.761C713.509 184.023 713.211 184.364 713.003 184.784C712.795 185.205 712.69 185.655 712.69 186.136V186.909C712.69 187.568 712.804 188.127 713.031 188.585C713.262 189.04 713.582 189.386 713.991 189.625C714.401 189.86 714.876 189.977 715.418 189.977C715.77 189.977 716.088 189.928 716.372 189.83C716.66 189.727 716.908 189.576 717.116 189.375C717.325 189.17 717.486 188.917 717.599 188.614L718.895 188.977C718.759 189.417 718.529 189.803 718.207 190.136C717.885 190.466 717.488 190.723 717.014 190.909C716.541 191.091 716.009 191.182 715.418 191.182ZM727.253 184.227L726.048 184.568C725.973 184.367 725.861 184.172 725.713 183.983C725.569 183.79 725.372 183.631 725.122 183.506C724.872 183.381 724.552 183.318 724.162 183.318C723.628 183.318 723.183 183.441 722.827 183.688C722.474 183.93 722.298 184.239 722.298 184.614C722.298 184.947 722.42 185.21 722.662 185.403C722.904 185.597 723.283 185.758 723.798 185.886L725.094 186.205C725.874 186.394 726.455 186.684 726.838 187.074C727.221 187.46 727.412 187.958 727.412 188.568C727.412 189.068 727.268 189.515 726.98 189.909C726.696 190.303 726.298 190.614 725.787 190.841C725.276 191.068 724.681 191.182 724.003 191.182C723.113 191.182 722.376 190.989 721.793 190.602C721.209 190.216 720.84 189.652 720.685 188.909L721.957 188.591C722.079 189.061 722.308 189.413 722.645 189.648C722.986 189.883 723.431 190 723.98 190C724.605 190 725.101 189.867 725.469 189.602C725.84 189.333 726.026 189.011 726.026 188.636C726.026 188.333 725.92 188.08 725.707 187.875C725.495 187.667 725.17 187.511 724.73 187.409L723.276 187.068C722.476 186.879 721.889 186.585 721.514 186.188C721.143 185.786 720.957 185.284 720.957 184.682C720.957 184.189 721.096 183.754 721.372 183.375C721.652 182.996 722.033 182.699 722.514 182.483C722.999 182.267 723.548 182.159 724.162 182.159C725.026 182.159 725.704 182.348 726.196 182.727C726.692 183.106 727.045 183.606 727.253 184.227ZM737.839 191.159C737.089 191.159 736.421 191.03 735.834 190.773C735.25 190.515 734.786 190.157 734.442 189.699C734.101 189.237 733.915 188.701 733.885 188.091H735.317C735.347 188.466 735.476 188.79 735.703 189.062C735.93 189.331 736.228 189.54 736.595 189.688C736.963 189.835 737.37 189.909 737.817 189.909C738.317 189.909 738.76 189.822 739.146 189.648C739.533 189.473 739.836 189.231 740.055 188.92C740.275 188.61 740.385 188.25 740.385 187.841C740.385 187.413 740.279 187.036 740.067 186.71C739.855 186.381 739.544 186.123 739.135 185.938C738.726 185.752 738.226 185.659 737.635 185.659H736.703V184.409H737.635C738.097 184.409 738.502 184.326 738.851 184.159C739.203 183.992 739.478 183.758 739.675 183.455C739.875 183.152 739.976 182.795 739.976 182.386C739.976 181.992 739.889 181.65 739.714 181.358C739.54 181.066 739.294 180.839 738.976 180.676C738.661 180.513 738.29 180.432 737.862 180.432C737.461 180.432 737.082 180.506 736.726 180.653C736.374 180.797 736.086 181.008 735.862 181.284C735.639 181.557 735.518 181.886 735.499 182.273H734.135C734.158 181.663 734.341 181.129 734.686 180.67C735.031 180.208 735.482 179.848 736.038 179.591C736.599 179.333 737.214 179.205 737.885 179.205C738.605 179.205 739.222 179.35 739.737 179.642C740.252 179.93 740.648 180.311 740.925 180.784C741.201 181.258 741.339 181.769 741.339 182.318C741.339 182.973 741.167 183.532 740.822 183.994C740.482 184.456 740.018 184.777 739.43 184.955V185.045C740.165 185.167 740.739 185.479 741.152 185.983C741.565 186.483 741.771 187.102 741.771 187.841C741.771 188.473 741.599 189.042 741.254 189.545C740.913 190.045 740.447 190.439 739.857 190.727C739.266 191.015 738.593 191.159 737.839 191.159ZM748.8 191V179.364H750.209V189.75H755.618V191H748.8ZM757.8 191V179.364H759.209V189.75H764.618V191H757.8ZM775.71 183H774.301C774.218 182.595 774.072 182.239 773.864 181.932C773.659 181.625 773.409 181.367 773.114 181.159C772.822 180.947 772.498 180.788 772.142 180.682C771.786 180.576 771.415 180.523 771.028 180.523C770.324 180.523 769.686 180.701 769.114 181.057C768.545 181.413 768.093 181.938 767.756 182.631C767.422 183.324 767.256 184.174 767.256 185.182C767.256 186.189 767.422 187.04 767.756 187.733C768.093 188.426 768.545 188.951 769.114 189.307C769.686 189.663 770.324 189.841 771.028 189.841C771.415 189.841 771.786 189.788 772.142 189.682C772.498 189.576 772.822 189.419 773.114 189.21C773.409 188.998 773.659 188.739 773.864 188.432C774.072 188.121 774.218 187.765 774.301 187.364H775.71C775.604 187.958 775.411 188.491 775.131 188.96C774.85 189.43 774.502 189.83 774.085 190.159C773.669 190.485 773.201 190.733 772.682 190.903C772.167 191.074 771.616 191.159 771.028 191.159C770.036 191.159 769.153 190.917 768.381 190.432C767.608 189.947 767 189.258 766.557 188.364C766.114 187.47 765.892 186.409 765.892 185.182C765.892 183.955 766.114 182.894 766.557 182C767 181.106 767.608 180.417 768.381 179.932C769.153 179.447 770.036 179.205 771.028 179.205C771.616 179.205 772.167 179.29 772.682 179.46C773.201 179.631 773.669 179.881 774.085 180.21C774.502 180.536 774.85 180.934 775.131 181.403C775.411 181.869 775.604 182.402 775.71 183Z" fill="#333942"/>
<rect width="165" height="109" transform="translate(61.5 288)" fill="#F9FAFB"/>
<path d="M91.5 310H97.5M91.5 314H97.5M99.5 319H89.5C88.3954 319 87.5 318.105 87.5 317V303C87.5 301.895 88.3954 301 89.5 301H95.0858C95.351 301 95.6054 301.105 95.7929 301.293L101.207 306.707C101.395 306.895 101.5 307.149 101.5 307.414V317C101.5 318.105 100.605 319 99.5 319Z" stroke="#333942" stroke-width="2" stroke-linecap="round" stroke-linejoin="round"/>
<path d="M113.318 303.864V315.5H111.909V303.864H113.318ZM122.143 308.727L120.939 309.068C120.863 308.867 120.751 308.672 120.604 308.483C120.46 308.29 120.263 308.131 120.013 308.006C119.763 307.881 119.443 307.818 119.053 307.818C118.518 307.818 118.073 307.941 117.717 308.188C117.365 308.43 117.189 308.739 117.189 309.114C117.189 309.447 117.31 309.71 117.553 309.903C117.795 310.097 118.174 310.258 118.689 310.386L119.984 310.705C120.765 310.894 121.346 311.184 121.729 311.574C122.111 311.96 122.303 312.458 122.303 313.068C122.303 313.568 122.159 314.015 121.871 314.409C121.587 314.803 121.189 315.114 120.678 315.341C120.166 315.568 119.571 315.682 118.893 315.682C118.003 315.682 117.267 315.489 116.683 315.102C116.1 314.716 115.731 314.152 115.575 313.409L116.848 313.091C116.969 313.561 117.198 313.913 117.536 314.148C117.876 314.383 118.321 314.5 118.871 314.5C119.496 314.5 119.992 314.367 120.359 314.102C120.731 313.833 120.916 313.511 120.916 313.136C120.916 312.833 120.81 312.58 120.598 312.375C120.386 312.167 120.06 312.011 119.621 311.909L118.166 311.568C117.367 311.379 116.78 311.085 116.405 310.688C116.034 310.286 115.848 309.784 115.848 309.182C115.848 308.689 115.986 308.254 116.263 307.875C116.543 307.496 116.924 307.199 117.405 306.983C117.89 306.767 118.439 306.659 119.053 306.659C119.916 306.659 120.594 306.848 121.087 307.227C121.583 307.606 121.935 308.106 122.143 308.727ZM130.503 308.727L129.298 309.068C129.223 308.867 129.111 308.672 128.963 308.483C128.819 308.29 128.622 308.131 128.372 308.006C128.122 307.881 127.802 307.818 127.412 307.818C126.878 307.818 126.433 307.941 126.077 308.188C125.724 308.43 125.548 308.739 125.548 309.114C125.548 309.447 125.67 309.71 125.912 309.903C126.154 310.097 126.533 310.258 127.048 310.386L128.344 310.705C129.124 310.894 129.705 311.184 130.088 311.574C130.471 311.96 130.662 312.458 130.662 313.068C130.662 313.568 130.518 314.015 130.23 314.409C129.946 314.803 129.548 315.114 129.037 315.341C128.526 315.568 127.931 315.682 127.253 315.682C126.363 315.682 125.626 315.489 125.043 315.102C124.459 314.716 124.09 314.152 123.935 313.409L125.207 313.091C125.329 313.561 125.558 313.913 125.895 314.148C126.236 314.383 126.681 314.5 127.23 314.5C127.855 314.5 128.351 314.367 128.719 314.102C129.09 313.833 129.276 313.511 129.276 313.136C129.276 312.833 129.17 312.58 128.957 312.375C128.745 312.167 128.42 312.011 127.98 311.909L126.526 311.568C125.726 311.379 125.139 311.085 124.764 310.688C124.393 310.286 124.207 309.784 124.207 309.182C124.207 308.689 124.346 308.254 124.622 307.875C124.902 307.496 125.283 307.199 125.764 306.983C126.249 306.767 126.798 306.659 127.412 306.659C128.276 306.659 128.954 306.848 129.446 307.227C129.942 307.606 130.295 308.106 130.503 308.727ZM138.18 311.932V306.773H139.521V315.5H138.18V314.023H138.089C137.885 314.466 137.567 314.843 137.135 315.153C136.703 315.46 136.158 315.614 135.499 315.614C134.953 315.614 134.468 315.494 134.044 315.256C133.62 315.013 133.286 314.65 133.044 314.165C132.802 313.676 132.68 313.061 132.68 312.318V306.773H134.021V312.227C134.021 312.864 134.199 313.371 134.555 313.75C134.915 314.129 135.374 314.318 135.93 314.318C136.264 314.318 136.603 314.233 136.947 314.062C137.296 313.892 137.588 313.631 137.822 313.278C138.061 312.926 138.18 312.477 138.18 311.932ZM145.636 315.682C144.795 315.682 144.07 315.496 143.46 315.125C142.854 314.75 142.386 314.227 142.057 313.557C141.731 312.883 141.568 312.098 141.568 311.205C141.568 310.311 141.731 309.523 142.057 308.841C142.386 308.155 142.845 307.621 143.432 307.239C144.023 306.852 144.712 306.659 145.5 306.659C145.955 306.659 146.403 306.735 146.847 306.886C147.29 307.038 147.693 307.284 148.057 307.625C148.42 307.962 148.71 308.409 148.926 308.966C149.142 309.523 149.25 310.208 149.25 311.023V311.591H142.523V310.432H147.886C147.886 309.939 147.788 309.5 147.591 309.114C147.398 308.727 147.121 308.422 146.761 308.199C146.405 307.975 145.985 307.864 145.5 307.864C144.966 307.864 144.504 307.996 144.114 308.261C143.727 308.523 143.43 308.864 143.222 309.284C143.013 309.705 142.909 310.155 142.909 310.636V311.409C142.909 312.068 143.023 312.627 143.25 313.085C143.481 313.54 143.801 313.886 144.21 314.125C144.619 314.36 145.095 314.477 145.636 314.477C145.989 314.477 146.307 314.428 146.591 314.33C146.879 314.227 147.127 314.076 147.335 313.875C147.544 313.67 147.705 313.417 147.818 313.114L149.114 313.477C148.977 313.917 148.748 314.303 148.426 314.636C148.104 314.966 147.706 315.223 147.233 315.409C146.759 315.591 146.227 315.682 145.636 315.682ZM159.585 306.773V307.909H155.062V306.773H159.585ZM156.381 304.682H157.722V313C157.722 313.379 157.777 313.663 157.886 313.852C158 314.038 158.144 314.163 158.318 314.227C158.496 314.288 158.684 314.318 158.881 314.318C159.028 314.318 159.15 314.311 159.244 314.295C159.339 314.277 159.415 314.261 159.472 314.25L159.744 315.455C159.653 315.489 159.527 315.523 159.364 315.557C159.201 315.595 158.994 315.614 158.744 315.614C158.366 315.614 157.994 315.532 157.631 315.369C157.271 315.206 156.972 314.958 156.733 314.625C156.498 314.292 156.381 313.871 156.381 313.364V304.682ZM165.054 315.682C164.266 315.682 163.575 315.494 162.98 315.119C162.389 314.744 161.927 314.22 161.594 313.545C161.264 312.871 161.099 312.083 161.099 311.182C161.099 310.273 161.264 309.479 161.594 308.801C161.927 308.123 162.389 307.597 162.98 307.222C163.575 306.847 164.266 306.659 165.054 306.659C165.842 306.659 166.531 306.847 167.122 307.222C167.717 307.597 168.179 308.123 168.509 308.801C168.842 309.479 169.009 310.273 169.009 311.182C169.009 312.083 168.842 312.871 168.509 313.545C168.179 314.22 167.717 314.744 167.122 315.119C166.531 315.494 165.842 315.682 165.054 315.682ZM165.054 314.477C165.652 314.477 166.145 314.324 166.531 314.017C166.918 313.71 167.204 313.307 167.389 312.807C167.575 312.307 167.668 311.765 167.668 311.182C167.668 310.598 167.575 310.055 167.389 309.551C167.204 309.047 166.918 308.64 166.531 308.33C166.145 308.019 165.652 307.864 165.054 307.864C164.455 307.864 163.963 308.019 163.577 308.33C163.19 308.64 162.904 309.047 162.719 309.551C162.533 310.055 162.44 310.598 162.44 311.182C162.44 311.765 162.533 312.307 162.719 312.807C162.904 313.307 163.19 313.71 163.577 314.017C163.963 314.324 164.455 314.477 165.054 314.477ZM172.305 312.318L172.283 310.659H172.555L176.374 306.773H178.033L173.964 310.886H173.851L172.305 312.318ZM171.055 315.5V303.864H172.396V315.5H171.055ZM176.601 315.5L173.192 311.182L174.146 310.25L178.305 315.5H176.601ZM183.058 315.682C182.217 315.682 181.492 315.496 180.882 315.125C180.276 314.75 179.808 314.227 179.479 313.557C179.153 312.883 178.99 312.098 178.99 311.205C178.99 310.311 179.153 309.523 179.479 308.841C179.808 308.155 180.267 307.621 180.854 307.239C181.445 306.852 182.134 306.659 182.922 306.659C183.376 306.659 183.825 306.735 184.268 306.886C184.712 307.038 185.115 307.284 185.479 307.625C185.842 307.962 186.132 308.409 186.348 308.966C186.564 309.523 186.672 310.208 186.672 311.023V311.591H179.945V310.432H185.308C185.308 309.939 185.21 309.5 185.013 309.114C184.82 308.727 184.543 308.422 184.183 308.199C183.827 307.975 183.407 307.864 182.922 307.864C182.388 307.864 181.926 307.996 181.536 308.261C181.149 308.523 180.852 308.864 180.643 309.284C180.435 309.705 180.331 310.155 180.331 310.636V311.409C180.331 312.068 180.445 312.627 180.672 313.085C180.903 313.54 181.223 313.886 181.632 314.125C182.041 314.36 182.517 314.477 183.058 314.477C183.411 314.477 183.729 314.428 184.013 314.33C184.301 314.227 184.549 314.076 184.757 313.875C184.965 313.67 185.126 313.417 185.24 313.114L186.536 313.477C186.399 313.917 186.17 314.303 185.848 314.636C185.526 314.966 185.128 315.223 184.655 315.409C184.181 315.591 183.649 315.682 183.058 315.682ZM190.053 310.25V315.5H188.712V306.773H190.007V308.136H190.121C190.325 307.693 190.636 307.337 191.053 307.068C191.469 306.795 192.007 306.659 192.666 306.659C193.257 306.659 193.774 306.78 194.217 307.023C194.661 307.261 195.005 307.625 195.251 308.114C195.498 308.598 195.621 309.212 195.621 309.955V315.5H194.28V310.045C194.28 309.36 194.102 308.826 193.746 308.443C193.39 308.057 192.901 307.864 192.28 307.864C191.852 307.864 191.469 307.956 191.132 308.142C190.799 308.328 190.536 308.598 190.342 308.955C190.149 309.311 190.053 309.742 190.053 310.25ZM204.253 308.727L203.048 309.068C202.973 308.867 202.861 308.672 202.713 308.483C202.569 308.29 202.372 308.131 202.122 308.006C201.872 307.881 201.552 307.818 201.162 307.818C200.628 307.818 200.183 307.941 199.827 308.188C199.474 308.43 199.298 308.739 199.298 309.114C199.298 309.447 199.42 309.71 199.662 309.903C199.904 310.097 200.283 310.258 200.798 310.386L202.094 310.705C202.874 310.894 203.455 311.184 203.838 311.574C204.221 311.96 204.412 312.458 204.412 313.068C204.412 313.568 204.268 314.015 203.98 314.409C203.696 314.803 203.298 315.114 202.787 315.341C202.276 315.568 201.681 315.682 201.003 315.682C200.113 315.682 199.376 315.489 198.793 315.102C198.209 314.716 197.84 314.152 197.685 313.409L198.957 313.091C199.079 313.561 199.308 313.913 199.645 314.148C199.986 314.383 200.431 314.5 200.98 314.5C201.605 314.5 202.101 314.367 202.469 314.102C202.84 313.833 203.026 313.511 203.026 313.136C203.026 312.833 202.92 312.58 202.707 312.375C202.495 312.167 202.17 312.011 201.73 311.909L200.276 311.568C199.476 311.379 198.889 311.085 198.514 310.688C198.143 310.286 197.957 309.784 197.957 309.182C197.957 308.689 198.096 308.254 198.372 307.875C198.652 307.496 199.033 307.199 199.514 306.983C199.999 306.767 200.548 306.659 201.162 306.659C202.026 306.659 202.704 306.848 203.196 307.227C203.692 307.606 204.045 308.106 204.253 308.727Z" fill="#333942"/>
<rect x="71.5" y="332" width="25" height="25" fill="#5C6BF6"/>
<rect x="101.5" y="332" width="25" height="25" fill="#5C6BF6"/>
<rect x="131.5" y="332" width="25" height="25" fill="#5C6BF6"/>
<rect x="161.5" y="332" width="25" height="25" fill="#5C6BF6"/>
<rect x="191.5" y="332" width="25" height="25" fill="#5C6BF6"/>
<rect x="71.5" y="362" width="25" height="25" fill="#5C6BF6"/>
<rect x="101.5" y="362" width="25" height="25" fill="#5C6BF6"/>
<rect x="131.5" y="362" width="25" height="25" fill="#5C6BF6"/>
<rect x="161.5" y="362" width="25" height="25" fill="#5C6BF6"/>
<rect x="191.5" y="362" width="25" height="25" fill="#5C6BF6"/>
<rect width="165" height="109" transform="translate(336.5 288)" fill="#F9FAFB"/>
<path d="M366.5 310H372.5M366.5 314H372.5M374.5 319H364.5C363.395 319 362.5 318.105 362.5 317V303C362.5 301.895 363.395 301 364.5 301H370.086C370.351 301 370.605 301.105 370.793 301.293L376.207 306.707C376.395 306.895 376.5 307.149 376.5 307.414V317C376.5 318.105 375.605 319 374.5 319Z" stroke="#333942" stroke-width="2" stroke-linecap="round" stroke-linejoin="round"/>
<path d="M388.318 303.864V315.5H386.909V303.864H388.318ZM397.143 308.727L395.939 309.068C395.863 308.867 395.751 308.672 395.604 308.483C395.46 308.29 395.263 308.131 395.013 308.006C394.763 307.881 394.443 307.818 394.053 307.818C393.518 307.818 393.073 307.941 392.717 308.188C392.365 308.43 392.189 308.739 392.189 309.114C392.189 309.447 392.31 309.71 392.553 309.903C392.795 310.097 393.174 310.258 393.689 310.386L394.984 310.705C395.765 310.894 396.346 311.184 396.729 311.574C397.111 311.96 397.303 312.458 397.303 313.068C397.303 313.568 397.159 314.015 396.871 314.409C396.587 314.803 396.189 315.114 395.678 315.341C395.166 315.568 394.571 315.682 393.893 315.682C393.003 315.682 392.267 315.489 391.683 315.102C391.1 314.716 390.731 314.152 390.575 313.409L391.848 313.091C391.969 313.561 392.198 313.913 392.536 314.148C392.876 314.383 393.321 314.5 393.871 314.5C394.496 314.5 394.992 314.367 395.359 314.102C395.731 313.833 395.916 313.511 395.916 313.136C395.916 312.833 395.81 312.58 395.598 312.375C395.386 312.167 395.06 312.011 394.621 311.909L393.166 311.568C392.367 311.379 391.78 311.085 391.405 310.688C391.034 310.286 390.848 309.784 390.848 309.182C390.848 308.689 390.986 308.254 391.263 307.875C391.543 307.496 391.924 307.199 392.405 306.983C392.89 306.767 393.439 306.659 394.053 306.659C394.916 306.659 395.594 306.848 396.087 307.227C396.583 307.606 396.935 308.106 397.143 308.727ZM405.503 308.727L404.298 309.068C404.223 308.867 404.111 308.672 403.963 308.483C403.819 308.29 403.622 308.131 403.372 308.006C403.122 307.881 402.802 307.818 402.412 307.818C401.878 307.818 401.433 307.941 401.077 308.188C400.724 308.43 400.548 308.739 400.548 309.114C400.548 309.447 400.67 309.71 400.912 309.903C401.154 310.097 401.533 310.258 402.048 310.386L403.344 310.705C404.124 310.894 404.705 311.184 405.088 311.574C405.471 311.96 405.662 312.458 405.662 313.068C405.662 313.568 405.518 314.015 405.23 314.409C404.946 314.803 404.548 315.114 404.037 315.341C403.526 315.568 402.931 315.682 402.253 315.682C401.363 315.682 400.626 315.489 400.043 315.102C399.459 314.716 399.09 314.152 398.935 313.409L400.207 313.091C400.329 313.561 400.558 313.913 400.895 314.148C401.236 314.383 401.681 314.5 402.23 314.5C402.855 314.5 403.351 314.367 403.719 314.102C404.09 313.833 404.276 313.511 404.276 313.136C404.276 312.833 404.17 312.58 403.957 312.375C403.745 312.167 403.42 312.011 402.98 311.909L401.526 311.568C400.726 311.379 400.139 311.085 399.764 310.688C399.393 310.286 399.207 309.784 399.207 309.182C399.207 308.689 399.346 308.254 399.622 307.875C399.902 307.496 400.283 307.199 400.764 306.983C401.249 306.767 401.798 306.659 402.412 306.659C403.276 306.659 403.954 306.848 404.446 307.227C404.942 307.606 405.295 308.106 405.503 308.727ZM413.18 311.932V306.773H414.521V315.5H413.18V314.023H413.089C412.885 314.466 412.567 314.843 412.135 315.153C411.703 315.46 411.158 315.614 410.499 315.614C409.953 315.614 409.468 315.494 409.044 315.256C408.62 315.013 408.286 314.65 408.044 314.165C407.802 313.676 407.68 313.061 407.68 312.318V306.773H409.021V312.227C409.021 312.864 409.199 313.371 409.555 313.75C409.915 314.129 410.374 314.318 410.93 314.318C411.264 314.318 411.603 314.233 411.947 314.062C412.296 313.892 412.588 313.631 412.822 313.278C413.061 312.926 413.18 312.477 413.18 311.932ZM420.636 315.682C419.795 315.682 419.07 315.496 418.46 315.125C417.854 314.75 417.386 314.227 417.057 313.557C416.731 312.883 416.568 312.098 416.568 311.205C416.568 310.311 416.731 309.523 417.057 308.841C417.386 308.155 417.845 307.621 418.432 307.239C419.023 306.852 419.712 306.659 420.5 306.659C420.955 306.659 421.403 306.735 421.847 306.886C422.29 307.038 422.693 307.284 423.057 307.625C423.42 307.962 423.71 308.409 423.926 308.966C424.142 309.523 424.25 310.208 424.25 311.023V311.591H417.523V310.432H422.886C422.886 309.939 422.788 309.5 422.591 309.114C422.398 308.727 422.121 308.422 421.761 308.199C421.405 307.975 420.985 307.864 420.5 307.864C419.966 307.864 419.504 307.996 419.114 308.261C418.727 308.523 418.43 308.864 418.222 309.284C418.013 309.705 417.909 310.155 417.909 310.636V311.409C417.909 312.068 418.023 312.627 418.25 313.085C418.481 313.54 418.801 313.886 419.21 314.125C419.619 314.36 420.095 314.477 420.636 314.477C420.989 314.477 421.307 314.428 421.591 314.33C421.879 314.227 422.127 314.076 422.335 313.875C422.544 313.67 422.705 313.417 422.818 313.114L424.114 313.477C423.977 313.917 423.748 314.303 423.426 314.636C423.104 314.966 422.706 315.223 422.233 315.409C421.759 315.591 421.227 315.682 420.636 315.682ZM434.585 306.773V307.909H430.062V306.773H434.585ZM431.381 304.682H432.722V313C432.722 313.379 432.777 313.663 432.886 313.852C433 314.038 433.144 314.163 433.318 314.227C433.496 314.288 433.684 314.318 433.881 314.318C434.028 314.318 434.15 314.311 434.244 314.295C434.339 314.277 434.415 314.261 434.472 314.25L434.744 315.455C434.653 315.489 434.527 315.523 434.364 315.557C434.201 315.595 433.994 315.614 433.744 315.614C433.366 315.614 432.994 315.532 432.631 315.369C432.271 315.206 431.972 314.958 431.733 314.625C431.498 314.292 431.381 313.871 431.381 313.364V304.682ZM440.054 315.682C439.266 315.682 438.575 315.494 437.98 315.119C437.389 314.744 436.927 314.22 436.594 313.545C436.264 312.871 436.099 312.083 436.099 311.182C436.099 310.273 436.264 309.479 436.594 308.801C436.927 308.123 437.389 307.597 437.98 307.222C438.575 306.847 439.266 306.659 440.054 306.659C440.842 306.659 441.531 306.847 442.122 307.222C442.717 307.597 443.179 308.123 443.509 308.801C443.842 309.479 444.009 310.273 444.009 311.182C444.009 312.083 443.842 312.871 443.509 313.545C443.179 314.22 442.717 314.744 442.122 315.119C441.531 315.494 440.842 315.682 440.054 315.682ZM440.054 314.477C440.652 314.477 441.145 314.324 441.531 314.017C441.918 313.71 442.204 313.307 442.389 312.807C442.575 312.307 442.668 311.765 442.668 311.182C442.668 310.598 442.575 310.055 442.389 309.551C442.204 309.047 441.918 308.64 441.531 308.33C441.145 308.019 440.652 307.864 440.054 307.864C439.455 307.864 438.963 308.019 438.577 308.33C438.19 308.64 437.904 309.047 437.719 309.551C437.533 310.055 437.44 310.598 437.44 311.182C437.44 311.765 437.533 312.307 437.719 312.807C437.904 313.307 438.19 313.71 438.577 314.017C438.963 314.324 439.455 314.477 440.054 314.477ZM447.305 312.318L447.283 310.659H447.555L451.374 306.773H453.033L448.964 310.886H448.851L447.305 312.318ZM446.055 315.5V303.864H447.396V315.5H446.055ZM451.601 315.5L448.192 311.182L449.146 310.25L453.305 315.5H451.601ZM458.058 315.682C457.217 315.682 456.492 315.496 455.882 315.125C455.276 314.75 454.808 314.227 454.479 313.557C454.153 312.883 453.99 312.098 453.99 311.205C453.99 310.311 454.153 309.523 454.479 308.841C454.808 308.155 455.267 307.621 455.854 307.239C456.445 306.852 457.134 306.659 457.922 306.659C458.376 306.659 458.825 306.735 459.268 306.886C459.712 307.038 460.115 307.284 460.479 307.625C460.842 307.962 461.132 308.409 461.348 308.966C461.564 309.523 461.672 310.208 461.672 311.023V311.591H454.945V310.432H460.308C460.308 309.939 460.21 309.5 460.013 309.114C459.82 308.727 459.543 308.422 459.183 308.199C458.827 307.975 458.407 307.864 457.922 307.864C457.388 307.864 456.926 307.996 456.536 308.261C456.149 308.523 455.852 308.864 455.643 309.284C455.435 309.705 455.331 310.155 455.331 310.636V311.409C455.331 312.068 455.445 312.627 455.672 313.085C455.903 313.54 456.223 313.886 456.632 314.125C457.041 314.36 457.517 314.477 458.058 314.477C458.411 314.477 458.729 314.428 459.013 314.33C459.301 314.227 459.549 314.076 459.757 313.875C459.965 313.67 460.126 313.417 460.24 313.114L461.536 313.477C461.399 313.917 461.17 314.303 460.848 314.636C460.526 314.966 460.128 315.223 459.655 315.409C459.181 315.591 458.649 315.682 458.058 315.682ZM465.053 310.25V315.5H463.712V306.773H465.007V308.136H465.121C465.325 307.693 465.636 307.337 466.053 307.068C466.469 306.795 467.007 306.659 467.666 306.659C468.257 306.659 468.774 306.78 469.217 307.023C469.661 307.261 470.005 307.625 470.251 308.114C470.498 308.598 470.621 309.212 470.621 309.955V315.5H469.28V310.045C469.28 309.36 469.102 308.826 468.746 308.443C468.39 308.057 467.901 307.864 467.28 307.864C466.852 307.864 466.469 307.956 466.132 308.142C465.799 308.328 465.536 308.598 465.342 308.955C465.149 309.311 465.053 309.742 465.053 310.25ZM479.253 308.727L478.048 309.068C477.973 308.867 477.861 308.672 477.713 308.483C477.569 308.29 477.372 308.131 477.122 308.006C476.872 307.881 476.552 307.818 476.162 307.818C475.628 307.818 475.183 307.941 474.827 308.188C474.474 308.43 474.298 308.739 474.298 309.114C474.298 309.447 474.42 309.71 474.662 309.903C474.904 310.097 475.283 310.258 475.798 310.386L477.094 310.705C477.874 310.894 478.455 311.184 478.838 311.574C479.221 311.96 479.412 312.458 479.412 313.068C479.412 313.568 479.268 314.015 478.98 314.409C478.696 314.803 478.298 315.114 477.787 315.341C477.276 315.568 476.681 315.682 476.003 315.682C475.113 315.682 474.376 315.489 473.793 315.102C473.209 314.716 472.84 314.152 472.685 313.409L473.957 313.091C474.079 313.561 474.308 313.913 474.645 314.148C474.986 314.383 475.431 314.5 475.98 314.5C476.605 314.5 477.101 314.367 477.469 314.102C477.84 313.833 478.026 313.511 478.026 313.136C478.026 312.833 477.92 312.58 477.707 312.375C477.495 312.167 477.17 312.011 476.73 311.909L475.276 311.568C474.476 311.379 473.889 311.085 473.514 310.688C473.143 310.286 472.957 309.784 472.957 309.182C472.957 308.689 473.096 308.254 473.372 307.875C473.652 307.496 474.033 307.199 474.514 306.983C474.999 306.767 475.548 306.659 476.162 306.659C477.026 306.659 477.704 306.848 478.196 307.227C478.692 307.606 479.045 308.106 479.253 308.727Z" fill="#333942"/>
<rect x="346.5" y="332" width="25" height="25" fill="#5C6BF6"/>
<rect x="376.5" y="332" width="25" height="25" fill="#5C6BF6"/>
<rect x="406.5" y="332" width="25" height="25" fill="#5C6BF6"/>
<rect x="436.5" y="332" width="25" height="25" fill="#5C6BF6"/>
<rect x="466.5" y="332" width="25" height="25" fill="#5C6BF6"/>
<rect x="346.5" y="362" width="25" height="25" fill="#5C6BF6"/>
<rect x="376.5" y="362" width="25" height="25" fill="#5C6BF6"/>
<rect x="406.5" y="362" width="25" height="25" fill="#5C6BF6"/>
<rect x="436.5" y="362" width="25" height="25" fill="#5C6BF6"/>
<rect x="466.5" y="362" width="25" height="25" fill="#5C6BF6"/>
<rect width="165" height="109" transform="translate(597.5 288)" fill="#F9FAFB"/>
<path d="M627.5 310H633.5M627.5 314H633.5M635.5 319H625.5C624.395 319 623.5 318.105 623.5 317V303C623.5 301.895 624.395 301 625.5 301H631.086C631.351 301 631.605 301.105 631.793 301.293L637.207 306.707C637.395 306.895 637.5 307.149 637.5 307.414V317C637.5 318.105 636.605 319 635.5 319Z" stroke="#333942" stroke-width="2" stroke-linecap="round" stroke-linejoin="round"/>
<path d="M649.318 303.864V315.5H647.909V303.864H649.318ZM658.143 308.727L656.939 309.068C656.863 308.867 656.751 308.672 656.604 308.483C656.46 308.29 656.263 308.131 656.013 308.006C655.763 307.881 655.443 307.818 655.053 307.818C654.518 307.818 654.073 307.941 653.717 308.188C653.365 308.43 653.189 308.739 653.189 309.114C653.189 309.447 653.31 309.71 653.553 309.903C653.795 310.097 654.174 310.258 654.689 310.386L655.984 310.705C656.765 310.894 657.346 311.184 657.729 311.574C658.111 311.96 658.303 312.458 658.303 313.068C658.303 313.568 658.159 314.015 657.871 314.409C657.587 314.803 657.189 315.114 656.678 315.341C656.166 315.568 655.571 315.682 654.893 315.682C654.003 315.682 653.267 315.489 652.683 315.102C652.1 314.716 651.731 314.152 651.575 313.409L652.848 313.091C652.969 313.561 653.198 313.913 653.536 314.148C653.876 314.383 654.321 314.5 654.871 314.5C655.496 314.5 655.992 314.367 656.359 314.102C656.731 313.833 656.916 313.511 656.916 313.136C656.916 312.833 656.81 312.58 656.598 312.375C656.386 312.167 656.06 312.011 655.621 311.909L654.166 311.568C653.367 311.379 652.78 311.085 652.405 310.688C652.034 310.286 651.848 309.784 651.848 309.182C651.848 308.689 651.986 308.254 652.263 307.875C652.543 307.496 652.924 307.199 653.405 306.983C653.89 306.767 654.439 306.659 655.053 306.659C655.916 306.659 656.594 306.848 657.087 307.227C657.583 307.606 657.935 308.106 658.143 308.727ZM666.503 308.727L665.298 309.068C665.223 308.867 665.111 308.672 664.963 308.483C664.819 308.29 664.622 308.131 664.372 308.006C664.122 307.881 663.802 307.818 663.412 307.818C662.878 307.818 662.433 307.941 662.077 308.188C661.724 308.43 661.548 308.739 661.548 309.114C661.548 309.447 661.67 309.71 661.912 309.903C662.154 310.097 662.533 310.258 663.048 310.386L664.344 310.705C665.124 310.894 665.705 311.184 666.088 311.574C666.471 311.96 666.662 312.458 666.662 313.068C666.662 313.568 666.518 314.015 666.23 314.409C665.946 314.803 665.548 315.114 665.037 315.341C664.526 315.568 663.931 315.682 663.253 315.682C662.363 315.682 661.626 315.489 661.043 315.102C660.459 314.716 660.09 314.152 659.935 313.409L661.207 313.091C661.329 313.561 661.558 313.913 661.895 314.148C662.236 314.383 662.681 314.5 663.23 314.5C663.855 314.5 664.351 314.367 664.719 314.102C665.09 313.833 665.276 313.511 665.276 313.136C665.276 312.833 665.17 312.58 664.957 312.375C664.745 312.167 664.42 312.011 663.98 311.909L662.526 311.568C661.726 311.379 661.139 311.085 660.764 310.688C660.393 310.286 660.207 309.784 660.207 309.182C660.207 308.689 660.346 308.254 660.622 307.875C660.902 307.496 661.283 307.199 661.764 306.983C662.249 306.767 662.798 306.659 663.412 306.659C664.276 306.659 664.954 306.848 665.446 307.227C665.942 307.606 666.295 308.106 666.503 308.727ZM674.18 311.932V306.773H675.521V315.5H674.18V314.023H674.089C673.885 314.466 673.567 314.843 673.135 315.153C672.703 315.46 672.158 315.614 671.499 315.614C670.953 315.614 670.468 315.494 670.044 315.256C669.62 315.013 669.286 314.65 669.044 314.165C668.802 313.676 668.68 313.061 668.68 312.318V306.773H670.021V312.227C670.021 312.864 670.199 313.371 670.555 313.75C670.915 314.129 671.374 314.318 671.93 314.318C672.264 314.318 672.603 314.233 672.947 314.062C673.296 313.892 673.588 313.631 673.822 313.278C674.061 312.926 674.18 312.477 674.18 311.932ZM681.636 315.682C680.795 315.682 680.07 315.496 679.46 315.125C678.854 314.75 678.386 314.227 678.057 313.557C677.731 312.883 677.568 312.098 677.568 311.205C677.568 310.311 677.731 309.523 678.057 308.841C678.386 308.155 678.845 307.621 679.432 307.239C680.023 306.852 680.712 306.659 681.5 306.659C681.955 306.659 682.403 306.735 682.847 306.886C683.29 307.038 683.693 307.284 684.057 307.625C684.42 307.962 684.71 308.409 684.926 308.966C685.142 309.523 685.25 310.208 685.25 311.023V311.591H678.523V310.432H683.886C683.886 309.939 683.788 309.5 683.591 309.114C683.398 308.727 683.121 308.422 682.761 308.199C682.405 307.975 681.985 307.864 681.5 307.864C680.966 307.864 680.504 307.996 680.114 308.261C679.727 308.523 679.43 308.864 679.222 309.284C679.013 309.705 678.909 310.155 678.909 310.636V311.409C678.909 312.068 679.023 312.627 679.25 313.085C679.481 313.54 679.801 313.886 680.21 314.125C680.619 314.36 681.095 314.477 681.636 314.477C681.989 314.477 682.307 314.428 682.591 314.33C682.879 314.227 683.127 314.076 683.335 313.875C683.544 313.67 683.705 313.417 683.818 313.114L685.114 313.477C684.977 313.917 684.748 314.303 684.426 314.636C684.104 314.966 683.706 315.223 683.233 315.409C682.759 315.591 682.227 315.682 681.636 315.682ZM695.585 306.773V307.909H691.062V306.773H695.585ZM692.381 304.682H693.722V313C693.722 313.379 693.777 313.663 693.886 313.852C694 314.038 694.144 314.163 694.318 314.227C694.496 314.288 694.684 314.318 694.881 314.318C695.028 314.318 695.15 314.311 695.244 314.295C695.339 314.277 695.415 314.261 695.472 314.25L695.744 315.455C695.653 315.489 695.527 315.523 695.364 315.557C695.201 315.595 694.994 315.614 694.744 315.614C694.366 315.614 693.994 315.532 693.631 315.369C693.271 315.206 692.972 314.958 692.733 314.625C692.498 314.292 692.381 313.871 692.381 313.364V304.682ZM701.054 315.682C700.266 315.682 699.575 315.494 698.98 315.119C698.389 314.744 697.927 314.22 697.594 313.545C697.264 312.871 697.099 312.083 697.099 311.182C697.099 310.273 697.264 309.479 697.594 308.801C697.927 308.123 698.389 307.597 698.98 307.222C699.575 306.847 700.266 306.659 701.054 306.659C701.842 306.659 702.531 306.847 703.122 307.222C703.717 307.597 704.179 308.123 704.509 308.801C704.842 309.479 705.009 310.273 705.009 311.182C705.009 312.083 704.842 312.871 704.509 313.545C704.179 314.22 703.717 314.744 703.122 315.119C702.531 315.494 701.842 315.682 701.054 315.682ZM701.054 314.477C701.652 314.477 702.145 314.324 702.531 314.017C702.918 313.71 703.204 313.307 703.389 312.807C703.575 312.307 703.668 311.765 703.668 311.182C703.668 310.598 703.575 310.055 703.389 309.551C703.204 309.047 702.918 308.64 702.531 308.33C702.145 308.019 701.652 307.864 701.054 307.864C700.455 307.864 699.963 308.019 699.577 308.33C699.19 308.64 698.904 309.047 698.719 309.551C698.533 310.055 698.44 310.598 698.44 311.182C698.44 311.765 698.533 312.307 698.719 312.807C698.904 313.307 699.19 313.71 699.577 314.017C699.963 314.324 700.455 314.477 701.054 314.477ZM708.305 312.318L708.283 310.659H708.555L712.374 306.773H714.033L709.964 310.886H709.851L708.305 312.318ZM707.055 315.5V303.864H708.396V315.5H707.055ZM712.601 315.5L709.192 311.182L710.146 310.25L714.305 315.5H712.601ZM719.058 315.682C718.217 315.682 717.492 315.496 716.882 315.125C716.276 314.75 715.808 314.227 715.479 313.557C715.153 312.883 714.99 312.098 714.99 311.205C714.99 310.311 715.153 309.523 715.479 308.841C715.808 308.155 716.267 307.621 716.854 307.239C717.445 306.852 718.134 306.659 718.922 306.659C719.376 306.659 719.825 306.735 720.268 306.886C720.712 307.038 721.115 307.284 721.479 307.625C721.842 307.962 722.132 308.409 722.348 308.966C722.564 309.523 722.672 310.208 722.672 311.023V311.591H715.945V310.432H721.308C721.308 309.939 721.21 309.5 721.013 309.114C720.82 308.727 720.543 308.422 720.183 308.199C719.827 307.975 719.407 307.864 718.922 307.864C718.388 307.864 717.926 307.996 717.536 308.261C717.149 308.523 716.852 308.864 716.643 309.284C716.435 309.705 716.331 310.155 716.331 310.636V311.409C716.331 312.068 716.445 312.627 716.672 313.085C716.903 313.54 717.223 313.886 717.632 314.125C718.041 314.36 718.517 314.477 719.058 314.477C719.411 314.477 719.729 314.428 720.013 314.33C720.301 314.227 720.549 314.076 720.757 313.875C720.965 313.67 721.126 313.417 721.24 313.114L722.536 313.477C722.399 313.917 722.17 314.303 721.848 314.636C721.526 314.966 721.128 315.223 720.655 315.409C720.181 315.591 719.649 315.682 719.058 315.682ZM726.053 310.25V315.5H724.712V306.773H726.007V308.136H726.121C726.325 307.693 726.636 307.337 727.053 307.068C727.469 306.795 728.007 306.659 728.666 306.659C729.257 306.659 729.774 306.78 730.217 307.023C730.661 307.261 731.005 307.625 731.251 308.114C731.498 308.598 731.621 309.212 731.621 309.955V315.5H730.28V310.045C730.28 309.36 730.102 308.826 729.746 308.443C729.39 308.057 728.901 307.864 728.28 307.864C727.852 307.864 727.469 307.956 727.132 308.142C726.799 308.328 726.536 308.598 726.342 308.955C726.149 309.311 726.053 309.742 726.053 310.25ZM740.253 308.727L739.048 309.068C738.973 308.867 738.861 308.672 738.713 308.483C738.569 308.29 738.372 308.131 738.122 308.006C737.872 307.881 737.552 307.818 737.162 307.818C736.628 307.818 736.183 307.941 735.827 308.188C735.474 308.43 735.298 308.739 735.298 309.114C735.298 309.447 735.42 309.71 735.662 309.903C735.904 310.097 736.283 310.258 736.798 310.386L738.094 310.705C738.874 310.894 739.455 311.184 739.838 311.574C740.221 311.96 740.412 312.458 740.412 313.068C740.412 313.568 740.268 314.015 739.98 314.409C739.696 314.803 739.298 315.114 738.787 315.341C738.276 315.568 737.681 315.682 737.003 315.682C736.113 315.682 735.376 315.489 734.793 315.102C734.209 314.716 733.84 314.152 733.685 313.409L734.957 313.091C735.079 313.561 735.308 313.913 735.645 314.148C735.986 314.383 736.431 314.5 736.98 314.5C737.605 314.5 738.101 314.367 738.469 314.102C738.84 313.833 739.026 313.511 739.026 313.136C739.026 312.833 738.92 312.58 738.707 312.375C738.495 312.167 738.17 312.011 737.73 311.909L736.276 311.568C735.476 311.379 734.889 311.085 734.514 310.688C734.143 310.286 733.957 309.784 733.957 309.182C733.957 308.689 734.096 308.254 734.372 307.875C734.652 307.496 735.033 307.199 735.514 306.983C735.999 306.767 736.548 306.659 737.162 306.659C738.026 306.659 738.704 306.848 739.196 307.227C739.692 307.606 740.045 308.106 740.253 308.727Z" fill="#333942"/>
<rect x="607.5" y="332" width="25" height="25" fill="#5C6BF6"/>
<rect x="637.5" y="332" width="25" height="25" fill="#5C6BF6"/>
<rect x="667.5" y="332" width="25" height="25" fill="#5C6BF6"/>
<rect x="697.5" y="332" width="25" height="25" fill="#5C6BF6"/>
<rect x="727.5" y="332" width="25" height="25" fill="#5C6BF6"/>
<rect x="607.5" y="362" width="25" height="25" fill="#5C6BF6"/>
<rect x="637.5" y="362" width="25" height="25" fill="#5C6BF6"/>
<rect x="667.5" y="362" width="25" height="25" fill="#5C6BF6"/>
<rect x="697.5" y="362" width="25" height="25" fill="#5C6BF6"/>
<rect x="727.5" y="362" width="25" height="25" fill="#5C6BF6"/>
<path d="M143 63.9997L143 62.4997L141.5 62.4997L141.5 63.9997L143 63.9997ZM141.939 155.561C142.525 156.146 143.475 156.146 144.061 155.561L153.607 146.015C154.192 145.429 154.192 144.479 153.607 143.893C153.021 143.308 152.071 143.308 151.485 143.893L143 152.379L134.515 143.893C133.929 143.308 132.979 143.308 132.393 143.893C131.808 144.479 131.808 145.429 132.393 146.015L141.939 155.561ZM310 62.4997L143 62.4997L143 65.4997L310 65.4997L310 62.4997ZM141.5 63.9997L141.5 154.5L144.5 154.5L144.5 63.9997L141.5 63.9997Z" fill="#9CA3AF"/>
<path d="M681.499 65.6239L681.499 64.1239L682.999 64.1239L682.999 65.6239L681.499 65.6239ZM682.56 158.06C681.975 158.646 681.025 158.646 680.439 158.06L670.893 148.514C670.307 147.929 670.307 146.979 670.893 146.393C671.479 145.807 672.429 145.807 673.014 146.393L681.5 154.878L689.985 146.393C690.571 145.807 691.52 145.807 692.106 146.393C692.692 146.979 692.692 147.929 692.106 148.514L682.56 158.06ZM527.5 64.1239L681.499 64.1239L681.499 67.1239L527.5 67.1239L527.5 64.1239ZM682.999 65.6239L683 157L680 157L679.999 65.6239L682.999 65.6239Z" fill="#9CA3AF"/>
<path d="M143.439 289.061C144.025 289.646 144.975 289.646 145.561 289.061L155.107 279.515C155.692 278.929 155.692 277.979 155.107 277.393C154.521 276.808 153.571 276.808 152.985 277.393L144.5 285.879L136.015 277.393C135.429 276.808 134.479 276.808 133.893 277.393C133.308 277.979 133.308 278.929 133.893 279.515L143.439 289.061ZM143 214L143 288L146 288L146 214L143 214Z" fill="#9CA3AF"/>
<path d="M418.439 289.061C419.025 289.646 419.975 289.646 420.561 289.061L430.107 279.515C430.692 278.929 430.692 277.979 430.107 277.393C429.521 276.808 428.571 276.808 427.985 277.393L419.5 285.879L411.015 277.393C410.429 276.808 409.479 276.808 408.893 277.393C408.308 277.979 408.308 278.929 408.893 279.515L418.439 289.061ZM418 214L418 288L421 288L421 214L418 214Z" fill="#9CA3AF"/>
<path d="M418.439 158.061C419.025 158.646 419.975 158.646 420.561 158.061L430.107 148.515C430.692 147.929 430.692 146.979 430.107 146.393C429.521 145.808 428.571 145.808 427.985 146.393L419.5 154.879L411.015 146.393C410.429 145.808 409.479 145.808 408.893 146.393C408.308 146.979 408.308 147.929 408.893 148.515L418.439 158.061ZM418 94L418 157L421 157L421 94L418 94Z" fill="#9CA3AF"/>
<path d="M679.439 288.061C680.025 288.646 680.975 288.646 681.561 288.061L691.107 278.515C691.692 277.929 691.692 276.979 691.107 276.393C690.521 275.808 689.571 275.808 688.985 276.393L680.5 284.879L672.015 276.393C671.429 275.808 670.479 275.808 669.893 276.393C669.308 276.979 669.308 277.929 669.893 278.515L679.439 288.061ZM679 213L679 287L682 287L682 213L679 213Z" fill="#9CA3AF"/>
</g>
<defs>
<clipPath id="clip0_2475_8462">
<rect width="837" height="465" fill="white" transform="translate(0.5)"/>
</clipPath>
</defs>
</svg>
