<svg width="318" height="326" viewBox="0 0 318 326" fill="none" xmlns="http://www.w3.org/2000/svg">
<g clip-path="url(#clip0_2505_12240)">
<rect width="318" height="56" fill="#E5E7EB"/>
<path d="M92 36H97V34C97 32.3431 95.6569 31 94 31C93.0444 31 92.1931 31.4468 91.6438 32.1429M92 36H82M92 36V34C92 33.3438 91.8736 32.717 91.6438 32.1429M82 36H77V34C77 32.3431 78.3431 31 80 31C80.9556 31 81.8069 31.4468 82.3562 32.1429M82 36V34C82 33.3438 82.1264 32.717 82.3562 32.1429M82.3562 32.1429C83.0935 30.301 84.8948 29 87 29C89.1052 29 90.9065 30.301 91.6438 32.1429M90 23C90 24.6569 88.6569 26 87 26C85.3431 26 84 24.6569 84 23C84 21.3431 85.3431 20 87 20C88.6569 20 90 21.3431 90 23ZM96 26C96 27.1046 95.1046 28 94 28C92.8954 28 92 27.1046 92 26C92 24.8954 92.8954 24 94 24C95.1046 24 96 24.8954 96 26ZM82 26C82 27.1046 81.1046 28 80 28C78.8954 28 78 27.1046 78 26C78 24.8954 78.8954 24 80 24C81.1046 24 82 24.8954 82 26Z" stroke="#333942" stroke-width="2" stroke-linecap="round" stroke-linejoin="round"/>
<path d="M112.233 33V22.8182H115.673C116.469 22.8182 117.122 22.9541 117.632 23.2259C118.143 23.4943 118.52 23.8639 118.766 24.3345C119.011 24.8052 119.134 25.3404 119.134 25.9403C119.134 26.5402 119.011 27.0722 118.766 27.5362C118.52 28.0002 118.144 28.3648 117.637 28.63C117.13 28.8918 116.482 29.0227 115.693 29.0227H112.909V27.9091H115.653C116.197 27.9091 116.634 27.8295 116.966 27.6705C117.301 27.5114 117.543 27.286 117.692 26.9943C117.844 26.6993 117.92 26.348 117.92 25.9403C117.92 25.5327 117.844 25.1764 117.692 24.8714C117.539 24.5665 117.296 24.3312 116.961 24.1655C116.626 23.9964 116.184 23.9119 115.634 23.9119H113.466V33H112.233ZM117.026 28.4261L119.531 33H118.099L115.634 28.4261H117.026ZM124.149 33.1591C123.413 33.1591 122.778 32.9967 122.244 32.6719C121.714 32.3438 121.305 31.8864 121.017 31.2997C120.731 30.7098 120.589 30.0237 120.589 29.2415C120.589 28.4593 120.731 27.7699 121.017 27.1733C121.305 26.5734 121.706 26.1061 122.22 25.7713C122.737 25.4332 123.34 25.2642 124.029 25.2642C124.427 25.2642 124.82 25.3305 125.208 25.4631C125.595 25.5956 125.948 25.8111 126.267 26.1094C126.585 26.4044 126.838 26.7955 127.027 27.2827C127.216 27.7699 127.311 28.3698 127.311 29.0824V29.5795H121.424V28.5653H126.117C126.117 28.1345 126.031 27.75 125.859 27.4119C125.69 27.0739 125.448 26.8071 125.133 26.6115C124.821 26.416 124.454 26.3182 124.029 26.3182C123.562 26.3182 123.158 26.4342 122.816 26.6662C122.478 26.8949 122.218 27.1932 122.036 27.5611C121.853 27.929 121.762 28.3234 121.762 28.7443V29.4205C121.762 29.9972 121.862 30.486 122.061 30.8871C122.263 31.2848 122.543 31.5881 122.901 31.7969C123.259 32.0024 123.675 32.1051 124.149 32.1051C124.457 32.1051 124.735 32.062 124.984 31.9759C125.236 31.8864 125.453 31.7538 125.635 31.5781C125.817 31.3991 125.958 31.1771 126.058 30.9119L127.191 31.2301C127.072 31.6146 126.871 31.9527 126.59 32.2443C126.308 32.5327 125.96 32.758 125.546 32.9205C125.131 33.0795 124.666 33.1591 124.149 33.1591ZM131.343 33.179C130.859 33.179 130.419 33.0878 130.025 32.9055C129.631 32.7199 129.317 32.4531 129.085 32.1051C128.853 31.7538 128.737 31.3295 128.737 30.8324C128.737 30.3949 128.824 30.0402 128.996 29.7685C129.168 29.4934 129.399 29.2779 129.687 29.1222C129.975 28.9664 130.294 28.8504 130.642 28.7741C130.993 28.6946 131.346 28.6316 131.7 28.5852C132.164 28.5256 132.541 28.4808 132.829 28.451C133.121 28.4179 133.333 28.3632 133.465 28.2869C133.601 28.2107 133.669 28.0781 133.669 27.8892V27.8494C133.669 27.3589 133.535 26.9777 133.267 26.706C133.001 26.4342 132.599 26.2983 132.058 26.2983C131.498 26.2983 131.059 26.4209 130.741 26.6662C130.423 26.9115 130.199 27.1733 130.07 27.4517L128.956 27.054C129.155 26.59 129.42 26.2287 129.752 25.9702C130.086 25.7083 130.451 25.526 130.845 25.4233C131.243 25.3172 131.634 25.2642 132.019 25.2642C132.264 25.2642 132.546 25.294 132.864 25.3537C133.185 25.41 133.495 25.5277 133.794 25.7067C134.095 25.8857 134.345 26.1558 134.544 26.517C134.743 26.8783 134.843 27.3622 134.843 27.9688V33H133.669V31.9659H133.61C133.53 32.1316 133.397 32.3089 133.212 32.4979C133.026 32.6868 132.779 32.8475 132.471 32.9801C132.163 33.1127 131.787 33.179 131.343 33.179ZM131.521 32.125C131.985 32.125 132.377 32.0339 132.695 31.8516C133.016 31.6693 133.258 31.4339 133.421 31.1456C133.586 30.8572 133.669 30.554 133.669 30.2358V29.1619C133.619 29.2216 133.51 29.2763 133.341 29.326C133.175 29.3724 132.983 29.4138 132.764 29.4503C132.549 29.4834 132.338 29.5133 132.133 29.5398C131.931 29.563 131.767 29.5829 131.641 29.5994C131.336 29.6392 131.051 29.7038 130.786 29.7933C130.524 29.8795 130.312 30.0104 130.149 30.1861C129.99 30.3584 129.911 30.5937 129.911 30.892C129.911 31.2997 130.061 31.608 130.363 31.8168C130.668 32.0223 131.054 32.125 131.521 32.125ZM138.157 22.8182V33H136.984V22.8182H138.157ZM140.306 33V25.3636H141.48V33H140.306ZM140.903 24.0909C140.674 24.0909 140.477 24.013 140.311 23.8572C140.149 23.7015 140.068 23.5142 140.068 23.2955C140.068 23.0767 140.149 22.8894 140.311 22.7337C140.477 22.5779 140.674 22.5 140.903 22.5C141.132 22.5 141.327 22.5779 141.49 22.7337C141.655 22.8894 141.738 23.0767 141.738 23.2955C141.738 23.5142 141.655 23.7015 141.49 23.8572C141.327 24.013 141.132 24.0909 140.903 24.0909ZM148.441 29.8778V25.3636H149.614V33H148.441V31.7074H148.362C148.183 32.0952 147.904 32.425 147.526 32.6967C147.148 32.9652 146.671 33.0994 146.094 33.0994C145.617 33.0994 145.193 32.995 144.822 32.7862C144.451 32.5741 144.159 32.2559 143.947 31.8317C143.735 31.4041 143.629 30.8655 143.629 30.2159V25.3636H144.802V30.1364C144.802 30.6932 144.958 31.1373 145.269 31.4688C145.584 31.8002 145.985 31.9659 146.472 31.9659C146.764 31.9659 147.061 31.8913 147.362 31.7422C147.667 31.593 147.922 31.3643 148.128 31.0561C148.337 30.7479 148.441 30.3551 148.441 29.8778ZM151.763 33V25.3636H152.897V26.5568H152.996C153.155 26.1491 153.412 25.8326 153.767 25.6072C154.122 25.3786 154.547 25.2642 155.045 25.2642C155.548 25.2642 155.968 25.3786 156.302 25.6072C156.64 25.8326 156.904 26.1491 157.093 26.5568H157.172C157.368 26.1624 157.661 25.8492 158.052 25.6172C158.443 25.3819 158.912 25.2642 159.459 25.2642C160.142 25.2642 160.701 25.478 161.135 25.9055C161.569 26.3298 161.786 26.991 161.786 27.8892V33H160.613V27.8892C160.613 27.3258 160.459 26.9231 160.15 26.6811C159.842 26.4392 159.479 26.3182 159.062 26.3182C158.525 26.3182 158.109 26.4806 157.814 26.8054C157.519 27.1269 157.371 27.5346 157.371 28.0284V33H156.178V27.7699C156.178 27.3357 156.037 26.986 155.756 26.7209C155.474 26.4524 155.111 26.3182 154.667 26.3182C154.362 26.3182 154.077 26.3994 153.812 26.5618C153.55 26.7242 153.338 26.9496 153.175 27.2379C153.016 27.523 152.937 27.8527 152.937 28.2273V33H151.763ZM168.028 22.8182H169.499L172.96 31.2699H173.079L176.539 22.8182H178.011V33H176.857V25.2642H176.758L173.576 33H172.463L169.281 25.2642H169.181V33H168.028V22.8182ZM182.571 33.179C182.087 33.179 181.648 33.0878 181.254 32.9055C180.859 32.7199 180.546 32.4531 180.314 32.1051C180.082 31.7538 179.966 31.3295 179.966 30.8324C179.966 30.3949 180.052 30.0402 180.224 29.7685C180.397 29.4934 180.627 29.2779 180.915 29.1222C181.204 28.9664 181.522 28.8504 181.87 28.7741C182.221 28.6946 182.574 28.6316 182.929 28.5852C183.393 28.5256 183.769 28.4808 184.058 28.451C184.349 28.4179 184.561 28.3632 184.694 28.2869C184.83 28.2107 184.898 28.0781 184.898 27.8892V27.8494C184.898 27.3589 184.763 26.9777 184.495 26.706C184.23 26.4342 183.827 26.2983 183.287 26.2983C182.727 26.2983 182.288 26.4209 181.969 26.6662C181.651 26.9115 181.428 27.1733 181.298 27.4517L180.185 27.054C180.384 26.59 180.649 26.2287 180.98 25.9702C181.315 25.7083 181.679 25.526 182.074 25.4233C182.472 25.3172 182.863 25.2642 183.247 25.2642C183.492 25.2642 183.774 25.294 184.092 25.3537C184.414 25.41 184.724 25.5277 185.022 25.7067C185.324 25.8857 185.574 26.1558 185.773 26.517C185.972 26.8783 186.071 27.3622 186.071 27.9688V33H184.898V31.9659H184.838C184.759 32.1316 184.626 32.3089 184.44 32.4979C184.255 32.6868 184.008 32.8475 183.7 32.9801C183.391 33.1127 183.015 33.179 182.571 33.179ZM182.75 32.125C183.214 32.125 183.605 32.0339 183.923 31.8516C184.245 31.6693 184.487 31.4339 184.649 31.1456C184.815 30.8572 184.898 30.554 184.898 30.2358V29.1619C184.848 29.2216 184.739 29.2763 184.57 29.326C184.404 29.3724 184.212 29.4138 183.993 29.4503C183.777 29.4834 183.567 29.5133 183.362 29.5398C183.159 29.563 182.995 29.5829 182.869 29.5994C182.564 29.6392 182.279 29.7038 182.014 29.7933C181.752 29.8795 181.54 30.0104 181.378 30.1861C181.219 30.3584 181.139 30.5937 181.139 30.892C181.139 31.2997 181.29 31.608 181.592 31.8168C181.897 32.0223 182.283 32.125 182.75 32.125ZM193.622 27.0739L192.568 27.3722C192.501 27.1965 192.404 27.0258 192.274 26.8601C192.148 26.6911 191.976 26.5518 191.757 26.4425C191.539 26.3331 191.258 26.2784 190.917 26.2784C190.45 26.2784 190.06 26.3861 189.749 26.6016C189.441 26.8137 189.286 27.0838 189.286 27.4119C189.286 27.7036 189.392 27.9339 189.605 28.103C189.817 28.272 190.148 28.4129 190.599 28.5256L191.732 28.804C192.415 28.9697 192.924 29.2232 193.259 29.5646C193.593 29.9027 193.761 30.3385 193.761 30.8722C193.761 31.3097 193.635 31.7008 193.383 32.0455C193.134 32.3902 192.786 32.6619 192.339 32.8608C191.892 33.0597 191.371 33.1591 190.778 33.1591C189.999 33.1591 189.354 32.9901 188.844 32.652C188.334 32.3139 188.01 31.8201 187.874 31.1705L188.988 30.892C189.094 31.303 189.295 31.6113 189.59 31.8168C189.888 32.0223 190.277 32.125 190.758 32.125C191.305 32.125 191.739 32.009 192.061 31.777C192.385 31.5417 192.548 31.2599 192.548 30.9318C192.548 30.6667 192.455 30.4446 192.269 30.2656C192.084 30.0833 191.799 29.9474 191.414 29.858L190.142 29.5597C189.442 29.3939 188.928 29.1371 188.6 28.7891C188.276 28.4377 188.113 27.9986 188.113 27.4716C188.113 27.0407 188.234 26.6596 188.476 26.3281C188.721 25.9967 189.054 25.7365 189.475 25.5476C189.9 25.3587 190.38 25.2642 190.917 25.2642C191.673 25.2642 192.266 25.4299 192.697 25.7614C193.131 26.0928 193.439 26.5303 193.622 27.0739ZM198.848 25.3636V26.358H194.891V25.3636H198.848ZM196.044 23.5341H197.217V30.8125C197.217 31.1439 197.265 31.3925 197.362 31.5582C197.461 31.7206 197.587 31.83 197.739 31.8864C197.895 31.9394 198.059 31.9659 198.232 31.9659C198.361 31.9659 198.467 31.9593 198.55 31.946C198.633 31.9295 198.699 31.9162 198.749 31.9062L198.987 32.9602C198.908 32.9901 198.797 33.0199 198.654 33.0497C198.512 33.0829 198.331 33.0994 198.112 33.0994C197.781 33.0994 197.456 33.0282 197.138 32.8857C196.823 32.7431 196.561 32.526 196.352 32.2344C196.147 31.9427 196.044 31.5748 196.044 31.1307V23.5341ZM203.733 33.1591C202.997 33.1591 202.362 32.9967 201.828 32.6719C201.298 32.3438 200.889 31.8864 200.6 31.2997C200.315 30.7098 200.173 30.0237 200.173 29.2415C200.173 28.4593 200.315 27.7699 200.6 27.1733C200.889 26.5734 201.29 26.1061 201.804 25.7713C202.321 25.4332 202.924 25.2642 203.613 25.2642C204.011 25.2642 204.404 25.3305 204.792 25.4631C205.179 25.5956 205.532 25.8111 205.85 26.1094C206.169 26.4044 206.422 26.7955 206.611 27.2827C206.8 27.7699 206.895 28.3698 206.895 29.0824V29.5795H201.008V28.5653H205.701C205.701 28.1345 205.615 27.75 205.443 27.4119C205.274 27.0739 205.032 26.8071 204.717 26.6115C204.405 26.416 204.038 26.3182 203.613 26.3182C203.146 26.3182 202.742 26.4342 202.4 26.6662C202.062 26.8949 201.802 27.1932 201.62 27.5611C201.437 27.929 201.346 28.3234 201.346 28.7443V29.4205C201.346 29.9972 201.446 30.486 201.645 30.8871C201.847 31.2848 202.127 31.5881 202.485 31.7969C202.843 32.0024 203.259 32.1051 203.733 32.1051C204.041 32.1051 204.319 32.062 204.568 31.9759C204.82 31.8864 205.037 31.7538 205.219 31.5781C205.401 31.3991 205.542 31.1771 205.642 30.9119L206.775 31.2301C206.656 31.6146 206.455 31.9527 206.174 32.2443C205.892 32.5327 205.544 32.758 205.13 32.9205C204.715 33.0795 204.25 33.1591 203.733 33.1591ZM208.679 33V25.3636H209.813V26.517H209.892C210.032 26.1392 210.283 25.8326 210.648 25.5973C211.013 25.362 211.424 25.2443 211.881 25.2443C211.967 25.2443 212.075 25.246 212.204 25.2493C212.333 25.2526 212.431 25.2576 212.498 25.2642V26.4574C212.458 26.4474 212.367 26.4325 212.224 26.4126C212.085 26.3894 211.937 26.3778 211.782 26.3778C211.41 26.3778 211.079 26.4557 210.787 26.6115C210.499 26.764 210.27 26.9761 210.101 27.2479C209.935 27.5163 209.853 27.8229 209.853 28.1676V33H208.679ZM217.985 33V22.8182H219.218V31.9062H223.951V33H217.985ZM225.86 33V22.8182H227.093V31.9062H231.826V33H225.86ZM241.532 26H240.299C240.226 25.6454 240.098 25.3338 239.916 25.0653C239.737 24.7969 239.518 24.5715 239.26 24.3892C239.004 24.2036 238.721 24.0644 238.409 23.9716C238.098 23.8788 237.773 23.8324 237.435 23.8324C236.819 23.8324 236.26 23.9882 235.76 24.2997C235.262 24.6113 234.866 25.0703 234.571 25.6768C234.28 26.2834 234.134 27.0275 234.134 27.9091C234.134 28.7907 234.28 29.5348 234.571 30.1413C234.866 30.7479 235.262 31.2069 235.76 31.5185C236.26 31.83 236.819 31.9858 237.435 31.9858C237.773 31.9858 238.098 31.9394 238.409 31.8466C238.721 31.7538 239.004 31.6162 239.26 31.4339C239.518 31.2483 239.737 31.0213 239.916 30.7528C240.098 30.4811 240.226 30.1695 240.299 29.8182H241.532C241.439 30.3385 241.27 30.8042 241.025 31.2152C240.779 31.6262 240.474 31.9759 240.11 32.2642C239.745 32.5492 239.336 32.7663 238.882 32.9155C238.431 33.0646 237.949 33.1392 237.435 33.1392C236.567 33.1392 235.794 32.9271 235.118 32.5028C234.442 32.0786 233.91 31.4754 233.522 30.6932C233.135 29.911 232.941 28.983 232.941 27.9091C232.941 26.8352 233.135 25.9072 233.522 25.125C233.91 24.3428 234.442 23.7396 235.118 23.3153C235.794 22.8911 236.567 22.679 237.435 22.679C237.949 22.679 238.431 22.7536 238.882 22.9027C239.336 23.0518 239.745 23.2706 240.11 23.5589C240.474 23.844 240.779 24.192 241.025 24.603C241.27 25.0107 241.439 25.4763 241.532 26Z" fill="#333942"/>
<rect width="143" height="60" transform="translate(0 109)" fill="#F3F4F6"/>
<path d="M16 139L18 137M18 137L25 130L32 137M18 137V147C18 147.552 18.4477 148 19 148H22M32 137L34 139M32 137V147C32 147.552 31.5523 148 31 148H28M22 148C22.5523 148 23 147.552 23 147V143C23 142.448 23.4477 142 24 142H26C26.5523 142 27 142.448 27 143V147C27 147.552 27.4477 148 28 148M22 148H28" stroke="#333942" stroke-width="2" stroke-linecap="round" stroke-linejoin="round"/>
<path d="M50.233 135V124.818H53.6733C54.4688 124.818 55.1217 124.954 55.6321 125.226C56.1425 125.494 56.5204 125.864 56.7656 126.335C57.0109 126.805 57.1335 127.34 57.1335 127.94C57.1335 128.54 57.0109 129.072 56.7656 129.536C56.5204 130 56.1442 130.365 55.6371 130.63C55.13 130.892 54.482 131.023 53.6932 131.023H50.9091V129.909H53.6534C54.197 129.909 54.6345 129.83 54.9659 129.67C55.3007 129.511 55.5426 129.286 55.6918 128.994C55.8442 128.699 55.9205 128.348 55.9205 127.94C55.9205 127.533 55.8442 127.176 55.6918 126.871C55.5393 126.567 55.2957 126.331 54.9609 126.165C54.6262 125.996 54.1837 125.912 53.6335 125.912H51.4659V135H50.233ZM55.0256 130.426L57.5312 135H56.0994L53.6335 130.426H55.0256ZM62.1486 135.159C61.4128 135.159 60.7781 134.997 60.2445 134.672C59.7142 134.344 59.3049 133.886 59.0165 133.3C58.7315 132.71 58.589 132.024 58.589 131.241C58.589 130.459 58.7315 129.77 59.0165 129.173C59.3049 128.573 59.7059 128.106 60.2196 127.771C60.7367 127.433 61.3399 127.264 62.0293 127.264C62.427 127.264 62.8198 127.33 63.2076 127.463C63.5953 127.596 63.9483 127.811 64.2665 128.109C64.5847 128.404 64.8382 128.795 65.0272 129.283C65.2161 129.77 65.3105 130.37 65.3105 131.082V131.58H59.4242V130.565H64.1174C64.1174 130.134 64.0312 129.75 63.8588 129.412C63.6898 129.074 63.4479 128.807 63.133 128.612C62.8214 128.416 62.4535 128.318 62.0293 128.318C61.562 128.318 61.1576 128.434 60.8162 128.666C60.4782 128.895 60.218 129.193 60.0357 129.561C59.8534 129.929 59.7623 130.323 59.7623 130.744V131.42C59.7623 131.997 59.8617 132.486 60.0605 132.887C60.2627 133.285 60.5428 133.588 60.9007 133.797C61.2587 134.002 61.6747 134.105 62.1486 134.105C62.4569 134.105 62.7353 134.062 62.9838 133.976C63.2357 133.886 63.4528 133.754 63.6351 133.578C63.8174 133.399 63.9583 133.177 64.0577 132.912L65.1912 133.23C65.0719 133.615 64.8714 133.953 64.5897 134.244C64.3079 134.533 63.9599 134.758 63.5456 134.92C63.1313 135.08 62.6657 135.159 62.1486 135.159ZM69.3425 135.179C68.8586 135.179 68.4194 135.088 68.025 134.906C67.6306 134.72 67.3174 134.453 67.0854 134.105C66.8534 133.754 66.7374 133.33 66.7374 132.832C66.7374 132.395 66.8236 132.04 66.9959 131.768C67.1683 131.493 67.3986 131.278 67.687 131.122C67.9753 130.966 68.2935 130.85 68.6415 130.774C68.9928 130.695 69.3458 130.632 69.7005 130.585C70.1645 130.526 70.5407 130.481 70.829 130.451C71.1207 130.418 71.3328 130.363 71.4654 130.287C71.6013 130.211 71.6692 130.078 71.6692 129.889V129.849C71.6692 129.359 71.535 128.978 71.2665 128.706C71.0014 128.434 70.5987 128.298 70.0584 128.298C69.4983 128.298 69.0591 128.421 68.7409 128.666C68.4228 128.911 68.199 129.173 68.0698 129.452L66.9561 129.054C67.155 128.59 67.4202 128.229 67.7516 127.97C68.0864 127.708 68.4509 127.526 68.8453 127.423C69.2431 127.317 69.6342 127.264 70.0186 127.264C70.2639 127.264 70.5456 127.294 70.8638 127.354C71.1853 127.41 71.4952 127.528 71.7935 127.707C72.0951 127.886 72.3453 128.156 72.5442 128.517C72.7431 128.878 72.8425 129.362 72.8425 129.969V135H71.6692V133.966H71.6096C71.53 134.132 71.3974 134.309 71.2118 134.498C71.0262 134.687 70.7793 134.848 70.4711 134.98C70.1628 135.113 69.7866 135.179 69.3425 135.179ZM69.5215 134.125C69.9855 134.125 70.3766 134.034 70.6948 133.852C71.0163 133.669 71.2582 133.434 71.4206 133.146C71.5864 132.857 71.6692 132.554 71.6692 132.236V131.162C71.6195 131.222 71.5101 131.276 71.3411 131.326C71.1754 131.372 70.9831 131.414 70.7644 131.45C70.5489 131.483 70.3385 131.513 70.133 131.54C69.9308 131.563 69.7667 131.583 69.6408 131.599C69.3359 131.639 69.0508 131.704 68.7857 131.793C68.5239 131.879 68.3117 132.01 68.1493 132.186C67.9902 132.358 67.9107 132.594 67.9107 132.892C67.9107 133.3 68.0615 133.608 68.3631 133.817C68.668 134.022 69.0542 134.125 69.5215 134.125ZM76.1573 124.818V135H74.984V124.818H76.1573ZM78.3063 135V127.364H79.4796V135H78.3063ZM78.9029 126.091C78.6742 126.091 78.477 126.013 78.3113 125.857C78.1489 125.701 78.0676 125.514 78.0676 125.295C78.0676 125.077 78.1489 124.889 78.3113 124.734C78.477 124.578 78.6742 124.5 78.9029 124.5C79.1316 124.5 79.3271 124.578 79.4895 124.734C79.6552 124.889 79.7381 125.077 79.7381 125.295C79.7381 125.514 79.6552 125.701 79.4895 125.857C79.3271 126.013 79.1316 126.091 78.9029 126.091ZM86.4411 131.878V127.364H87.6143V135H86.4411V133.707H86.3615C86.1825 134.095 85.9041 134.425 85.5263 134.697C85.1484 134.965 84.6712 135.099 84.0945 135.099C83.6172 135.099 83.1929 134.995 82.8217 134.786C82.4505 134.574 82.1589 134.256 81.9467 133.832C81.7346 133.404 81.6286 132.866 81.6286 132.216V127.364H82.8018V132.136C82.8018 132.693 82.9576 133.137 83.2692 133.469C83.584 133.8 83.9851 133.966 84.4723 133.966C84.764 133.966 85.0606 133.891 85.3622 133.742C85.6671 133.593 85.9223 133.364 86.1278 133.056C86.3366 132.748 86.4411 132.355 86.4411 131.878ZM89.7633 135V127.364H90.8968V128.557H90.9963C91.1554 128.149 91.4122 127.833 91.7669 127.607C92.1215 127.379 92.5474 127.264 93.0446 127.264C93.5484 127.264 93.9676 127.379 94.3024 127.607C94.6404 127.833 94.9039 128.149 95.0929 128.557H95.1724C95.368 128.162 95.6613 127.849 96.0524 127.617C96.4435 127.382 96.9125 127.264 97.4593 127.264C98.1421 127.264 98.7006 127.478 99.1348 127.906C99.569 128.33 99.786 128.991 99.786 129.889V135H98.6127V129.889C98.6127 129.326 98.4586 128.923 98.1504 128.681C97.8422 128.439 97.4792 128.318 97.0616 128.318C96.5247 128.318 96.1087 128.481 95.8137 128.805C95.5188 129.127 95.3713 129.535 95.3713 130.028V135H94.1781V129.77C94.1781 129.336 94.0372 128.986 93.7555 128.721C93.4738 128.452 93.1109 128.318 92.6667 128.318C92.3618 128.318 92.0768 128.399 91.8116 128.562C91.5498 128.724 91.3377 128.95 91.1752 129.238C91.0162 129.523 90.9366 129.853 90.9366 130.227V135H89.7633ZM55.8011 145.364C55.7415 144.86 55.4995 144.469 55.0753 144.19C54.651 143.912 54.1307 143.773 53.5142 143.773C53.0634 143.773 52.669 143.846 52.331 143.991C51.9962 144.137 51.7344 144.338 51.5455 144.593C51.3598 144.848 51.267 145.138 51.267 145.463C51.267 145.735 51.3317 145.969 51.4609 146.164C51.5935 146.356 51.7625 146.517 51.968 146.646C52.1735 146.772 52.389 146.877 52.6143 146.96C52.8397 147.039 53.0469 147.104 53.2358 147.153L54.2699 147.432C54.535 147.501 54.83 147.598 55.1548 147.72C55.483 147.843 55.7962 148.01 56.0945 148.222C56.3961 148.431 56.6446 148.7 56.8402 149.028C57.0357 149.356 57.1335 149.759 57.1335 150.236C57.1335 150.786 56.9893 151.283 56.701 151.727C56.416 152.171 55.9983 152.524 55.4482 152.786C54.9013 153.048 54.2367 153.179 53.4545 153.179C52.7254 153.179 52.094 153.061 51.5604 152.826C51.0301 152.591 50.6125 152.263 50.3075 151.842C50.0059 151.421 49.8352 150.932 49.7955 150.375H51.0682C51.1013 150.759 51.2306 151.078 51.456 151.33C51.6847 151.578 51.973 151.764 52.321 151.886C52.6723 152.006 53.0502 152.065 53.4545 152.065C53.9252 152.065 54.3478 151.989 54.7223 151.837C55.0968 151.681 55.3935 151.465 55.6122 151.19C55.831 150.912 55.9403 150.587 55.9403 150.216C55.9403 149.878 55.8459 149.603 55.657 149.391C55.468 149.179 55.2195 149.006 54.9112 148.874C54.603 148.741 54.2699 148.625 53.9119 148.526L52.6591 148.168C51.8636 147.939 51.2339 147.612 50.7699 147.188C50.3059 146.764 50.0739 146.209 50.0739 145.523C50.0739 144.953 50.228 144.455 50.5362 144.031C50.8478 143.604 51.2654 143.272 51.7891 143.037C52.3161 142.798 52.9044 142.679 53.554 142.679C54.2102 142.679 54.7936 142.797 55.304 143.032C55.8144 143.264 56.2188 143.582 56.517 143.987C56.8187 144.391 56.9777 144.85 56.9943 145.364H55.8011ZM62.2033 153.159C61.4675 153.159 60.8328 152.997 60.2992 152.672C59.7689 152.344 59.3596 151.886 59.0712 151.3C58.7862 150.71 58.6436 150.024 58.6436 149.241C58.6436 148.459 58.7862 147.77 59.0712 147.173C59.3596 146.573 59.7606 146.106 60.2743 145.771C60.7914 145.433 61.3946 145.264 62.084 145.264C62.4817 145.264 62.8745 145.33 63.2623 145.463C63.65 145.596 64.003 145.811 64.3212 146.109C64.6394 146.404 64.8929 146.795 65.0819 147.283C65.2708 147.77 65.3652 148.37 65.3652 149.082V149.58H59.4789V148.565H64.1721C64.1721 148.134 64.0859 147.75 63.9135 147.412C63.7445 147.074 63.5025 146.807 63.1877 146.612C62.8761 146.416 62.5082 146.318 62.084 146.318C61.6167 146.318 61.2123 146.434 60.8709 146.666C60.5328 146.895 60.2727 147.193 60.0904 147.561C59.9081 147.929 59.8169 148.323 59.8169 148.744V149.42C59.8169 149.997 59.9164 150.486 60.1152 150.887C60.3174 151.285 60.5975 151.588 60.9554 151.797C61.3134 152.002 61.7293 152.105 62.2033 152.105C62.5115 152.105 62.79 152.062 63.0385 151.976C63.2904 151.886 63.5075 151.754 63.6898 151.578C63.8721 151.399 64.013 151.177 64.1124 150.912L65.2459 151.23C65.1266 151.615 64.9261 151.953 64.6444 152.244C64.3626 152.533 64.0146 152.758 63.6003 152.92C63.186 153.08 62.7203 153.159 62.2033 153.159ZM67.15 153V145.364H68.2836V146.517H68.3631C68.5023 146.139 68.7542 145.833 69.1188 145.597C69.4834 145.362 69.8944 145.244 70.3517 145.244C70.4379 145.244 70.5456 145.246 70.6749 145.249C70.8042 145.253 70.9019 145.258 70.9682 145.264V146.457C70.9284 146.447 70.8373 146.433 70.6948 146.413C70.5556 146.389 70.4081 146.378 70.2523 146.378C69.8811 146.378 69.5497 146.456 69.258 146.612C68.9696 146.764 68.7409 146.976 68.5719 147.248C68.4062 147.516 68.3233 147.823 68.3233 148.168V153H67.15ZM72.359 153V145.364H73.5323V153H72.359ZM72.9556 144.091C72.7269 144.091 72.5297 144.013 72.364 143.857C72.2016 143.701 72.1204 143.514 72.1204 143.295C72.1204 143.077 72.2016 142.889 72.364 142.734C72.5297 142.578 72.7269 142.5 72.9556 142.5C73.1843 142.5 73.3799 142.578 73.5423 142.734C73.708 142.889 73.7908 143.077 73.7908 143.295C73.7908 143.514 73.708 143.701 73.5423 143.857C73.3799 144.013 73.1843 144.091 72.9556 144.091ZM78.883 153.159C78.1472 153.159 77.5125 152.997 76.9789 152.672C76.4486 152.344 76.0392 151.886 75.7509 151.3C75.4658 150.71 75.3233 150.024 75.3233 149.241C75.3233 148.459 75.4658 147.77 75.7509 147.173C76.0392 146.573 76.4403 146.106 76.954 145.771C77.4711 145.433 78.0743 145.264 78.7637 145.264C79.1614 145.264 79.5542 145.33 79.9419 145.463C80.3297 145.596 80.6827 145.811 81.0009 146.109C81.3191 146.404 81.5726 146.795 81.7615 147.283C81.9505 147.77 82.0449 148.37 82.0449 149.082V149.58H76.1586V148.565H80.8517C80.8517 148.134 80.7656 147.75 80.5932 147.412C80.4242 147.074 80.1822 146.807 79.8674 146.612C79.5558 146.416 79.1879 146.318 78.7637 146.318C78.2963 146.318 77.892 146.434 77.5506 146.666C77.2125 146.895 76.9524 147.193 76.7701 147.561C76.5878 147.929 76.4966 148.323 76.4966 148.744V149.42C76.4966 149.997 76.5961 150.486 76.7949 150.887C76.9971 151.285 77.2772 151.588 77.6351 151.797C77.9931 152.002 78.409 152.105 78.883 152.105C79.1912 152.105 79.4696 152.062 79.7182 151.976C79.9701 151.886 80.1872 151.754 80.3695 151.578C80.5518 151.399 80.6926 151.177 80.7921 150.912L81.9256 151.23C81.8063 151.615 81.6058 151.953 81.324 152.244C81.0423 152.533 80.6943 152.758 80.28 152.92C79.8657 153.08 79.4 153.159 78.883 153.159ZM89.2388 147.074L88.1848 147.372C88.1185 147.196 88.0208 147.026 87.8915 146.86C87.7656 146.691 87.5932 146.552 87.3745 146.442C87.1557 146.333 86.8757 146.278 86.5343 146.278C86.0669 146.278 85.6775 146.386 85.3659 146.602C85.0577 146.814 84.9036 147.084 84.9036 147.412C84.9036 147.704 85.0096 147.934 85.2218 148.103C85.4339 148.272 85.7653 148.413 86.2161 148.526L87.3496 148.804C88.0324 148.97 88.5411 149.223 88.8759 149.565C89.2106 149.903 89.378 150.339 89.378 150.872C89.378 151.31 89.2521 151.701 89.0002 152.045C88.7516 152.39 88.4036 152.662 87.9561 152.861C87.5087 153.06 86.9883 153.159 86.3951 153.159C85.6162 153.159 84.9715 152.99 84.4611 152.652C83.9507 152.314 83.6275 151.82 83.4917 151.17L84.6053 150.892C84.7114 151.303 84.9119 151.611 85.2069 151.817C85.5051 152.022 85.8946 152.125 86.3752 152.125C86.9221 152.125 87.3562 152.009 87.6777 151.777C88.0025 151.542 88.165 151.26 88.165 150.932C88.165 150.667 88.0721 150.445 87.8865 150.266C87.7009 150.083 87.4159 149.947 87.0314 149.858L85.7587 149.56C85.0594 149.394 84.5456 149.137 84.2175 148.789C83.8927 148.438 83.7303 147.999 83.7303 147.472C83.7303 147.041 83.8513 146.66 84.0932 146.328C84.3385 145.997 84.6716 145.737 85.0925 145.548C85.5167 145.359 85.9973 145.264 86.5343 145.264C87.29 145.264 87.8832 145.43 88.3141 145.761C88.7483 146.093 89.0565 146.53 89.2388 147.074ZM98.6413 142.818V153H97.4084V144.111H97.3487L94.8629 145.761V144.509L97.4084 142.818H98.6413ZM105.686 153V142.818H106.919V151.906H111.652V153H105.686ZM113.561 153V142.818H114.794V151.906H119.527V153H113.561ZM129.233 146H128C127.927 145.645 127.799 145.334 127.617 145.065C127.438 144.797 127.219 144.571 126.961 144.389C126.706 144.204 126.422 144.064 126.111 143.972C125.799 143.879 125.474 143.832 125.136 143.832C124.52 143.832 123.961 143.988 123.461 144.3C122.964 144.611 122.568 145.07 122.273 145.677C121.981 146.283 121.835 147.027 121.835 147.909C121.835 148.791 121.981 149.535 122.273 150.141C122.568 150.748 122.964 151.207 123.461 151.518C123.961 151.83 124.52 151.986 125.136 151.986C125.474 151.986 125.799 151.939 126.111 151.847C126.422 151.754 126.706 151.616 126.961 151.434C127.219 151.248 127.438 151.021 127.617 150.753C127.799 150.481 127.927 150.17 128 149.818H129.233C129.14 150.339 128.971 150.804 128.726 151.215C128.48 151.626 128.175 151.976 127.811 152.264C127.446 152.549 127.037 152.766 126.583 152.915C126.132 153.065 125.65 153.139 125.136 153.139C124.268 153.139 123.496 152.927 122.819 152.503C122.143 152.079 121.611 151.475 121.224 150.693C120.836 149.911 120.642 148.983 120.642 147.909C120.642 146.835 120.836 145.907 121.224 145.125C121.611 144.343 122.143 143.74 122.819 143.315C123.496 142.891 124.268 142.679 125.136 142.679C125.65 142.679 126.132 142.754 126.583 142.903C127.037 143.052 127.446 143.271 127.811 143.559C128.175 143.844 128.48 144.192 128.726 144.603C128.971 145.011 129.14 145.476 129.233 146Z" fill="#333942"/>
<rect width="143" height="60" transform="translate(175 109)" fill="#F3F4F6"/>
<path d="M190 139L192 137M192 137L199 130L206 137M192 137V147C192 147.552 192.448 148 193 148H196M206 137L208 139M206 137V147C206 147.552 205.552 148 205 148H202M196 148C196.552 148 197 147.552 197 147V143C197 142.448 197.448 142 198 142H200C200.552 142 201 142.448 201 143V147C201 147.552 201.448 148 202 148M196 148H202" stroke="#333942" stroke-width="2" stroke-linecap="round" stroke-linejoin="round"/>
<path d="M224.233 135V124.818H227.673C228.469 124.818 229.122 124.954 229.632 125.226C230.143 125.494 230.52 125.864 230.766 126.335C231.011 126.805 231.134 127.34 231.134 127.94C231.134 128.54 231.011 129.072 230.766 129.536C230.52 130 230.144 130.365 229.637 130.63C229.13 130.892 228.482 131.023 227.693 131.023H224.909V129.909H227.653C228.197 129.909 228.634 129.83 228.966 129.67C229.301 129.511 229.543 129.286 229.692 128.994C229.844 128.699 229.92 128.348 229.92 127.94C229.92 127.533 229.844 127.176 229.692 126.871C229.539 126.567 229.296 126.331 228.961 126.165C228.626 125.996 228.184 125.912 227.634 125.912H225.466V135H224.233ZM229.026 130.426L231.531 135H230.099L227.634 130.426H229.026ZM236.149 135.159C235.413 135.159 234.778 134.997 234.244 134.672C233.714 134.344 233.305 133.886 233.017 133.3C232.731 132.71 232.589 132.024 232.589 131.241C232.589 130.459 232.731 129.77 233.017 129.173C233.305 128.573 233.706 128.106 234.22 127.771C234.737 127.433 235.34 127.264 236.029 127.264C236.427 127.264 236.82 127.33 237.208 127.463C237.595 127.596 237.948 127.811 238.267 128.109C238.585 128.404 238.838 128.795 239.027 129.283C239.216 129.77 239.311 130.37 239.311 131.082V131.58H233.424V130.565H238.117C238.117 130.134 238.031 129.75 237.859 129.412C237.69 129.074 237.448 128.807 237.133 128.612C236.821 128.416 236.454 128.318 236.029 128.318C235.562 128.318 235.158 128.434 234.816 128.666C234.478 128.895 234.218 129.193 234.036 129.561C233.853 129.929 233.762 130.323 233.762 130.744V131.42C233.762 131.997 233.862 132.486 234.061 132.887C234.263 133.285 234.543 133.588 234.901 133.797C235.259 134.002 235.675 134.105 236.149 134.105C236.457 134.105 236.735 134.062 236.984 133.976C237.236 133.886 237.453 133.754 237.635 133.578C237.817 133.399 237.958 133.177 238.058 132.912L239.191 133.23C239.072 133.615 238.871 133.953 238.59 134.244C238.308 134.533 237.96 134.758 237.546 134.92C237.131 135.08 236.666 135.159 236.149 135.159ZM243.343 135.179C242.859 135.179 242.419 135.088 242.025 134.906C241.631 134.72 241.317 134.453 241.085 134.105C240.853 133.754 240.737 133.33 240.737 132.832C240.737 132.395 240.824 132.04 240.996 131.768C241.168 131.493 241.399 131.278 241.687 131.122C241.975 130.966 242.294 130.85 242.642 130.774C242.993 130.695 243.346 130.632 243.7 130.585C244.164 130.526 244.541 130.481 244.829 130.451C245.121 130.418 245.333 130.363 245.465 130.287C245.601 130.211 245.669 130.078 245.669 129.889V129.849C245.669 129.359 245.535 128.978 245.267 128.706C245.001 128.434 244.599 128.298 244.058 128.298C243.498 128.298 243.059 128.421 242.741 128.666C242.423 128.911 242.199 129.173 242.07 129.452L240.956 129.054C241.155 128.59 241.42 128.229 241.752 127.97C242.086 127.708 242.451 127.526 242.845 127.423C243.243 127.317 243.634 127.264 244.019 127.264C244.264 127.264 244.546 127.294 244.864 127.354C245.185 127.41 245.495 127.528 245.794 127.707C246.095 127.886 246.345 128.156 246.544 128.517C246.743 128.878 246.843 129.362 246.843 129.969V135H245.669V133.966H245.61C245.53 134.132 245.397 134.309 245.212 134.498C245.026 134.687 244.779 134.848 244.471 134.98C244.163 135.113 243.787 135.179 243.343 135.179ZM243.521 134.125C243.985 134.125 244.377 134.034 244.695 133.852C245.016 133.669 245.258 133.434 245.421 133.146C245.586 132.857 245.669 132.554 245.669 132.236V131.162C245.619 131.222 245.51 131.276 245.341 131.326C245.175 131.372 244.983 131.414 244.764 131.45C244.549 131.483 244.338 131.513 244.133 131.54C243.931 131.563 243.767 131.583 243.641 131.599C243.336 131.639 243.051 131.704 242.786 131.793C242.524 131.879 242.312 132.01 242.149 132.186C241.99 132.358 241.911 132.594 241.911 132.892C241.911 133.3 242.061 133.608 242.363 133.817C242.668 134.022 243.054 134.125 243.521 134.125ZM250.157 124.818V135H248.984V124.818H250.157ZM252.306 135V127.364H253.48V135H252.306ZM252.903 126.091C252.674 126.091 252.477 126.013 252.311 125.857C252.149 125.701 252.068 125.514 252.068 125.295C252.068 125.077 252.149 124.889 252.311 124.734C252.477 124.578 252.674 124.5 252.903 124.5C253.132 124.5 253.327 124.578 253.49 124.734C253.655 124.889 253.738 125.077 253.738 125.295C253.738 125.514 253.655 125.701 253.49 125.857C253.327 126.013 253.132 126.091 252.903 126.091ZM260.441 131.878V127.364H261.614V135H260.441V133.707H260.362C260.183 134.095 259.904 134.425 259.526 134.697C259.148 134.965 258.671 135.099 258.094 135.099C257.617 135.099 257.193 134.995 256.822 134.786C256.451 134.574 256.159 134.256 255.947 133.832C255.735 133.404 255.629 132.866 255.629 132.216V127.364H256.802V132.136C256.802 132.693 256.958 133.137 257.269 133.469C257.584 133.8 257.985 133.966 258.472 133.966C258.764 133.966 259.061 133.891 259.362 133.742C259.667 133.593 259.922 133.364 260.128 133.056C260.337 132.748 260.441 132.355 260.441 131.878ZM263.763 135V127.364H264.897V128.557H264.996C265.155 128.149 265.412 127.833 265.767 127.607C266.122 127.379 266.547 127.264 267.045 127.264C267.548 127.264 267.968 127.379 268.302 127.607C268.64 127.833 268.904 128.149 269.093 128.557H269.172C269.368 128.162 269.661 127.849 270.052 127.617C270.443 127.382 270.912 127.264 271.459 127.264C272.142 127.264 272.701 127.478 273.135 127.906C273.569 128.33 273.786 128.991 273.786 129.889V135H272.613V129.889C272.613 129.326 272.459 128.923 272.15 128.681C271.842 128.439 271.479 128.318 271.062 128.318C270.525 128.318 270.109 128.481 269.814 128.805C269.519 129.127 269.371 129.535 269.371 130.028V135H268.178V129.77C268.178 129.336 268.037 128.986 267.756 128.721C267.474 128.452 267.111 128.318 266.667 128.318C266.362 128.318 266.077 128.399 265.812 128.562C265.55 128.724 265.338 128.95 265.175 129.238C265.016 129.523 264.937 129.853 264.937 130.227V135H263.763ZM229.801 145.364C229.741 144.86 229.5 144.469 229.075 144.19C228.651 143.912 228.131 143.773 227.514 143.773C227.063 143.773 226.669 143.846 226.331 143.991C225.996 144.137 225.734 144.338 225.545 144.593C225.36 144.848 225.267 145.138 225.267 145.463C225.267 145.735 225.332 145.969 225.461 146.164C225.594 146.356 225.763 146.517 225.968 146.646C226.174 146.772 226.389 146.877 226.614 146.96C226.84 147.039 227.047 147.104 227.236 147.153L228.27 147.432C228.535 147.501 228.83 147.598 229.155 147.72C229.483 147.843 229.796 148.01 230.094 148.222C230.396 148.431 230.645 148.7 230.84 149.028C231.036 149.356 231.134 149.759 231.134 150.236C231.134 150.786 230.989 151.283 230.701 151.727C230.416 152.171 229.998 152.524 229.448 152.786C228.901 153.048 228.237 153.179 227.455 153.179C226.725 153.179 226.094 153.061 225.56 152.826C225.03 152.591 224.612 152.263 224.308 151.842C224.006 151.421 223.835 150.932 223.795 150.375H225.068C225.101 150.759 225.231 151.078 225.456 151.33C225.685 151.578 225.973 151.764 226.321 151.886C226.672 152.006 227.05 152.065 227.455 152.065C227.925 152.065 228.348 151.989 228.722 151.837C229.097 151.681 229.393 151.465 229.612 151.19C229.831 150.912 229.94 150.587 229.94 150.216C229.94 149.878 229.846 149.603 229.657 149.391C229.468 149.179 229.219 149.006 228.911 148.874C228.603 148.741 228.27 148.625 227.912 148.526L226.659 148.168C225.864 147.939 225.234 147.612 224.77 147.188C224.306 146.764 224.074 146.209 224.074 145.523C224.074 144.953 224.228 144.455 224.536 144.031C224.848 143.604 225.265 143.272 225.789 143.037C226.316 142.798 226.904 142.679 227.554 142.679C228.21 142.679 228.794 142.797 229.304 143.032C229.814 143.264 230.219 143.582 230.517 143.987C230.819 144.391 230.978 144.85 230.994 145.364H229.801ZM236.203 153.159C235.468 153.159 234.833 152.997 234.299 152.672C233.769 152.344 233.36 151.886 233.071 151.3C232.786 150.71 232.644 150.024 232.644 149.241C232.644 148.459 232.786 147.77 233.071 147.173C233.36 146.573 233.761 146.106 234.274 145.771C234.791 145.433 235.395 145.264 236.084 145.264C236.482 145.264 236.874 145.33 237.262 145.463C237.65 145.596 238.003 145.811 238.321 146.109C238.639 146.404 238.893 146.795 239.082 147.283C239.271 147.77 239.365 148.37 239.365 149.082V149.58H233.479V148.565H238.172C238.172 148.134 238.086 147.75 237.914 147.412C237.744 147.074 237.503 146.807 237.188 146.612C236.876 146.416 236.508 146.318 236.084 146.318C235.617 146.318 235.212 146.434 234.871 146.666C234.533 146.895 234.273 147.193 234.09 147.561C233.908 147.929 233.817 148.323 233.817 148.744V149.42C233.817 149.997 233.916 150.486 234.115 150.887C234.317 151.285 234.597 151.588 234.955 151.797C235.313 152.002 235.729 152.105 236.203 152.105C236.512 152.105 236.79 152.062 237.039 151.976C237.29 151.886 237.508 151.754 237.69 151.578C237.872 151.399 238.013 151.177 238.112 150.912L239.246 151.23C239.127 151.615 238.926 151.953 238.644 152.244C238.363 152.533 238.015 152.758 237.6 152.92C237.186 153.08 236.72 153.159 236.203 153.159ZM241.15 153V145.364H242.284V146.517H242.363C242.502 146.139 242.754 145.833 243.119 145.597C243.483 145.362 243.894 145.244 244.352 145.244C244.438 145.244 244.546 145.246 244.675 145.249C244.804 145.253 244.902 145.258 244.968 145.264V146.457C244.928 146.447 244.837 146.433 244.695 146.413C244.556 146.389 244.408 146.378 244.252 146.378C243.881 146.378 243.55 146.456 243.258 146.612C242.97 146.764 242.741 146.976 242.572 147.248C242.406 147.516 242.323 147.823 242.323 148.168V153H241.15ZM246.359 153V145.364H247.532V153H246.359ZM246.956 144.091C246.727 144.091 246.53 144.013 246.364 143.857C246.202 143.701 246.12 143.514 246.12 143.295C246.12 143.077 246.202 142.889 246.364 142.734C246.53 142.578 246.727 142.5 246.956 142.5C247.184 142.5 247.38 142.578 247.542 142.734C247.708 142.889 247.791 143.077 247.791 143.295C247.791 143.514 247.708 143.701 247.542 143.857C247.38 144.013 247.184 144.091 246.956 144.091ZM252.883 153.159C252.147 153.159 251.512 152.997 250.979 152.672C250.449 152.344 250.039 151.886 249.751 151.3C249.466 150.71 249.323 150.024 249.323 149.241C249.323 148.459 249.466 147.77 249.751 147.173C250.039 146.573 250.44 146.106 250.954 145.771C251.471 145.433 252.074 145.264 252.764 145.264C253.161 145.264 253.554 145.33 253.942 145.463C254.33 145.596 254.683 145.811 255.001 146.109C255.319 146.404 255.573 146.795 255.762 147.283C255.95 147.77 256.045 148.37 256.045 149.082V149.58H250.159V148.565H254.852C254.852 148.134 254.766 147.75 254.593 147.412C254.424 147.074 254.182 146.807 253.867 146.612C253.556 146.416 253.188 146.318 252.764 146.318C252.296 146.318 251.892 146.434 251.551 146.666C251.213 146.895 250.952 147.193 250.77 147.561C250.588 147.929 250.497 148.323 250.497 148.744V149.42C250.497 149.997 250.596 150.486 250.795 150.887C250.997 151.285 251.277 151.588 251.635 151.797C251.993 152.002 252.409 152.105 252.883 152.105C253.191 152.105 253.47 152.062 253.718 151.976C253.97 151.886 254.187 151.754 254.369 151.578C254.552 151.399 254.693 151.177 254.792 150.912L255.926 151.23C255.806 151.615 255.606 151.953 255.324 152.244C255.042 152.533 254.694 152.758 254.28 152.92C253.866 153.08 253.4 153.159 252.883 153.159ZM263.239 147.074L262.185 147.372C262.119 147.196 262.021 147.026 261.892 146.86C261.766 146.691 261.593 146.552 261.374 146.442C261.156 146.333 260.876 146.278 260.534 146.278C260.067 146.278 259.677 146.386 259.366 146.602C259.058 146.814 258.904 147.084 258.904 147.412C258.904 147.704 259.01 147.934 259.222 148.103C259.434 148.272 259.765 148.413 260.216 148.526L261.35 148.804C262.032 148.97 262.541 149.223 262.876 149.565C263.211 149.903 263.378 150.339 263.378 150.872C263.378 151.31 263.252 151.701 263 152.045C262.752 152.39 262.404 152.662 261.956 152.861C261.509 153.06 260.988 153.159 260.395 153.159C259.616 153.159 258.972 152.99 258.461 152.652C257.951 152.314 257.628 151.82 257.492 151.17L258.605 150.892C258.711 151.303 258.912 151.611 259.207 151.817C259.505 152.022 259.895 152.125 260.375 152.125C260.922 152.125 261.356 152.009 261.678 151.777C262.003 151.542 262.165 151.26 262.165 150.932C262.165 150.667 262.072 150.445 261.887 150.266C261.701 150.083 261.416 149.947 261.031 149.858L259.759 149.56C259.059 149.394 258.546 149.137 258.218 148.789C257.893 148.438 257.73 147.999 257.73 147.472C257.73 147.041 257.851 146.66 258.093 146.328C258.338 145.997 258.672 145.737 259.093 145.548C259.517 145.359 259.997 145.264 260.534 145.264C261.29 145.264 261.883 145.43 262.314 145.761C262.748 146.093 263.057 146.53 263.239 147.074ZM269.062 153V152.105L272.423 148.426C272.817 147.995 273.142 147.621 273.397 147.303C273.652 146.981 273.841 146.679 273.964 146.398C274.09 146.113 274.153 145.814 274.153 145.503C274.153 145.145 274.067 144.835 273.894 144.573C273.725 144.311 273.493 144.109 273.198 143.967C272.903 143.824 272.572 143.753 272.204 143.753C271.813 143.753 271.471 143.834 271.18 143.996C270.891 144.156 270.668 144.379 270.509 144.668C270.353 144.956 270.275 145.294 270.275 145.682H269.102C269.102 145.085 269.239 144.562 269.514 144.111C269.789 143.66 270.164 143.309 270.638 143.057C271.115 142.805 271.65 142.679 272.244 142.679C272.84 142.679 273.369 142.805 273.83 143.057C274.29 143.309 274.652 143.648 274.913 144.076C275.175 144.504 275.306 144.979 275.306 145.503C275.306 145.877 275.238 146.244 275.102 146.602C274.97 146.956 274.738 147.352 274.406 147.79C274.078 148.224 273.622 148.754 273.039 149.381L270.752 151.827V151.906H275.485V153H269.062ZM281.655 153V142.818H282.888V151.906H287.621V153H281.655ZM289.53 153V142.818H290.763V151.906H295.496V153H289.53ZM305.202 146H303.969C303.896 145.645 303.768 145.334 303.586 145.065C303.407 144.797 303.188 144.571 302.93 144.389C302.674 144.204 302.391 144.064 302.079 143.972C301.768 143.879 301.443 143.832 301.105 143.832C300.488 143.832 299.93 143.988 299.43 144.3C298.932 144.611 298.536 145.07 298.241 145.677C297.95 146.283 297.804 147.027 297.804 147.909C297.804 148.791 297.95 149.535 298.241 150.141C298.536 150.748 298.932 151.207 299.43 151.518C299.93 151.83 300.488 151.986 301.105 151.986C301.443 151.986 301.768 151.939 302.079 151.847C302.391 151.754 302.674 151.616 302.93 151.434C303.188 151.248 303.407 151.021 303.586 150.753C303.768 150.481 303.896 150.17 303.969 149.818H305.202C305.109 150.339 304.94 150.804 304.694 151.215C304.449 151.626 304.144 151.976 303.78 152.264C303.415 152.549 303.006 152.766 302.552 152.915C302.101 153.065 301.619 153.139 301.105 153.139C300.237 153.139 299.464 152.927 298.788 152.503C298.112 152.079 297.58 151.475 297.192 150.693C296.805 149.911 296.611 148.983 296.611 147.909C296.611 146.835 296.805 145.907 297.192 145.125C297.58 144.343 298.112 143.74 298.788 143.315C299.464 142.891 300.237 142.679 301.105 142.679C301.619 142.679 302.101 142.754 302.552 142.903C303.006 143.052 303.415 143.271 303.78 143.559C304.144 143.844 304.449 144.192 304.694 144.603C304.94 145.011 305.109 145.476 305.202 146Z" fill="#333942"/>
<rect width="144" height="105" transform="translate(0 221)" fill="#F9FAFB"/>
<path d="M25.5 245H31.5M25.5 249H31.5M33.5 254H23.5C22.3954 254 21.5 253.105 21.5 252V238C21.5 236.895 22.3954 236 23.5 236H29.0858C29.351 236 29.6054 236.105 29.7929 236.293L35.2071 241.707C35.3946 241.895 35.5 242.149 35.5 242.414V252C35.5 253.105 34.6046 254 33.5 254Z" stroke="#333942" stroke-width="2" stroke-linecap="round" stroke-linejoin="round"/>
<path d="M46.9659 240.318V250.5H45.733V240.318H46.9659ZM54.688 244.574L53.6341 244.872C53.5678 244.696 53.47 244.526 53.3407 244.36C53.2148 244.191 53.0424 244.052 52.8237 243.942C52.6049 243.833 52.3249 243.778 51.9835 243.778C51.5162 243.778 51.1267 243.886 50.8152 244.102C50.5069 244.314 50.3528 244.584 50.3528 244.912C50.3528 245.204 50.4589 245.434 50.671 245.603C50.8831 245.772 51.2145 245.913 51.6653 246.026L52.7988 246.304C53.4816 246.47 53.9904 246.723 54.3251 247.065C54.6599 247.403 54.8272 247.839 54.8272 248.372C54.8272 248.81 54.7013 249.201 54.4494 249.545C54.2008 249.89 53.8528 250.162 53.4054 250.361C52.9579 250.56 52.4376 250.659 51.8443 250.659C51.0654 250.659 50.4208 250.49 49.9103 250.152C49.3999 249.814 49.0768 249.32 48.9409 248.67L50.0545 248.392C50.1606 248.803 50.3611 249.111 50.6561 249.317C50.9544 249.522 51.3438 249.625 51.8244 249.625C52.3713 249.625 52.8055 249.509 53.127 249.277C53.4518 249.042 53.6142 248.76 53.6142 248.432C53.6142 248.167 53.5214 247.945 53.3358 247.766C53.1502 247.583 52.8651 247.447 52.4806 247.358L51.2079 247.06C50.5086 246.894 49.9949 246.637 49.6667 246.289C49.3419 245.938 49.1795 245.499 49.1795 244.972C49.1795 244.541 49.3005 244.16 49.5424 243.828C49.7877 243.497 50.1208 243.237 50.5417 243.048C50.966 242.859 51.4466 242.764 51.9835 242.764C52.7392 242.764 53.3324 242.93 53.7633 243.261C54.1975 243.593 54.5057 244.03 54.688 244.574ZM62.0025 244.574L60.9485 244.872C60.8822 244.696 60.7844 244.526 60.6552 244.36C60.5292 244.191 60.3569 244.052 60.1381 243.942C59.9194 243.833 59.6393 243.778 59.2979 243.778C58.8306 243.778 58.4412 243.886 58.1296 244.102C57.8214 244.314 57.6673 244.584 57.6673 244.912C57.6673 245.204 57.7733 245.434 57.9854 245.603C58.1976 245.772 58.529 245.913 58.9798 246.026L60.1133 246.304C60.796 246.47 61.3048 246.723 61.6396 247.065C61.9743 247.403 62.1417 247.839 62.1417 248.372C62.1417 248.81 62.0157 249.201 61.7638 249.545C61.5153 249.89 61.1673 250.162 60.7198 250.361C60.2724 250.56 59.752 250.659 59.1587 250.659C58.3799 250.659 57.7352 250.49 57.2248 250.152C56.7144 249.814 56.3912 249.32 56.2553 248.67L57.369 248.392C57.475 248.803 57.6755 249.111 57.9705 249.317C58.2688 249.522 58.6583 249.625 59.1388 249.625C59.6857 249.625 60.1199 249.509 60.4414 249.277C60.7662 249.042 60.9286 248.76 60.9286 248.432C60.9286 248.167 60.8358 247.945 60.6502 247.766C60.4646 247.583 60.1796 247.447 59.7951 247.358L58.5224 247.06C57.823 246.894 57.3093 246.637 56.9812 246.289C56.6564 245.938 56.494 245.499 56.494 244.972C56.494 244.541 56.6149 244.16 56.8569 243.828C57.1022 243.497 57.4353 243.237 57.8562 243.048C58.2804 242.859 58.761 242.764 59.2979 242.764C60.0536 242.764 60.6469 242.93 61.0778 243.261C61.512 243.593 61.8202 244.03 62.0025 244.574ZM68.7203 247.378V242.864H69.8936V250.5H68.7203V249.207H68.6408C68.4618 249.595 68.1834 249.925 67.8056 250.197C67.4277 250.465 66.9505 250.599 66.3738 250.599C65.8965 250.599 65.4722 250.495 65.101 250.286C64.7298 250.074 64.4382 249.756 64.226 249.332C64.0139 248.904 63.9078 248.366 63.9078 247.716V242.864H65.0811V247.636C65.0811 248.193 65.2369 248.637 65.5485 248.969C65.8633 249.3 66.2644 249.466 66.7516 249.466C67.0433 249.466 67.3399 249.391 67.6415 249.242C67.9464 249.093 68.2016 248.864 68.4071 248.556C68.6159 248.248 68.7203 247.855 68.7203 247.378ZM75.2443 250.659C74.5085 250.659 73.8738 250.497 73.3402 250.172C72.8099 249.844 72.4006 249.386 72.1122 248.8C71.8272 248.21 71.6847 247.524 71.6847 246.741C71.6847 245.959 71.8272 245.27 72.1122 244.673C72.4006 244.073 72.8016 243.606 73.3153 243.271C73.8324 242.933 74.4356 242.764 75.125 242.764C75.5227 242.764 75.9155 242.83 76.3033 242.963C76.6911 243.096 77.044 243.311 77.3622 243.609C77.6804 243.904 77.9339 244.295 78.1229 244.783C78.3118 245.27 78.4062 245.87 78.4062 246.582V247.08H72.5199V246.065H77.2131C77.2131 245.634 77.1269 245.25 76.9545 244.912C76.7855 244.574 76.5436 244.307 76.2287 244.112C75.9171 243.916 75.5492 243.818 75.125 243.818C74.6577 243.818 74.2533 243.934 73.9119 244.166C73.5739 244.395 73.3137 244.693 73.1314 245.061C72.9491 245.429 72.858 245.823 72.858 246.244V246.92C72.858 247.497 72.9574 247.986 73.1562 248.387C73.3584 248.785 73.6385 249.088 73.9964 249.297C74.3544 249.502 74.7704 249.605 75.2443 249.605C75.5526 249.605 75.831 249.562 76.0795 249.476C76.3314 249.386 76.5485 249.254 76.7308 249.078C76.9131 248.899 77.054 248.677 77.1534 248.412L78.2869 248.73C78.1676 249.115 77.9671 249.453 77.6854 249.744C77.4036 250.033 77.0556 250.258 76.6413 250.42C76.227 250.58 75.7614 250.659 75.2443 250.659ZM87.4496 242.864V243.858H83.4922V242.864H87.4496ZM84.6456 241.034H85.8189V248.312C85.8189 248.644 85.867 248.893 85.9631 249.058C86.0625 249.221 86.1884 249.33 86.3409 249.386C86.4967 249.439 86.6607 249.466 86.8331 249.466C86.9624 249.466 87.0684 249.459 87.1513 249.446C87.2341 249.429 87.3004 249.416 87.3501 249.406L87.5888 250.46C87.5092 250.49 87.3982 250.52 87.2557 250.55C87.1132 250.583 86.9325 250.599 86.7138 250.599C86.3823 250.599 86.0575 250.528 85.7393 250.386C85.4245 250.243 85.1626 250.026 84.9538 249.734C84.7483 249.443 84.6456 249.075 84.6456 248.631V241.034ZM92.2347 250.659C91.5453 250.659 90.9405 250.495 90.4201 250.167C89.9031 249.839 89.4987 249.38 89.207 248.79C88.9187 248.2 88.7745 247.51 88.7745 246.722C88.7745 245.926 88.9187 245.232 89.207 244.638C89.4987 244.045 89.9031 243.585 90.4201 243.256C90.9405 242.928 91.5453 242.764 92.2347 242.764C92.9241 242.764 93.5273 242.928 94.0444 243.256C94.5647 243.585 94.9691 244.045 95.2575 244.638C95.5491 245.232 95.695 245.926 95.695 246.722C95.695 247.51 95.5491 248.2 95.2575 248.79C94.9691 249.38 94.5647 249.839 94.0444 250.167C93.5273 250.495 92.9241 250.659 92.2347 250.659ZM92.2347 249.605C92.7584 249.605 93.1893 249.471 93.5273 249.202C93.8654 248.934 94.1156 248.581 94.2781 248.143C94.4405 247.706 94.5217 247.232 94.5217 246.722C94.5217 246.211 94.4405 245.736 94.2781 245.295C94.1156 244.854 93.8654 244.498 93.5273 244.226C93.1893 243.954 92.7584 243.818 92.2347 243.818C91.7111 243.818 91.2802 243.954 90.9421 244.226C90.604 244.498 90.3538 244.854 90.1914 245.295C90.029 245.736 89.9478 246.211 89.9478 246.722C89.9478 247.232 90.029 247.706 90.1914 248.143C90.3538 248.581 90.604 248.934 90.9421 249.202C91.2802 249.471 91.7111 249.605 92.2347 249.605ZM98.5797 247.716L98.5598 246.264H98.7985L102.139 242.864H103.591L100.031 246.463H99.932L98.5797 247.716ZM97.486 250.5V240.318H98.6593V250.5H97.486ZM102.338 250.5L99.3553 246.722L100.191 245.906L103.83 250.5H102.338ZM107.988 250.659C107.253 250.659 106.618 250.497 106.084 250.172C105.554 249.844 105.145 249.386 104.856 248.8C104.571 248.21 104.429 247.524 104.429 246.741C104.429 245.959 104.571 245.27 104.856 244.673C105.145 244.073 105.546 243.606 106.059 243.271C106.577 242.933 107.18 242.764 107.869 242.764C108.267 242.764 108.66 242.83 109.047 242.963C109.435 243.096 109.788 243.311 110.106 243.609C110.425 243.904 110.678 244.295 110.867 244.783C111.056 245.27 111.15 245.87 111.15 246.582V247.08H105.264V246.065H109.957C109.957 245.634 109.871 245.25 109.699 244.912C109.53 244.574 109.288 244.307 108.973 244.112C108.661 243.916 108.293 243.818 107.869 243.818C107.402 243.818 106.997 243.934 106.656 244.166C106.318 244.395 106.058 244.693 105.876 245.061C105.693 245.429 105.602 245.823 105.602 246.244V246.92C105.602 247.497 105.702 247.986 105.9 248.387C106.103 248.785 106.383 249.088 106.741 249.297C107.099 249.502 107.515 249.605 107.988 249.605C108.297 249.605 108.575 249.562 108.824 249.476C109.076 249.386 109.293 249.254 109.475 249.078C109.657 248.899 109.798 248.677 109.898 248.412L111.031 248.73C110.912 249.115 110.711 249.453 110.43 249.744C110.148 250.033 109.8 250.258 109.385 250.42C108.971 250.58 108.506 250.659 107.988 250.659ZM114.108 245.906V250.5H112.935V242.864H114.069V244.057H114.168C114.347 243.669 114.619 243.357 114.983 243.122C115.348 242.884 115.819 242.764 116.395 242.764C116.912 242.764 117.365 242.87 117.753 243.082C118.14 243.291 118.442 243.609 118.657 244.037C118.873 244.461 118.981 244.998 118.981 245.648V250.5H117.807V245.727C117.807 245.127 117.652 244.66 117.34 244.325C117.028 243.987 116.601 243.818 116.057 243.818C115.683 243.818 115.348 243.899 115.053 244.062C114.761 244.224 114.531 244.461 114.362 244.773C114.193 245.084 114.108 245.462 114.108 245.906ZM126.534 244.574L125.48 244.872C125.413 244.696 125.316 244.526 125.186 244.36C125.06 244.191 124.888 244.052 124.669 243.942C124.451 243.833 124.171 243.778 123.829 243.778C123.362 243.778 122.972 243.886 122.661 244.102C122.353 244.314 122.199 244.584 122.199 244.912C122.199 245.204 122.305 245.434 122.517 245.603C122.729 245.772 123.06 245.913 123.511 246.026L124.645 246.304C125.327 246.47 125.836 246.723 126.171 247.065C126.506 247.403 126.673 247.839 126.673 248.372C126.673 248.81 126.547 249.201 126.295 249.545C126.047 249.89 125.699 250.162 125.251 250.361C124.804 250.56 124.283 250.659 123.69 250.659C122.911 250.659 122.266 250.49 121.756 250.152C121.246 249.814 120.922 249.32 120.787 248.67L121.9 248.392C122.006 248.803 122.207 249.111 122.502 249.317C122.8 249.522 123.19 249.625 123.67 249.625C124.217 249.625 124.651 249.509 124.973 249.277C125.297 249.042 125.46 248.76 125.46 248.432C125.46 248.167 125.367 247.945 125.181 247.766C124.996 247.583 124.711 247.447 124.326 247.358L123.054 247.06C122.354 246.894 121.841 246.637 121.512 246.289C121.188 245.938 121.025 245.499 121.025 244.972C121.025 244.541 121.146 244.16 121.388 243.828C121.633 243.497 121.967 243.237 122.387 243.048C122.812 242.859 123.292 242.764 123.829 242.764C124.585 242.764 125.178 242.93 125.609 243.261C126.043 243.593 126.351 244.03 126.534 244.574Z" fill="#333942"/>
<rect x="12" y="269" width="20" height="20" fill="#5C6BF6"/>
<rect x="37" y="269" width="20" height="20" fill="#5C6BF6"/>
<rect x="62" y="269" width="20" height="20" fill="#5C6BF6"/>
<rect x="87" y="269" width="20" height="20" fill="#5C6BF6"/>
<rect x="112" y="269" width="20" height="20" fill="#5C6BF6"/>
<rect x="12" y="294" width="20" height="20" fill="#5C6BF6"/>
<rect x="37" y="294" width="20" height="20" fill="#5C6BF6"/>
<rect x="62" y="294" width="20" height="20" fill="#5C6BF6"/>
<rect x="87" y="294" width="20" height="20" fill="#5C6BF6"/>
<rect x="112" y="294" width="20" height="20" fill="#5C6BF6"/>
<path d="M70.9393 220.061C71.5251 220.646 72.4749 220.646 73.0607 220.061L82.6066 210.515C83.1924 209.929 83.1924 208.979 82.6066 208.393C82.0208 207.808 81.0711 207.808 80.4853 208.393L72 216.879L63.5147 208.393C62.9289 207.808 61.9792 207.808 61.3934 208.393C60.8076 208.979 60.8076 209.929 61.3934 210.515L70.9393 220.061ZM70.5 169L70.5 219L73.5 219L73.5 169L70.5 169Z" fill="#9CA3AF"/>
<rect width="144" height="105" transform="translate(175 221)" fill="#F9FAFB"/>
<path d="M200.5 245H206.5M200.5 249H206.5M208.5 254H198.5C197.395 254 196.5 253.105 196.5 252V238C196.5 236.895 197.395 236 198.5 236H204.086C204.351 236 204.605 236.105 204.793 236.293L210.207 241.707C210.395 241.895 210.5 242.149 210.5 242.414V252C210.5 253.105 209.605 254 208.5 254Z" stroke="#333942" stroke-width="2" stroke-linecap="round" stroke-linejoin="round"/>
<path d="M221.966 240.318V250.5H220.733V240.318H221.966ZM229.688 244.574L228.634 244.872C228.568 244.696 228.47 244.526 228.341 244.36C228.215 244.191 228.042 244.052 227.824 243.942C227.605 243.833 227.325 243.778 226.983 243.778C226.516 243.778 226.127 243.886 225.815 244.102C225.507 244.314 225.353 244.584 225.353 244.912C225.353 245.204 225.459 245.434 225.671 245.603C225.883 245.772 226.215 245.913 226.665 246.026L227.799 246.304C228.482 246.47 228.99 246.723 229.325 247.065C229.66 247.403 229.827 247.839 229.827 248.372C229.827 248.81 229.701 249.201 229.449 249.545C229.201 249.89 228.853 250.162 228.405 250.361C227.958 250.56 227.438 250.659 226.844 250.659C226.065 250.659 225.421 250.49 224.91 250.152C224.4 249.814 224.077 249.32 223.941 248.67L225.055 248.392C225.161 248.803 225.361 249.111 225.656 249.317C225.954 249.522 226.344 249.625 226.824 249.625C227.371 249.625 227.805 249.509 228.127 249.277C228.452 249.042 228.614 248.76 228.614 248.432C228.614 248.167 228.521 247.945 228.336 247.766C228.15 247.583 227.865 247.447 227.481 247.358L226.208 247.06C225.509 246.894 224.995 246.637 224.667 246.289C224.342 245.938 224.18 245.499 224.18 244.972C224.18 244.541 224.3 244.16 224.542 243.828C224.788 243.497 225.121 243.237 225.542 243.048C225.966 242.859 226.447 242.764 226.983 242.764C227.739 242.764 228.332 242.93 228.763 243.261C229.198 243.593 229.506 244.03 229.688 244.574ZM237.002 244.574L235.949 244.872C235.882 244.696 235.784 244.526 235.655 244.36C235.529 244.191 235.357 244.052 235.138 243.942C234.919 243.833 234.639 243.778 234.298 243.778C233.831 243.778 233.441 243.886 233.13 244.102C232.821 244.314 232.667 244.584 232.667 244.912C232.667 245.204 232.773 245.434 232.985 245.603C233.198 245.772 233.529 245.913 233.98 246.026L235.113 246.304C235.796 246.47 236.305 246.723 236.64 247.065C236.974 247.403 237.142 247.839 237.142 248.372C237.142 248.81 237.016 249.201 236.764 249.545C236.515 249.89 236.167 250.162 235.72 250.361C235.272 250.56 234.752 250.659 234.159 250.659C233.38 250.659 232.735 250.49 232.225 250.152C231.714 249.814 231.391 249.32 231.255 248.67L232.369 248.392C232.475 248.803 232.676 249.111 232.971 249.317C233.269 249.522 233.658 249.625 234.139 249.625C234.686 249.625 235.12 249.509 235.441 249.277C235.766 249.042 235.929 248.76 235.929 248.432C235.929 248.167 235.836 247.945 235.65 247.766C235.465 247.583 235.18 247.447 234.795 247.358L233.522 247.06C232.823 246.894 232.309 246.637 231.981 246.289C231.656 245.938 231.494 245.499 231.494 244.972C231.494 244.541 231.615 244.16 231.857 243.828C232.102 243.497 232.435 243.237 232.856 243.048C233.28 242.859 233.761 242.764 234.298 242.764C235.054 242.764 235.647 242.93 236.078 243.261C236.512 243.593 236.82 244.03 237.002 244.574ZM243.72 247.378V242.864H244.894V250.5H243.72V249.207H243.641C243.462 249.595 243.183 249.925 242.806 250.197C242.428 250.465 241.95 250.599 241.374 250.599C240.896 250.599 240.472 250.495 240.101 250.286C239.73 250.074 239.438 249.756 239.226 249.332C239.014 248.904 238.908 248.366 238.908 247.716V242.864H240.081V247.636C240.081 248.193 240.237 248.637 240.548 248.969C240.863 249.3 241.264 249.466 241.752 249.466C242.043 249.466 242.34 249.391 242.642 249.242C242.946 249.093 243.202 248.864 243.407 248.556C243.616 248.248 243.72 247.855 243.72 247.378ZM250.244 250.659C249.509 250.659 248.874 250.497 248.34 250.172C247.81 249.844 247.401 249.386 247.112 248.8C246.827 248.21 246.685 247.524 246.685 246.741C246.685 245.959 246.827 245.27 247.112 244.673C247.401 244.073 247.802 243.606 248.315 243.271C248.832 242.933 249.436 242.764 250.125 242.764C250.523 242.764 250.915 242.83 251.303 242.963C251.691 243.096 252.044 243.311 252.362 243.609C252.68 243.904 252.934 244.295 253.123 244.783C253.312 245.27 253.406 245.87 253.406 246.582V247.08H247.52V246.065H252.213C252.213 245.634 252.127 245.25 251.955 244.912C251.786 244.574 251.544 244.307 251.229 244.112C250.917 243.916 250.549 243.818 250.125 243.818C249.658 243.818 249.253 243.934 248.912 244.166C248.574 244.395 248.314 244.693 248.131 245.061C247.949 245.429 247.858 245.823 247.858 246.244V246.92C247.858 247.497 247.957 247.986 248.156 248.387C248.358 248.785 248.638 249.088 248.996 249.297C249.354 249.502 249.77 249.605 250.244 249.605C250.553 249.605 250.831 249.562 251.08 249.476C251.331 249.386 251.549 249.254 251.731 249.078C251.913 248.899 252.054 248.677 252.153 248.412L253.287 248.73C253.168 249.115 252.967 249.453 252.685 249.744C252.404 250.033 252.056 250.258 251.641 250.42C251.227 250.58 250.761 250.659 250.244 250.659ZM262.45 242.864V243.858H258.492V242.864H262.45ZM259.646 241.034H260.819V248.312C260.819 248.644 260.867 248.893 260.963 249.058C261.063 249.221 261.188 249.33 261.341 249.386C261.497 249.439 261.661 249.466 261.833 249.466C261.962 249.466 262.068 249.459 262.151 249.446C262.234 249.429 262.3 249.416 262.35 249.406L262.589 250.46C262.509 250.49 262.398 250.52 262.256 250.55C262.113 250.583 261.933 250.599 261.714 250.599C261.382 250.599 261.058 250.528 260.739 250.386C260.424 250.243 260.163 250.026 259.954 249.734C259.748 249.443 259.646 249.075 259.646 248.631V241.034ZM267.235 250.659C266.545 250.659 265.94 250.495 265.42 250.167C264.903 249.839 264.499 249.38 264.207 248.79C263.919 248.2 263.775 247.51 263.775 246.722C263.775 245.926 263.919 245.232 264.207 244.638C264.499 244.045 264.903 243.585 265.42 243.256C265.94 242.928 266.545 242.764 267.235 242.764C267.924 242.764 268.527 242.928 269.044 243.256C269.565 243.585 269.969 244.045 270.257 244.638C270.549 245.232 270.695 245.926 270.695 246.722C270.695 247.51 270.549 248.2 270.257 248.79C269.969 249.38 269.565 249.839 269.044 250.167C268.527 250.495 267.924 250.659 267.235 250.659ZM267.235 249.605C267.758 249.605 268.189 249.471 268.527 249.202C268.865 248.934 269.116 248.581 269.278 248.143C269.44 247.706 269.522 247.232 269.522 246.722C269.522 246.211 269.44 245.736 269.278 245.295C269.116 244.854 268.865 244.498 268.527 244.226C268.189 243.954 267.758 243.818 267.235 243.818C266.711 243.818 266.28 243.954 265.942 244.226C265.604 244.498 265.354 244.854 265.191 245.295C265.029 245.736 264.948 246.211 264.948 246.722C264.948 247.232 265.029 247.706 265.191 248.143C265.354 248.581 265.604 248.934 265.942 249.202C266.28 249.471 266.711 249.605 267.235 249.605ZM273.58 247.716L273.56 246.264H273.798L277.139 242.864H278.591L275.031 246.463H274.932L273.58 247.716ZM272.486 250.5V240.318H273.659V250.5H272.486ZM277.338 250.5L274.355 246.722L275.191 245.906L278.83 250.5H277.338ZM282.988 250.659C282.253 250.659 281.618 250.497 281.084 250.172C280.554 249.844 280.145 249.386 279.856 248.8C279.571 248.21 279.429 247.524 279.429 246.741C279.429 245.959 279.571 245.27 279.856 244.673C280.145 244.073 280.546 243.606 281.059 243.271C281.577 242.933 282.18 242.764 282.869 242.764C283.267 242.764 283.66 242.83 284.047 242.963C284.435 243.096 284.788 243.311 285.106 243.609C285.425 243.904 285.678 244.295 285.867 244.783C286.056 245.27 286.15 245.87 286.15 246.582V247.08H280.264V246.065H284.957C284.957 245.634 284.871 245.25 284.699 244.912C284.53 244.574 284.288 244.307 283.973 244.112C283.661 243.916 283.293 243.818 282.869 243.818C282.402 243.818 281.997 243.934 281.656 244.166C281.318 244.395 281.058 244.693 280.876 245.061C280.693 245.429 280.602 245.823 280.602 246.244V246.92C280.602 247.497 280.702 247.986 280.9 248.387C281.103 248.785 281.383 249.088 281.741 249.297C282.099 249.502 282.515 249.605 282.988 249.605C283.297 249.605 283.575 249.562 283.824 249.476C284.076 249.386 284.293 249.254 284.475 249.078C284.657 248.899 284.798 248.677 284.898 248.412L286.031 248.73C285.912 249.115 285.711 249.453 285.43 249.744C285.148 250.033 284.8 250.258 284.385 250.42C283.971 250.58 283.506 250.659 282.988 250.659ZM289.108 245.906V250.5H287.935V242.864H289.069V244.057H289.168C289.347 243.669 289.619 243.357 289.983 243.122C290.348 242.884 290.819 242.764 291.395 242.764C291.912 242.764 292.365 242.87 292.753 243.082C293.14 243.291 293.442 243.609 293.657 244.037C293.873 244.461 293.981 244.998 293.981 245.648V250.5H292.807V245.727C292.807 245.127 292.652 244.66 292.34 244.325C292.028 243.987 291.601 243.818 291.057 243.818C290.683 243.818 290.348 243.899 290.053 244.062C289.761 244.224 289.531 244.461 289.362 244.773C289.193 245.084 289.108 245.462 289.108 245.906ZM301.534 244.574L300.48 244.872C300.413 244.696 300.316 244.526 300.186 244.36C300.06 244.191 299.888 244.052 299.669 243.942C299.451 243.833 299.171 243.778 298.829 243.778C298.362 243.778 297.972 243.886 297.661 244.102C297.353 244.314 297.199 244.584 297.199 244.912C297.199 245.204 297.305 245.434 297.517 245.603C297.729 245.772 298.06 245.913 298.511 246.026L299.645 246.304C300.327 246.47 300.836 246.723 301.171 247.065C301.506 247.403 301.673 247.839 301.673 248.372C301.673 248.81 301.547 249.201 301.295 249.545C301.047 249.89 300.699 250.162 300.251 250.361C299.804 250.56 299.283 250.659 298.69 250.659C297.911 250.659 297.266 250.49 296.756 250.152C296.246 249.814 295.922 249.32 295.787 248.67L296.9 248.392C297.006 248.803 297.207 249.111 297.502 249.317C297.8 249.522 298.19 249.625 298.67 249.625C299.217 249.625 299.651 249.509 299.973 249.277C300.297 249.042 300.46 248.76 300.46 248.432C300.46 248.167 300.367 247.945 300.181 247.766C299.996 247.583 299.711 247.447 299.326 247.358L298.054 247.06C297.354 246.894 296.841 246.637 296.512 246.289C296.188 245.938 296.025 245.499 296.025 244.972C296.025 244.541 296.146 244.16 296.388 243.828C296.633 243.497 296.967 243.237 297.387 243.048C297.812 242.859 298.292 242.764 298.829 242.764C299.585 242.764 300.178 242.93 300.609 243.261C301.043 243.593 301.351 244.03 301.534 244.574Z" fill="#333942"/>
<rect x="187" y="269" width="20" height="20" fill="#5C6BF6"/>
<rect x="212" y="269" width="20" height="20" fill="#5C6BF6"/>
<rect x="237" y="269" width="20" height="20" fill="#5C6BF6"/>
<rect x="262" y="269" width="20" height="20" fill="#5C6BF6"/>
<rect x="287" y="269" width="20" height="20" fill="#5C6BF6"/>
<rect x="187" y="294" width="20" height="20" fill="#5C6BF6"/>
<rect x="212" y="294" width="20" height="20" fill="#5C6BF6"/>
<rect x="237" y="294" width="20" height="20" fill="#5C6BF6"/>
<rect x="262" y="294" width="20" height="20" fill="#5C6BF6"/>
<rect x="287" y="294" width="20" height="20" fill="#5C6BF6"/>
<path d="M245.939 220.061C246.525 220.646 247.475 220.646 248.061 220.061L257.607 210.515C258.192 209.929 258.192 208.979 257.607 208.393C257.021 207.808 256.071 207.808 255.485 208.393L247 216.879L238.515 208.393C237.929 207.808 236.979 207.808 236.393 208.393C235.808 208.979 235.808 209.929 236.393 210.515L245.939 220.061ZM245.5 169L245.5 219L248.5 219L248.5 169L245.5 169Z" fill="#9CA3AF"/>
<path d="M245.939 110.061C246.525 110.646 247.475 110.646 248.061 110.061L257.607 100.515C258.192 99.9289 258.192 98.9792 257.607 98.3934C257.021 97.8076 256.071 97.8076 255.485 98.3934L247 106.879L238.515 98.3934C237.929 97.8076 236.979 97.8076 236.393 98.3934C235.808 98.9792 235.808 99.9289 236.393 100.515L245.939 110.061ZM245.5 59L245.5 109L248.5 109L248.5 59L245.5 59Z" fill="#9CA3AF"/>
<path d="M70.9393 110.061C71.5251 110.646 72.4749 110.646 73.0607 110.061L82.6066 100.515C83.1924 99.9289 83.1924 98.9792 82.6066 98.3934C82.0208 97.8076 81.0711 97.8076 80.4853 98.3934L72 106.879L63.5147 98.3934C62.9289 97.8076 61.9792 97.8076 61.3934 98.3934C60.8076 98.9792 60.8076 99.9289 61.3934 100.515L70.9393 110.061ZM70.5 59L70.5 109L73.5 109L73.5 59L70.5 59Z" fill="#9CA3AF"/>
</g>
<defs>
<clipPath id="clip0_2505_12240">
<rect width="318" height="326" fill="white"/>
</clipPath>
</defs>
</svg>
