<svg width="20" height="20" viewBox="0 0 20 20" fill="none" xmlns="http://www.w3.org/2000/svg">
<path d="M12 13.3333H15.3333L14.3967 12.3967C14.1427 12.1427 14 11.7982 14 11.439V9.33334C14 7.59171 12.8869 6.11006 11.3333 5.56094V5.33333C11.3333 4.59695 10.7363 4 9.99996 4C9.26358 4 8.66663 4.59695 8.66663 5.33333V5.56094C7.11304 6.11006 5.99996 7.59171 5.99996 9.33334V11.439C5.99996 11.7982 5.85726 12.1427 5.60325 12.3967L4.66663 13.3333H7.99996M12 13.3333V14C12 15.1046 11.1045 16 9.99996 16C8.89539 16 7.99996 15.1046 7.99996 14V13.3333M12 13.3333H7.99996" stroke="#4F46E5" stroke-linecap="round" stroke-linejoin="round"/>
</svg>
