<svg width="41" height="40" viewBox="0 0 41 40" fill="none" xmlns="http://www.w3.org/2000/svg">
<path d="M29.3647 13.8802L30.9659 12.3378V12H25.4205L21.4684 21.909L16.9729 12H11.1584V12.3378L13.0287 14.6056C13.2115 14.7732 13.3055 15.0193 13.282 15.2655V24.1768C13.3395 24.4989 13.2376 24.8262 13.013 25.0592L10.905 27.6334V27.966H16.8763V27.6282L14.7709 25.0619C14.6581 24.9471 14.5733 24.8077 14.523 24.6546C14.4727 24.5016 14.4583 24.3389 14.481 24.1794V16.47L19.7235 27.9712H20.3321L24.8406 16.47V25.6327C24.8406 25.8736 24.8406 25.9234 24.6838 26.0831L23.0617 27.6622V28H30.9294V27.6622L29.3647 26.1198C29.2289 26.0151 29.1584 25.8396 29.1871 25.6694V14.3306C29.1736 14.2465 29.1829 14.1602 29.2142 14.0809C29.2455 14.0017 29.2975 13.9323 29.3647 13.8802V13.8802Z" fill="#9CA3AF"/>
<rect x="1.40503" y="0.5" width="39.0609" height="39" rx="5.5" stroke="#D1D5DB"/>
</svg>
