<svg width="20" height="20" viewBox="0 0 20 20" fill="none" xmlns="http://www.w3.org/2000/svg">
<path fill-rule="evenodd" clip-rule="evenodd" d="M6.9524 11.0953C6.32121 11.0953 5.80954 11.6069 5.80954 12.2381C5.80954 12.8693 6.32121 13.381 6.9524 13.381C7.58358 13.381 8.09526 12.8693 8.09526 12.2381C8.09526 11.6069 7.58358 11.0953 6.9524 11.0953ZM5.04763 12.2381C5.04763 11.1861 5.90042 10.3334 6.9524 10.3334C8.00437 10.3334 8.85717 11.1861 8.85717 12.2381C8.85717 13.2901 8.00437 14.1429 6.9524 14.1429C5.90042 14.1429 5.04763 13.2901 5.04763 12.2381Z" fill="#4F46E5"/>
<path fill-rule="evenodd" clip-rule="evenodd" d="M4.79727 5H11.649L14.3778 7.93489L18 9.07114V12.6191H15.6762C15.7076 12.4973 15.7143 12.3697 15.7143 12.2381C15.7143 12.1066 15.7076 11.9789 15.6762 11.8572H17.2381V9.63065L14.106 8.64814L8.22007 8.54797H2.76191V11.2404L4.64101 11.8572H5.08573C5.05439 11.9789 5.04763 12.1066 5.04763 12.2381C5.04763 12.3697 5.05439 12.4973 5.08573 12.6191L4.51917 12.6191L2 11.7922V8.01761L4.79727 5ZM13.2791 7.87205L11.3171 5.76191H8.60428V7.79249L13.2791 7.87205ZM7.84237 7.78607V5.76191H5.1299L3.25354 7.78607H7.84237Z" fill="#4F46E5"/>
<path d="M11.9429 11.8572H8.81906C8.8504 11.9789 8.85717 12.1066 8.85717 12.2381C8.85717 12.3697 8.8504 12.4973 8.81906 12.6191H11.9429C11.9116 12.4973 11.9048 12.3697 11.9048 12.2381C11.9048 12.1066 11.9116 11.9789 11.9429 11.8572Z" fill="#4F46E5"/>
<path fill-rule="evenodd" clip-rule="evenodd" d="M13.8096 11.0953C13.1784 11.0953 12.6667 11.6069 12.6667 12.2381C12.6667 12.8693 13.1784 13.381 13.8096 13.381C14.4407 13.381 14.9524 12.8693 14.9524 12.2381C14.9524 11.6069 14.4407 11.0953 13.8096 11.0953ZM11.9048 12.2381C11.9048 11.1861 12.7576 10.3334 13.8096 10.3334C14.8615 10.3334 15.7143 11.1861 15.7143 12.2381C15.7143 13.2901 14.8615 14.1429 13.8096 14.1429C12.7576 14.1429 11.9048 13.2901 11.9048 12.2381Z" fill="#4F46E5"/>
<path d="M5.04763 12.2381C5.04763 11.1861 5.90042 10.3334 6.9524 10.3334C8.00437 10.3334 8.85717 11.1861 8.85717 12.2381M5.04763 12.2381C5.04763 13.2901 5.90042 14.1429 6.9524 14.1429C8.00437 14.1429 8.85717 13.2901 8.85717 12.2381M5.04763 12.2381C5.04763 12.1066 5.05439 11.9789 5.08573 11.8572H4.64101L2.76191 11.2404V8.54797H8.22007L14.106 8.64814L17.2381 9.63065V11.8572H15.6762C15.7076 11.9789 15.7143 12.1066 15.7143 12.2381M5.04763 12.2381C5.04763 12.3697 5.05439 12.4973 5.08573 12.6191L4.51917 12.6191L2 11.7922V8.01761L4.79727 5H11.649L14.3778 7.93489L18 9.07114V12.6191H15.6762C15.7076 12.4973 15.7143 12.3697 15.7143 12.2381M8.85717 12.2381C8.85717 12.1066 8.8504 11.9789 8.81906 11.8572H11.9429C11.9116 11.9789 11.9048 12.1066 11.9048 12.2381M8.85717 12.2381C8.85717 12.3697 8.8504 12.4973 8.81906 12.6191H11.9429C11.9116 12.4973 11.9048 12.3697 11.9048 12.2381M15.7143 12.2381C15.7143 11.1861 14.8615 10.3334 13.8096 10.3334C12.7576 10.3334 11.9048 11.1861 11.9048 12.2381M15.7143 12.2381C15.7143 13.2901 14.8615 14.1429 13.8096 14.1429C12.7576 14.1429 11.9048 13.2901 11.9048 12.2381M5.80954 12.2381C5.80954 11.6069 6.32121 11.0953 6.9524 11.0953C7.58358 11.0953 8.09526 11.6069 8.09526 12.2381C8.09526 12.8693 7.58358 13.381 6.9524 13.381C6.32121 13.381 5.80954 12.8693 5.80954 12.2381ZM11.3171 5.76191L13.2791 7.87205L8.60428 7.79249V5.76191H11.3171ZM7.84237 5.76191V7.78607H3.25354L5.1299 5.76191H7.84237ZM12.6667 12.2381C12.6667 11.6069 13.1784 11.0953 13.8096 11.0953C14.4407 11.0953 14.9524 11.6069 14.9524 12.2381C14.9524 12.8693 14.4407 13.381 13.8096 13.381C13.1784 13.381 12.6667 12.8693 12.6667 12.2381Z" stroke="#4F46E5" stroke-width="0.2"/>
</svg>
