<svg width="128" height="44" viewBox="0 0 128 44" fill="none" xmlns="http://www.w3.org/2000/svg">
<path d="M6.55384 0.664062H121.41C124.662 0.664062 127.3 3.3018 127.3 6.55591V37.4444C127.3 40.6986 124.662 43.3363 121.41 43.3363H6.55384C3.30101 43.3363 0.663818 40.6986 0.663818 37.4444V6.55591C0.663818 3.3018 3.30101 0.664062 6.55384 0.664062Z" fill="white" stroke="#D1D5DB"/>
<path d="M54.1598 28.6399H56.4821L55.3396 25.0406L54.1598 28.6399ZM54.2778 22.9492H56.4389L59.68 32.0965H57.6062L57.0163 30.2161H53.6442L53.0107 32.0965H51.0112L54.2778 22.9492Z" fill="#4B5563"/>
<path d="M64.1513 25.3325H66.0519L63.6112 32.0968H61.7422L59.314 25.3325H61.301L62.711 30.3219L64.1513 25.3325Z" fill="#4B5563"/>
<path d="M70.5353 28.8074C70.4235 28.8778 70.31 28.9357 70.1938 28.9812C70.082 29.0226 69.9271 29.0619 69.7281 29.0991L69.331 29.1736C68.9583 29.2398 68.6912 29.3205 68.5296 29.4156C68.2566 29.5769 68.12 29.8273 68.12 30.1665C68.12 30.4685 68.2028 30.6878 68.3684 30.8243C68.538 30.9567 68.7428 31.0229 68.9828 31.0229C69.3639 31.0229 69.7138 30.9112 70.0326 30.6878C70.3554 30.4644 70.5233 30.0569 70.5353 29.4653V28.8074ZM69.461 27.9821C69.7882 27.9407 70.0219 27.889 70.1631 27.827C70.4155 27.7194 70.5415 27.5518 70.5415 27.3243C70.5415 27.0471 70.4445 26.8568 70.2499 26.7534C70.0593 26.6458 69.778 26.592 69.4053 26.592C68.9873 26.592 68.6912 26.6954 68.5171 26.9023C68.3929 27.0554 68.3101 27.2622 68.2687 27.5229H66.5613C66.5982 26.9313 66.7638 26.4452 67.0581 26.0645C67.5256 25.4688 68.3288 25.1709 69.4672 25.1709C70.2085 25.1709 70.8665 25.3178 71.4422 25.6115C72.0174 25.9053 72.3055 26.4596 72.3055 27.2747V30.3775C72.3055 30.5926 72.3095 30.8533 72.3179 31.1594C72.3299 31.3911 72.3651 31.5483 72.4234 31.631C72.4813 31.7138 72.5681 31.7821 72.6839 31.8358V32.0965H70.7592C70.7053 31.9599 70.668 31.8317 70.6475 31.7117C70.6265 31.5917 70.6101 31.4552 70.5976 31.3022C70.3532 31.5669 70.0718 31.7924 69.753 31.9786C69.3724 32.1978 68.9414 32.3075 68.4614 32.3075C67.8488 32.3075 67.3417 32.1337 66.9401 31.7862C66.5426 31.4345 66.344 30.9381 66.344 30.2968C66.344 29.4653 66.6646 28.8633 67.3066 28.491C67.6583 28.2883 68.1756 28.1434 68.859 28.0565L69.461 27.9821Z" fill="#4B5563"/>
<path d="M75.4353 32.0965H73.6655V22.9492H75.4353V32.0965Z" fill="#4B5563"/>
<path d="M80.6458 28.8074C80.5341 28.8778 80.4201 28.9357 80.3043 28.9812C80.1926 29.0226 80.0372 29.0619 79.8386 29.0991L79.4411 29.1736C79.0684 29.2398 78.8013 29.3205 78.6401 29.4156C78.3668 29.5769 78.2301 29.8273 78.2301 30.1665C78.2301 30.4685 78.3129 30.6878 78.4785 30.8243C78.6481 30.9567 78.8529 31.0229 79.0933 31.0229C79.474 31.0229 79.8239 30.9112 80.1427 30.6878C80.4655 30.4644 80.6334 30.0569 80.6458 29.4653V28.8074ZM79.5715 27.9821C79.8983 27.9407 80.1325 27.889 80.2732 27.827C80.5256 27.7194 80.6521 27.5518 80.6521 27.3243C80.6521 27.0471 80.5545 26.8568 80.36 26.7534C80.1694 26.6458 79.8881 26.592 79.5154 26.592C79.0974 26.592 78.8013 26.6954 78.6277 26.9023C78.5034 27.0554 78.4206 27.2622 78.3792 27.5229H76.6714C76.7088 26.9313 76.8744 26.4452 77.1682 26.0645C77.6362 25.4688 78.4393 25.1709 79.5777 25.1709C80.3186 25.1709 80.9771 25.3178 81.5523 25.6115C82.1279 25.9053 82.4156 26.4596 82.4156 27.2747V30.3775C82.4156 30.5926 82.4196 30.8533 82.428 31.1594C82.4405 31.3911 82.4757 31.5483 82.5335 31.631C82.5914 31.7138 82.6782 31.7821 82.7944 31.8358V32.0965H80.8693C80.8154 31.9599 80.778 31.8317 80.7576 31.7117C80.7366 31.5917 80.7202 31.4552 80.7077 31.3022C80.4637 31.5669 80.1819 31.7924 79.8631 31.9786C79.4825 32.1978 79.0519 32.3075 78.5716 32.3075C77.9589 32.3075 77.4518 32.1337 77.0502 31.7862C76.6527 31.4345 76.4541 30.9381 76.4541 30.2968C76.4541 29.4653 76.7751 28.8633 77.4167 28.491C77.7684 28.2883 78.2862 28.1434 78.9691 28.0565L79.5715 27.9821Z" fill="#4B5563"/>
<path d="M87.4892 25.1709C88.1887 25.1709 88.7603 25.355 89.2029 25.7232C89.6503 26.0873 89.8738 26.6934 89.8738 27.5415V32.0965H88.0604V27.9821C88.0604 27.6263 88.0128 27.3533 87.9175 27.163C87.7439 26.8154 87.4126 26.6416 86.9242 26.6416C86.3236 26.6416 85.9118 26.8961 85.6883 27.405C85.5726 27.6739 85.5142 28.0173 85.5142 28.4351V32.0965H83.7507V25.3447H85.4586V26.3314C85.6861 25.9839 85.9016 25.7335 86.1042 25.5805C86.4688 25.3074 86.9305 25.1709 87.4892 25.1709Z" fill="#4B5563"/>
<path d="M95.3017 27.7587C95.2683 27.5063 95.1837 27.2788 95.047 27.0761C94.8485 26.803 94.5399 26.6665 94.1219 26.6665C93.5257 26.6665 93.1179 26.9623 92.8984 27.5539C92.7827 27.8683 92.7243 28.2862 92.7243 28.8074C92.7243 29.3039 92.7827 29.7032 92.8984 30.0052C93.1095 30.5678 93.507 30.8491 94.0907 30.8491C94.5048 30.8491 94.7986 30.7374 94.9727 30.514C95.1463 30.2906 95.2518 30.001 95.2892 29.6452H97.0964C97.055 30.1831 96.8604 30.6919 96.5127 31.1718C95.9579 31.9455 95.1361 32.3323 94.0471 32.3323C92.9585 32.3323 92.1576 32.0096 91.6442 31.3642C91.1309 30.7188 90.874 29.881 90.874 28.8509C90.874 27.6884 91.1576 26.7844 91.7248 26.139C92.292 25.4936 93.0743 25.1709 94.072 25.1709C94.9206 25.1709 95.6142 25.3612 96.1525 25.7418C96.6948 26.1225 97.0153 26.7948 97.1151 27.7587H95.3017Z" fill="#4B5563"/>
<path d="M101.816 25.1582C102.234 25.1582 102.613 25.2306 102.952 25.3754C103.296 25.5202 103.577 25.7415 103.797 26.0394C103.983 26.2918 104.097 26.5524 104.138 26.8213C104.18 27.0861 104.201 27.5205 104.201 28.1245V32.0962H102.393V27.9818C102.393 27.6177 102.331 27.324 102.207 27.1006C102.046 26.7862 101.739 26.629 101.288 26.629C100.82 26.629 100.464 26.7862 100.22 27.1006C99.9799 27.4108 99.8597 27.8556 99.8597 28.4348V32.0962H98.0962V22.98H99.8597V26.2132C100.117 25.8201 100.413 25.5471 100.748 25.394C101.087 25.2368 101.443 25.1582 101.816 25.1582Z" fill="#4B5563"/>
<path d="M108.274 26.6107C107.865 26.6107 107.546 26.739 107.318 26.9954C107.094 27.252 106.954 27.5995 106.896 28.038H109.647C109.618 27.5705 109.475 27.2168 109.218 26.9768C108.966 26.7327 108.651 26.6107 108.274 26.6107ZM108.274 25.1523C108.838 25.1523 109.345 25.2578 109.796 25.4688C110.247 25.6799 110.62 26.0129 110.914 26.468C111.178 26.8693 111.35 27.3347 111.429 27.8643C111.475 28.1745 111.493 28.6214 111.485 29.2047H106.852C106.877 29.8832 107.09 30.359 107.492 30.632C107.736 30.8016 108.03 30.8864 108.374 30.8864C108.738 30.8864 109.034 30.783 109.262 30.5762C109.386 30.4645 109.496 30.3093 109.591 30.1107H111.398C111.353 30.512 111.143 30.9196 110.771 31.3332C110.191 31.9911 109.38 32.3199 108.337 32.3199C107.476 32.3199 106.716 32.0428 106.058 31.4884C105.399 30.934 105.07 30.0321 105.07 28.7827C105.07 27.6119 105.366 26.7141 105.958 26.0894C106.554 25.4647 107.326 25.1523 108.274 25.1523Z" fill="#4B5563"/>
<path d="M56.9282 11.7183H60.0639C60.6836 11.7183 61.1832 11.8937 61.5629 12.2444C61.9423 12.5921 62.1319 13.0819 62.1319 13.714C62.1319 14.2576 61.9627 14.7316 61.6244 15.1361C61.286 15.5375 60.766 15.7382 60.0639 15.7382H57.8721V18.682H56.9282V11.7183ZM61.1787 13.7187C61.1787 13.2068 60.989 12.8591 60.6093 12.6758C60.4005 12.5779 60.1146 12.5289 59.7509 12.5289H57.8721V14.9418H59.7509C60.1747 14.9418 60.5176 14.8517 60.7802 14.6716C61.0456 14.4914 61.1787 14.1738 61.1787 13.7187Z" fill="#4B5563"/>
<path d="M65.0257 18.1316C65.592 18.1316 65.9793 17.9183 66.1877 17.4917C66.3996 17.0619 66.5056 16.5847 66.5056 16.0601C66.5056 15.586 66.4299 15.2005 66.2781 14.9034C66.0377 14.4357 65.6236 14.2018 65.035 14.2018C64.5132 14.2018 64.1339 14.4009 63.8966 14.7991C63.6597 15.1973 63.5409 15.6776 63.5409 16.2402C63.5409 16.7806 63.6597 17.231 63.8966 17.5912C64.1339 17.9515 64.5101 18.1316 65.0257 18.1316ZM65.0591 13.4575C65.7135 13.4575 66.2669 13.6756 66.7193 14.1117C67.1716 14.5479 67.3974 15.1894 67.3974 16.0364C67.3974 16.8549 67.1983 17.5312 66.7999 18.0653C66.4014 18.5994 65.783 18.8664 64.9451 18.8664C64.2461 18.8664 63.6913 18.631 63.28 18.1601C62.869 17.6861 62.6633 17.0508 62.6633 16.2544C62.6633 15.4011 62.8802 14.7217 63.3133 14.216C63.7465 13.7104 64.3285 13.4575 65.0591 13.4575Z" fill="#4B5563"/>
<path d="M68.6169 13.605L69.5941 17.6059L70.5856 13.605H71.5437L72.5397 17.5823L73.5788 13.605H74.4327L72.9573 18.682H72.0704L71.0362 14.7522L70.0353 18.682H69.148L67.6824 13.605H68.6169Z" fill="#4B5563"/>
<path d="M77.1653 13.4907C77.5259 13.4907 77.8754 13.5761 78.2138 13.7467C78.5521 13.9142 78.8099 14.1322 78.9871 14.4009C79.1576 14.6569 79.2716 14.9555 79.3286 15.2968C79.3789 15.5307 79.4043 15.9036 79.4043 16.4156H75.6805C75.6965 16.9307 75.8181 17.3447 76.046 17.6576C76.2735 17.9673 76.6261 18.1221 77.1039 18.1221C77.5495 18.1221 77.9052 17.9752 78.171 17.6813C78.3229 17.5106 78.4302 17.3131 78.4934 17.0887H79.3331C79.3112 17.2752 79.2369 17.4838 79.1104 17.7145C78.9871 17.942 78.8478 18.1285 78.6928 18.2739C78.4337 18.5267 78.1127 18.6973 77.7298 18.7858C77.5241 18.8364 77.2917 18.8617 77.0326 18.8617C76.4 18.8617 75.8639 18.6325 75.4245 18.1743C74.9851 17.7129 74.7651 17.0682 74.7651 16.2402C74.7651 15.4248 74.9864 14.7627 75.4294 14.2539C75.8719 13.7451 76.4507 13.4907 77.1653 13.4907ZM78.5268 15.7377C78.492 15.3679 78.4115 15.0725 78.285 14.8512C78.0508 14.4404 77.6604 14.2349 77.1132 14.2349C76.721 14.2349 76.392 14.3772 76.1266 14.6616C75.8608 14.9429 75.7201 15.3016 75.7045 15.7377H78.5268Z" fill="#4B5563"/>
<path d="M80.2864 13.6045H81.0976V14.4815C81.1639 14.3108 81.3269 14.1038 81.5864 13.8604C81.8455 13.6139 82.1443 13.4907 82.4827 13.4907C82.4987 13.4907 82.5254 13.4923 82.5637 13.4954C82.6015 13.4986 82.6661 13.5049 82.7578 13.5144V14.4151C82.7075 14.4056 82.6599 14.3993 82.6158 14.3962C82.5744 14.393 82.5285 14.3914 82.4782 14.3914C82.0481 14.3914 81.7173 14.5305 81.4867 14.8085C81.2556 15.0835 81.1403 15.4011 81.1403 15.7614V18.6815H80.2864V13.6045Z" fill="#4B5563"/>
<path d="M85.4195 13.4907C85.7801 13.4907 86.1296 13.5761 86.4679 13.7467C86.8063 13.9142 87.0641 14.1322 87.2408 14.4009C87.4118 14.6569 87.5258 14.9555 87.5828 15.2968C87.6331 15.5307 87.6585 15.9036 87.6585 16.4156H83.9347C83.9507 16.9307 84.0722 17.3447 84.3002 17.6576C84.5277 17.9673 84.8803 18.1221 85.358 18.1221C85.8037 18.1221 86.1594 17.9752 86.4252 17.6813C86.577 17.5106 86.6843 17.3131 86.7475 17.0887H87.5872C87.5654 17.2752 87.4911 17.4838 87.3642 17.7145C87.2408 17.942 87.1019 18.1285 86.947 18.2739C86.6874 18.5267 86.3664 18.6973 85.984 18.7858C85.7783 18.8364 85.5459 18.8617 85.2868 18.8617C84.6541 18.8617 84.1181 18.6325 83.6787 18.1743C83.2392 17.7129 83.0193 17.0682 83.0193 16.2402C83.0193 15.4248 83.2406 14.7627 83.6831 14.2539C84.1261 13.7451 84.7049 13.4907 85.4195 13.4907ZM86.7809 15.7377C86.7462 15.3679 86.6656 15.0725 86.5392 14.8512C86.305 14.4404 85.9145 14.2349 85.3674 14.2349C84.9751 14.2349 84.6461 14.3772 84.3808 14.6616C84.115 14.9429 83.9743 15.3016 83.9583 15.7377H86.7809Z" fill="#4B5563"/>
<path d="M89.0581 16.2025C89.0581 16.7461 89.1734 17.2012 89.404 17.5678C89.6351 17.9344 90.005 18.1177 90.5144 18.1177C90.9093 18.1177 91.2338 17.9486 91.4867 17.6104C91.7427 17.2691 91.8709 16.7808 91.8709 16.1456C91.8709 15.5041 91.7396 15.0301 91.4769 14.7235C91.2147 14.4138 90.8906 14.2589 90.5046 14.2589C90.0745 14.2589 89.725 14.4233 89.4565 14.7519C89.1907 15.0806 89.0581 15.5642 89.0581 16.2025ZM90.3434 13.5147C90.7325 13.5147 91.058 13.5968 91.3206 13.7612C91.4725 13.856 91.6448 14.0219 91.8375 14.2589V11.6943H92.6581V18.6818H91.8896V17.9755C91.6906 18.2883 91.4551 18.5143 91.1831 18.6533C90.9111 18.7924 90.5994 18.8619 90.2486 18.8619C89.6822 18.8619 89.1921 18.6249 88.778 18.1508C88.3635 17.6737 88.1565 17.04 88.1565 16.2499C88.1565 15.5104 88.3448 14.8704 88.721 14.33C89.1008 13.7865 89.6413 13.5147 90.3434 13.5147Z" fill="#4B5563"/>
<path d="M96.1738 11.6943H97.0042V14.221C97.1907 13.9777 97.4138 13.7928 97.6729 13.6664C97.9324 13.5368 98.2138 13.472 98.5174 13.472C99.1496 13.472 99.6621 13.6901 100.054 14.1262C100.45 14.5591 100.647 15.1991 100.647 16.0461C100.647 16.8488 100.453 17.5156 100.064 18.0466C99.675 18.5775 99.1354 18.843 98.4462 18.843C98.0602 18.843 97.7348 18.7498 97.469 18.5633C97.3109 18.4527 97.1417 18.2757 96.9614 18.0323V18.6818H96.1738V11.6943ZM98.3941 18.0892C98.8558 18.0892 99.2004 17.9059 99.4283 17.5393C99.659 17.1727 99.7743 16.6892 99.7743 16.0888C99.7743 15.5547 99.659 15.1122 99.4283 14.7614C99.2004 14.4106 98.8638 14.2352 98.4177 14.2352C98.0286 14.2352 97.6871 14.379 97.3933 14.6666C97.1021 14.9542 96.9565 15.4282 96.9565 16.0888C96.9565 16.566 97.0166 16.9531 97.1368 17.2502C97.3617 17.8095 97.7806 18.0892 98.3941 18.0892Z" fill="#4B5563"/>
<path d="M104.627 13.605H105.571C105.451 13.9305 105.184 14.6732 104.769 15.833C104.46 16.7052 104.2 17.4163 103.992 17.9662C103.498 19.262 103.15 20.0521 102.948 20.3364C102.746 20.6209 102.398 20.7631 101.905 20.7631C101.784 20.7631 101.691 20.7584 101.624 20.7489C101.561 20.7394 101.482 20.722 101.387 20.6967V19.9193C101.536 19.9604 101.644 19.9857 101.71 19.9951C101.776 20.0046 101.835 20.0094 101.885 20.0094C102.043 20.0094 102.159 19.9825 102.232 19.9288C102.307 19.8782 102.371 19.815 102.421 19.7392C102.437 19.7139 102.494 19.5843 102.592 19.3505C102.69 19.1166 102.762 18.9427 102.806 18.829L100.927 13.605H101.895L103.256 17.7387L104.627 13.605Z" fill="#4B5563"/>
<path fill-rule="evenodd" clip-rule="evenodd" d="M44.6856 22.0106C44.6856 29.6783 38.4717 35.8942 30.8061 35.8942C23.1406 35.8942 16.9265 29.6783 16.9265 22.0106C16.9265 14.3428 23.1406 8.12695 30.8061 8.12695C38.4717 8.12695 44.6856 14.3428 44.6856 22.0106ZM26.8733 27.5356H24.1796C23.6136 27.5356 23.334 27.5356 23.1635 27.4265C22.9794 27.3071 22.8668 27.1093 22.8532 26.891C22.843 26.6898 22.9828 26.4442 23.2624 25.9531L29.9133 14.2265C30.1964 13.7286 30.3395 13.4796 30.5203 13.3875C30.7146 13.2886 30.9465 13.2886 31.1408 13.3875C31.3216 13.4796 31.4647 13.7286 31.7478 14.2265L33.115 16.614L33.122 16.6262C33.4277 17.1604 33.5827 17.4313 33.6504 17.7156C33.7254 18.026 33.7254 18.3534 33.6504 18.6638C33.5821 18.9503 33.4287 19.2231 33.1185 19.7654L29.6249 25.9429L29.6158 25.9587C29.3081 26.4973 29.1522 26.7703 28.9361 26.9763C28.7008 27.2014 28.4178 27.3651 28.1075 27.4572C27.8245 27.5356 27.5075 27.5356 26.8733 27.5356ZM33.6758 27.5358H37.5356C38.105 27.5358 38.3914 27.5358 38.5619 27.4232C38.746 27.3038 38.8619 27.1026 38.8722 26.8843C38.8821 26.6897 38.7453 26.4537 38.4772 25.9911C38.4681 25.9753 38.4588 25.9593 38.4494 25.943L36.5161 22.6346L36.494 22.5974C36.2224 22.1378 36.0852 21.9058 35.9092 21.8161C35.7148 21.7172 35.4863 21.7172 35.292 21.8161C35.1147 21.9082 34.9715 22.1503 34.6885 22.638L32.762 25.9464L32.7554 25.9578C32.4734 26.4447 32.3325 26.6881 32.3426 26.8877C32.3562 27.106 32.4688 27.3072 32.6529 27.4266C32.82 27.5358 33.1064 27.5358 33.6758 27.5358Z" fill="#4B5563"/>
</svg>
