<svg width="512" height="34" viewBox="0 0 512 34" fill="none" xmlns="http://www.w3.org/2000/svg">
<path d="M73.3661 27V5.18182H82.3789C84.0124 5.18182 85.4222 5.50142 86.6083 6.14062C87.8015 6.77273 88.7212 7.65696 89.3675 8.79332C90.0138 9.92259 90.337 11.2365 90.337 12.7351C90.337 14.2408 90.0067 15.5582 89.3462 16.6875C88.6928 17.8097 87.7589 18.6797 86.5444 19.2976C85.3299 19.9155 83.8881 20.2244 82.2191 20.2244H76.658V16.0696H81.239C82.0344 16.0696 82.6985 15.9311 83.2312 15.6541C83.771 15.3771 84.1793 14.9901 84.4563 14.4929C84.7333 13.9886 84.8718 13.4027 84.8718 12.7351C84.8718 12.0604 84.7333 11.478 84.4563 10.9879C84.1793 10.4908 83.771 10.1072 83.2312 9.83736C82.6914 9.56747 82.0273 9.43253 81.239 9.43253H78.6396V27H73.3661ZM92.1864 27V10.6364H97.2468V13.6193H97.4173C97.7156 12.5398 98.2021 11.7372 98.8768 11.2116C99.5515 10.679 100.336 10.4126 101.231 10.4126C101.473 10.4126 101.721 10.4304 101.977 10.4659C102.233 10.4943 102.471 10.5405 102.691 10.6044V15.1321C102.442 15.0469 102.115 14.9794 101.711 14.9297C101.313 14.88 100.958 14.8551 100.645 14.8551C100.027 14.8551 99.4698 14.9936 98.9727 15.2706C98.4826 15.5405 98.0955 15.9205 97.8114 16.4105C97.5344 16.8935 97.396 17.4616 97.396 18.1151V27H92.1864ZM104.063 27V10.6364H109.273V27H104.063ZM106.673 8.7294C105.942 8.7294 105.313 8.48793 104.788 8.00497C104.262 7.51491 103.999 6.92543 103.999 6.23651C103.999 5.55469 104.262 4.9723 104.788 4.48935C105.313 3.99929 105.942 3.75426 106.673 3.75426C107.412 3.75426 108.041 3.99929 108.559 4.48935C109.085 4.9723 109.347 5.55469 109.347 6.23651C109.347 6.92543 109.085 7.51491 108.559 8.00497C108.041 8.48793 107.412 8.7294 106.673 8.7294ZM111.839 27V10.6364H116.793V13.6406H116.974C117.315 12.6463 117.89 11.8615 118.7 11.2862C119.509 10.7109 120.475 10.4233 121.597 10.4233C122.734 10.4233 123.707 10.7145 124.516 11.2969C125.326 11.8793 125.841 12.6605 126.061 13.6406H126.232C126.537 12.6676 127.134 11.8899 128.021 11.3075C128.909 10.718 129.957 10.4233 131.164 10.4233C132.712 10.4233 133.969 10.9205 134.935 11.9148C135.901 12.902 136.384 14.2585 136.384 15.9844V27H131.175V17.1776C131.175 16.3608 130.965 15.7393 130.546 15.3132C130.127 14.88 129.584 14.6634 128.916 14.6634C128.199 14.6634 127.634 14.8977 127.222 15.3665C126.817 15.8281 126.615 16.4496 126.615 17.2308V27H121.608V17.1243C121.608 16.3643 121.402 15.7642 120.99 15.3239C120.578 14.8835 120.035 14.6634 119.36 14.6634C118.906 14.6634 118.504 14.7734 118.156 14.9936C117.808 15.2067 117.535 15.5121 117.336 15.9098C117.144 16.3075 117.048 16.7763 117.048 17.3161V27H111.839ZM143.475 27.277C142.431 27.277 141.504 27.103 140.695 26.755C139.892 26.3999 139.256 25.8672 138.788 25.157C138.326 24.4396 138.095 23.5412 138.095 22.4616C138.095 21.5526 138.255 20.7855 138.575 20.1605C138.894 19.5355 139.335 19.0277 139.896 18.6371C140.457 18.2464 141.103 17.9517 141.835 17.7528C142.566 17.5469 143.347 17.4084 144.178 17.3374C145.109 17.2521 145.858 17.1634 146.426 17.071C146.994 16.9716 147.406 16.8331 147.662 16.6555C147.925 16.4709 148.056 16.2116 148.056 15.8778V15.8246C148.056 15.2777 147.868 14.8551 147.491 14.5568C147.115 14.2585 146.607 14.1094 145.968 14.1094C145.279 14.1094 144.725 14.2585 144.306 14.5568C143.887 14.8551 143.621 15.267 143.507 15.7926L138.702 15.6222C138.844 14.6278 139.21 13.7401 139.8 12.9588C140.396 12.1705 141.213 11.5526 142.25 11.1051C143.294 10.6506 144.548 10.4233 146.011 10.4233C147.055 10.4233 148.017 10.5476 148.898 10.7962C149.778 11.0376 150.545 11.3928 151.199 11.8615C151.852 12.3232 152.357 12.8913 152.712 13.5661C153.074 14.2408 153.255 15.0114 153.255 15.8778V27H148.354V24.7202H148.227C147.935 25.2741 147.563 25.7429 147.108 26.1264C146.661 26.5099 146.131 26.7976 145.521 26.9893C144.917 27.1811 144.235 27.277 143.475 27.277ZM145.084 23.8679C145.645 23.8679 146.149 23.7543 146.597 23.527C147.051 23.2997 147.413 22.9872 147.683 22.5895C147.953 22.1847 148.088 21.7159 148.088 21.1832V19.6278C147.939 19.706 147.758 19.777 147.545 19.8409C147.339 19.9048 147.112 19.9652 146.863 20.022C146.614 20.0788 146.359 20.1286 146.096 20.1712C145.833 20.2138 145.581 20.2528 145.339 20.2884C144.849 20.3665 144.43 20.4872 144.082 20.6506C143.741 20.8139 143.479 21.027 143.294 21.2898C143.116 21.5455 143.028 21.8509 143.028 22.206C143.028 22.7457 143.219 23.1577 143.603 23.4418C143.994 23.7259 144.487 23.8679 145.084 23.8679ZM155.69 27V10.6364H160.751V13.6193H160.921C161.219 12.5398 161.706 11.7372 162.381 11.2116C163.055 10.679 163.84 10.4126 164.735 10.4126C164.977 10.4126 165.225 10.4304 165.481 10.4659C165.737 10.4943 165.974 10.5405 166.195 10.6044V15.1321C165.946 15.0469 165.619 14.9794 165.214 14.9297C164.817 14.88 164.462 14.8551 164.149 14.8551C163.531 14.8551 162.974 14.9936 162.477 15.2706C161.987 15.5405 161.599 15.9205 161.315 16.4105C161.038 16.8935 160.9 17.4616 160.9 18.1151V27H155.69ZM171.251 33.1364C170.626 33.1364 170.036 33.0866 169.482 32.9872C168.928 32.8949 168.452 32.7706 168.055 32.6143L169.205 28.8324C169.717 29.0028 170.178 29.1023 170.59 29.1307C171.009 29.1591 171.368 29.0916 171.666 28.9283C171.972 28.772 172.206 28.4915 172.369 28.0866L172.572 27.5966L166.755 10.6364H172.21L175.224 22.3125H175.395L178.452 10.6364H183.939L177.771 28.5661C177.472 29.4609 177.05 30.2493 176.503 30.9311C175.963 31.62 175.263 32.1598 174.404 32.5504C173.552 32.9411 172.501 33.1364 171.251 33.1364Z" fill="white"/>
<path d="M319.878 11.723C319.807 10.9418 319.491 10.3345 318.93 9.90128C318.376 9.46094 317.584 9.24077 316.554 9.24077C315.873 9.24077 315.304 9.32955 314.85 9.5071C314.395 9.68466 314.054 9.92969 313.827 10.2422C313.6 10.5476 313.483 10.8991 313.475 11.2969C313.461 11.6236 313.525 11.9112 313.667 12.1598C313.816 12.4084 314.029 12.6286 314.306 12.8203C314.591 13.005 314.931 13.1683 315.329 13.3104C315.727 13.4524 316.174 13.5767 316.672 13.6832L318.547 14.1094C319.626 14.3438 320.578 14.6562 321.402 15.0469C322.233 15.4375 322.929 15.9027 323.49 16.4425C324.058 16.9822 324.488 17.6037 324.779 18.3068C325.07 19.0099 325.219 19.7983 325.226 20.6719C325.219 22.0497 324.871 23.2322 324.182 24.2195C323.493 25.2067 322.502 25.9631 321.21 26.4886C319.924 27.0142 318.373 27.277 316.554 27.277C314.729 27.277 313.138 27.0036 311.782 26.4567C310.425 25.9098 309.37 25.0788 308.618 23.9638C307.865 22.8487 307.478 21.4389 307.456 19.7344H312.506C312.549 20.4375 312.737 21.0234 313.071 21.4922C313.404 21.9609 313.863 22.3161 314.445 22.5575C315.034 22.799 315.716 22.9197 316.49 22.9197C317.201 22.9197 317.804 22.8239 318.301 22.6321C318.806 22.4403 319.193 22.174 319.463 21.8331C319.733 21.4922 319.871 21.1016 319.878 20.6612C319.871 20.2493 319.743 19.8977 319.495 19.6065C319.246 19.3082 318.863 19.0526 318.344 18.8395C317.833 18.6193 317.179 18.4169 316.384 18.2322L314.104 17.6996C312.215 17.2663 310.727 16.5668 309.64 15.6009C308.554 14.6278 308.014 13.3139 308.021 11.6591C308.014 10.3097 308.376 9.12713 309.108 8.11151C309.839 7.09588 310.851 6.30398 312.144 5.7358C313.436 5.16761 314.91 4.88352 316.565 4.88352C318.255 4.88352 319.722 5.17116 320.965 5.74645C322.215 6.31463 323.184 7.11364 323.873 8.14347C324.562 9.1733 324.914 10.3665 324.928 11.723H319.878ZM334.789 27.3089C333.077 27.3089 331.6 26.9716 330.357 26.2969C329.121 25.6151 328.169 24.6456 327.502 23.3885C326.841 22.1243 326.511 20.6222 326.511 18.8821C326.511 17.1918 326.845 15.7145 327.512 14.4503C328.18 13.179 329.121 12.1918 330.336 11.4886C331.55 10.7784 332.981 10.4233 334.629 10.4233C335.794 10.4233 336.859 10.6044 337.825 10.9666C338.791 11.3288 339.625 11.8651 340.328 12.5753C341.032 13.2855 341.578 14.1626 341.969 15.2067C342.36 16.2436 342.555 17.4332 342.555 18.7756V20.0753H328.333V17.0497H337.708C337.701 16.4957 337.569 16.0021 337.314 15.5689C337.058 15.1357 336.706 14.7983 336.259 14.5568C335.819 14.3082 335.311 14.1839 334.735 14.1839C334.153 14.1839 333.631 14.3153 333.169 14.5781C332.708 14.8338 332.342 15.1854 332.072 15.6328C331.802 16.0732 331.66 16.5739 331.646 17.1349V20.2138C331.646 20.8814 331.777 21.4673 332.04 21.9716C332.303 22.4687 332.676 22.8558 333.159 23.1328C333.642 23.4098 334.217 23.5483 334.885 23.5483C335.346 23.5483 335.765 23.4844 336.142 23.3565C336.518 23.2287 336.841 23.0405 337.111 22.7919C337.381 22.5433 337.583 22.2379 337.718 21.8757L342.502 22.0142C342.303 23.0866 341.866 24.0206 341.191 24.8161C340.524 25.6044 339.647 26.2187 338.56 26.6591C337.473 27.0923 336.216 27.3089 334.789 27.3089ZM352.104 27.3089C350.378 27.3089 348.898 26.9538 347.662 26.2436C346.433 25.5334 345.488 24.5462 344.828 23.282C344.167 22.0107 343.837 20.5405 343.837 18.8714C343.837 17.1953 344.167 15.7251 344.828 14.4609C345.496 13.1896 346.444 12.1989 347.672 11.4886C348.908 10.7784 350.382 10.4233 352.094 10.4233C353.606 10.4233 354.924 10.6967 356.046 11.2436C357.175 11.7905 358.056 12.5646 358.688 13.5661C359.327 14.5604 359.665 15.7287 359.7 17.071H354.831C354.732 16.233 354.448 15.576 353.979 15.1001C353.518 14.6243 352.914 14.3864 352.168 14.3864C351.564 14.3864 351.035 14.5568 350.581 14.8977C350.126 15.2315 349.771 15.7287 349.515 16.3892C349.267 17.0426 349.143 17.8523 349.143 18.8182C349.143 19.7841 349.267 20.6009 349.515 21.2685C349.771 21.929 350.126 22.4297 350.581 22.7706C351.035 23.1044 351.564 23.2713 352.168 23.2713C352.651 23.2713 353.077 23.1683 353.447 22.9624C353.823 22.7564 354.132 22.4545 354.373 22.0568C354.615 21.652 354.768 21.1619 354.831 20.5866H359.7C359.65 21.9361 359.313 23.1151 358.688 24.1236C358.07 25.1321 357.2 25.9169 356.078 26.478C354.963 27.032 353.638 27.3089 352.104 27.3089ZM369.255 27.3089C367.536 27.3089 366.059 26.9574 364.823 26.2543C363.594 25.544 362.646 24.5568 361.978 23.2926C361.318 22.0213 360.988 20.5476 360.988 18.8714C360.988 17.1882 361.318 15.7145 361.978 14.4503C362.646 13.179 363.594 12.1918 364.823 11.4886C366.059 10.7784 367.536 10.4233 369.255 10.4233C370.973 10.4233 372.447 10.7784 373.676 11.4886C374.912 12.1918 375.86 13.179 376.52 14.4503C377.188 15.7145 377.522 17.1882 377.522 18.8714C377.522 20.5476 377.188 22.0213 376.52 23.2926C375.86 24.5568 374.912 25.544 373.676 26.2543C372.447 26.9574 370.973 27.3089 369.255 27.3089ZM369.287 23.3778C369.912 23.3778 370.441 23.1861 370.874 22.8026C371.307 22.419 371.637 21.8864 371.865 21.2045C372.099 20.5227 372.216 19.7344 372.216 18.8395C372.216 17.9304 372.099 17.1349 371.865 16.4531C371.637 15.7713 371.307 15.2386 370.874 14.8551C370.441 14.4716 369.912 14.2798 369.287 14.2798C368.64 14.2798 368.093 14.4716 367.646 14.8551C367.206 15.2386 366.868 15.7713 366.634 16.4531C366.407 17.1349 366.293 17.9304 366.293 18.8395C366.293 19.7344 366.407 20.5227 366.634 21.2045C366.868 21.8864 367.206 22.419 367.646 22.8026C368.093 23.1861 368.64 23.3778 369.287 23.3778ZM384.65 17.6676V27H379.44V10.6364H384.394V13.6406H384.575C384.938 12.6392 385.555 11.8544 386.429 11.2862C387.303 10.7109 388.343 10.4233 389.55 10.4233C390.701 10.4233 391.699 10.6825 392.544 11.201C393.396 11.7124 394.057 12.4297 394.526 13.353C395.001 14.2692 395.236 15.3416 395.229 16.5703V27H390.019V17.593C390.026 16.6839 389.795 15.9737 389.327 15.4624C388.865 14.951 388.222 14.6953 387.398 14.6953C386.852 14.6953 386.369 14.8161 385.95 15.0575C385.538 15.2919 385.218 15.6293 384.991 16.0696C384.771 16.5099 384.657 17.0426 384.65 17.6676ZM403.681 27.2344C402.473 27.2344 401.376 26.9219 400.389 26.2969C399.401 25.6719 398.613 24.7344 398.024 23.4844C397.434 22.2344 397.139 20.6825 397.139 18.8288C397.139 16.9041 397.445 15.3203 398.056 14.0774C398.666 12.8345 399.465 11.9148 400.453 11.3182C401.447 10.7216 402.516 10.4233 403.659 10.4233C404.519 10.4233 405.254 10.5724 405.865 10.8707C406.475 11.1619 406.98 11.5384 407.377 12C407.775 12.4616 408.077 12.9411 408.283 13.4382H408.389V5.18182H413.599V27H408.443V24.3473H408.283C408.063 24.8516 407.75 25.3239 407.345 25.7642C406.941 26.2045 406.433 26.5597 405.822 26.8295C405.218 27.0994 404.504 27.2344 403.681 27.2344ZM405.492 23.1754C406.124 23.1754 406.664 22.9979 407.111 22.6428C407.558 22.2805 407.903 21.7727 408.144 21.1193C408.386 20.4659 408.507 19.6989 408.507 18.8182C408.507 17.9233 408.386 17.1527 408.144 16.5064C407.91 15.8601 407.566 15.3629 407.111 15.0149C406.664 14.6669 406.124 14.4929 405.492 14.4929C404.845 14.4929 404.298 14.6705 403.851 15.0256C403.404 15.3807 403.063 15.8814 402.828 16.5277C402.601 17.174 402.487 17.9375 402.487 18.8182C402.487 19.6989 402.605 20.4659 402.839 21.1193C403.073 21.7727 403.411 22.2805 403.851 22.6428C404.298 22.9979 404.845 23.1754 405.492 23.1754ZM420.756 27.277C419.712 27.277 418.786 27.103 417.976 26.755C417.173 26.3999 416.538 25.8672 416.069 25.157C415.607 24.4396 415.376 23.5412 415.376 22.4616C415.376 21.5526 415.536 20.7855 415.856 20.1605C416.175 19.5355 416.616 19.0277 417.177 18.6371C417.738 18.2464 418.384 17.9517 419.116 17.7528C419.847 17.5469 420.629 17.4084 421.46 17.3374C422.39 17.2521 423.139 17.1634 423.707 17.071C424.276 16.9716 424.688 16.8331 424.943 16.6555C425.206 16.4709 425.337 16.2116 425.337 15.8778V15.8246C425.337 15.2777 425.149 14.8551 424.773 14.5568C424.396 14.2585 423.888 14.1094 423.249 14.1094C422.56 14.1094 422.006 14.2585 421.587 14.5568C421.168 14.8551 420.902 15.267 420.788 15.7926L415.984 15.6222C416.126 14.6278 416.491 13.7401 417.081 12.9588C417.678 12.1705 418.494 11.5526 419.531 11.1051C420.575 10.6506 421.829 10.4233 423.292 10.4233C424.336 10.4233 425.298 10.5476 426.179 10.7962C427.06 11.0376 427.827 11.3928 428.48 11.8615C429.134 12.3232 429.638 12.8913 429.993 13.5661C430.355 14.2408 430.536 15.0114 430.536 15.8778V27H425.636V24.7202H425.508C425.217 25.2741 424.844 25.7429 424.389 26.1264C423.942 26.5099 423.413 26.7976 422.802 26.9893C422.198 27.1811 421.516 27.277 420.756 27.277ZM422.365 23.8679C422.926 23.8679 423.43 23.7543 423.878 23.527C424.332 23.2997 424.695 22.9872 424.964 22.5895C425.234 22.1847 425.369 21.7159 425.369 21.1832V19.6278C425.22 19.706 425.039 19.777 424.826 19.8409C424.62 19.9048 424.393 19.9652 424.144 20.022C423.896 20.0788 423.64 20.1286 423.377 20.1712C423.114 20.2138 422.862 20.2528 422.621 20.2884C422.131 20.3665 421.712 20.4872 421.364 20.6506C421.023 20.8139 420.76 21.027 420.575 21.2898C420.398 21.5455 420.309 21.8509 420.309 22.206C420.309 22.7457 420.501 23.1577 420.884 23.4418C421.275 23.7259 421.768 23.8679 422.365 23.8679ZM432.972 27V10.6364H438.032V13.6193H438.202C438.501 12.5398 438.987 11.7372 439.662 11.2116C440.337 10.679 441.121 10.4126 442.016 10.4126C442.258 10.4126 442.506 10.4304 442.762 10.4659C443.018 10.4943 443.256 10.5405 443.476 10.6044V15.1321C443.227 15.0469 442.901 14.9794 442.496 14.9297C442.098 14.88 441.743 14.8551 441.43 14.8551C440.813 14.8551 440.255 14.9936 439.758 15.2706C439.268 15.5405 438.881 15.9205 438.597 16.4105C438.32 16.8935 438.181 17.4616 438.181 18.1151V27H432.972ZM448.532 33.1364C447.907 33.1364 447.317 33.0866 446.763 32.9872C446.21 32.8949 445.734 32.7706 445.336 32.6143L446.487 28.8324C446.998 29.0028 447.46 29.1023 447.871 29.1307C448.29 29.1591 448.649 29.0916 448.947 28.9283C449.253 28.772 449.487 28.4915 449.651 28.0866L449.853 27.5966L444.036 10.6364H449.491L452.506 22.3125H452.676L455.734 10.6364H461.22L455.052 28.5661C454.754 29.4609 454.331 30.2493 453.784 30.9311C453.244 31.62 452.545 32.1598 451.685 32.5504C450.833 32.9411 449.782 33.1364 448.532 33.1364Z" fill="white"/>
</svg>
