<svg width="401" height="234" viewBox="0 0 401 234" fill="none" xmlns="http://www.w3.org/2000/svg">
<path d="M0 195.756V174.905L82.0901 210.106V233.395L0 195.756Z" fill="#9CA3AF"/>
<path d="M82.0901 178.583V199.52L0 164.468V143.296L82.0901 178.583Z" fill="#9CA3AF"/>
<path d="M0 111.538V132.945L82.0901 167.997V146.354L0 111.538Z" fill="#9CA3AF"/>
<path d="M92.2044 167.997V146.354L175 111.302V132.945L92.2044 167.997Z" fill="#9CA3AF"/>
<path d="M92.2044 199.52V178.583L175 143.296V164.468L92.2044 199.52Z" fill="#9CA3AF"/>
<path d="M175 195.756V174.905L147.245 186.816L147.574 208.224L175 195.756Z" fill="#9CA3AF"/>
<path d="M92.2044 210.106V233.395L119.889 220.81V198.344L92.2044 210.106Z" fill="#9CA3AF"/>
<path d="M85.5485 68.1626L2.81396 33.6798L85.5485 0.604492L168.047 33.6798L85.5485 68.1626Z" fill="#6366F1"/>
<path d="M82.0901 113.993V134.907L0 99.8933V78.7441L82.0901 113.993Z" fill="#D1D5DB"/>
<path d="M92.2043 134.907V113.993L175 78.7441V99.8933L92.2043 134.907Z" fill="#D1D5DB"/>
<path d="M0 46.4191V67.6258L82.0901 102.349V80.9091L0 46.4191Z" fill="#6366F1"/>
<path d="M92.2043 102.349V80.9091L175 46.186V67.6258L92.2043 102.349Z" fill="#6366F1"/>
<path d="M213.651 27.6045H218.925V20.1365H221.631L225.615 27.6045H231.368L226.84 19.2948C229.237 18.2082 230.622 16.0668 230.622 13.0519C230.622 8.56685 227.565 5.78631 222.664 5.78631H213.651V27.6045ZM218.925 15.9816V10.037H221.524C223.889 10.037 225.157 11.0278 225.157 13.0519C225.157 15.0761 223.889 15.9816 221.524 15.9816H218.925ZM240.091 27.9134C244.385 27.9134 247.208 25.836 247.805 22.6187L243.021 22.4802C242.616 23.5668 241.551 24.1528 240.187 24.1528C238.184 24.1528 236.949 22.8211 236.949 20.8183V20.6798H247.858V19.3801C247.858 13.9894 244.577 11.0278 239.932 11.0278C234.988 11.0278 231.814 14.4156 231.814 19.4866C231.814 24.7281 234.946 27.9134 240.091 27.9134ZM236.949 17.6542C237.023 16.0242 238.312 14.7884 240.038 14.7884C241.753 14.7884 242.989 15.9816 243.01 17.6542H236.949ZM264.055 16.2373C263.778 12.9987 261.125 11.0278 256.693 11.0278C252.261 11.0278 249.438 12.9561 249.46 16.2373C249.438 18.7515 251.047 20.3708 254.317 20.9781L257.173 21.5214C258.526 21.7877 259.143 22.2139 259.165 22.9383C259.143 23.7586 258.227 24.3019 256.896 24.3019C255.415 24.3019 254.413 23.6627 254.19 22.4695L249.044 22.5974C249.417 25.836 252.197 27.9134 256.874 27.9134C261.253 27.9134 264.438 25.7295 264.46 22.363C264.438 19.9767 262.862 18.5597 259.602 17.9312L256.448 17.3346C255.063 17.0576 254.616 16.5676 254.626 15.939C254.616 15.108 255.585 14.5967 256.789 14.5967C258.163 14.5967 259.122 15.3318 259.271 16.3651L264.055 16.2373ZM266.274 27.6045H271.484V11.2409H266.274V27.6045ZM268.884 9.3339C270.365 9.3339 271.558 8.21529 271.558 6.841C271.558 5.46671 270.365 4.35875 268.884 4.35875C267.414 4.35875 266.21 5.46671 266.21 6.841C266.21 8.21529 267.414 9.3339 268.884 9.3339ZM280.026 27.8389C282.498 27.8389 283.968 26.4646 284.629 24.9518H284.788V27.6045H289.945V5.78631H284.735V14.0427H284.629C284.011 12.5406 282.583 11.0278 280.005 11.0278C276.585 11.0278 273.485 13.6592 273.485 19.4333C273.485 25.0051 276.415 27.8389 280.026 27.8389ZM281.837 23.7799C279.909 23.7799 278.833 22.0647 278.833 19.4227C278.833 16.7913 279.898 15.0974 281.837 15.0974C283.744 15.0974 284.852 16.7487 284.852 19.4227C284.852 22.0754 283.734 23.7799 281.837 23.7799ZM300.138 27.9134C304.432 27.9134 307.255 25.836 307.851 22.6187L303.068 22.4802C302.663 23.5668 301.598 24.1528 300.234 24.1528C298.231 24.1528 296.996 22.8211 296.996 20.8183V20.6798H307.905V19.3801C307.905 13.9894 304.623 11.0278 299.979 11.0278C295.035 11.0278 291.861 14.4156 291.861 19.4866C291.861 24.7281 294.993 27.9134 300.138 27.9134ZM296.996 17.6542C297.07 16.0242 298.359 14.7884 300.085 14.7884C301.8 14.7884 303.036 15.9816 303.057 17.6542H296.996ZM315.025 18.2721C315.036 16.4078 316.122 15.2998 317.773 15.2998C319.425 15.2998 320.405 16.3865 320.394 18.1975V27.6045H325.604V17.1748C325.614 13.4887 323.366 11.0278 319.925 11.0278C317.507 11.0278 315.675 12.2529 314.95 14.2451H314.769V11.2409H309.815V27.6045H315.025V18.2721ZM337.316 11.2409H334.365V7.3204H329.155V11.2409H326.992V15.0761H329.155V23.0342C329.123 26.3474 331.275 28.0093 334.95 27.8389C336.208 27.7749 337.113 27.5193 337.614 27.3701L336.825 23.6095C336.602 23.6627 336.08 23.7693 335.686 23.7693C334.844 23.7693 334.365 23.4284 334.365 22.4589V15.0761H337.316V11.2409ZM339.224 27.6045H344.433V11.2409H339.224V27.6045ZM341.834 9.3339C343.314 9.3339 344.508 8.21529 344.508 6.841C344.508 5.46671 343.314 4.35875 341.834 4.35875C340.363 4.35875 339.16 5.46671 339.16 6.841C339.16 8.21529 340.363 9.3339 341.834 9.3339ZM351.612 27.8815C353.892 27.8815 355.468 26.9972 356.363 25.3247H356.491V27.6045H361.392V16.4823C361.392 13.02 358.313 11.0278 354.147 11.0278C349.748 11.0278 347.255 13.2437 346.839 16.2267L351.644 16.3971C351.868 15.3531 352.73 14.7139 354.105 14.7139C355.383 14.7139 356.193 15.3318 356.193 16.4291V16.4823C356.193 17.4838 355.106 17.6968 352.315 17.9418C349.002 18.2188 346.232 19.444 346.232 23.0661C346.232 26.3048 348.48 27.8815 351.612 27.8815ZM353.221 24.4724C352.017 24.4724 351.164 23.8971 351.164 22.8105C351.164 21.7558 351.995 21.1166 353.476 20.8928C354.446 20.7543 355.639 20.5413 356.225 20.2323V21.7877C356.225 23.3857 354.882 24.4724 353.221 24.4724ZM369.037 5.78631H363.827V27.6045H369.037V5.78631ZM233.456 45.6911C232.923 40.471 229.035 37.488 223.761 37.488C217.945 37.488 213.417 41.483 213.417 48.6954C213.417 55.8758 217.838 59.9028 223.761 59.9028C229.749 59.9028 233.062 55.8332 233.456 51.966L228.129 51.934C227.756 54.0328 226.18 55.2792 223.868 55.2792C220.757 55.2792 218.797 53.0313 218.797 48.6954C218.797 44.5299 220.714 42.1116 223.9 42.1116C226.297 42.1116 227.863 43.5072 228.129 45.6911H233.456ZM240.336 59.8815C242.616 59.8815 244.193 58.9972 245.088 57.3247H245.216V59.6045H250.116V48.4823C250.116 45.02 247.037 43.0278 242.872 43.0278C238.472 43.0278 235.979 45.2437 235.564 48.2267L240.368 48.3971C240.592 47.3531 241.455 46.7139 242.829 46.7139C244.108 46.7139 244.917 47.3318 244.917 48.4291V48.4823C244.917 49.4838 243.831 49.6968 241.04 49.9418C237.726 50.2188 234.956 51.444 234.956 55.0661C234.956 58.3048 237.204 59.8815 240.336 59.8815ZM241.945 56.4724C240.741 56.4724 239.889 55.8971 239.889 54.8105C239.889 53.7558 240.72 53.1166 242.201 52.8928C243.17 52.7543 244.363 52.5413 244.949 52.2323V53.7877C244.949 55.3857 243.607 56.4724 241.945 56.4724ZM252.552 65.7409H257.761V56.9518H257.868C258.528 58.4646 259.998 59.8389 262.47 59.8389C266.092 59.8389 269.011 57.0051 269.011 51.4333C269.011 45.6592 265.922 43.0278 262.502 43.0278C259.913 43.0278 258.496 44.5406 257.868 46.0427H257.708V43.2409H252.552V65.7409ZM257.655 51.4227C257.655 48.7487 258.763 47.0974 260.67 47.0974C262.598 47.0974 263.663 48.7913 263.663 51.4227C263.663 54.0647 262.598 55.7799 260.67 55.7799C258.763 55.7799 257.655 54.0754 257.655 51.4227ZM270.991 59.6045H276.201V43.2409H270.991V59.6045ZM273.601 41.3339C275.082 41.3339 276.275 40.2153 276.275 38.841C276.275 37.4667 275.082 36.3588 273.601 36.3588C272.131 36.3588 270.927 37.4667 270.927 38.841C270.927 40.2153 272.131 41.3339 273.601 41.3339ZM288.003 43.2409H285.052V39.3204H279.843V43.2409H277.68V47.0761H279.843V55.0342C279.811 58.3474 281.963 60.0093 285.638 59.8389C286.895 59.7749 287.801 59.5193 288.301 59.3701L287.513 55.6095C287.289 55.6627 286.767 55.7693 286.373 55.7693C285.531 55.7693 285.052 55.4284 285.052 54.4589V47.0761H288.003V43.2409ZM294.524 59.8815C296.804 59.8815 298.381 58.9972 299.275 57.3247H299.403V59.6045H304.304V48.4823C304.304 45.02 301.225 43.0278 297.059 43.0278C292.66 43.0278 290.167 45.2437 289.751 48.2267L294.556 48.3971C294.78 47.3531 295.643 46.7139 297.017 46.7139C298.295 46.7139 299.105 47.3318 299.105 48.4291V48.4823C299.105 49.4838 298.018 49.6968 295.227 49.9418C291.914 50.2188 289.144 51.444 289.144 55.0661C289.144 58.3048 291.392 59.8815 294.524 59.8815ZM296.133 56.4724C294.929 56.4724 294.077 55.8971 294.077 54.8105C294.077 53.7558 294.907 53.1166 296.388 52.8928C297.358 52.7543 298.551 52.5413 299.137 52.2323V53.7877C299.137 55.3857 297.795 56.4724 296.133 56.4724ZM311.949 37.7863H306.739V59.6045H311.949V37.7863ZM332.003 44.3275H337.053C337.01 40.2472 333.761 37.488 328.69 37.488C323.704 37.488 320.114 40.2046 320.146 44.2636C320.135 47.5768 322.458 49.4411 326.229 50.3041L328.509 50.8367C330.906 51.3907 331.982 52.0406 332.003 53.2657C331.982 54.5974 330.735 55.5242 328.615 55.5242C326.282 55.5242 324.748 54.4376 324.631 52.3389H319.581C319.645 57.4419 323.193 59.8815 328.679 59.8815C334.113 59.8815 337.33 57.4205 337.351 53.2764C337.33 49.7927 334.975 47.662 330.672 46.7139L328.797 46.2877C326.815 45.8616 325.558 45.2011 325.6 43.9014C325.611 42.7082 326.634 41.8453 328.679 41.8453C330.735 41.8453 331.865 42.7721 332.003 44.3275ZM348.501 43.2409H345.55V39.3204H340.341V43.2409H338.178V47.0761H340.341V55.0342C340.309 58.3474 342.461 60.0093 346.136 59.8389C347.393 59.7749 348.299 59.5193 348.799 59.3701L348.011 55.6095C347.787 55.6627 347.265 55.7693 346.871 55.7693C346.029 55.7693 345.55 55.4284 345.55 54.4589V47.0761H348.501V43.2409ZM355.022 59.8815C357.302 59.8815 358.879 58.9972 359.773 57.3247H359.901V59.6045H364.802V48.4823C364.802 45.02 361.723 43.0278 357.558 43.0278C353.158 43.0278 350.665 45.2437 350.249 48.2267L355.054 48.3971C355.278 47.3531 356.141 46.7139 357.515 46.7139C358.793 46.7139 359.603 47.3318 359.603 48.4291V48.4823C359.603 49.4838 358.516 49.6968 355.725 49.9418C352.412 50.2188 349.642 51.444 349.642 55.0661C349.642 58.3048 351.89 59.8815 355.022 59.8815ZM356.631 56.4724C355.427 56.4724 354.575 55.8971 354.575 54.8105C354.575 53.7558 355.406 53.1166 356.886 52.8928C357.856 52.7543 359.049 52.5413 359.635 52.2323V53.7877C359.635 55.3857 358.293 56.4724 356.631 56.4724ZM374.876 59.9134C379.478 59.9134 382.333 57.2394 382.472 53.1911H377.603C377.411 54.9276 376.367 55.8758 374.94 55.8758C373.107 55.8758 371.914 54.3311 371.914 51.4227C371.914 48.5356 373.118 46.9909 374.94 46.9909C376.431 46.9909 377.401 48.0029 377.603 49.6755H382.472C382.354 45.6485 379.414 43.0278 374.865 43.0278C369.719 43.0278 366.609 46.4582 366.609 51.4759C366.609 56.4724 369.698 59.9134 374.876 59.9134ZM384.388 59.6045H389.597V54.6933L390.652 53.4149L394.551 59.6045H400.57L394.53 50.368L400.336 43.2409H394.434L389.831 49.1002H389.597V37.7863H384.388V59.6045Z" fill="#111827"/>
<rect x="212" y="88.6045" width="25" height="25" fill="#6366F1"/>
<path d="M266.119 107.104H273.778V105.599H268.54V105.514L270.852 103.093C272.983 100.94 273.591 99.9113 273.591 98.6102C273.591 96.7409 272.068 95.309 269.875 95.309C267.699 95.309 266.108 96.7181 266.108 98.8431H267.784C267.778 97.5931 268.585 96.7749 269.841 96.7749C271.023 96.7749 271.92 97.5022 271.92 98.6613C271.92 99.6897 271.307 100.428 270.057 101.752L266.119 105.832V107.104ZM279.983 107.298C282.67 107.298 284.244 105.104 284.244 101.292C284.244 97.5079 282.648 95.309 279.983 95.309C277.312 95.309 275.722 97.5022 275.716 101.292C275.716 105.099 277.29 107.292 279.983 107.298ZM279.983 105.781C278.409 105.781 277.46 104.201 277.46 101.292C277.466 98.3943 278.415 96.7977 279.983 96.7977C281.545 96.7977 282.5 98.3943 282.5 101.292C282.5 104.201 281.551 105.781 279.983 105.781ZM292.334 104.923C292.339 106.235 293.163 107.343 294.703 107.343C296.226 107.343 297.061 106.235 297.061 104.923V104.309C297.061 102.991 296.249 101.889 294.703 101.889C293.186 101.889 292.339 102.997 292.334 104.309V104.923ZM286.482 98.2636C286.482 99.5761 287.311 100.684 288.851 100.684C290.368 100.684 291.209 99.5818 291.203 98.2636V97.6499C291.209 96.3318 290.391 95.2295 288.851 95.2295C287.339 95.2295 286.482 96.3318 286.482 97.6499V98.2636ZM286.959 107.104H288.317L296.317 95.4681H294.959L286.959 107.104ZM293.658 104.309C293.663 103.656 293.947 103.025 294.703 103.025C295.487 103.025 295.732 103.656 295.732 104.309V104.923C295.732 105.576 295.464 106.207 294.703 106.207C293.93 106.207 293.663 105.57 293.658 104.923V104.309ZM287.811 97.6499C287.811 97.0022 288.095 96.3659 288.851 96.3659C289.635 96.3659 289.879 96.9965 289.879 97.6499V98.2636C289.879 98.917 289.612 99.5477 288.851 99.5477C288.078 99.5477 287.811 98.917 287.811 98.2636V97.6499ZM303.33 96.9795H306.955V107.104H308.705V96.9795H312.335V95.4681H303.33V96.9795ZM316.599 107.281C319.06 107.281 320.668 105.479 320.668 102.781C320.668 100.065 319.06 98.2636 316.599 98.2636C314.139 98.2636 312.531 100.065 312.531 102.781C312.531 105.479 314.139 107.281 316.599 107.281ZM316.605 105.854C314.997 105.854 314.247 104.451 314.247 102.775C314.247 101.104 314.997 99.684 316.605 99.684C318.202 99.684 318.952 101.104 318.952 102.775C318.952 104.451 318.202 105.854 316.605 105.854ZM322.564 107.104H324.263V104.008L325.109 103.161L328.075 107.104H330.161L326.388 102.122L329.922 98.3772H327.888L324.411 102.07H324.263V95.4681H322.564V107.104ZM334.872 107.281C336.776 107.281 338.122 106.343 338.509 104.923L336.901 104.633C336.594 105.457 335.855 105.877 334.889 105.877C333.435 105.877 332.457 104.934 332.412 103.252H338.616V102.65C338.616 99.4965 336.73 98.2636 334.753 98.2636C332.321 98.2636 330.719 100.116 330.719 102.798C330.719 105.508 332.298 107.281 334.872 107.281ZM332.418 101.979C332.486 100.741 333.384 99.667 334.764 99.667C336.082 99.667 336.946 100.644 336.952 101.979H332.418ZM342.2 101.923C342.2 100.531 343.053 99.7352 344.234 99.7352C345.388 99.7352 346.087 100.491 346.087 101.758V107.104H347.786V101.553C347.786 99.3943 346.598 98.2636 344.814 98.2636C343.501 98.2636 342.643 98.8715 342.24 99.7977H342.132V98.3772H340.501V107.104H342.2V101.923ZM350.064 107.104H351.763V98.3772H350.064V107.104ZM350.922 97.0306C351.507 97.0306 351.996 96.5761 351.996 96.0193C351.996 95.4624 351.507 95.0022 350.922 95.0022C350.331 95.0022 349.848 95.4624 349.848 96.0193C349.848 96.5761 350.331 97.0306 350.922 97.0306ZM353.866 107.104H360.872V105.627H356.168V105.548L360.713 99.6159V98.3772H354.02V99.8545H358.594V99.934L353.866 105.94V107.104ZM365.416 107.298C366.859 107.298 367.672 106.565 367.996 105.911H368.064V107.104H369.723V101.309C369.723 98.7693 367.723 98.2636 366.337 98.2636C364.757 98.2636 363.303 98.8999 362.734 100.491L364.331 100.854C364.581 100.235 365.217 99.6386 366.359 99.6386C367.456 99.6386 368.018 100.212 368.018 101.201V101.241C368.018 101.86 367.382 101.849 365.814 102.031C364.161 102.224 362.467 102.656 362.467 104.639C362.467 106.354 363.757 107.298 365.416 107.298ZM365.786 105.934C364.825 105.934 364.132 105.502 364.132 104.661C364.132 103.752 364.939 103.428 365.922 103.298C366.473 103.224 367.78 103.076 368.024 102.832V103.957C368.024 104.991 367.2 105.934 365.786 105.934ZM376.06 98.3772H374.27V96.2863H372.571V98.3772H371.293V99.7409H372.571V104.894C372.565 106.479 373.776 107.247 375.116 107.218C375.656 107.212 376.02 107.11 376.219 107.036L375.912 105.633C375.798 105.656 375.588 105.707 375.315 105.707C374.764 105.707 374.27 105.525 374.27 104.542V99.7409H376.06V98.3772ZM377.939 107.104H379.638V98.3772H377.939V107.104ZM378.797 97.0306C379.382 97.0306 379.871 96.5761 379.871 96.0193C379.871 95.4624 379.382 95.0022 378.797 95.0022C378.206 95.0022 377.723 95.4624 377.723 96.0193C377.723 96.5761 378.206 97.0306 378.797 97.0306ZM385.599 107.281C388.06 107.281 389.668 105.479 389.668 102.781C389.668 100.065 388.06 98.2636 385.599 98.2636C383.139 98.2636 381.531 100.065 381.531 102.781C381.531 105.479 383.139 107.281 385.599 107.281ZM385.605 105.854C383.997 105.854 383.247 104.451 383.247 102.775C383.247 101.104 383.997 99.684 385.605 99.684C387.202 99.684 387.952 101.104 387.952 102.775C387.952 104.451 387.202 105.854 385.605 105.854ZM393.263 101.923C393.263 100.531 394.115 99.7352 395.297 99.7352C396.45 99.7352 397.149 100.491 397.149 101.758V107.104H398.848V101.553C398.848 99.3943 397.661 98.2636 395.876 98.2636C394.564 98.2636 393.706 98.8715 393.303 99.7977H393.195V98.3772H391.564V107.104H393.263V101.923Z" fill="#111827"/>
<rect x="212" y="137.604" width="25" height="25" fill="#D1D5DB"/>
<path d="M266.119 156.104H273.778V154.599H268.54V154.514L270.852 152.093C272.983 149.94 273.591 148.911 273.591 147.61C273.591 145.741 272.068 144.309 269.875 144.309C267.699 144.309 266.108 145.718 266.108 147.843H267.784C267.778 146.593 268.585 145.775 269.841 145.775C271.023 145.775 271.92 146.502 271.92 147.661C271.92 148.69 271.307 149.428 270.057 150.752L266.119 154.832V156.104ZM279.983 156.298C282.67 156.298 284.244 154.104 284.244 150.292C284.244 146.508 282.648 144.309 279.983 144.309C277.312 144.309 275.722 146.502 275.716 150.292C275.716 154.099 277.29 156.292 279.983 156.298ZM279.983 154.781C278.409 154.781 277.46 153.201 277.46 150.292C277.466 147.394 278.415 145.798 279.983 145.798C281.545 145.798 282.5 147.394 282.5 150.292C282.5 153.201 281.551 154.781 279.983 154.781ZM292.334 153.923C292.339 155.235 293.163 156.343 294.703 156.343C296.226 156.343 297.061 155.235 297.061 153.923V153.309C297.061 151.991 296.249 150.889 294.703 150.889C293.186 150.889 292.339 151.997 292.334 153.309V153.923ZM286.482 147.264C286.482 148.576 287.311 149.684 288.851 149.684C290.368 149.684 291.209 148.582 291.203 147.264V146.65C291.209 145.332 290.391 144.229 288.851 144.229C287.339 144.229 286.482 145.332 286.482 146.65V147.264ZM286.959 156.104H288.317L296.317 144.468H294.959L286.959 156.104ZM293.658 153.309C293.663 152.656 293.947 152.025 294.703 152.025C295.487 152.025 295.732 152.656 295.732 153.309V153.923C295.732 154.576 295.464 155.207 294.703 155.207C293.93 155.207 293.663 154.57 293.658 153.923V153.309ZM287.811 146.65C287.811 146.002 288.095 145.366 288.851 145.366C289.635 145.366 289.879 145.997 289.879 146.65V147.264C289.879 147.917 289.612 148.548 288.851 148.548C288.078 148.548 287.811 147.917 287.811 147.264V146.65ZM303.903 156.104H311.267V154.593H305.659V151.031H310.818V149.525H305.659V145.979H311.199V144.468H303.903V156.104ZM320.999 159.377V147.377H319.339V148.792H319.197C318.896 148.252 318.311 147.264 316.692 147.264C314.584 147.264 313.027 148.928 313.027 151.758C313.027 154.582 314.561 156.275 316.675 156.275C318.266 156.275 318.891 155.303 319.197 154.747H319.3V159.377H320.999ZM319.334 151.741C319.334 153.576 318.516 154.826 317.055 154.826C315.538 154.826 314.743 153.491 314.743 151.741C314.743 150.008 315.516 148.707 317.055 148.707C318.538 148.707 319.334 149.917 319.334 151.741ZM328.811 152.485C328.817 153.968 327.714 154.673 326.76 154.673C325.709 154.673 324.982 153.911 324.982 152.724V147.377H323.283V152.928C323.283 155.093 324.47 156.218 326.146 156.218C327.459 156.218 328.351 155.525 328.754 154.593H328.845V156.104H330.516V147.377H328.811V152.485ZM332.798 156.104H334.497V147.377H332.798V156.104ZM333.656 146.031C334.241 146.031 334.73 145.576 334.73 145.019C334.73 144.462 334.241 144.002 333.656 144.002C333.065 144.002 332.582 144.462 332.582 145.019C332.582 145.576 333.065 146.031 333.656 146.031ZM340.857 147.377H339.067V145.286H337.368V147.377H336.089V148.741H337.368V153.894C337.362 155.479 338.572 156.247 339.913 156.218C340.453 156.212 340.817 156.11 341.016 156.036L340.709 154.633C340.595 154.656 340.385 154.707 340.112 154.707C339.561 154.707 339.067 154.525 339.067 153.542V148.741H340.857V147.377ZM343.81 159.377C345.213 159.377 346.099 158.644 346.605 157.269L350.213 147.394L348.378 147.377L346.168 154.15H346.077L343.866 147.377H342.048L345.241 156.218L345.031 156.798C344.599 157.957 343.991 158.053 343.06 157.798L342.651 159.19C342.855 159.281 343.298 159.377 343.81 159.377Z" fill="#111827"/>
<rect x="212" y="186.604" width="25" height="25" fill="#9CA3AF"/>
<path d="M270.182 205.264C272.614 205.286 274.227 203.536 274.222 201.303C274.227 199.076 272.608 197.479 270.591 197.479C269.364 197.479 268.301 198.07 267.705 199.053H267.619C267.625 196.411 268.625 194.843 270.33 194.843C271.449 194.843 272.153 195.525 272.392 196.491H274.125C273.858 194.65 272.409 193.309 270.33 193.309C267.625 193.309 265.938 195.633 265.938 199.678C265.932 203.962 268.114 205.247 270.182 205.264ZM270.176 203.786C268.824 203.786 267.835 202.65 267.835 201.343C267.841 200.042 268.875 198.906 270.216 198.906C271.545 198.906 272.523 199.979 272.517 201.326C272.523 202.701 271.506 203.786 270.176 203.786ZM280.342 205.298C283.03 205.298 284.604 203.104 284.604 199.292C284.604 195.508 283.007 193.309 280.342 193.309C277.672 193.309 276.081 195.502 276.075 199.292C276.075 203.099 277.649 205.292 280.342 205.298ZM280.342 203.781C278.768 203.781 277.82 202.201 277.82 199.292C277.825 196.394 278.774 194.798 280.342 194.798C281.905 194.798 282.859 196.394 282.859 199.292C282.859 202.201 281.911 203.781 280.342 203.781ZM292.693 202.923C292.699 204.235 293.523 205.343 295.062 205.343C296.585 205.343 297.42 204.235 297.42 202.923V202.309C297.42 200.991 296.608 199.889 295.062 199.889C293.545 199.889 292.699 200.997 292.693 202.309V202.923ZM286.841 196.264C286.841 197.576 287.67 198.684 289.21 198.684C290.727 198.684 291.568 197.582 291.562 196.264V195.65C291.568 194.332 290.75 193.229 289.21 193.229C287.699 193.229 286.841 194.332 286.841 195.65V196.264ZM287.318 205.104H288.676L296.676 193.468H295.318L287.318 205.104ZM294.017 202.309C294.023 201.656 294.307 201.025 295.062 201.025C295.847 201.025 296.091 201.656 296.091 202.309V202.923C296.091 203.576 295.824 204.207 295.062 204.207C294.29 204.207 294.023 203.57 294.017 202.923V202.309ZM288.17 195.65C288.17 195.002 288.455 194.366 289.21 194.366C289.994 194.366 290.239 194.997 290.239 195.65V196.264C290.239 196.917 289.972 197.548 289.21 197.548C288.438 197.548 288.17 196.917 288.17 196.264V195.65ZM308.03 205.104C311.575 205.104 313.626 202.906 313.626 199.269C313.626 195.65 311.575 193.468 308.149 193.468H304.263V205.104H308.03ZM306.018 203.57V195.002H308.041C310.587 195.002 311.899 196.525 311.899 199.269C311.899 202.025 310.587 203.57 307.933 203.57H306.018ZM319.435 205.281C321.338 205.281 322.685 204.343 323.071 202.923L321.463 202.633C321.156 203.457 320.418 203.877 319.452 203.877C317.997 203.877 317.02 202.934 316.974 201.252H323.179V200.65C323.179 197.497 321.293 196.264 319.315 196.264C316.884 196.264 315.281 198.116 315.281 200.798C315.281 203.508 316.861 205.281 319.435 205.281ZM316.98 199.979C317.048 198.741 317.946 197.667 319.327 197.667C320.645 197.667 321.509 198.644 321.514 199.979H316.98ZM325.2 205.104H326.859V203.747H327.001C327.308 204.303 327.933 205.275 329.524 205.275C331.638 205.275 333.172 203.582 333.172 200.758C333.172 197.928 331.615 196.264 329.507 196.264C327.888 196.264 327.303 197.252 327.001 197.792H326.899V193.468H325.2V205.104ZM326.865 200.741C326.865 198.917 327.661 197.707 329.143 197.707C330.683 197.707 331.456 199.008 331.456 200.741C331.456 202.491 330.661 203.826 329.143 203.826C327.683 203.826 326.865 202.576 326.865 200.741ZM339.153 196.377H337.364V194.286H335.665V196.377H334.386V197.741H335.665V202.894C335.659 204.479 336.869 205.247 338.21 205.218C338.75 205.212 339.114 205.11 339.312 205.036L339.006 203.633C338.892 203.656 338.682 203.707 338.409 203.707C337.858 203.707 337.364 203.525 337.364 202.542V197.741H339.153V196.377Z" fill="#111827"/>
</svg>
