<svg width="40" height="40" viewBox="0 0 40 40" fill="none" xmlns="http://www.w3.org/2000/svg">
<path d="M16.29 28.2534C23.837 28.2534 27.965 22.0004 27.965 16.5784C27.965 16.4004 27.965 16.2234 27.953 16.0484C28.7562 15.4669 29.4493 14.747 30 13.9224C29.2511 14.2544 28.4566 14.4722 27.643 14.5684C28.4996 14.0555 29.1408 13.2487 29.447 12.2984C28.6417 12.7763 27.7607 13.1131 26.842 13.2944C26.2234 12.6362 25.405 12.2002 24.5136 12.0541C23.6222 11.908 22.7075 12.0598 21.9111 12.4861C21.1147 12.9123 20.4811 13.5893 20.1083 14.4121C19.7355 15.2348 19.6444 16.1576 19.849 17.0374C18.2176 16.9556 16.6216 16.5317 15.1646 15.7932C13.7077 15.0546 12.4223 14.0179 11.392 12.7504C10.8673 13.6536 10.7066 14.7228 10.9425 15.7404C11.1785 16.7579 11.7934 17.6473 12.662 18.2274C12.0093 18.2085 11.3706 18.0329 10.8 17.7154V17.7674C10.8004 18.7147 11.1284 19.6327 11.7284 20.3658C12.3284 21.0988 13.1635 21.6018 14.092 21.7894C13.4878 21.9541 12.8539 21.9781 12.239 21.8594C12.5012 22.6749 13.0117 23.388 13.6991 23.899C14.3866 24.41 15.2166 24.6934 16.073 24.7094C15.2221 25.378 14.2478 25.8722 13.2057 26.1639C12.1637 26.4556 11.0743 26.539 10 26.4094C11.8766 27.6137 14.0602 28.2525 16.29 28.2494" fill="#9CA3AF"/>
<rect x="0.5" y="0.5" width="39" height="39" rx="5.5" stroke="#D1D5DB"/>
</svg>
