<svg width="41" height="40" viewBox="0 0 41 40" fill="none" xmlns="http://www.w3.org/2000/svg">
<path d="M30.5818 15.1594C30.4654 14.7434 30.2436 14.3644 29.9378 14.0593C29.632 13.7542 29.2526 13.5332 28.8364 13.4177C27.2739 13 20.9925 13 20.9925 13C20.9925 13 14.7231 12.99 13.1443 13.4177C12.7287 13.5337 12.35 13.7549 12.0449 14.06C11.7399 14.3651 11.5186 14.7438 11.4026 15.1594C11.1059 16.759 10.9598 18.3828 10.9661 20.0097C10.9632 21.6288 11.1094 23.2446 11.4026 24.8369C11.519 25.2527 11.7403 25.6316 12.0453 25.9373C12.3503 26.2429 12.7287 26.465 13.1443 26.5823C14.7068 27 20.9925 27 20.9925 27C20.9925 27 27.2582 27 28.8364 26.5823C29.2526 26.4655 29.6318 26.2437 29.9375 25.938C30.2431 25.6323 30.465 25.2531 30.5818 24.8369C30.8692 23.2456 31.0095 21.6273 30.9995 20.0097C31.0095 18.3814 30.8724 16.7607 30.5818 15.1594V15.1594ZM18.986 23.0076V16.9987L24.2146 20.0097L18.986 23.0076Z" fill="#9CA3AF"/>
<rect x="1.46594" y="0.5" width="39.0341" height="39" rx="5.5" stroke="#D1D5DB"/>
</svg>
