<svg width="81" height="81" viewBox="0 0 81 81" fill="none" xmlns="http://www.w3.org/2000/svg">
<circle cx="23.8364" cy="2.44282" r="1.96724" fill="#5C6BF6"/>
<circle cx="12.9018" cy="2.44282" r="1.96724" fill="#5C6BF6"/>
<circle cx="1.96724" cy="2.44282" r="1.96724" fill="#5C6BF6"/>
<circle cx="34.771" cy="2.44282" r="1.96724" fill="#5C6BF6"/>
<circle cx="45.7055" cy="2.44282" r="1.96724" fill="#5C6BF6"/>
<circle cx="56.6401" cy="2.44282" r="1.96724" fill="#5C6BF6"/>
<circle cx="67.5747" cy="2.44282" r="1.96724" fill="#5C6BF6"/>
<circle cx="78.5092" cy="2.44282" r="1.96724" fill="#5C6BF6"/>
<circle cx="23.8364" cy="13.3773" r="1.96724" fill="#5C6BF6"/>
<circle cx="12.9018" cy="13.3773" r="1.96724" fill="#5C6BF6"/>
<circle cx="1.96724" cy="13.3773" r="1.96724" fill="#5C6BF6"/>
<circle cx="34.771" cy="13.3773" r="1.96724" fill="#5C6BF6"/>
<circle cx="45.7055" cy="13.3773" r="1.96724" fill="#5C6BF6"/>
<circle cx="56.6401" cy="13.3773" r="1.96724" fill="#5C6BF6"/>
<circle cx="67.5747" cy="13.3773" r="1.96724" fill="#5C6BF6"/>
<circle cx="78.5092" cy="13.3773" r="1.96724" fill="#5C6BF6"/>
<circle cx="23.8364" cy="24.3117" r="1.96724" fill="#5C6BF6"/>
<circle cx="12.9018" cy="24.3117" r="1.96724" fill="#5C6BF6"/>
<circle cx="1.96724" cy="24.3117" r="1.96724" fill="#5C6BF6"/>
<circle cx="34.771" cy="24.3117" r="1.96724" fill="#5C6BF6"/>
<circle cx="45.7055" cy="24.3117" r="1.96724" fill="#5C6BF6"/>
<circle cx="56.6401" cy="24.3117" r="1.96724" fill="#5C6BF6"/>
<circle cx="67.5747" cy="24.3117" r="1.96724" fill="#5C6BF6"/>
<circle cx="78.5092" cy="24.3117" r="1.96724" fill="#5C6BF6"/>
<circle cx="23.8364" cy="35.2462" r="1.96724" fill="#5C6BF6"/>
<circle cx="12.9018" cy="35.2462" r="1.96724" fill="#5C6BF6"/>
<circle cx="1.96724" cy="35.2462" r="1.96724" fill="#5C6BF6"/>
<circle cx="34.771" cy="35.2462" r="1.96724" fill="#5C6BF6"/>
<circle cx="45.7055" cy="35.2462" r="1.96724" fill="#5C6BF6"/>
<circle cx="56.6401" cy="35.2462" r="1.96724" fill="#5C6BF6"/>
<circle cx="67.5747" cy="35.2462" r="1.96724" fill="#5C6BF6"/>
<circle cx="78.5092" cy="35.2462" r="1.96724" fill="#5C6BF6"/>
<circle cx="23.8364" cy="46.1806" r="1.96724" fill="#5C6BF6"/>
<circle cx="12.9018" cy="46.1806" r="1.96724" fill="#5C6BF6"/>
<circle cx="1.96724" cy="46.1806" r="1.96724" fill="#5C6BF6"/>
<circle cx="34.771" cy="46.1806" r="1.96724" fill="#5C6BF6"/>
<circle cx="45.7055" cy="46.1806" r="1.96724" fill="#5C6BF6"/>
<circle cx="56.6401" cy="46.1806" r="1.96724" fill="#5C6BF6"/>
<circle cx="67.5747" cy="46.1806" r="1.96724" fill="#5C6BF6"/>
<circle cx="78.5092" cy="46.1806" r="1.96724" fill="#5C6BF6"/>
<circle cx="23.8364" cy="57.1151" r="1.96724" fill="#5C6BF6"/>
<circle cx="12.9018" cy="57.1151" r="1.96724" fill="#5C6BF6"/>
<circle cx="1.96724" cy="57.1151" r="1.96724" fill="#5C6BF6"/>
<circle cx="34.771" cy="57.1151" r="1.96724" fill="#5C6BF6"/>
<circle cx="45.7055" cy="57.1151" r="1.96724" fill="#5C6BF6"/>
<circle cx="56.6401" cy="57.1151" r="1.96724" fill="#5C6BF6"/>
<circle cx="67.5747" cy="57.1151" r="1.96724" fill="#5C6BF6"/>
<circle cx="78.5092" cy="57.1151" r="1.96724" fill="#5C6BF6"/>
<circle cx="23.8364" cy="68.0495" r="1.96724" fill="#5C6BF6"/>
<circle cx="12.9018" cy="68.0495" r="1.96724" fill="#5C6BF6"/>
<circle cx="1.96724" cy="68.0495" r="1.96724" fill="#5C6BF6"/>
<circle cx="34.771" cy="68.0495" r="1.96724" fill="#5C6BF6"/>
<circle cx="45.7055" cy="68.0495" r="1.96724" fill="#5C6BF6"/>
<circle cx="56.6401" cy="68.0495" r="1.96724" fill="#5C6BF6"/>
<circle cx="67.5747" cy="68.0495" r="1.96724" fill="#5C6BF6"/>
<circle cx="78.5092" cy="68.0495" r="1.96724" fill="#5C6BF6"/>
<circle cx="23.8364" cy="78.984" r="1.96724" fill="#5C6BF6"/>
<circle cx="12.9018" cy="78.984" r="1.96724" fill="#5C6BF6"/>
<circle cx="1.96724" cy="78.984" r="1.96724" fill="#5C6BF6"/>
<circle cx="34.771" cy="78.984" r="1.96724" fill="#5C6BF6"/>
<circle cx="45.7055" cy="78.984" r="1.96724" fill="#5C6BF6"/>
<circle cx="56.6401" cy="78.984" r="1.96724" fill="#5C6BF6"/>
<circle cx="67.5747" cy="78.984" r="1.96724" fill="#5C6BF6"/>
<circle cx="78.5092" cy="78.984" r="1.96724" fill="#5C6BF6"/>
</svg>
