<svg width="81" height="81" viewBox="0 0 81 81" fill="none" xmlns="http://www.w3.org/2000/svg">
<circle cx="23.8364" cy="1.96724" r="1.96724" fill="#717F93"/>
<circle cx="12.9018" cy="1.96724" r="1.96724" fill="#717F93"/>
<circle cx="1.96724" cy="1.96724" r="1.96724" fill="#717F93"/>
<circle cx="34.771" cy="1.96724" r="1.96724" fill="#717F93"/>
<circle cx="45.7055" cy="1.96724" r="1.96724" fill="#717F93"/>
<circle cx="56.6401" cy="1.96724" r="1.96724" fill="#717F93"/>
<circle cx="67.5747" cy="1.96724" r="1.96724" fill="#717F93"/>
<circle cx="78.5092" cy="1.96724" r="1.96724" fill="#717F93"/>
<circle cx="23.8364" cy="12.9017" r="1.96724" fill="#717F93"/>
<circle cx="12.9018" cy="12.9017" r="1.96724" fill="#717F93"/>
<circle cx="1.96724" cy="12.9017" r="1.96724" fill="#717F93"/>
<circle cx="34.771" cy="12.9017" r="1.96724" fill="#717F93"/>
<circle cx="45.7055" cy="12.9017" r="1.96724" fill="#717F93"/>
<circle cx="56.6401" cy="12.9017" r="1.96724" fill="#717F93"/>
<circle cx="67.5747" cy="12.9017" r="1.96724" fill="#717F93"/>
<circle cx="78.5092" cy="12.9017" r="1.96724" fill="#717F93"/>
<circle cx="23.8364" cy="23.8361" r="1.96724" fill="#717F93"/>
<circle cx="12.9018" cy="23.8361" r="1.96724" fill="#717F93"/>
<circle cx="1.96724" cy="23.8361" r="1.96724" fill="#717F93"/>
<circle cx="34.771" cy="23.8361" r="1.96724" fill="#717F93"/>
<circle cx="45.7055" cy="23.8361" r="1.96724" fill="#717F93"/>
<circle cx="56.6401" cy="23.8361" r="1.96724" fill="#717F93"/>
<circle cx="67.5747" cy="23.8361" r="1.96724" fill="#717F93"/>
<circle cx="78.5092" cy="23.8361" r="1.96724" fill="#717F93"/>
<circle cx="23.8364" cy="34.7706" r="1.96724" fill="#717F93"/>
<circle cx="12.9018" cy="34.7706" r="1.96724" fill="#717F93"/>
<circle cx="1.96724" cy="34.7706" r="1.96724" fill="#717F93"/>
<circle cx="34.771" cy="34.7706" r="1.96724" fill="#717F93"/>
<circle cx="45.7055" cy="34.7706" r="1.96724" fill="#717F93"/>
<circle cx="56.6401" cy="34.7706" r="1.96724" fill="#717F93"/>
<circle cx="67.5747" cy="34.7706" r="1.96724" fill="#717F93"/>
<circle cx="78.5092" cy="34.7706" r="1.96724" fill="#717F93"/>
<circle cx="23.8364" cy="45.705" r="1.96724" fill="#717F93"/>
<circle cx="12.9018" cy="45.705" r="1.96724" fill="#717F93"/>
<circle cx="1.96724" cy="45.705" r="1.96724" fill="#717F93"/>
<circle cx="34.771" cy="45.705" r="1.96724" fill="#717F93"/>
<circle cx="45.7055" cy="45.705" r="1.96724" fill="#717F93"/>
<circle cx="56.6401" cy="45.705" r="1.96724" fill="#717F93"/>
<circle cx="67.5747" cy="45.705" r="1.96724" fill="#717F93"/>
<circle cx="78.5092" cy="45.705" r="1.96724" fill="#717F93"/>
<circle cx="23.8364" cy="56.6395" r="1.96724" fill="#717F93"/>
<circle cx="12.9018" cy="56.6395" r="1.96724" fill="#717F93"/>
<circle cx="1.96724" cy="56.6395" r="1.96724" fill="#717F93"/>
<circle cx="34.771" cy="56.6395" r="1.96724" fill="#717F93"/>
<circle cx="45.7055" cy="56.6395" r="1.96724" fill="#717F93"/>
<circle cx="56.6401" cy="56.6395" r="1.96724" fill="#717F93"/>
<circle cx="67.5747" cy="56.6395" r="1.96724" fill="#717F93"/>
<circle cx="78.5092" cy="56.6395" r="1.96724" fill="#717F93"/>
<circle cx="23.8364" cy="67.5739" r="1.96724" fill="#717F93"/>
<circle cx="12.9018" cy="67.5739" r="1.96724" fill="#717F93"/>
<circle cx="1.96724" cy="67.5739" r="1.96724" fill="#717F93"/>
<circle cx="34.771" cy="67.5739" r="1.96724" fill="#717F93"/>
<circle cx="45.7055" cy="67.5739" r="1.96724" fill="#717F93"/>
<circle cx="56.6401" cy="67.5739" r="1.96724" fill="#717F93"/>
<circle cx="67.5747" cy="67.5739" r="1.96724" fill="#717F93"/>
<circle cx="78.5092" cy="67.5739" r="1.96724" fill="#717F93"/>
<circle cx="23.8364" cy="78.5084" r="1.96724" fill="#717F93"/>
<circle cx="12.9018" cy="78.5084" r="1.96724" fill="#717F93"/>
<circle cx="1.96724" cy="78.5084" r="1.96724" fill="#717F93"/>
<circle cx="34.771" cy="78.5084" r="1.96724" fill="#717F93"/>
<circle cx="45.7055" cy="78.5084" r="1.96724" fill="#717F93"/>
<circle cx="56.6401" cy="78.5084" r="1.96724" fill="#717F93"/>
<circle cx="67.5747" cy="78.5084" r="1.96724" fill="#717F93"/>
<circle cx="78.5092" cy="78.5084" r="1.96724" fill="#717F93"/>
</svg>
