<svg width="88" height="99" viewBox="0 0 88 99" fill="none" xmlns="http://www.w3.org/2000/svg">
<path d="M4 77.8099V68.2872L41.5269 84.3636V95L4 77.8099Z" fill="#4F46E5"/>
<path d="M41.5269 69.9669V79.5289L4 63.5207V53.8512L41.5269 69.9669Z" fill="#4F46E5"/>
<path d="M4 39.3471V49.124L41.5269 65.1322V55.2479L4 39.3471Z" fill="#4F46E5"/>
<path d="M41.5269 40.5289V50.4132L4 34.4453V24.6281L41.5269 40.5289Z" fill="#4F46E5"/>
<path d="M46.1505 50.4132V40.5289L84 24.6281V34.405L46.1505 50.4132Z" fill="#4F46E5"/>
<path d="M46.1505 65.1322V55.2479L84 39.2397V49.124L46.1505 65.1322Z" fill="#4F46E5"/>
<path d="M46.1505 79.5289V69.9669L84 53.8512V63.5207L46.1505 79.5289Z" fill="#4F46E5"/>
<path d="M84 77.8099V68.2872L71.3118 73.7273L71.4624 83.5041L84 77.8099Z" fill="#4F46E5"/>
<path d="M46.1505 84.3636V95L58.8065 89.2521V78.9917L46.1505 84.3636Z" fill="#4F46E5"/>
<path d="M44.2151 34.9421L6.58065 19.1488L44.2151 4L81.7419 19.1488L44.2151 34.9421Z" fill="#4F46E5"/>
</svg>
