<svg width="20" height="20" viewBox="0 0 20 20" fill="none" xmlns="http://www.w3.org/2000/svg">
<path d="M4.66667 4.6665V4.1665H4.16667V4.6665H4.66667ZM15.3333 4.6665H15.8333V4.1665H15.3333V4.6665ZM6.31311 9.64628C6.11785 9.84155 6.11785 10.1581 6.31311 10.3534C6.50838 10.5487 6.82496 10.5487 7.02022 10.3534L6.31311 9.64628ZM8.66667 7.99984L9.02022 7.64628C8.82496 7.45102 8.50838 7.45102 8.31311 7.64628L8.66667 7.99984ZM10.6667 9.99984L10.3131 10.3534C10.5084 10.5487 10.825 10.5487 11.0202 10.3534L10.6667 9.99984ZM13.6869 7.68672C13.8821 7.49146 13.8821 7.17488 13.6869 6.97962C13.4916 6.78435 13.175 6.78435 12.9798 6.97962L13.6869 7.68672ZM6.97978 15.6463C6.78452 15.8415 6.78452 16.1581 6.97978 16.3534C7.17504 16.5487 7.49162 16.5487 7.68689 16.3534L6.97978 15.6463ZM10 13.3332L10.3536 12.9796C10.1583 12.7844 9.84171 12.7844 9.64645 12.9796L10 13.3332ZM12.3131 16.3534C12.5084 16.5487 12.825 16.5487 13.0202 16.3534C13.2155 16.1581 13.2155 15.8415 13.0202 15.6463L12.3131 16.3534ZM4 4.1665C3.72386 4.1665 3.5 4.39036 3.5 4.6665C3.5 4.94265 3.72386 5.1665 4 5.1665V4.1665ZM16 5.1665C16.2761 5.1665 16.5 4.94265 16.5 4.6665C16.5 4.39036 16.2761 4.1665 16 4.1665V5.1665ZM4.66667 5.1665H15.3333V4.1665H4.66667V5.1665ZM14.8333 4.6665V12.6665H15.8333V4.6665H14.8333ZM14.6667 12.8332H5.33333V13.8332H14.6667V12.8332ZM5.16667 12.6665V4.6665H4.16667V12.6665H5.16667ZM5.33333 12.8332C5.24129 12.8332 5.16667 12.7586 5.16667 12.6665H4.16667C4.16667 13.3108 4.689 13.8332 5.33333 13.8332V12.8332ZM14.8333 12.6665C14.8333 12.7586 14.7587 12.8332 14.6667 12.8332V13.8332C15.311 13.8332 15.8333 13.3108 15.8333 12.6665H14.8333ZM7.02022 10.3534L9.02022 8.35339L8.31311 7.64628L6.31311 9.64628L7.02022 10.3534ZM8.31311 8.35339L10.3131 10.3534L11.0202 9.64628L9.02022 7.64628L8.31311 8.35339ZM11.0202 10.3534L13.6869 7.68672L12.9798 6.97962L10.3131 9.64628L11.0202 10.3534ZM7.68689 16.3534L10.3536 13.6867L9.64645 12.9796L6.97978 15.6463L7.68689 16.3534ZM9.64645 13.6867L12.3131 16.3534L13.0202 15.6463L10.3536 12.9796L9.64645 13.6867ZM4 5.1665H16V4.1665H4V5.1665Z" fill="#4F46E5"/>
</svg>
