<svg width="1550" height="1563" viewBox="0 0 1550 1563" fill="none" xmlns="http://www.w3.org/2000/svg">
<path d="M836 1363.35V1288.72L1129.58 1414.71V1498.07L836 1363.35Z" fill="#9CA3AF"/>
<path d="M1129.58 1301.88V1376.82L836 1251.36V1175.59L1129.58 1301.88Z" fill="#9CA3AF"/>
<path d="M836 1061.92V1138.54L1129.58 1263.99V1186.53L836 1061.92Z" fill="#9CA3AF"/>
<path d="M1165.76 1263.99V1186.53L1461.86 1061.08V1138.54L1165.76 1263.99Z" fill="#9CA3AF"/>
<path d="M1165.76 1376.82V1301.88L1461.86 1175.59V1251.36L1165.76 1376.82Z" fill="#9CA3AF"/>
<path d="M1461.86 1363.35V1288.72L1362.6 1331.35L1363.78 1407.97L1461.86 1363.35Z" fill="#9CA3AF"/>
<path d="M1165.76 1414.71V1498.07L1264.77 1453.02V1372.61L1165.76 1414.71Z" fill="#9CA3AF"/>
<path d="M1149.43 569.492L855 445.72L1149.43 327L1443.01 445.72L1149.43 569.492Z" fill="#F3F4F6"/>
<path d="M1129.58 954.062V1029L836 903.543V827.764L1129.58 954.062Z" fill="#D1D5DB"/>
<path d="M836 714.096V790.717L1129.58 916.173V838.71L836 714.096Z" fill="#D1D5DB"/>
<path d="M1165.76 916.173V838.71L1461.86 713.254V790.717L1165.76 916.173Z" fill="#D1D5DB"/>
<path d="M1165.76 1029V954.062L1461.86 827.764V903.543L1165.76 1029Z" fill="#D1D5DB"/>
<g opacity="0.6">
<path d="M1129.58 1068.61V1146.08L836 1020.94V943.999L1129.58 1068.61Z" fill="#6EDFA5"/>
<path d="M1165.76 1146.08V1068.61L1461.86 943.999V1020.62L1165.76 1146.08Z" fill="#6EDFA5"/>
</g>
<path d="M1129.58 723.318V798.254L836 672.799V597.02L1129.58 723.318Z" fill="#F3F4F6"/>
<path d="M836 483.352V559.972L1129.58 685.428V607.966L836 483.352Z" fill="#F3F4F6"/>
<path d="M1165.76 685.428V607.966L1461.86 482.51V559.972L1165.76 685.428Z" fill="#F3F4F6"/>
<path d="M1165.76 798.254V723.318L1461.86 597.02V672.799L1165.76 798.254Z" fill="#F3F4F6"/>
<rect x="89" y="483" width="700" height="189" fill="#F3F4F6"/>
<rect x="89" y="714" width="700" height="188" fill="#D1D5DB"/>
<rect x="89" y="1062" width="700" height="301" fill="#9CA3AF"/>
<rect opacity="0.6" x="89" y="944" width="700" height="77" fill="#6EDFA5"/>
<path d="M146.448 590V584.96L156.384 575.96C157.008 575.36 157.512 574.748 157.896 574.124C158.28 573.5 158.472 572.804 158.472 572.036C158.472 571.124 158.184 570.392 157.608 569.84C157.032 569.264 156.264 568.976 155.304 568.976C154.296 568.976 153.468 569.336 152.82 570.056C152.196 570.752 151.824 571.676 151.704 572.828L145.908 572.036C146.052 570.74 146.4 569.588 146.952 568.58C147.528 567.572 148.248 566.72 149.112 566.024C149.976 565.304 150.96 564.764 152.064 564.404C153.192 564.02 154.38 563.828 155.628 563.828C156.804 563.828 157.944 563.984 159.048 564.296C160.152 564.608 161.136 565.088 162 565.736C162.864 566.384 163.548 567.2 164.052 568.184C164.58 569.168 164.844 570.32 164.844 571.64C164.844 572.552 164.724 573.38 164.484 574.124C164.244 574.844 163.908 575.516 163.476 576.14C163.068 576.764 162.588 577.352 162.036 577.904C161.508 578.432 160.956 578.96 160.38 579.488L154.476 584.744H164.88V590H146.448ZM188.873 577.184C188.873 578.984 188.693 580.7 188.333 582.332C187.973 583.964 187.397 585.404 186.605 586.652C185.813 587.876 184.781 588.86 183.509 589.604C182.261 590.324 180.737 590.684 178.937 590.684C177.137 590.684 175.601 590.324 174.329 589.604C173.057 588.86 172.013 587.876 171.197 586.652C170.405 585.404 169.829 583.964 169.469 582.332C169.109 580.7 168.929 578.984 168.929 577.184C168.929 575.384 169.109 573.68 169.469 572.072C169.829 570.44 170.405 569.024 171.197 567.824C172.013 566.6 173.057 565.628 174.329 564.908C175.601 564.188 177.137 563.828 178.937 563.828C180.737 563.828 182.261 564.188 183.509 564.908C184.781 565.628 185.813 566.6 186.605 567.824C187.397 569.024 187.973 570.44 188.333 572.072C188.693 573.68 188.873 575.384 188.873 577.184ZM182.681 577.184C182.681 576.392 182.633 575.516 182.537 574.556C182.441 573.596 182.261 572.708 181.997 571.892C181.733 571.052 181.349 570.356 180.845 569.804C180.365 569.228 179.729 568.94 178.937 568.94C178.145 568.94 177.497 569.228 176.993 569.804C176.489 570.356 176.093 571.052 175.805 571.892C175.541 572.708 175.361 573.596 175.265 574.556C175.169 575.516 175.121 576.392 175.121 577.184C175.121 578 175.169 578.9 175.265 579.884C175.361 580.844 175.541 581.744 175.805 582.584C176.093 583.4 176.489 584.096 176.993 584.672C177.497 585.224 178.145 585.5 178.937 585.5C179.729 585.5 180.365 585.224 180.845 584.672C181.349 584.096 181.733 583.4 181.997 582.584C182.261 581.744 182.441 580.844 182.537 579.884C182.633 578.9 182.681 578 182.681 577.184ZM222.551 583.628C222.551 584.564 222.371 585.452 222.011 586.292C221.651 587.108 221.159 587.828 220.535 588.452C219.935 589.052 219.215 589.532 218.375 589.892C217.535 590.252 216.647 590.432 215.711 590.432C214.775 590.432 213.887 590.252 213.047 589.892C212.207 589.532 211.475 589.052 210.851 588.452C210.251 587.828 209.771 587.108 209.411 586.292C209.051 585.452 208.871 584.564 208.871 583.628C208.871 582.692 209.051 581.816 209.411 581C209.771 580.16 210.251 579.44 210.851 578.84C211.475 578.216 212.207 577.724 213.047 577.364C213.887 577.004 214.775 576.824 215.711 576.824C216.647 576.824 217.535 577.004 218.375 577.364C219.215 577.724 219.935 578.216 220.535 578.84C221.159 579.44 221.651 580.16 222.011 581C222.371 581.816 222.551 582.692 222.551 583.628ZM218.519 583.628C218.519 583.244 218.435 582.884 218.267 582.548C218.123 582.188 217.919 581.888 217.655 581.648C217.415 581.384 217.127 581.18 216.791 581.036C216.455 580.892 216.095 580.82 215.711 580.82C214.943 580.82 214.283 581.096 213.731 581.648C213.179 582.2 212.903 582.86 212.903 583.628C212.903 584.396 213.179 585.056 213.731 585.608C214.283 586.136 214.943 586.4 215.711 586.4C216.095 586.4 216.455 586.328 216.791 586.184C217.127 586.04 217.415 585.848 217.655 585.608C217.919 585.344 218.123 585.044 218.267 584.708C218.435 584.372 218.519 584.012 218.519 583.628ZM205.271 570.884C205.271 571.82 205.091 572.708 204.731 573.548C204.371 574.364 203.879 575.084 203.255 575.708C202.655 576.308 201.935 576.788 201.095 577.148C200.255 577.508 199.367 577.688 198.431 577.688C197.495 577.688 196.607 577.508 195.767 577.148C194.927 576.788 194.195 576.308 193.571 575.708C192.971 575.084 192.491 574.364 192.131 573.548C191.771 572.708 191.591 571.82 191.591 570.884C191.591 569.924 191.771 569.036 192.131 568.22C192.491 567.38 192.971 566.66 193.571 566.06C194.195 565.436 194.927 564.956 195.767 564.62C196.607 564.26 197.495 564.08 198.431 564.08C199.367 564.08 200.255 564.26 201.095 564.62C201.935 564.956 202.655 565.436 203.255 566.06C203.879 566.66 204.371 567.38 204.731 568.22C205.091 569.036 205.271 569.924 205.271 570.884ZM201.239 570.884C201.239 570.116 200.963 569.456 200.411 568.904C199.859 568.352 199.199 568.076 198.431 568.076C197.663 568.076 197.003 568.352 196.451 568.904C195.899 569.456 195.623 570.116 195.623 570.884C195.623 571.652 195.899 572.312 196.451 572.864C197.003 573.392 197.663 573.656 198.431 573.656C199.199 573.656 199.859 573.392 200.411 572.864C200.963 572.312 201.239 571.652 201.239 570.884ZM201.203 591.224L197.999 589.64L212.867 563.36L216.215 564.98L201.203 591.224ZM257.188 585.896C256.756 586.544 256.228 587.156 255.604 587.732C255.004 588.308 254.296 588.812 253.48 589.244C252.688 589.676 251.8 590.012 250.816 590.252C249.856 590.516 248.8 590.648 247.648 590.648C245.728 590.648 243.952 590.312 242.32 589.64C240.688 588.968 239.284 588.044 238.108 586.868C236.932 585.668 236.008 584.252 235.336 582.62C234.688 580.988 234.364 579.2 234.364 577.256C234.364 575.312 234.7 573.524 235.372 571.892C236.044 570.26 236.968 568.856 238.144 567.68C239.344 566.48 240.748 565.544 242.356 564.872C243.988 564.2 245.752 563.864 247.648 563.864C248.584 563.864 249.496 563.96 250.384 564.152C251.296 564.344 252.148 564.62 252.94 564.98C253.732 565.316 254.452 565.736 255.1 566.24C255.748 566.72 256.288 567.272 256.72 567.896L254.56 569.48C254.296 569.072 253.936 568.664 253.48 568.256C253.048 567.848 252.532 567.488 251.932 567.176C251.332 566.864 250.672 566.612 249.952 566.42C249.256 566.228 248.5 566.132 247.684 566.132C246.028 566.132 244.54 566.432 243.22 567.032C241.924 567.632 240.82 568.448 239.908 569.48C238.996 570.488 238.3 571.664 237.82 573.008C237.34 574.352 237.1 575.768 237.1 577.256C237.1 578.744 237.34 580.16 237.82 581.504C238.324 582.848 239.032 584.036 239.944 585.068C240.856 586.076 241.96 586.88 243.256 587.48C244.576 588.08 246.052 588.38 247.684 588.38C249.148 588.38 250.54 588.08 251.86 587.48C253.18 586.88 254.284 585.92 255.172 584.6L257.188 585.896ZM277.816 581.576C277.816 582.848 277.588 584.024 277.132 585.104C276.7 586.184 276.088 587.12 275.296 587.912C274.504 588.704 273.556 589.328 272.452 589.784C271.348 590.216 270.136 590.432 268.816 590.432C267.52 590.432 266.32 590.216 265.216 589.784C264.112 589.328 263.164 588.704 262.372 587.912C261.58 587.12 260.956 586.184 260.5 585.104C260.068 584.024 259.852 582.848 259.852 581.576C259.852 580.304 260.068 579.128 260.5 578.048C260.956 576.968 261.58 576.032 262.372 575.24C263.164 574.448 264.112 573.836 265.216 573.404C266.32 572.948 267.52 572.72 268.816 572.72C270.136 572.72 271.348 572.948 272.452 573.404C273.556 573.836 274.504 574.448 275.296 575.24C276.088 576.032 276.7 576.968 277.132 578.048C277.588 579.128 277.816 580.304 277.816 581.576ZM275.224 581.576C275.224 580.64 275.068 579.764 274.756 578.948C274.468 578.108 274.048 577.388 273.496 576.788C272.944 576.164 272.272 575.672 271.48 575.312C270.688 574.952 269.8 574.772 268.816 574.772C267.832 574.772 266.944 574.952 266.152 575.312C265.384 575.672 264.724 576.164 264.172 576.788C263.62 577.388 263.188 578.108 262.876 578.948C262.588 579.764 262.444 580.64 262.444 581.576C262.444 582.512 262.588 583.4 262.876 584.24C263.188 585.056 263.62 585.776 264.172 586.4C264.724 587 265.384 587.48 266.152 587.84C266.944 588.176 267.832 588.344 268.816 588.344C269.8 588.344 270.688 588.176 271.48 587.84C272.272 587.48 272.944 587 273.496 586.4C274.048 585.776 274.468 585.056 274.756 584.24C275.068 583.4 275.224 582.512 275.224 581.576ZM285.496 576.032C285.976 575.048 286.708 574.256 287.692 573.656C288.7 573.032 289.816 572.72 291.04 572.72C291.496 572.72 291.964 572.768 292.444 572.864C292.948 572.96 293.428 573.152 293.884 573.44C294.364 573.704 294.796 574.064 295.18 574.52C295.588 574.976 295.936 575.564 296.224 576.284C296.8 575.132 297.58 574.256 298.564 573.656C299.572 573.032 300.76 572.72 302.128 572.72C304.264 572.72 305.86 573.356 306.916 574.628C307.996 575.9 308.536 577.58 308.536 579.668V590H306.088V580.676C306.088 578.9 305.752 577.472 305.08 576.392C304.432 575.312 303.316 574.772 301.732 574.772C300.844 574.772 300.088 574.952 299.464 575.312C298.864 575.672 298.372 576.152 297.988 576.752C297.628 577.328 297.364 577.988 297.196 578.732C297.028 579.476 296.944 580.244 296.944 581.036V590H294.496V580.172C294.496 579.356 294.436 578.612 294.316 577.94C294.196 577.268 293.98 576.704 293.668 576.248C293.38 575.768 292.972 575.408 292.444 575.168C291.916 574.904 291.244 574.772 290.428 574.772C289.852 574.772 289.264 574.904 288.664 575.168C288.088 575.432 287.56 575.84 287.08 576.392C286.624 576.92 286.252 577.604 285.964 578.444C285.676 579.26 285.532 580.232 285.532 581.36V590H283.084V576.86C283.084 576.404 283.072 575.816 283.048 575.096C283.024 574.376 282.988 573.728 282.94 573.152H285.28C285.328 573.608 285.364 574.112 285.388 574.664C285.412 575.216 285.424 575.672 285.424 576.032H285.496ZM317.277 576.032C317.757 575.048 318.489 574.256 319.473 573.656C320.481 573.032 321.597 572.72 322.821 572.72C323.277 572.72 323.745 572.768 324.225 572.864C324.729 572.96 325.209 573.152 325.665 573.44C326.145 573.704 326.577 574.064 326.961 574.52C327.369 574.976 327.717 575.564 328.005 576.284C328.581 575.132 329.361 574.256 330.345 573.656C331.353 573.032 332.541 572.72 333.909 572.72C336.045 572.72 337.641 573.356 338.697 574.628C339.777 575.9 340.317 577.58 340.317 579.668V590H337.869V580.676C337.869 578.9 337.533 577.472 336.861 576.392C336.213 575.312 335.097 574.772 333.513 574.772C332.625 574.772 331.869 574.952 331.245 575.312C330.645 575.672 330.153 576.152 329.769 576.752C329.409 577.328 329.145 577.988 328.977 578.732C328.809 579.476 328.725 580.244 328.725 581.036V590H326.277V580.172C326.277 579.356 326.217 578.612 326.097 577.94C325.977 577.268 325.761 576.704 325.449 576.248C325.161 575.768 324.753 575.408 324.225 575.168C323.697 574.904 323.025 574.772 322.209 574.772C321.633 574.772 321.045 574.904 320.445 575.168C319.869 575.432 319.341 575.84 318.861 576.392C318.405 576.92 318.033 577.604 317.745 578.444C317.457 579.26 317.313 580.232 317.313 581.36V590H314.865V576.86C314.865 576.404 314.853 575.816 314.829 575.096C314.805 574.376 314.769 573.728 314.721 573.152H317.061C317.109 573.608 317.145 574.112 317.169 574.664C317.193 575.216 317.205 575.672 317.205 576.032H317.277ZM363.386 581.576C363.386 582.848 363.158 584.024 362.702 585.104C362.27 586.184 361.658 587.12 360.866 587.912C360.074 588.704 359.126 589.328 358.022 589.784C356.918 590.216 355.706 590.432 354.386 590.432C353.09 590.432 351.89 590.216 350.786 589.784C349.682 589.328 348.734 588.704 347.942 587.912C347.15 587.12 346.526 586.184 346.07 585.104C345.638 584.024 345.422 582.848 345.422 581.576C345.422 580.304 345.638 579.128 346.07 578.048C346.526 576.968 347.15 576.032 347.942 575.24C348.734 574.448 349.682 573.836 350.786 573.404C351.89 572.948 353.09 572.72 354.386 572.72C355.706 572.72 356.918 572.948 358.022 573.404C359.126 573.836 360.074 574.448 360.866 575.24C361.658 576.032 362.27 576.968 362.702 578.048C363.158 579.128 363.386 580.304 363.386 581.576ZM360.794 581.576C360.794 580.64 360.638 579.764 360.326 578.948C360.038 578.108 359.618 577.388 359.066 576.788C358.514 576.164 357.842 575.672 357.05 575.312C356.258 574.952 355.37 574.772 354.386 574.772C353.402 574.772 352.514 574.952 351.722 575.312C350.954 575.672 350.294 576.164 349.742 576.788C349.19 577.388 348.758 578.108 348.446 578.948C348.158 579.764 348.014 580.64 348.014 581.576C348.014 582.512 348.158 583.4 348.446 584.24C348.758 585.056 349.19 585.776 349.742 586.4C350.294 587 350.954 587.48 351.722 587.84C352.514 588.176 353.402 588.344 354.386 588.344C355.37 588.344 356.258 588.176 357.05 587.84C357.842 587.48 358.514 587 359.066 586.4C359.618 585.776 360.038 585.056 360.326 584.24C360.638 583.4 360.794 582.512 360.794 581.576ZM370.85 573.152C370.898 573.608 370.934 574.112 370.958 574.664C370.982 575.216 370.994 575.672 370.994 576.032H371.066C371.546 575.048 372.326 574.256 373.406 573.656C374.486 573.032 375.626 572.72 376.826 572.72C378.962 572.72 380.558 573.356 381.614 574.628C382.694 575.9 383.234 577.58 383.234 579.668V590H380.786V580.676C380.786 579.788 380.714 578.984 380.57 578.264C380.426 577.544 380.174 576.932 379.814 576.428C379.478 575.9 379.01 575.492 378.41 575.204C377.834 574.916 377.102 574.772 376.214 574.772C375.566 574.772 374.93 574.904 374.306 575.168C373.706 575.432 373.166 575.84 372.686 576.392C372.206 576.92 371.822 577.604 371.534 578.444C371.246 579.26 371.102 580.232 371.102 581.36V590H368.654V576.86C368.654 576.404 368.642 575.816 368.618 575.096C368.594 574.376 368.558 573.728 368.51 573.152H370.85ZM401.308 587.696H414.952V590H398.716V564.512H414.52V566.816H401.308V575.6H413.656V577.868H401.308V587.696ZM433.701 587.156C433.005 588.212 432.069 589.028 430.893 589.604C429.741 590.156 428.565 590.432 427.365 590.432C426.045 590.432 424.845 590.204 423.765 589.748C422.709 589.292 421.797 588.668 421.029 587.876C420.285 587.084 419.697 586.148 419.265 585.068C418.857 583.988 418.653 582.824 418.653 581.576C418.653 580.328 418.857 579.164 419.265 578.084C419.697 577.004 420.285 576.068 421.029 575.276C421.797 574.484 422.709 573.86 423.765 573.404C424.845 572.948 426.045 572.72 427.365 572.72C428.565 572.72 429.741 573.008 430.893 573.584C432.069 574.136 433.005 574.964 433.701 576.068H433.809V573.152H436.257V598.64H433.809V587.156H433.701ZM421.245 581.576C421.245 582.512 421.389 583.4 421.677 584.24C421.965 585.056 422.373 585.776 422.901 586.4C423.453 587 424.125 587.48 424.917 587.84C425.709 588.176 426.609 588.344 427.617 588.344C428.553 588.344 429.417 588.176 430.209 587.84C431.001 587.48 431.685 587 432.261 586.4C432.837 585.8 433.281 585.092 433.593 584.276C433.929 583.436 434.097 582.536 434.097 581.576C434.097 580.616 433.929 579.728 433.593 578.912C433.281 578.072 432.837 577.352 432.261 576.752C431.685 576.128 431.001 575.648 430.209 575.312C429.417 574.952 428.553 574.772 427.617 574.772C426.609 574.772 425.709 574.952 424.917 575.312C424.125 575.672 423.453 576.164 422.901 576.788C422.373 577.388 421.965 578.108 421.677 578.948C421.389 579.764 421.245 580.64 421.245 581.576ZM454.968 590C454.92 589.544 454.884 589.04 454.86 588.488C454.836 587.936 454.824 587.48 454.824 587.12H454.752C454.272 588.104 453.492 588.908 452.412 589.532C451.332 590.132 450.192 590.432 448.992 590.432C446.856 590.432 445.248 589.796 444.168 588.524C443.112 587.252 442.584 585.572 442.584 583.484V573.152H445.032V582.476C445.032 583.364 445.104 584.168 445.248 584.888C445.392 585.608 445.632 586.232 445.968 586.76C446.328 587.264 446.796 587.66 447.372 587.948C447.972 588.236 448.716 588.38 449.604 588.38C450.252 588.38 450.876 588.248 451.476 587.984C452.1 587.72 452.652 587.324 453.132 586.796C453.612 586.244 453.996 585.56 454.284 584.744C454.572 583.904 454.716 582.92 454.716 581.792V573.152H457.164V586.292C457.164 586.748 457.176 587.336 457.2 588.056C457.224 588.776 457.26 589.424 457.308 590H454.968ZM466.13 590H463.682V573.152H466.13V590ZM466.634 566.672C466.634 567.176 466.454 567.596 466.094 567.932C465.734 568.244 465.338 568.4 464.906 568.4C464.474 568.4 464.078 568.244 463.718 567.932C463.358 567.596 463.178 567.176 463.178 566.672C463.178 566.168 463.358 565.76 463.718 565.448C464.078 565.112 464.474 564.944 464.906 564.944C465.338 564.944 465.734 565.112 466.094 565.448C466.454 565.76 466.634 566.168 466.634 566.672ZM480.242 575.204H475.49V585.032C475.49 585.656 475.55 586.172 475.67 586.58C475.79 586.988 475.958 587.312 476.174 587.552C476.414 587.768 476.69 587.924 477.002 588.02C477.314 588.092 477.65 588.128 478.01 588.128C478.346 588.128 478.694 588.08 479.054 587.984C479.438 587.888 479.798 587.756 480.134 587.588L480.242 589.712C479.81 589.88 479.354 590 478.874 590.072C478.418 590.168 477.914 590.216 477.362 590.216C476.906 590.216 476.426 590.156 475.922 590.036C475.418 589.916 474.95 589.688 474.518 589.352C474.086 589.016 473.726 588.56 473.438 587.984C473.174 587.408 473.042 586.652 473.042 585.716V575.204H469.55V573.152H473.042V568.4H475.49V573.152H480.242V575.204ZM489.868 587.372H489.94L495.16 573.152H497.824L489.436 594.356C488.932 595.652 488.284 596.684 487.492 597.452C486.724 598.244 485.608 598.64 484.144 598.64C483.4 598.64 482.668 598.568 481.948 598.424L482.2 596.192C482.776 596.384 483.376 596.48 484 596.48C484.84 596.48 485.5 596.216 485.98 595.688C486.46 595.184 486.88 594.452 487.24 593.492L488.608 589.964L481.408 573.152H484.144L489.868 587.372Z" fill="black"/>
<path d="M154.188 999V980.28L149.436 983.952L146.304 979.668L154.692 973.512H160.236V999H154.188ZM188.873 986.184C188.873 987.984 188.693 989.7 188.333 991.332C187.973 992.964 187.397 994.404 186.605 995.652C185.813 996.876 184.781 997.86 183.509 998.604C182.261 999.324 180.737 999.684 178.937 999.684C177.137 999.684 175.601 999.324 174.329 998.604C173.057 997.86 172.013 996.876 171.197 995.652C170.405 994.404 169.829 992.964 169.469 991.332C169.109 989.7 168.929 987.984 168.929 986.184C168.929 984.384 169.109 982.68 169.469 981.072C169.829 979.44 170.405 978.024 171.197 976.824C172.013 975.6 173.057 974.628 174.329 973.908C175.601 973.188 177.137 972.828 178.937 972.828C180.737 972.828 182.261 973.188 183.509 973.908C184.781 974.628 185.813 975.6 186.605 976.824C187.397 978.024 187.973 979.44 188.333 981.072C188.693 982.68 188.873 984.384 188.873 986.184ZM182.681 986.184C182.681 985.392 182.633 984.516 182.537 983.556C182.441 982.596 182.261 981.708 181.997 980.892C181.733 980.052 181.349 979.356 180.845 978.804C180.365 978.228 179.729 977.94 178.937 977.94C178.145 977.94 177.497 978.228 176.993 978.804C176.489 979.356 176.093 980.052 175.805 980.892C175.541 981.708 175.361 982.596 175.265 983.556C175.169 984.516 175.121 985.392 175.121 986.184C175.121 987 175.169 987.9 175.265 988.884C175.361 989.844 175.541 990.744 175.805 991.584C176.093 992.4 176.489 993.096 176.993 993.672C177.497 994.224 178.145 994.5 178.937 994.5C179.729 994.5 180.365 994.224 180.845 993.672C181.349 993.096 181.733 992.4 181.997 991.584C182.261 990.744 182.441 989.844 182.537 988.884C182.633 987.9 182.681 987 182.681 986.184ZM222.551 992.628C222.551 993.564 222.371 994.452 222.011 995.292C221.651 996.108 221.159 996.828 220.535 997.452C219.935 998.052 219.215 998.532 218.375 998.892C217.535 999.252 216.647 999.432 215.711 999.432C214.775 999.432 213.887 999.252 213.047 998.892C212.207 998.532 211.475 998.052 210.851 997.452C210.251 996.828 209.771 996.108 209.411 995.292C209.051 994.452 208.871 993.564 208.871 992.628C208.871 991.692 209.051 990.816 209.411 990C209.771 989.16 210.251 988.44 210.851 987.84C211.475 987.216 212.207 986.724 213.047 986.364C213.887 986.004 214.775 985.824 215.711 985.824C216.647 985.824 217.535 986.004 218.375 986.364C219.215 986.724 219.935 987.216 220.535 987.84C221.159 988.44 221.651 989.16 222.011 990C222.371 990.816 222.551 991.692 222.551 992.628ZM218.519 992.628C218.519 992.244 218.435 991.884 218.267 991.548C218.123 991.188 217.919 990.888 217.655 990.648C217.415 990.384 217.127 990.18 216.791 990.036C216.455 989.892 216.095 989.82 215.711 989.82C214.943 989.82 214.283 990.096 213.731 990.648C213.179 991.2 212.903 991.86 212.903 992.628C212.903 993.396 213.179 994.056 213.731 994.608C214.283 995.136 214.943 995.4 215.711 995.4C216.095 995.4 216.455 995.328 216.791 995.184C217.127 995.04 217.415 994.848 217.655 994.608C217.919 994.344 218.123 994.044 218.267 993.708C218.435 993.372 218.519 993.012 218.519 992.628ZM205.271 979.884C205.271 980.82 205.091 981.708 204.731 982.548C204.371 983.364 203.879 984.084 203.255 984.708C202.655 985.308 201.935 985.788 201.095 986.148C200.255 986.508 199.367 986.688 198.431 986.688C197.495 986.688 196.607 986.508 195.767 986.148C194.927 985.788 194.195 985.308 193.571 984.708C192.971 984.084 192.491 983.364 192.131 982.548C191.771 981.708 191.591 980.82 191.591 979.884C191.591 978.924 191.771 978.036 192.131 977.22C192.491 976.38 192.971 975.66 193.571 975.06C194.195 974.436 194.927 973.956 195.767 973.62C196.607 973.26 197.495 973.08 198.431 973.08C199.367 973.08 200.255 973.26 201.095 973.62C201.935 973.956 202.655 974.436 203.255 975.06C203.879 975.66 204.371 976.38 204.731 977.22C205.091 978.036 205.271 978.924 205.271 979.884ZM201.239 979.884C201.239 979.116 200.963 978.456 200.411 977.904C199.859 977.352 199.199 977.076 198.431 977.076C197.663 977.076 197.003 977.352 196.451 977.904C195.899 978.456 195.623 979.116 195.623 979.884C195.623 980.652 195.899 981.312 196.451 981.864C197.003 982.392 197.663 982.656 198.431 982.656C199.199 982.656 199.859 982.392 200.411 981.864C200.963 981.312 201.239 980.652 201.239 979.884ZM201.203 1000.22L197.999 998.64L212.867 972.36L216.215 973.98L201.203 1000.22ZM243.025 999H240.433V975.816H231.901V973.512H251.557V975.816H243.025V999ZM268.535 990.576C268.535 991.848 268.307 993.024 267.851 994.104C267.419 995.184 266.807 996.12 266.015 996.912C265.223 997.704 264.275 998.328 263.171 998.784C262.067 999.216 260.855 999.432 259.535 999.432C258.239 999.432 257.039 999.216 255.935 998.784C254.831 998.328 253.883 997.704 253.091 996.912C252.299 996.12 251.675 995.184 251.219 994.104C250.787 993.024 250.571 991.848 250.571 990.576C250.571 989.304 250.787 988.128 251.219 987.048C251.675 985.968 252.299 985.032 253.091 984.24C253.883 983.448 254.831 982.836 255.935 982.404C257.039 981.948 258.239 981.72 259.535 981.72C260.855 981.72 262.067 981.948 263.171 982.404C264.275 982.836 265.223 983.448 266.015 984.24C266.807 985.032 267.419 985.968 267.851 987.048C268.307 988.128 268.535 989.304 268.535 990.576ZM265.943 990.576C265.943 989.64 265.787 988.764 265.475 987.948C265.187 987.108 264.767 986.388 264.215 985.788C263.663 985.164 262.991 984.672 262.199 984.312C261.407 983.952 260.519 983.772 259.535 983.772C258.551 983.772 257.663 983.952 256.871 984.312C256.103 984.672 255.443 985.164 254.891 985.788C254.339 986.388 253.907 987.108 253.595 987.948C253.307 988.764 253.163 989.64 253.163 990.576C253.163 991.512 253.307 992.4 253.595 993.24C253.907 994.056 254.339 994.776 254.891 995.4C255.443 996 256.103 996.48 256.871 996.84C257.663 997.176 258.551 997.344 259.535 997.344C260.519 997.344 261.407 997.176 262.199 996.84C262.991 996.48 263.663 996 264.215 995.4C264.767 994.776 265.187 994.056 265.475 993.24C265.787 992.4 265.943 991.512 265.943 990.576ZM276.323 989.748H276.431L284.207 982.152H287.735L279.239 989.856L288.599 999H284.999L276.431 990.144H276.323V999H273.875V971.784H276.323V989.748ZM304.373 989.28C304.301 987.696 303.785 986.388 302.825 985.356C301.889 984.3 300.545 983.772 298.793 983.772C297.977 983.772 297.221 983.928 296.525 984.24C295.829 984.528 295.217 984.936 294.689 985.464C294.161 985.968 293.741 986.556 293.429 987.228C293.117 987.876 292.937 988.56 292.889 989.28H304.373ZM306.857 990.072C306.857 990.24 306.857 990.42 306.857 990.612C306.857 990.804 306.845 991.008 306.821 991.224H292.853C292.877 992.064 293.045 992.856 293.357 993.6C293.669 994.344 294.101 994.992 294.653 995.544C295.205 996.096 295.853 996.54 296.597 996.876C297.341 997.188 298.145 997.344 299.009 997.344C300.281 997.344 301.373 997.056 302.285 996.48C303.221 995.88 303.929 995.196 304.409 994.428L306.245 995.868C305.237 997.14 304.121 998.052 302.897 998.604C301.697 999.156 300.401 999.432 299.009 999.432C297.761 999.432 296.597 999.216 295.517 998.784C294.461 998.328 293.549 997.704 292.781 996.912C292.013 996.12 291.401 995.184 290.945 994.104C290.513 993.024 290.297 991.848 290.297 990.576C290.297 989.304 290.513 988.128 290.945 987.048C291.377 985.968 291.977 985.032 292.745 984.24C293.513 983.448 294.413 982.836 295.445 982.404C296.477 981.948 297.593 981.72 298.793 981.72C300.113 981.72 301.277 981.948 302.285 982.404C303.293 982.836 304.133 983.436 304.805 984.204C305.477 984.948 305.981 985.824 306.317 986.832C306.677 987.84 306.857 988.92 306.857 990.072ZM314.319 982.152C314.367 982.608 314.403 983.112 314.427 983.664C314.451 984.216 314.463 984.672 314.463 985.032H314.535C315.015 984.048 315.795 983.256 316.875 982.656C317.955 982.032 319.095 981.72 320.295 981.72C322.431 981.72 324.027 982.356 325.083 983.628C326.163 984.9 326.703 986.58 326.703 988.668V999H324.255V989.676C324.255 988.788 324.183 987.984 324.039 987.264C323.895 986.544 323.643 985.932 323.283 985.428C322.947 984.9 322.479 984.492 321.879 984.204C321.303 983.916 320.571 983.772 319.683 983.772C319.035 983.772 318.399 983.904 317.775 984.168C317.175 984.432 316.635 984.84 316.155 985.392C315.675 985.92 315.291 986.604 315.003 987.444C314.715 988.26 314.571 989.232 314.571 990.36V999H312.123V985.86C312.123 985.404 312.111 984.816 312.087 984.096C312.063 983.376 312.027 982.728 311.979 982.152H314.319ZM335.525 999H333.077V982.152H335.525V999ZM336.029 975.672C336.029 976.176 335.849 976.596 335.489 976.932C335.129 977.244 334.733 977.4 334.301 977.4C333.869 977.4 333.473 977.244 333.113 976.932C332.753 976.596 332.573 976.176 332.573 975.672C332.573 975.168 332.753 974.76 333.113 974.448C333.473 974.112 333.869 973.944 334.301 973.944C334.733 973.944 335.129 974.112 335.489 974.448C335.849 974.76 336.029 975.168 336.029 975.672ZM353.237 983.88L343.157 996.876H353.597V999H339.917V997.272L349.961 984.204H340.421V982.152H353.237V983.88ZM368.587 988.128C368.587 986.664 368.203 985.572 367.435 984.852C366.667 984.132 365.551 983.772 364.087 983.772C363.079 983.772 362.143 983.952 361.279 984.312C360.415 984.672 359.683 985.152 359.083 985.752L357.715 984.132C358.411 983.436 359.323 982.86 360.451 982.404C361.603 981.948 362.899 981.72 364.339 981.72C365.251 981.72 366.103 981.852 366.895 982.116C367.687 982.356 368.383 982.728 368.983 983.232C369.583 983.736 370.051 984.372 370.387 985.14C370.723 985.908 370.891 986.808 370.891 987.84V995.22C370.891 995.868 370.915 996.54 370.963 997.236C371.011 997.932 371.083 998.52 371.179 999H368.983C368.911 998.592 368.851 998.148 368.803 997.668C368.755 997.188 368.731 996.72 368.731 996.264H368.659C367.891 997.392 367.015 998.208 366.031 998.712C365.071 999.192 363.907 999.432 362.539 999.432C361.891 999.432 361.219 999.336 360.523 999.144C359.851 998.976 359.227 998.688 358.651 998.28C358.099 997.872 357.631 997.344 357.247 996.696C356.887 996.048 356.707 995.256 356.707 994.32C356.707 993.024 357.031 992.004 357.679 991.26C358.351 990.492 359.239 989.928 360.343 989.568C361.447 989.184 362.707 988.944 364.123 988.848C365.563 988.728 367.051 988.668 368.587 988.668V988.128ZM367.867 990.576C366.859 990.576 365.839 990.624 364.807 990.72C363.799 990.792 362.875 990.96 362.035 991.224C361.219 991.464 360.547 991.824 360.019 992.304C359.491 992.784 359.227 993.42 359.227 994.212C359.227 994.812 359.335 995.316 359.551 995.724C359.791 996.132 360.103 996.468 360.487 996.732C360.871 996.972 361.291 997.152 361.747 997.272C362.227 997.368 362.707 997.416 363.187 997.416C364.051 997.416 364.819 997.272 365.491 996.984C366.163 996.672 366.727 996.264 367.183 995.76C367.639 995.232 367.987 994.632 368.227 993.96C368.467 993.288 368.587 992.58 368.587 991.836V990.576H367.867ZM384.441 984.204H379.689V994.032C379.689 994.656 379.749 995.172 379.869 995.58C379.989 995.988 380.157 996.312 380.373 996.552C380.613 996.768 380.889 996.924 381.201 997.02C381.513 997.092 381.849 997.128 382.209 997.128C382.545 997.128 382.893 997.08 383.253 996.984C383.637 996.888 383.997 996.756 384.333 996.588L384.441 998.712C384.009 998.88 383.553 999 383.073 999.072C382.617 999.168 382.113 999.216 381.561 999.216C381.105 999.216 380.625 999.156 380.121 999.036C379.617 998.916 379.149 998.688 378.717 998.352C378.285 998.016 377.925 997.56 377.637 996.984C377.373 996.408 377.241 995.652 377.241 994.716V984.204H373.749V982.152H377.241V977.4H379.689V982.152H384.441V984.204ZM390.755 999H388.307V982.152H390.755V999ZM391.259 975.672C391.259 976.176 391.079 976.596 390.719 976.932C390.359 977.244 389.963 977.4 389.531 977.4C389.099 977.4 388.703 977.244 388.343 976.932C387.983 976.596 387.803 976.176 387.803 975.672C387.803 975.168 387.983 974.76 388.343 974.448C388.703 974.112 389.099 973.944 389.531 973.944C389.963 973.944 390.359 974.112 390.719 974.448C391.079 974.76 391.259 975.168 391.259 975.672ZM414.011 990.576C414.011 991.848 413.783 993.024 413.327 994.104C412.895 995.184 412.283 996.12 411.491 996.912C410.699 997.704 409.751 998.328 408.647 998.784C407.543 999.216 406.331 999.432 405.011 999.432C403.715 999.432 402.515 999.216 401.411 998.784C400.307 998.328 399.359 997.704 398.567 996.912C397.775 996.12 397.151 995.184 396.695 994.104C396.263 993.024 396.047 991.848 396.047 990.576C396.047 989.304 396.263 988.128 396.695 987.048C397.151 985.968 397.775 985.032 398.567 984.24C399.359 983.448 400.307 982.836 401.411 982.404C402.515 981.948 403.715 981.72 405.011 981.72C406.331 981.72 407.543 981.948 408.647 982.404C409.751 982.836 410.699 983.448 411.491 984.24C412.283 985.032 412.895 985.968 413.327 987.048C413.783 988.128 414.011 989.304 414.011 990.576ZM411.419 990.576C411.419 989.64 411.263 988.764 410.951 987.948C410.663 987.108 410.243 986.388 409.691 985.788C409.139 985.164 408.467 984.672 407.675 984.312C406.883 983.952 405.995 983.772 405.011 983.772C404.027 983.772 403.139 983.952 402.347 984.312C401.579 984.672 400.919 985.164 400.367 985.788C399.815 986.388 399.383 987.108 399.071 987.948C398.783 988.764 398.639 989.64 398.639 990.576C398.639 991.512 398.783 992.4 399.071 993.24C399.383 994.056 399.815 994.776 400.367 995.4C400.919 996 401.579 996.48 402.347 996.84C403.139 997.176 404.027 997.344 405.011 997.344C405.995 997.344 406.883 997.176 407.675 996.84C408.467 996.48 409.139 996 409.691 995.4C410.243 994.776 410.663 994.056 410.951 993.24C411.263 992.4 411.419 991.512 411.419 990.576ZM421.475 982.152C421.523 982.608 421.559 983.112 421.583 983.664C421.607 984.216 421.619 984.672 421.619 985.032H421.691C422.171 984.048 422.951 983.256 424.031 982.656C425.111 982.032 426.251 981.72 427.451 981.72C429.587 981.72 431.183 982.356 432.239 983.628C433.319 984.9 433.859 986.58 433.859 988.668V999H431.411V989.676C431.411 988.788 431.339 987.984 431.195 987.264C431.051 986.544 430.799 985.932 430.439 985.428C430.103 984.9 429.635 984.492 429.035 984.204C428.459 983.916 427.727 983.772 426.839 983.772C426.191 983.772 425.555 983.904 424.931 984.168C424.331 984.432 423.791 984.84 423.311 985.392C422.831 985.92 422.447 986.604 422.159 987.444C421.871 988.26 421.727 989.232 421.727 990.36V999H419.279V985.86C419.279 985.404 419.267 984.816 419.243 984.096C419.219 983.376 419.183 982.728 419.135 982.152H421.475Z" fill="black"/>
<path d="M147.448 820V814.96L157.384 805.96C158.008 805.36 158.512 804.748 158.896 804.124C159.28 803.5 159.472 802.804 159.472 802.036C159.472 801.124 159.184 800.392 158.608 799.84C158.032 799.264 157.264 798.976 156.304 798.976C155.296 798.976 154.468 799.336 153.82 800.056C153.196 800.752 152.824 801.676 152.704 802.828L146.908 802.036C147.052 800.74 147.4 799.588 147.952 798.58C148.528 797.572 149.248 796.72 150.112 796.024C150.976 795.304 151.96 794.764 153.064 794.404C154.192 794.02 155.38 793.828 156.628 793.828C157.804 793.828 158.944 793.984 160.048 794.296C161.152 794.608 162.136 795.088 163 795.736C163.864 796.384 164.548 797.2 165.052 798.184C165.58 799.168 165.844 800.32 165.844 801.64C165.844 802.552 165.724 803.38 165.484 804.124C165.244 804.844 164.908 805.516 164.476 806.14C164.068 806.764 163.588 807.352 163.036 807.904C162.508 808.432 161.956 808.96 161.38 809.488L155.476 814.744H165.88V820H147.448ZM189.873 807.184C189.873 808.984 189.693 810.7 189.333 812.332C188.973 813.964 188.397 815.404 187.605 816.652C186.813 817.876 185.781 818.86 184.509 819.604C183.261 820.324 181.737 820.684 179.937 820.684C178.137 820.684 176.601 820.324 175.329 819.604C174.057 818.86 173.013 817.876 172.197 816.652C171.405 815.404 170.829 813.964 170.469 812.332C170.109 810.7 169.929 808.984 169.929 807.184C169.929 805.384 170.109 803.68 170.469 802.072C170.829 800.44 171.405 799.024 172.197 797.824C173.013 796.6 174.057 795.628 175.329 794.908C176.601 794.188 178.137 793.828 179.937 793.828C181.737 793.828 183.261 794.188 184.509 794.908C185.781 795.628 186.813 796.6 187.605 797.824C188.397 799.024 188.973 800.44 189.333 802.072C189.693 803.68 189.873 805.384 189.873 807.184ZM183.681 807.184C183.681 806.392 183.633 805.516 183.537 804.556C183.441 803.596 183.261 802.708 182.997 801.892C182.733 801.052 182.349 800.356 181.845 799.804C181.365 799.228 180.729 798.94 179.937 798.94C179.145 798.94 178.497 799.228 177.993 799.804C177.489 800.356 177.093 801.052 176.805 801.892C176.541 802.708 176.361 803.596 176.265 804.556C176.169 805.516 176.121 806.392 176.121 807.184C176.121 808 176.169 808.9 176.265 809.884C176.361 810.844 176.541 811.744 176.805 812.584C177.093 813.4 177.489 814.096 177.993 814.672C178.497 815.224 179.145 815.5 179.937 815.5C180.729 815.5 181.365 815.224 181.845 814.672C182.349 814.096 182.733 813.4 182.997 812.584C183.261 811.744 183.441 810.844 183.537 809.884C183.633 808.9 183.681 808 183.681 807.184ZM223.551 813.628C223.551 814.564 223.371 815.452 223.011 816.292C222.651 817.108 222.159 817.828 221.535 818.452C220.935 819.052 220.215 819.532 219.375 819.892C218.535 820.252 217.647 820.432 216.711 820.432C215.775 820.432 214.887 820.252 214.047 819.892C213.207 819.532 212.475 819.052 211.851 818.452C211.251 817.828 210.771 817.108 210.411 816.292C210.051 815.452 209.871 814.564 209.871 813.628C209.871 812.692 210.051 811.816 210.411 811C210.771 810.16 211.251 809.44 211.851 808.84C212.475 808.216 213.207 807.724 214.047 807.364C214.887 807.004 215.775 806.824 216.711 806.824C217.647 806.824 218.535 807.004 219.375 807.364C220.215 807.724 220.935 808.216 221.535 808.84C222.159 809.44 222.651 810.16 223.011 811C223.371 811.816 223.551 812.692 223.551 813.628ZM219.519 813.628C219.519 813.244 219.435 812.884 219.267 812.548C219.123 812.188 218.919 811.888 218.655 811.648C218.415 811.384 218.127 811.18 217.791 811.036C217.455 810.892 217.095 810.82 216.711 810.82C215.943 810.82 215.283 811.096 214.731 811.648C214.179 812.2 213.903 812.86 213.903 813.628C213.903 814.396 214.179 815.056 214.731 815.608C215.283 816.136 215.943 816.4 216.711 816.4C217.095 816.4 217.455 816.328 217.791 816.184C218.127 816.04 218.415 815.848 218.655 815.608C218.919 815.344 219.123 815.044 219.267 814.708C219.435 814.372 219.519 814.012 219.519 813.628ZM206.271 800.884C206.271 801.82 206.091 802.708 205.731 803.548C205.371 804.364 204.879 805.084 204.255 805.708C203.655 806.308 202.935 806.788 202.095 807.148C201.255 807.508 200.367 807.688 199.431 807.688C198.495 807.688 197.607 807.508 196.767 807.148C195.927 806.788 195.195 806.308 194.571 805.708C193.971 805.084 193.491 804.364 193.131 803.548C192.771 802.708 192.591 801.82 192.591 800.884C192.591 799.924 192.771 799.036 193.131 798.22C193.491 797.38 193.971 796.66 194.571 796.06C195.195 795.436 195.927 794.956 196.767 794.62C197.607 794.26 198.495 794.08 199.431 794.08C200.367 794.08 201.255 794.26 202.095 794.62C202.935 794.956 203.655 795.436 204.255 796.06C204.879 796.66 205.371 797.38 205.731 798.22C206.091 799.036 206.271 799.924 206.271 800.884ZM202.239 800.884C202.239 800.116 201.963 799.456 201.411 798.904C200.859 798.352 200.199 798.076 199.431 798.076C198.663 798.076 198.003 798.352 197.451 798.904C196.899 799.456 196.623 800.116 196.623 800.884C196.623 801.652 196.899 802.312 197.451 802.864C198.003 803.392 198.663 803.656 199.431 803.656C200.199 803.656 200.859 803.392 201.411 802.864C201.963 802.312 202.239 801.652 202.239 800.884ZM202.203 821.224L198.999 819.64L213.867 793.36L217.215 794.98L202.203 821.224ZM236.732 794.512H243.932C245.228 794.512 246.404 794.656 247.46 794.944C248.516 795.208 249.416 795.628 250.16 796.204C250.928 796.756 251.516 797.464 251.924 798.328C252.332 799.168 252.536 800.164 252.536 801.316C252.536 802.468 252.32 803.476 251.888 804.34C251.48 805.18 250.892 805.888 250.124 806.464C249.38 807.016 248.468 807.436 247.388 807.724C246.332 808.012 245.156 808.156 243.86 808.156H239.324V820H236.732V794.512ZM239.324 805.96H243.716C245.756 805.96 247.304 805.564 248.36 804.772C249.416 803.98 249.944 802.828 249.944 801.316C249.944 799.732 249.392 798.58 248.288 797.86C247.208 797.116 245.684 796.744 243.716 796.744H239.324V805.96ZM255.748 806.86C255.748 806.404 255.736 805.816 255.712 805.096C255.688 804.376 255.652 803.728 255.604 803.152H257.944C257.992 803.608 258.028 804.112 258.052 804.664C258.076 805.216 258.088 805.672 258.088 806.032H258.16C258.64 805.048 259.36 804.256 260.32 803.656C261.28 803.032 262.36 802.72 263.56 802.72C263.872 802.72 264.148 802.732 264.388 802.756C264.652 802.78 264.916 802.828 265.18 802.9L264.856 805.204C264.712 805.156 264.472 805.108 264.136 805.06C263.8 805.012 263.464 804.988 263.128 804.988C262.48 804.988 261.856 805.108 261.256 805.348C260.656 805.588 260.128 805.972 259.672 806.5C259.24 807.004 258.88 807.664 258.592 808.48C258.328 809.272 258.196 810.232 258.196 811.36V820H255.748V806.86ZM280.94 810.28C280.868 808.696 280.352 807.388 279.392 806.356C278.456 805.3 277.112 804.772 275.36 804.772C274.544 804.772 273.788 804.928 273.092 805.24C272.396 805.528 271.784 805.936 271.256 806.464C270.728 806.968 270.308 807.556 269.996 808.228C269.684 808.876 269.504 809.56 269.456 810.28H280.94ZM283.424 811.072C283.424 811.24 283.424 811.42 283.424 811.612C283.424 811.804 283.412 812.008 283.388 812.224H269.42C269.444 813.064 269.612 813.856 269.924 814.6C270.236 815.344 270.668 815.992 271.22 816.544C271.772 817.096 272.42 817.54 273.164 817.876C273.908 818.188 274.712 818.344 275.576 818.344C276.848 818.344 277.94 818.056 278.852 817.48C279.788 816.88 280.496 816.196 280.976 815.428L282.812 816.868C281.804 818.14 280.688 819.052 279.464 819.604C278.264 820.156 276.968 820.432 275.576 820.432C274.328 820.432 273.164 820.216 272.084 819.784C271.028 819.328 270.116 818.704 269.348 817.912C268.58 817.12 267.968 816.184 267.512 815.104C267.08 814.024 266.864 812.848 266.864 811.576C266.864 810.304 267.08 809.128 267.512 808.048C267.944 806.968 268.544 806.032 269.312 805.24C270.08 804.448 270.98 803.836 272.012 803.404C273.044 802.948 274.16 802.72 275.36 802.72C276.68 802.72 277.844 802.948 278.852 803.404C279.86 803.836 280.7 804.436 281.372 805.204C282.044 805.948 282.548 806.824 282.884 807.832C283.244 808.84 283.424 809.92 283.424 811.072ZM295.817 805.204H291.857V820H289.409V805.204H285.881V803.152H289.409V798.544C289.409 796.624 289.877 795.112 290.813 794.008C291.749 792.904 293.189 792.352 295.133 792.352C295.445 792.352 295.781 792.376 296.141 792.424C296.501 792.448 296.837 792.508 297.149 792.604L296.717 794.764C296.453 794.692 296.189 794.632 295.925 794.584C295.661 794.536 295.361 794.512 295.025 794.512C294.377 794.512 293.837 794.62 293.405 794.836C292.997 795.052 292.673 795.364 292.433 795.772C292.217 796.156 292.061 796.612 291.965 797.14C291.893 797.668 291.857 798.232 291.857 798.832V803.152H295.817V805.204ZM312.158 810.28C312.086 808.696 311.57 807.388 310.61 806.356C309.674 805.3 308.33 804.772 306.578 804.772C305.762 804.772 305.006 804.928 304.31 805.24C303.614 805.528 303.002 805.936 302.474 806.464C301.946 806.968 301.526 807.556 301.214 808.228C300.902 808.876 300.722 809.56 300.674 810.28H312.158ZM314.642 811.072C314.642 811.24 314.642 811.42 314.642 811.612C314.642 811.804 314.63 812.008 314.606 812.224H300.638C300.662 813.064 300.83 813.856 301.142 814.6C301.454 815.344 301.886 815.992 302.438 816.544C302.99 817.096 303.638 817.54 304.382 817.876C305.126 818.188 305.93 818.344 306.794 818.344C308.066 818.344 309.158 818.056 310.07 817.48C311.006 816.88 311.714 816.196 312.194 815.428L314.03 816.868C313.022 818.14 311.906 819.052 310.682 819.604C309.482 820.156 308.186 820.432 306.794 820.432C305.546 820.432 304.382 820.216 303.302 819.784C302.246 819.328 301.334 818.704 300.566 817.912C299.798 817.12 299.186 816.184 298.73 815.104C298.298 814.024 298.082 812.848 298.082 811.576C298.082 810.304 298.298 809.128 298.73 808.048C299.162 806.968 299.762 806.032 300.53 805.24C301.298 804.448 302.198 803.836 303.23 803.404C304.262 802.948 305.378 802.72 306.578 802.72C307.898 802.72 309.062 802.948 310.07 803.404C311.078 803.836 311.918 804.436 312.59 805.204C313.262 805.948 313.766 806.824 314.102 807.832C314.462 808.84 314.642 809.92 314.642 811.072ZM319.908 806.86C319.908 806.404 319.896 805.816 319.872 805.096C319.848 804.376 319.812 803.728 319.764 803.152H322.104C322.152 803.608 322.188 804.112 322.212 804.664C322.236 805.216 322.248 805.672 322.248 806.032H322.32C322.8 805.048 323.52 804.256 324.48 803.656C325.44 803.032 326.52 802.72 327.72 802.72C328.032 802.72 328.308 802.732 328.548 802.756C328.812 802.78 329.076 802.828 329.34 802.9L329.016 805.204C328.872 805.156 328.632 805.108 328.296 805.06C327.96 805.012 327.624 804.988 327.288 804.988C326.64 804.988 326.016 805.108 325.416 805.348C324.816 805.588 324.288 805.972 323.832 806.5C323.4 807.004 323.04 807.664 322.752 808.48C322.488 809.272 322.356 810.232 322.356 811.36V820H319.908V806.86ZM332.881 806.86C332.881 806.404 332.869 805.816 332.845 805.096C332.821 804.376 332.785 803.728 332.737 803.152H335.077C335.125 803.608 335.161 804.112 335.185 804.664C335.209 805.216 335.221 805.672 335.221 806.032H335.293C335.773 805.048 336.493 804.256 337.453 803.656C338.413 803.032 339.493 802.72 340.693 802.72C341.005 802.72 341.281 802.732 341.521 802.756C341.785 802.78 342.049 802.828 342.313 802.9L341.989 805.204C341.845 805.156 341.605 805.108 341.269 805.06C340.933 805.012 340.597 804.988 340.261 804.988C339.613 804.988 338.989 805.108 338.389 805.348C337.789 805.588 337.261 805.972 336.805 806.5C336.373 807.004 336.013 807.664 335.725 808.48C335.461 809.272 335.329 810.232 335.329 811.36V820H332.881V806.86ZM358.072 810.28C358 808.696 357.484 807.388 356.524 806.356C355.588 805.3 354.244 804.772 352.492 804.772C351.676 804.772 350.92 804.928 350.224 805.24C349.528 805.528 348.916 805.936 348.388 806.464C347.86 806.968 347.44 807.556 347.128 808.228C346.816 808.876 346.636 809.56 346.588 810.28H358.072ZM360.556 811.072C360.556 811.24 360.556 811.42 360.556 811.612C360.556 811.804 360.544 812.008 360.52 812.224H346.552C346.576 813.064 346.744 813.856 347.056 814.6C347.368 815.344 347.8 815.992 348.352 816.544C348.904 817.096 349.552 817.54 350.296 817.876C351.04 818.188 351.844 818.344 352.708 818.344C353.98 818.344 355.072 818.056 355.984 817.48C356.92 816.88 357.628 816.196 358.108 815.428L359.944 816.868C358.936 818.14 357.82 819.052 356.596 819.604C355.396 820.156 354.1 820.432 352.708 820.432C351.46 820.432 350.296 820.216 349.216 819.784C348.16 819.328 347.248 818.704 346.48 817.912C345.712 817.12 345.1 816.184 344.644 815.104C344.212 814.024 343.996 812.848 343.996 811.576C343.996 810.304 344.212 809.128 344.644 808.048C345.076 806.968 345.676 806.032 346.444 805.24C347.212 804.448 348.112 803.836 349.144 803.404C350.176 802.948 351.292 802.72 352.492 802.72C353.812 802.72 354.976 802.948 355.984 803.404C356.992 803.836 357.832 804.436 358.504 805.204C359.176 805.948 359.68 806.824 360.016 807.832C360.376 808.84 360.556 809.92 360.556 811.072ZM379.682 817.156C378.962 818.236 378.026 819.052 376.874 819.604C375.722 820.156 374.534 820.432 373.31 820.432C371.99 820.432 370.79 820.204 369.71 819.748C368.654 819.292 367.742 818.668 366.974 817.876C366.23 817.084 365.642 816.148 365.21 815.068C364.802 813.988 364.598 812.824 364.598 811.576C364.598 810.328 364.802 809.164 365.21 808.084C365.642 807.004 366.23 806.068 366.974 805.276C367.742 804.484 368.654 803.86 369.71 803.404C370.79 802.948 371.99 802.72 373.31 802.72C374.534 802.72 375.722 803.008 376.874 803.584C378.026 804.136 378.962 804.964 379.682 806.068H379.754V792.784H382.202V820H379.754V817.156H379.682ZM367.19 811.576C367.19 812.512 367.334 813.4 367.622 814.24C367.91 815.056 368.318 815.776 368.846 816.4C369.398 817 370.07 817.48 370.862 817.84C371.654 818.176 372.554 818.344 373.562 818.344C374.498 818.344 375.362 818.176 376.154 817.84C376.946 817.48 377.63 817 378.206 816.4C378.782 815.8 379.226 815.092 379.538 814.276C379.874 813.436 380.042 812.536 380.042 811.576C380.042 810.616 379.874 809.728 379.538 808.912C379.226 808.072 378.782 807.352 378.206 806.752C377.63 806.128 376.946 805.648 376.154 805.312C375.362 804.952 374.498 804.772 373.562 804.772C372.554 804.772 371.654 804.952 370.862 805.312C370.07 805.672 369.398 806.164 368.846 806.788C368.318 807.388 367.91 808.108 367.622 808.948C367.334 809.764 367.19 810.64 367.19 811.576ZM400.48 817.696H414.124V820H397.888V794.512H413.692V796.816H400.48V805.6H412.828V807.868H400.48V817.696ZM432.873 817.156C432.177 818.212 431.241 819.028 430.065 819.604C428.913 820.156 427.737 820.432 426.537 820.432C425.217 820.432 424.017 820.204 422.937 819.748C421.881 819.292 420.969 818.668 420.201 817.876C419.457 817.084 418.869 816.148 418.437 815.068C418.029 813.988 417.825 812.824 417.825 811.576C417.825 810.328 418.029 809.164 418.437 808.084C418.869 807.004 419.457 806.068 420.201 805.276C420.969 804.484 421.881 803.86 422.937 803.404C424.017 802.948 425.217 802.72 426.537 802.72C427.737 802.72 428.913 803.008 430.065 803.584C431.241 804.136 432.177 804.964 432.873 806.068H432.981V803.152H435.429V828.64H432.981V817.156H432.873ZM420.417 811.576C420.417 812.512 420.561 813.4 420.849 814.24C421.137 815.056 421.545 815.776 422.073 816.4C422.625 817 423.297 817.48 424.089 817.84C424.881 818.176 425.781 818.344 426.789 818.344C427.725 818.344 428.589 818.176 429.381 817.84C430.173 817.48 430.857 817 431.433 816.4C432.009 815.8 432.453 815.092 432.765 814.276C433.101 813.436 433.269 812.536 433.269 811.576C433.269 810.616 433.101 809.728 432.765 808.912C432.453 808.072 432.009 807.352 431.433 806.752C430.857 806.128 430.173 805.648 429.381 805.312C428.589 804.952 427.725 804.772 426.789 804.772C425.781 804.772 424.881 804.952 424.089 805.312C423.297 805.672 422.625 806.164 422.073 806.788C421.545 807.388 421.137 808.108 420.849 808.948C420.561 809.764 420.417 810.64 420.417 811.576ZM454.14 820C454.092 819.544 454.056 819.04 454.032 818.488C454.008 817.936 453.996 817.48 453.996 817.12H453.924C453.444 818.104 452.664 818.908 451.584 819.532C450.504 820.132 449.364 820.432 448.164 820.432C446.028 820.432 444.42 819.796 443.34 818.524C442.284 817.252 441.756 815.572 441.756 813.484V803.152H444.204V812.476C444.204 813.364 444.276 814.168 444.42 814.888C444.564 815.608 444.804 816.232 445.14 816.76C445.5 817.264 445.968 817.66 446.544 817.948C447.144 818.236 447.888 818.38 448.776 818.38C449.424 818.38 450.048 818.248 450.648 817.984C451.272 817.72 451.824 817.324 452.304 816.796C452.784 816.244 453.168 815.56 453.456 814.744C453.744 813.904 453.888 812.92 453.888 811.792V803.152H456.336V816.292C456.336 816.748 456.348 817.336 456.372 818.056C456.396 818.776 456.432 819.424 456.48 820H454.14ZM465.302 820H462.854V803.152H465.302V820ZM465.806 796.672C465.806 797.176 465.626 797.596 465.266 797.932C464.906 798.244 464.51 798.4 464.078 798.4C463.646 798.4 463.25 798.244 462.89 797.932C462.53 797.596 462.35 797.176 462.35 796.672C462.35 796.168 462.53 795.76 462.89 795.448C463.25 795.112 463.646 794.944 464.078 794.944C464.51 794.944 464.906 795.112 465.266 795.448C465.626 795.76 465.806 796.168 465.806 796.672ZM479.414 805.204H474.662V815.032C474.662 815.656 474.722 816.172 474.842 816.58C474.962 816.988 475.13 817.312 475.346 817.552C475.586 817.768 475.862 817.924 476.174 818.02C476.486 818.092 476.822 818.128 477.182 818.128C477.518 818.128 477.866 818.08 478.226 817.984C478.61 817.888 478.97 817.756 479.306 817.588L479.414 819.712C478.982 819.88 478.526 820 478.046 820.072C477.59 820.168 477.086 820.216 476.534 820.216C476.078 820.216 475.598 820.156 475.094 820.036C474.59 819.916 474.122 819.688 473.69 819.352C473.258 819.016 472.898 818.56 472.61 817.984C472.346 817.408 472.214 816.652 472.214 815.716V805.204H468.722V803.152H472.214V798.4H474.662V803.152H479.414V805.204ZM489.04 817.372H489.112L494.332 803.152H496.996L488.608 824.356C488.104 825.652 487.456 826.684 486.664 827.452C485.896 828.244 484.78 828.64 483.316 828.64C482.572 828.64 481.84 828.568 481.12 828.424L481.372 826.192C481.948 826.384 482.548 826.48 483.172 826.48C484.012 826.48 484.672 826.216 485.152 825.688C485.632 825.184 486.052 824.452 486.412 823.492L487.78 819.964L480.58 803.152H483.316L489.04 817.372Z" fill="black"/>
<path d="M166.952 1212.58C166.952 1214.14 166.676 1215.49 166.124 1216.64C165.572 1217.77 164.828 1218.71 163.892 1219.45C162.98 1220.2 161.936 1220.75 160.76 1221.11C159.584 1221.49 158.372 1221.68 157.124 1221.68C155.972 1221.68 154.868 1221.53 153.812 1221.22C152.78 1220.93 151.832 1220.51 150.968 1219.96C150.128 1219.4 149.396 1218.73 148.772 1217.94C148.172 1217.12 147.728 1216.21 147.44 1215.2L152.948 1213.51C153.212 1214.4 153.704 1215.13 154.424 1215.71C155.168 1216.28 156.044 1216.57 157.052 1216.57C158.084 1216.57 158.972 1216.26 159.716 1215.64C160.484 1215.01 160.868 1214.09 160.868 1212.86C160.868 1212.12 160.712 1211.5 160.4 1210.99C160.088 1210.49 159.68 1210.09 159.176 1209.8C158.696 1209.49 158.144 1209.28 157.52 1209.16C156.896 1209.04 156.272 1208.98 155.648 1208.98C154.736 1208.98 153.692 1209.08 152.516 1209.3C151.364 1209.49 150.332 1209.76 149.42 1210.09L150.032 1195.51H165.656V1200.7H155.396L155.18 1204.73C155.564 1204.63 155.984 1204.57 156.44 1204.55C156.92 1204.5 157.352 1204.48 157.736 1204.48C159.008 1204.48 160.208 1204.64 161.336 1204.98C162.464 1205.32 163.436 1205.83 164.252 1206.53C165.092 1207.2 165.752 1208.04 166.232 1209.05C166.712 1210.06 166.952 1211.23 166.952 1212.58ZM190.873 1208.18C190.873 1209.98 190.693 1211.7 190.333 1213.33C189.973 1214.96 189.397 1216.4 188.605 1217.65C187.813 1218.88 186.781 1219.86 185.509 1220.6C184.261 1221.32 182.737 1221.68 180.937 1221.68C179.137 1221.68 177.601 1221.32 176.329 1220.6C175.057 1219.86 174.013 1218.88 173.197 1217.65C172.405 1216.4 171.829 1214.96 171.469 1213.33C171.109 1211.7 170.929 1209.98 170.929 1208.18C170.929 1206.38 171.109 1204.68 171.469 1203.07C171.829 1201.44 172.405 1200.02 173.197 1198.82C174.013 1197.6 175.057 1196.63 176.329 1195.91C177.601 1195.19 179.137 1194.83 180.937 1194.83C182.737 1194.83 184.261 1195.19 185.509 1195.91C186.781 1196.63 187.813 1197.6 188.605 1198.82C189.397 1200.02 189.973 1201.44 190.333 1203.07C190.693 1204.68 190.873 1206.38 190.873 1208.18ZM184.681 1208.18C184.681 1207.39 184.633 1206.52 184.537 1205.56C184.441 1204.6 184.261 1203.71 183.997 1202.89C183.733 1202.05 183.349 1201.36 182.845 1200.8C182.365 1200.23 181.729 1199.94 180.937 1199.94C180.145 1199.94 179.497 1200.23 178.993 1200.8C178.489 1201.36 178.093 1202.05 177.805 1202.89C177.541 1203.71 177.361 1204.6 177.265 1205.56C177.169 1206.52 177.121 1207.39 177.121 1208.18C177.121 1209 177.169 1209.9 177.265 1210.88C177.361 1211.84 177.541 1212.74 177.805 1213.58C178.093 1214.4 178.489 1215.1 178.993 1215.67C179.497 1216.22 180.145 1216.5 180.937 1216.5C181.729 1216.5 182.365 1216.22 182.845 1215.67C183.349 1215.1 183.733 1214.4 183.997 1213.58C184.261 1212.74 184.441 1211.84 184.537 1210.88C184.633 1209.9 184.681 1209 184.681 1208.18ZM224.551 1214.63C224.551 1215.56 224.371 1216.45 224.011 1217.29C223.651 1218.11 223.159 1218.83 222.535 1219.45C221.935 1220.05 221.215 1220.53 220.375 1220.89C219.535 1221.25 218.647 1221.43 217.711 1221.43C216.775 1221.43 215.887 1221.25 215.047 1220.89C214.207 1220.53 213.475 1220.05 212.851 1219.45C212.251 1218.83 211.771 1218.11 211.411 1217.29C211.051 1216.45 210.871 1215.56 210.871 1214.63C210.871 1213.69 211.051 1212.82 211.411 1212C211.771 1211.16 212.251 1210.44 212.851 1209.84C213.475 1209.22 214.207 1208.72 215.047 1208.36C215.887 1208 216.775 1207.82 217.711 1207.82C218.647 1207.82 219.535 1208 220.375 1208.36C221.215 1208.72 221.935 1209.22 222.535 1209.84C223.159 1210.44 223.651 1211.16 224.011 1212C224.371 1212.82 224.551 1213.69 224.551 1214.63ZM220.519 1214.63C220.519 1214.24 220.435 1213.88 220.267 1213.55C220.123 1213.19 219.919 1212.89 219.655 1212.65C219.415 1212.38 219.127 1212.18 218.791 1212.04C218.455 1211.89 218.095 1211.82 217.711 1211.82C216.943 1211.82 216.283 1212.1 215.731 1212.65C215.179 1213.2 214.903 1213.86 214.903 1214.63C214.903 1215.4 215.179 1216.06 215.731 1216.61C216.283 1217.14 216.943 1217.4 217.711 1217.4C218.095 1217.4 218.455 1217.33 218.791 1217.18C219.127 1217.04 219.415 1216.85 219.655 1216.61C219.919 1216.34 220.123 1216.04 220.267 1215.71C220.435 1215.37 220.519 1215.01 220.519 1214.63ZM207.271 1201.88C207.271 1202.82 207.091 1203.71 206.731 1204.55C206.371 1205.36 205.879 1206.08 205.255 1206.71C204.655 1207.31 203.935 1207.79 203.095 1208.15C202.255 1208.51 201.367 1208.69 200.431 1208.69C199.495 1208.69 198.607 1208.51 197.767 1208.15C196.927 1207.79 196.195 1207.31 195.571 1206.71C194.971 1206.08 194.491 1205.36 194.131 1204.55C193.771 1203.71 193.591 1202.82 193.591 1201.88C193.591 1200.92 193.771 1200.04 194.131 1199.22C194.491 1198.38 194.971 1197.66 195.571 1197.06C196.195 1196.44 196.927 1195.96 197.767 1195.62C198.607 1195.26 199.495 1195.08 200.431 1195.08C201.367 1195.08 202.255 1195.26 203.095 1195.62C203.935 1195.96 204.655 1196.44 205.255 1197.06C205.879 1197.66 206.371 1198.38 206.731 1199.22C207.091 1200.04 207.271 1200.92 207.271 1201.88ZM203.239 1201.88C203.239 1201.12 202.963 1200.46 202.411 1199.9C201.859 1199.35 201.199 1199.08 200.431 1199.08C199.663 1199.08 199.003 1199.35 198.451 1199.9C197.899 1200.46 197.623 1201.12 197.623 1201.88C197.623 1202.65 197.899 1203.31 198.451 1203.86C199.003 1204.39 199.663 1204.66 200.431 1204.66C201.199 1204.66 201.859 1204.39 202.411 1203.86C202.963 1203.31 203.239 1202.65 203.239 1201.88ZM203.203 1222.22L199.999 1220.64L214.867 1194.36L218.215 1195.98L203.203 1222.22ZM250.08 1199.62C249.528 1198.85 248.82 1198.24 247.956 1197.78C247.092 1197.3 246.048 1197.06 244.824 1197.06C244.2 1197.06 243.564 1197.16 242.916 1197.35C242.268 1197.54 241.68 1197.84 241.152 1198.25C240.624 1198.63 240.192 1199.12 239.856 1199.72C239.544 1200.32 239.388 1201.03 239.388 1201.85C239.388 1202.66 239.544 1203.34 239.856 1203.86C240.168 1204.39 240.576 1204.85 241.08 1205.23C241.608 1205.59 242.196 1205.89 242.844 1206.13C243.516 1206.37 244.212 1206.61 244.932 1206.85C245.82 1207.14 246.708 1207.45 247.596 1207.79C248.508 1208.12 249.324 1208.57 250.044 1209.12C250.764 1209.65 251.352 1210.33 251.808 1211.17C252.264 1211.99 252.492 1213.03 252.492 1214.3C252.492 1215.58 252.24 1216.68 251.736 1217.62C251.256 1218.53 250.62 1219.28 249.828 1219.88C249.06 1220.48 248.172 1220.93 247.164 1221.22C246.18 1221.5 245.184 1221.65 244.176 1221.65C243.408 1221.65 242.64 1221.56 241.872 1221.4C241.104 1221.25 240.372 1221.02 239.676 1220.71C238.98 1220.4 238.332 1220 237.732 1219.52C237.132 1219.04 236.604 1218.49 236.148 1217.87L238.38 1216.21C238.932 1217.12 239.7 1217.89 240.684 1218.52C241.692 1219.12 242.868 1219.42 244.212 1219.42C244.86 1219.42 245.52 1219.32 246.192 1219.13C246.864 1218.91 247.464 1218.6 247.992 1218.19C248.544 1217.76 248.988 1217.24 249.324 1216.64C249.684 1216.02 249.864 1215.3 249.864 1214.48C249.864 1213.6 249.684 1212.86 249.324 1212.29C248.988 1211.69 248.532 1211.2 247.956 1210.81C247.38 1210.4 246.72 1210.07 245.976 1209.8C245.232 1209.54 244.452 1209.28 243.636 1209.01C242.796 1208.75 241.968 1208.45 241.152 1208.11C240.336 1207.78 239.604 1207.34 238.956 1206.82C238.308 1206.26 237.78 1205.59 237.372 1204.8C236.988 1204.01 236.796 1203.04 236.796 1201.88C236.796 1200.66 237.036 1199.6 237.516 1198.72C238.02 1197.83 238.668 1197.1 239.46 1196.52C240.252 1195.94 241.128 1195.52 242.088 1195.26C243.048 1195 243.996 1194.86 244.932 1194.86C246.66 1194.86 248.136 1195.18 249.36 1195.8C250.584 1196.4 251.508 1197.12 252.132 1197.96L250.08 1199.62ZM270.76 1211.28C270.688 1209.7 270.172 1208.39 269.212 1207.36C268.276 1206.3 266.932 1205.77 265.18 1205.77C264.364 1205.77 263.608 1205.93 262.912 1206.24C262.216 1206.53 261.604 1206.94 261.076 1207.46C260.548 1207.97 260.128 1208.56 259.816 1209.23C259.504 1209.88 259.324 1210.56 259.276 1211.28H270.76ZM273.244 1212.07C273.244 1212.24 273.244 1212.42 273.244 1212.61C273.244 1212.8 273.232 1213.01 273.208 1213.22H259.24C259.264 1214.06 259.432 1214.86 259.744 1215.6C260.056 1216.34 260.488 1216.99 261.04 1217.54C261.592 1218.1 262.24 1218.54 262.984 1218.88C263.728 1219.19 264.532 1219.34 265.396 1219.34C266.668 1219.34 267.76 1219.06 268.672 1218.48C269.608 1217.88 270.316 1217.2 270.796 1216.43L272.632 1217.87C271.624 1219.14 270.508 1220.05 269.284 1220.6C268.084 1221.16 266.788 1221.43 265.396 1221.43C264.148 1221.43 262.984 1221.22 261.904 1220.78C260.848 1220.33 259.936 1219.7 259.168 1218.91C258.4 1218.12 257.788 1217.18 257.332 1216.1C256.9 1215.02 256.684 1213.85 256.684 1212.58C256.684 1211.3 256.9 1210.13 257.332 1209.05C257.764 1207.97 258.364 1207.03 259.132 1206.24C259.9 1205.45 260.8 1204.84 261.832 1204.4C262.864 1203.95 263.98 1203.72 265.18 1203.72C266.5 1203.72 267.664 1203.95 268.672 1204.4C269.68 1204.84 270.52 1205.44 271.192 1206.2C271.864 1206.95 272.368 1207.82 272.704 1208.83C273.064 1209.84 273.244 1210.92 273.244 1212.07ZM280.706 1204.15C280.754 1204.61 280.79 1205.11 280.814 1205.66C280.838 1206.22 280.85 1206.67 280.85 1207.03H280.922C281.402 1206.05 282.182 1205.26 283.262 1204.66C284.342 1204.03 285.482 1203.72 286.682 1203.72C288.818 1203.72 290.414 1204.36 291.47 1205.63C292.55 1206.9 293.09 1208.58 293.09 1210.67V1221H290.642V1211.68C290.642 1210.79 290.57 1209.98 290.426 1209.26C290.282 1208.54 290.03 1207.93 289.67 1207.43C289.334 1206.9 288.866 1206.49 288.266 1206.2C287.69 1205.92 286.958 1205.77 286.07 1205.77C285.422 1205.77 284.786 1205.9 284.162 1206.17C283.562 1206.43 283.022 1206.84 282.542 1207.39C282.062 1207.92 281.678 1208.6 281.39 1209.44C281.102 1210.26 280.958 1211.23 280.958 1212.36V1221H278.51V1207.86C278.51 1207.4 278.498 1206.82 278.474 1206.1C278.45 1205.38 278.414 1204.73 278.366 1204.15H280.706ZM301.912 1221H299.464V1204.15H301.912V1221ZM302.416 1197.67C302.416 1198.18 302.236 1198.6 301.876 1198.93C301.516 1199.24 301.12 1199.4 300.688 1199.4C300.256 1199.4 299.86 1199.24 299.5 1198.93C299.14 1198.6 298.96 1198.18 298.96 1197.67C298.96 1197.17 299.14 1196.76 299.5 1196.45C299.86 1196.11 300.256 1195.94 300.688 1195.94C301.12 1195.94 301.516 1196.11 301.876 1196.45C302.236 1196.76 302.416 1197.17 302.416 1197.67ZM325.168 1212.58C325.168 1213.85 324.94 1215.02 324.484 1216.1C324.052 1217.18 323.44 1218.12 322.648 1218.91C321.856 1219.7 320.908 1220.33 319.804 1220.78C318.7 1221.22 317.488 1221.43 316.168 1221.43C314.872 1221.43 313.672 1221.22 312.568 1220.78C311.464 1220.33 310.516 1219.7 309.724 1218.91C308.932 1218.12 308.308 1217.18 307.852 1216.1C307.42 1215.02 307.204 1213.85 307.204 1212.58C307.204 1211.3 307.42 1210.13 307.852 1209.05C308.308 1207.97 308.932 1207.03 309.724 1206.24C310.516 1205.45 311.464 1204.84 312.568 1204.4C313.672 1203.95 314.872 1203.72 316.168 1203.72C317.488 1203.72 318.7 1203.95 319.804 1204.4C320.908 1204.84 321.856 1205.45 322.648 1206.24C323.44 1207.03 324.052 1207.97 324.484 1209.05C324.94 1210.13 325.168 1211.3 325.168 1212.58ZM322.576 1212.58C322.576 1211.64 322.42 1210.76 322.108 1209.95C321.82 1209.11 321.4 1208.39 320.848 1207.79C320.296 1207.16 319.624 1206.67 318.832 1206.31C318.04 1205.95 317.152 1205.77 316.168 1205.77C315.184 1205.77 314.296 1205.95 313.504 1206.31C312.736 1206.67 312.076 1207.16 311.524 1207.79C310.972 1208.39 310.54 1209.11 310.228 1209.95C309.94 1210.76 309.796 1211.64 309.796 1212.58C309.796 1213.51 309.94 1214.4 310.228 1215.24C310.54 1216.06 310.972 1216.78 311.524 1217.4C312.076 1218 312.736 1218.48 313.504 1218.84C314.296 1219.18 315.184 1219.34 316.168 1219.34C317.152 1219.34 318.04 1219.18 318.832 1218.84C319.624 1218.48 320.296 1218 320.848 1217.4C321.4 1216.78 321.82 1216.06 322.108 1215.24C322.42 1214.4 322.576 1213.51 322.576 1212.58ZM330.435 1207.86C330.435 1207.4 330.423 1206.82 330.399 1206.1C330.375 1205.38 330.339 1204.73 330.291 1204.15H332.631C332.679 1204.61 332.715 1205.11 332.739 1205.66C332.763 1206.22 332.775 1206.67 332.775 1207.03H332.847C333.327 1206.05 334.047 1205.26 335.007 1204.66C335.967 1204.03 337.047 1203.72 338.247 1203.72C338.559 1203.72 338.835 1203.73 339.075 1203.76C339.339 1203.78 339.603 1203.83 339.867 1203.9L339.543 1206.2C339.399 1206.16 339.159 1206.11 338.823 1206.06C338.487 1206.01 338.151 1205.99 337.815 1205.99C337.167 1205.99 336.543 1206.11 335.943 1206.35C335.343 1206.59 334.815 1206.97 334.359 1207.5C333.927 1208 333.567 1208.66 333.279 1209.48C333.015 1210.27 332.883 1211.23 332.883 1212.36V1221H330.435V1207.86ZM352.552 1195.51H361.012C362.596 1195.51 364.18 1195.78 365.764 1196.3C367.372 1196.83 368.812 1197.64 370.084 1198.72C371.38 1199.77 372.424 1201.1 373.216 1202.71C374.008 1204.3 374.404 1206.14 374.404 1208.26C374.404 1210.39 374.008 1212.25 373.216 1213.84C372.424 1215.42 371.38 1216.75 370.084 1217.83C368.812 1218.89 367.372 1219.68 365.764 1220.21C364.18 1220.74 362.596 1221 361.012 1221H352.552V1195.51ZM355.144 1218.7H360.292C362.212 1218.7 363.88 1218.4 365.296 1217.8C366.736 1217.2 367.924 1216.42 368.86 1215.46C369.796 1214.47 370.492 1213.36 370.948 1212.11C371.428 1210.86 371.668 1209.58 371.668 1208.26C371.668 1206.94 371.428 1205.65 370.948 1204.4C370.492 1203.16 369.796 1202.05 368.86 1201.09C367.924 1200.11 366.736 1199.32 365.296 1198.72C363.88 1198.12 362.212 1197.82 360.292 1197.82H355.144V1218.7ZM392.506 1211.28C392.434 1209.7 391.918 1208.39 390.958 1207.36C390.022 1206.3 388.678 1205.77 386.926 1205.77C386.11 1205.77 385.354 1205.93 384.658 1206.24C383.962 1206.53 383.35 1206.94 382.822 1207.46C382.294 1207.97 381.874 1208.56 381.562 1209.23C381.25 1209.88 381.07 1210.56 381.022 1211.28H392.506ZM394.99 1212.07C394.99 1212.24 394.99 1212.42 394.99 1212.61C394.99 1212.8 394.978 1213.01 394.954 1213.22H380.986C381.01 1214.06 381.178 1214.86 381.49 1215.6C381.802 1216.34 382.234 1216.99 382.786 1217.54C383.338 1218.1 383.986 1218.54 384.73 1218.88C385.474 1219.19 386.278 1219.34 387.142 1219.34C388.414 1219.34 389.506 1219.06 390.418 1218.48C391.354 1217.88 392.062 1217.2 392.542 1216.43L394.378 1217.87C393.37 1219.14 392.254 1220.05 391.03 1220.6C389.83 1221.16 388.534 1221.43 387.142 1221.43C385.894 1221.43 384.73 1221.22 383.65 1220.78C382.594 1220.33 381.682 1219.7 380.914 1218.91C380.146 1218.12 379.534 1217.18 379.078 1216.1C378.646 1215.02 378.43 1213.85 378.43 1212.58C378.43 1211.3 378.646 1210.13 379.078 1209.05C379.51 1207.97 380.11 1207.03 380.878 1206.24C381.646 1205.45 382.546 1204.84 383.578 1204.4C384.61 1203.95 385.726 1203.72 386.926 1203.72C388.246 1203.72 389.41 1203.95 390.418 1204.4C391.426 1204.84 392.266 1205.44 392.938 1206.2C393.61 1206.95 394.114 1207.82 394.45 1208.83C394.81 1209.84 394.99 1210.92 394.99 1212.07ZM402.776 1218.16V1221H400.328V1193.78H402.776V1207.07H402.848C403.568 1205.96 404.504 1205.14 405.656 1204.58C406.808 1204.01 407.996 1203.72 409.22 1203.72C410.54 1203.72 411.728 1203.95 412.784 1204.4C413.864 1204.86 414.776 1205.48 415.52 1206.28C416.288 1207.07 416.876 1208 417.284 1209.08C417.716 1210.16 417.932 1211.33 417.932 1212.58C417.932 1213.82 417.716 1214.99 417.284 1216.07C416.876 1217.15 416.288 1218.08 415.52 1218.88C414.776 1219.67 413.864 1220.29 412.784 1220.75C411.728 1221.2 410.54 1221.43 409.22 1221.43C407.996 1221.43 406.808 1221.16 405.656 1220.6C404.504 1220.05 403.568 1219.24 402.848 1218.16H402.776ZM415.34 1212.58C415.34 1211.64 415.196 1210.76 414.908 1209.95C414.62 1209.11 414.2 1208.39 413.648 1207.79C413.12 1207.16 412.46 1206.67 411.668 1206.31C410.876 1205.95 409.976 1205.77 408.968 1205.77C408.032 1205.77 407.168 1205.95 406.376 1206.31C405.584 1206.65 404.9 1207.13 404.324 1207.75C403.748 1208.35 403.292 1209.07 402.956 1209.91C402.644 1210.73 402.488 1211.62 402.488 1212.58C402.488 1213.54 402.644 1214.44 402.956 1215.28C403.292 1216.09 403.748 1216.8 404.324 1217.4C404.9 1218 405.584 1218.48 406.376 1218.84C407.168 1219.18 408.032 1219.34 408.968 1219.34C409.976 1219.34 410.876 1219.18 411.668 1218.84C412.46 1218.48 413.12 1218 413.648 1217.4C414.2 1216.78 414.62 1216.06 414.908 1215.24C415.196 1214.4 415.34 1213.51 415.34 1212.58ZM430.774 1206.2H426.022V1216.03C426.022 1216.66 426.082 1217.17 426.202 1217.58C426.322 1217.99 426.49 1218.31 426.706 1218.55C426.946 1218.77 427.222 1218.92 427.534 1219.02C427.846 1219.09 428.182 1219.13 428.542 1219.13C428.878 1219.13 429.226 1219.08 429.586 1218.98C429.97 1218.89 430.33 1218.76 430.666 1218.59L430.774 1220.71C430.342 1220.88 429.886 1221 429.406 1221.07C428.95 1221.17 428.446 1221.22 427.894 1221.22C427.438 1221.22 426.958 1221.16 426.454 1221.04C425.95 1220.92 425.482 1220.69 425.05 1220.35C424.618 1220.02 424.258 1219.56 423.97 1218.98C423.706 1218.41 423.574 1217.65 423.574 1216.72V1206.2H420.082V1204.15H423.574V1199.4H426.022V1204.15H430.774V1206.2Z" fill="black"/>
<path d="M515.448 104.512C515.448 100.432 516.168 96.736 517.608 93.424C519.048 90.112 521.016 87.28 523.512 84.928C526.008 82.576 528.936 80.776 532.296 79.528C535.704 78.232 539.328 77.584 543.168 77.584C547.104 77.584 550.824 78.232 554.328 79.528C557.832 80.776 560.76 82.48 563.112 84.64L552.6 97.312C551.64 96.064 550.44 95.128 549 94.504C547.56 93.832 545.952 93.496 544.176 93.496C542.736 93.496 541.392 93.76 540.144 94.288C538.896 94.768 537.792 95.488 536.832 96.448C535.92 97.408 535.2 98.584 534.672 99.976C534.144 101.32 533.88 102.832 533.88 104.512C533.88 106.192 534.144 107.704 534.672 109.048C535.248 110.344 535.992 111.472 536.904 112.432C537.864 113.392 538.968 114.136 540.216 114.664C541.464 115.144 542.784 115.384 544.176 115.384C546.144 115.384 547.824 114.976 549.216 114.16C550.656 113.344 551.784 112.384 552.6 111.28L563.112 123.88C560.808 126.184 557.976 128.032 554.616 129.424C551.256 130.768 547.44 131.44 543.168 131.44C539.328 131.44 535.704 130.792 532.296 129.496C528.936 128.2 526.008 126.376 523.512 124.024C521.016 121.624 519.048 118.792 517.608 115.528C516.168 112.216 515.448 108.544 515.448 104.512ZM564.737 104.224C564.737 100.144 565.457 96.472 566.897 93.208C568.337 89.896 570.305 87.088 572.801 84.784C575.345 82.48 578.345 80.704 581.801 79.456C585.257 78.208 589.001 77.584 593.033 77.584C597.065 77.584 600.809 78.208 604.265 79.456C607.721 80.704 610.721 82.48 613.265 84.784C615.809 87.088 617.801 89.896 619.241 93.208C620.681 96.472 621.401 100.144 621.401 104.224C621.401 108.304 620.681 112.024 619.241 115.384C617.801 118.744 615.809 121.624 613.265 124.024C610.721 126.376 607.721 128.2 604.265 129.496C600.809 130.792 597.065 131.44 593.033 131.44C589.001 131.44 585.257 130.792 581.801 129.496C578.345 128.2 575.345 126.376 572.801 124.024C570.305 121.624 568.337 118.744 566.897 115.384C565.457 112.024 564.737 108.304 564.737 104.224ZM582.953 104.224C582.953 105.904 583.193 107.44 583.673 108.832C584.201 110.224 584.897 111.424 585.761 112.432C586.673 113.44 587.753 114.232 589.001 114.808C590.249 115.336 591.593 115.6 593.033 115.6C594.473 115.6 595.793 115.336 596.993 114.808C598.241 114.232 599.321 113.44 600.233 112.432C601.145 111.424 601.841 110.224 602.321 108.832C602.849 107.44 603.113 105.904 603.113 104.224C603.113 102.592 602.849 101.104 602.321 99.76C601.841 98.368 601.145 97.216 600.233 96.304C599.321 95.344 598.241 94.6 596.993 94.072C595.793 93.544 594.473 93.28 593.033 93.28C591.593 93.28 590.249 93.544 589.001 94.072C587.753 94.6 586.673 95.344 585.761 96.304C584.897 97.216 584.201 98.368 583.673 99.76C583.193 101.104 582.953 102.592 582.953 104.224ZM643.827 101.2L644.619 130H628.635V79.024H651.027L660.243 106.456H660.603L668.595 79.024H691.707V130H675.075L675.579 101.344L675.147 101.272L665.643 130H653.547L644.187 101.2H643.827ZM716.389 101.2L717.181 130H701.197V79.024H723.589L732.805 106.456H733.165L741.157 79.024H764.269V130H747.637L748.141 101.344L747.709 101.272L738.205 130H726.109L716.749 101.2H716.389ZM773.76 79.024H808.824V93.28H789.888V97.672H807.672V110.992H789.888V115.744H810.048V130H773.76V79.024ZM817.143 79.024H839.103C841.599 79.024 844.071 79.288 846.519 79.816C849.015 80.296 851.223 81.184 853.143 82.48C855.111 83.728 856.695 85.432 857.895 87.592C859.095 89.704 859.695 92.368 859.695 95.584C859.695 98.704 858.927 101.464 857.391 103.864C855.855 106.216 853.647 108.04 850.767 109.336L863.727 130H843.999L834.207 111.784H833.703V130H817.143V79.024ZM833.559 100.552H836.943C837.519 100.552 838.143 100.504 838.815 100.408C839.535 100.312 840.183 100.12 840.759 99.832C841.383 99.496 841.887 99.064 842.271 98.536C842.703 97.96 842.919 97.216 842.919 96.304C842.919 95.392 842.751 94.672 842.415 94.144C842.079 93.616 841.647 93.232 841.119 92.992C840.591 92.704 840.015 92.536 839.391 92.488C838.767 92.392 838.191 92.344 837.663 92.344H833.559V100.552ZM866.237 104.512C866.237 100.432 866.957 96.736 868.397 93.424C869.837 90.112 871.805 87.28 874.301 84.928C876.797 82.576 879.725 80.776 883.085 79.528C886.493 78.232 890.117 77.584 893.957 77.584C897.893 77.584 901.613 78.232 905.117 79.528C908.621 80.776 911.549 82.48 913.901 84.64L903.389 97.312C902.429 96.064 901.229 95.128 899.789 94.504C898.349 93.832 896.741 93.496 894.965 93.496C893.525 93.496 892.181 93.76 890.933 94.288C889.685 94.768 888.581 95.488 887.621 96.448C886.709 97.408 885.989 98.584 885.461 99.976C884.933 101.32 884.669 102.832 884.669 104.512C884.669 106.192 884.933 107.704 885.461 109.048C886.037 110.344 886.781 111.472 887.693 112.432C888.653 113.392 889.757 114.136 891.005 114.664C892.253 115.144 893.573 115.384 894.965 115.384C896.933 115.384 898.613 114.976 900.005 114.16C901.445 113.344 902.573 112.384 903.389 111.28L913.901 123.88C911.597 126.184 908.765 128.032 905.405 129.424C902.045 130.768 898.229 131.44 893.957 131.44C890.117 131.44 886.493 130.792 883.085 129.496C879.725 128.2 876.797 126.376 874.301 124.024C871.805 121.624 869.837 118.792 868.397 115.528C866.957 112.216 866.237 108.544 866.237 104.512ZM918.674 79.024H935.954V130H918.674V79.024ZM959.647 79.024H977.863L997.735 130H979.087L976.423 122.512H960.223L957.703 130H939.559L959.647 79.024ZM968.503 96.808L964.327 109.408H972.607L968.503 96.808ZM1001.36 79.024H1018.64V115.312H1035.56V130H1001.36V79.024Z" fill="black"/>
<path d="M664.264 224.72C662.92 226.544 661.176 228.032 659.032 229.184C656.888 230.304 654.312 230.864 651.304 230.864C648.712 230.864 646.312 230.432 644.104 229.568C641.928 228.672 640.04 227.44 638.44 225.872C636.872 224.272 635.64 222.384 634.744 220.208C633.848 218 633.4 215.584 633.4 212.96C633.4 210.304 633.848 207.888 634.744 205.712C635.672 203.504 636.936 201.632 638.536 200.096C640.168 198.528 642.088 197.312 644.296 196.448C646.504 195.584 648.904 195.152 651.496 195.152C652.648 195.152 653.816 195.264 655 195.488C656.184 195.712 657.32 196.048 658.408 196.496C659.496 196.944 660.488 197.504 661.384 198.176C662.28 198.816 663.048 199.568 663.688 200.432L659.944 203.312C659.112 202.16 657.928 201.216 656.392 200.48C654.888 199.712 653.256 199.328 651.496 199.328C649.512 199.328 647.72 199.696 646.12 200.432C644.552 201.136 643.208 202.112 642.088 203.36C640.968 204.608 640.104 206.064 639.496 207.728C638.888 209.36 638.584 211.104 638.584 212.96C638.584 214.88 638.872 216.672 639.448 218.336C640.056 220 640.904 221.456 641.992 222.704C643.112 223.92 644.456 224.88 646.024 225.584C647.624 226.288 649.4 226.64 651.352 226.64C653.272 226.64 655.016 226.256 656.584 225.488C658.152 224.72 659.448 223.6 660.472 222.128L664.264 224.72ZM682.189 215.264C682.189 213.568 681.677 212.32 680.653 211.52C679.629 210.688 678.269 210.272 676.573 210.272C675.293 210.272 674.077 210.528 672.925 211.04C671.805 211.52 670.861 212.144 670.093 212.912L667.693 210.032C668.813 208.976 670.173 208.144 671.773 207.536C673.405 206.928 675.149 206.624 677.005 206.624C678.637 206.624 680.045 206.864 681.229 207.344C682.445 207.792 683.437 208.416 684.205 209.216C684.973 210.016 685.549 210.96 685.933 212.048C686.317 213.136 686.509 214.304 686.509 215.552V225.488C686.509 226.256 686.525 227.072 686.557 227.936C686.621 228.768 686.717 229.456 686.845 230H682.765C682.509 228.912 682.381 227.824 682.381 226.736H682.237C681.405 227.952 680.349 228.896 679.069 229.568C677.821 230.24 676.333 230.576 674.605 230.576C673.709 230.576 672.765 230.448 671.773 230.192C670.813 229.968 669.933 229.584 669.133 229.04C668.333 228.496 667.661 227.776 667.117 226.88C666.605 225.984 666.349 224.88 666.349 223.568C666.349 221.84 666.813 220.48 667.741 219.488C668.669 218.464 669.885 217.696 671.389 217.184C672.893 216.64 674.589 216.288 676.477 216.128C678.365 215.968 680.269 215.888 682.189 215.888V215.264ZM681.085 219.152C679.965 219.152 678.797 219.2 677.581 219.296C676.397 219.392 675.309 219.584 674.317 219.872C673.357 220.16 672.557 220.592 671.917 221.168C671.277 221.744 670.957 222.512 670.957 223.472C670.957 224.144 671.085 224.704 671.341 225.152C671.629 225.6 671.997 225.968 672.445 226.256C672.893 226.544 673.389 226.752 673.933 226.88C674.477 226.976 675.037 227.024 675.613 227.024C677.725 227.024 679.341 226.4 680.461 225.152C681.613 223.872 682.189 222.272 682.189 220.352V219.152H681.085ZM698.556 241.52H694.044V207.248H698.46V210.8H698.604C699.34 209.584 700.412 208.592 701.82 207.824C703.26 207.024 704.924 206.624 706.812 206.624C708.508 206.624 710.044 206.928 711.42 207.536C712.828 208.144 714.028 208.992 715.02 210.08C716.044 211.168 716.828 212.448 717.372 213.92C717.916 215.36 718.188 216.912 718.188 218.576C718.188 220.24 717.916 221.808 717.372 223.28C716.828 224.752 716.06 226.032 715.068 227.12C714.076 228.208 712.876 229.072 711.468 229.712C710.06 230.32 708.476 230.624 706.716 230.624C705.084 230.624 703.548 230.272 702.108 229.568C700.668 228.864 699.532 227.872 698.7 226.592H698.556V241.52ZM713.532 218.576C713.532 217.52 713.372 216.496 713.052 215.504C712.732 214.512 712.252 213.632 711.612 212.864C710.972 212.096 710.172 211.488 709.212 211.04C708.284 210.592 707.196 210.368 705.948 210.368C704.796 210.368 703.74 210.592 702.78 211.04C701.852 211.488 701.052 212.096 700.38 212.864C699.708 213.632 699.18 214.512 698.796 215.504C698.444 216.496 698.268 217.536 698.268 218.624C698.268 219.712 698.444 220.752 698.796 221.744C699.18 222.736 699.708 223.616 700.38 224.384C701.052 225.12 701.852 225.712 702.78 226.16C703.74 226.608 704.796 226.832 705.948 226.832C707.196 226.832 708.284 226.608 709.212 226.16C710.172 225.68 710.972 225.056 711.612 224.288C712.252 223.52 712.732 222.64 713.052 221.648C713.372 220.656 713.532 219.632 713.532 218.576ZM729.026 230H724.514V207.248H729.026V230ZM729.794 199.04C729.794 199.872 729.49 200.56 728.882 201.104C728.306 201.648 727.602 201.92 726.77 201.92C725.938 201.92 725.234 201.648 724.658 201.104C724.082 200.528 723.794 199.84 723.794 199.04C723.794 198.208 724.082 197.52 724.658 196.976C725.234 196.4 725.938 196.112 726.77 196.112C727.602 196.112 728.306 196.4 728.882 196.976C729.49 197.52 729.794 198.208 729.794 199.04ZM748.024 210.944H741.976V222.8C741.976 224.176 742.232 225.168 742.744 225.776C743.256 226.352 744.072 226.64 745.192 226.64C745.608 226.64 746.056 226.592 746.536 226.496C747.016 226.4 747.448 226.256 747.832 226.064L747.976 229.76C747.432 229.952 746.824 230.096 746.152 230.192C745.512 230.32 744.84 230.384 744.136 230.384C741.992 230.384 740.344 229.792 739.192 228.608C738.072 227.424 737.512 225.648 737.512 223.28V210.944H733.144V207.248H737.512V200.72H741.976V207.248H748.024V210.944ZM766.845 215.264C766.845 213.568 766.333 212.32 765.309 211.52C764.285 210.688 762.925 210.272 761.229 210.272C759.949 210.272 758.733 210.528 757.581 211.04C756.461 211.52 755.517 212.144 754.749 212.912L752.349 210.032C753.469 208.976 754.829 208.144 756.429 207.536C758.061 206.928 759.805 206.624 761.661 206.624C763.293 206.624 764.701 206.864 765.885 207.344C767.101 207.792 768.093 208.416 768.861 209.216C769.629 210.016 770.205 210.96 770.589 212.048C770.973 213.136 771.165 214.304 771.165 215.552V225.488C771.165 226.256 771.181 227.072 771.213 227.936C771.277 228.768 771.373 229.456 771.501 230H767.421C767.165 228.912 767.037 227.824 767.037 226.736H766.893C766.061 227.952 765.005 228.896 763.725 229.568C762.477 230.24 760.989 230.576 759.261 230.576C758.365 230.576 757.421 230.448 756.429 230.192C755.469 229.968 754.589 229.584 753.789 229.04C752.989 228.496 752.317 227.776 751.773 226.88C751.261 225.984 751.005 224.88 751.005 223.568C751.005 221.84 751.469 220.48 752.397 219.488C753.325 218.464 754.541 217.696 756.045 217.184C757.549 216.64 759.245 216.288 761.133 216.128C763.021 215.968 764.925 215.888 766.845 215.888V215.264ZM765.741 219.152C764.621 219.152 763.453 219.2 762.237 219.296C761.053 219.392 759.965 219.584 758.973 219.872C758.013 220.16 757.213 220.592 756.573 221.168C755.933 221.744 755.613 222.512 755.613 223.472C755.613 224.144 755.741 224.704 755.997 225.152C756.285 225.6 756.653 225.968 757.101 226.256C757.549 226.544 758.045 226.752 758.589 226.88C759.133 226.976 759.693 227.024 760.269 227.024C762.381 227.024 763.997 226.4 765.117 225.152C766.269 223.872 766.845 222.272 766.845 220.352V219.152H765.741ZM783.309 230H778.797V193.712H783.309V230ZM820.305 202.304C819.633 201.376 818.721 200.624 817.569 200.048C816.417 199.44 815.121 199.136 813.681 199.136C812.913 199.136 812.129 199.248 811.329 199.472C810.561 199.664 809.857 200 809.217 200.48C808.577 200.928 808.049 201.504 807.633 202.208C807.249 202.88 807.057 203.696 807.057 204.656C807.057 205.584 807.233 206.368 807.585 207.008C807.969 207.616 808.465 208.144 809.073 208.592C809.713 209.008 810.449 209.376 811.281 209.696C812.145 209.984 813.057 210.288 814.017 210.608C815.169 210.96 816.337 211.36 817.521 211.808C818.705 212.256 819.777 212.848 820.737 213.584C821.697 214.32 822.481 215.248 823.089 216.368C823.697 217.456 824.001 218.848 824.001 220.544C824.001 222.304 823.665 223.84 822.993 225.152C822.353 226.432 821.489 227.504 820.401 228.368C819.313 229.2 818.049 229.824 816.609 230.24C815.201 230.656 813.745 230.864 812.241 230.864C810.097 230.864 808.017 230.448 806.001 229.616C804.017 228.784 802.369 227.552 801.057 225.92L804.753 222.8C805.553 223.984 806.625 224.944 807.969 225.68C809.313 226.416 810.769 226.784 812.337 226.784C813.137 226.784 813.937 226.672 814.737 226.448C815.537 226.224 816.257 225.872 816.897 225.392C817.569 224.912 818.113 224.32 818.529 223.616C818.945 222.88 819.153 222 819.153 220.976C819.153 219.952 818.929 219.104 818.481 218.432C818.065 217.728 817.489 217.136 816.753 216.656C816.017 216.176 815.153 215.776 814.161 215.456C813.201 215.104 812.177 214.752 811.089 214.4C810.001 214.08 808.929 213.696 807.873 213.248C806.817 212.768 805.873 212.176 805.041 211.472C804.209 210.736 803.537 209.84 803.025 208.784C802.513 207.728 802.257 206.416 802.257 204.848C802.257 203.152 802.593 201.696 803.265 200.48C803.969 199.264 804.865 198.256 805.953 197.456C807.073 196.656 808.321 196.08 809.697 195.728C811.105 195.344 812.513 195.152 813.921 195.152C815.905 195.152 817.761 195.504 819.489 196.208C821.217 196.912 822.609 197.856 823.665 199.04L820.305 202.304ZM841.352 210.944H835.304V222.8C835.304 224.176 835.56 225.168 836.072 225.776C836.584 226.352 837.4 226.64 838.52 226.64C838.936 226.64 839.384 226.592 839.864 226.496C840.344 226.4 840.776 226.256 841.16 226.064L841.304 229.76C840.76 229.952 840.152 230.096 839.48 230.192C838.84 230.32 838.168 230.384 837.464 230.384C835.32 230.384 833.672 229.792 832.52 228.608C831.4 227.424 830.84 225.648 830.84 223.28V210.944H826.472V207.248H830.84V200.72H835.304V207.248H841.352V210.944ZM860.173 215.264C860.173 213.568 859.661 212.32 858.637 211.52C857.613 210.688 856.253 210.272 854.557 210.272C853.277 210.272 852.061 210.528 850.909 211.04C849.789 211.52 848.845 212.144 848.077 212.912L845.677 210.032C846.797 208.976 848.157 208.144 849.757 207.536C851.389 206.928 853.133 206.624 854.989 206.624C856.621 206.624 858.029 206.864 859.213 207.344C860.429 207.792 861.421 208.416 862.189 209.216C862.957 210.016 863.533 210.96 863.917 212.048C864.301 213.136 864.493 214.304 864.493 215.552V225.488C864.493 226.256 864.509 227.072 864.541 227.936C864.605 228.768 864.701 229.456 864.829 230H860.749C860.493 228.912 860.365 227.824 860.365 226.736H860.221C859.389 227.952 858.333 228.896 857.053 229.568C855.805 230.24 854.317 230.576 852.589 230.576C851.693 230.576 850.749 230.448 849.757 230.192C848.797 229.968 847.917 229.584 847.117 229.04C846.317 228.496 845.645 227.776 845.101 226.88C844.589 225.984 844.333 224.88 844.333 223.568C844.333 221.84 844.797 220.48 845.725 219.488C846.653 218.464 847.869 217.696 849.373 217.184C850.877 216.64 852.573 216.288 854.461 216.128C856.349 215.968 858.253 215.888 860.173 215.888V215.264ZM859.069 219.152C857.949 219.152 856.781 219.2 855.565 219.296C854.381 219.392 853.293 219.584 852.301 219.872C851.341 220.16 850.541 220.592 849.901 221.168C849.261 221.744 848.941 222.512 848.941 223.472C848.941 224.144 849.069 224.704 849.325 225.152C849.613 225.6 849.981 225.968 850.429 226.256C850.877 226.544 851.373 226.752 851.917 226.88C852.461 226.976 853.021 227.024 853.597 227.024C855.709 227.024 857.325 226.4 858.445 225.152C859.597 223.872 860.173 222.272 860.173 220.352V219.152H859.069ZM887.965 213.008C887.485 212.272 886.765 211.664 885.805 211.184C884.845 210.672 883.821 210.416 882.733 210.416C881.549 210.416 880.493 210.64 879.565 211.088C878.669 211.536 877.901 212.144 877.261 212.912C876.621 213.648 876.125 214.512 875.773 215.504C875.453 216.496 875.293 217.536 875.293 218.624C875.293 219.712 875.453 220.752 875.773 221.744C876.125 222.736 876.621 223.616 877.261 224.384C877.901 225.12 878.685 225.712 879.613 226.16C880.541 226.608 881.597 226.832 882.781 226.832C883.933 226.832 884.973 226.608 885.901 226.16C886.861 225.712 887.645 225.104 888.253 224.336L891.277 227.072C890.317 228.192 889.117 229.072 887.677 229.712C886.237 230.32 884.605 230.624 882.781 230.624C881.021 230.624 879.389 230.336 877.885 229.76C876.413 229.184 875.133 228.384 874.045 227.36C872.957 226.304 872.093 225.04 871.453 223.568C870.845 222.096 870.541 220.448 870.541 218.624C870.541 216.832 870.845 215.2 871.453 213.728C872.061 212.256 872.909 210.992 873.997 209.936C875.085 208.88 876.365 208.064 877.837 207.488C879.341 206.912 880.957 206.624 882.685 206.624C884.285 206.624 885.869 206.944 887.437 207.584C889.037 208.224 890.301 209.152 891.229 210.368L887.965 213.008ZM900.355 217.136H900.499L910.051 207.248H916.099L905.443 217.568L917.011 230H910.771L900.499 218.192H900.355V230H895.843V193.712H900.355V217.136Z" fill="#717F93"/>
</svg>
