<svg width="84" height="81" viewBox="0 0 84 81" fill="none" xmlns="http://www.w3.org/2000/svg">
<path d="M30.4568 77.4645L1.1145 48.1221C0.498981 47.5066 0.498978 46.5087 1.1145 45.8931L37.5432 9.46447C38.4809 8.52678 39.7526 8 41.0787 8H68C70.7614 8 73 10.2386 73 13V39.9213C73 41.2474 72.4732 42.5192 71.5355 43.4568L37.5279 77.4645C35.5753 79.4171 32.4095 79.4171 30.4568 77.4645Z" fill="#E0E0EB"/>
<path opacity="0.8" d="M79 81H40C37.2386 81 35 78.7614 35 76V26.8062C35 25.4889 35.5198 24.2249 36.4466 23.2887L55.9466 3.58969C57.9032 1.61308 61.0968 1.61309 63.0534 3.5897L82.5534 23.2887C83.4802 24.2249 84 25.4889 84 26.8062V76C84 78.7614 81.7614 81 79 81Z" fill="#5C6BF6"/>
<circle cx="58.5" cy="23.5" r="5.5" fill="white"/>
</svg>
