<svg width="81" height="81" viewBox="0 0 81 81" fill="none" xmlns="http://www.w3.org/2000/svg">
<circle cx="24.3128" cy="1.96724" r="1.96724" fill="#6EDFA5"/>
<circle cx="13.3783" cy="1.96724" r="1.96724" fill="#6EDFA5"/>
<circle cx="2.44371" cy="1.96724" r="1.96724" fill="#6EDFA5"/>
<circle cx="35.2474" cy="1.96724" r="1.96724" fill="#6EDFA5"/>
<circle cx="46.182" cy="1.96724" r="1.96724" fill="#6EDFA5"/>
<circle cx="57.1166" cy="1.96724" r="1.96724" fill="#6EDFA5"/>
<circle cx="68.0511" cy="1.96724" r="1.96724" fill="#6EDFA5"/>
<circle cx="78.9857" cy="1.96724" r="1.96724" fill="#6EDFA5"/>
<circle cx="24.3128" cy="12.9017" r="1.96724" fill="#6EDFA5"/>
<circle cx="13.3783" cy="12.9017" r="1.96724" fill="#6EDFA5"/>
<circle cx="2.44371" cy="12.9017" r="1.96724" fill="#6EDFA5"/>
<circle cx="35.2474" cy="12.9017" r="1.96724" fill="#6EDFA5"/>
<circle cx="46.182" cy="12.9017" r="1.96724" fill="#6EDFA5"/>
<circle cx="57.1166" cy="12.9017" r="1.96724" fill="#6EDFA5"/>
<circle cx="68.0511" cy="12.9017" r="1.96724" fill="#6EDFA5"/>
<circle cx="78.9857" cy="12.9017" r="1.96724" fill="#6EDFA5"/>
<circle cx="24.3128" cy="23.8361" r="1.96724" fill="#6EDFA5"/>
<circle cx="13.3783" cy="23.8361" r="1.96724" fill="#6EDFA5"/>
<circle cx="2.44371" cy="23.8361" r="1.96724" fill="#6EDFA5"/>
<circle cx="35.2474" cy="23.8361" r="1.96724" fill="#6EDFA5"/>
<circle cx="46.182" cy="23.8361" r="1.96724" fill="#6EDFA5"/>
<circle cx="57.1166" cy="23.8361" r="1.96724" fill="#6EDFA5"/>
<circle cx="68.0511" cy="23.8361" r="1.96724" fill="#6EDFA5"/>
<circle cx="78.9857" cy="23.8361" r="1.96724" fill="#6EDFA5"/>
<circle cx="24.3128" cy="34.7706" r="1.96724" fill="#6EDFA5"/>
<circle cx="13.3783" cy="34.7706" r="1.96724" fill="#6EDFA5"/>
<circle cx="2.44371" cy="34.7706" r="1.96724" fill="#6EDFA5"/>
<circle cx="35.2474" cy="34.7706" r="1.96724" fill="#6EDFA5"/>
<circle cx="46.182" cy="34.7706" r="1.96724" fill="#6EDFA5"/>
<circle cx="57.1166" cy="34.7706" r="1.96724" fill="#6EDFA5"/>
<circle cx="68.0511" cy="34.7706" r="1.96724" fill="#6EDFA5"/>
<circle cx="78.9857" cy="34.7706" r="1.96724" fill="#6EDFA5"/>
<circle cx="24.3128" cy="45.705" r="1.96724" fill="#6EDFA5"/>
<circle cx="13.3783" cy="45.705" r="1.96724" fill="#6EDFA5"/>
<circle cx="2.44371" cy="45.705" r="1.96724" fill="#6EDFA5"/>
<circle cx="35.2474" cy="45.705" r="1.96724" fill="#6EDFA5"/>
<circle cx="46.182" cy="45.705" r="1.96724" fill="#6EDFA5"/>
<circle cx="57.1166" cy="45.705" r="1.96724" fill="#6EDFA5"/>
<circle cx="68.0511" cy="45.705" r="1.96724" fill="#6EDFA5"/>
<circle cx="78.9857" cy="45.705" r="1.96724" fill="#6EDFA5"/>
<circle cx="24.3128" cy="56.6395" r="1.96724" fill="#6EDFA5"/>
<circle cx="13.3783" cy="56.6395" r="1.96724" fill="#6EDFA5"/>
<circle cx="2.44371" cy="56.6395" r="1.96724" fill="#6EDFA5"/>
<circle cx="35.2474" cy="56.6395" r="1.96724" fill="#6EDFA5"/>
<circle cx="46.182" cy="56.6395" r="1.96724" fill="#6EDFA5"/>
<circle cx="57.1166" cy="56.6395" r="1.96724" fill="#6EDFA5"/>
<circle cx="68.0511" cy="56.6395" r="1.96724" fill="#6EDFA5"/>
<circle cx="78.9857" cy="56.6395" r="1.96724" fill="#6EDFA5"/>
<circle cx="24.3128" cy="67.5739" r="1.96724" fill="#6EDFA5"/>
<circle cx="13.3783" cy="67.5739" r="1.96724" fill="#6EDFA5"/>
<circle cx="2.44371" cy="67.5739" r="1.96724" fill="#6EDFA5"/>
<circle cx="35.2474" cy="67.5739" r="1.96724" fill="#6EDFA5"/>
<circle cx="46.182" cy="67.5739" r="1.96724" fill="#6EDFA5"/>
<circle cx="57.1166" cy="67.5739" r="1.96724" fill="#6EDFA5"/>
<circle cx="68.0511" cy="67.5739" r="1.96724" fill="#6EDFA5"/>
<circle cx="78.9857" cy="67.5739" r="1.96724" fill="#6EDFA5"/>
<circle cx="24.3128" cy="78.5084" r="1.96724" fill="#6EDFA5"/>
<circle cx="13.3783" cy="78.5084" r="1.96724" fill="#6EDFA5"/>
<circle cx="2.44371" cy="78.5084" r="1.96724" fill="#6EDFA5"/>
<circle cx="35.2474" cy="78.5084" r="1.96724" fill="#6EDFA5"/>
<circle cx="46.182" cy="78.5084" r="1.96724" fill="#6EDFA5"/>
<circle cx="57.1166" cy="78.5084" r="1.96724" fill="#6EDFA5"/>
<circle cx="68.0511" cy="78.5084" r="1.96724" fill="#6EDFA5"/>
<circle cx="78.9857" cy="78.5084" r="1.96724" fill="#6EDFA5"/>
</svg>
