<svg width="93" height="92" viewBox="0 0 93 92" fill="none" xmlns="http://www.w3.org/2000/svg">
<path d="M91.4216 46.4422L67.1574 23.6712C64.686 21.3519 60.6719 22.1115 59.2187 25.1734L36.3584 73.3434C35.8596 74.3944 35.0099 75.2386 33.9557 75.7306L20.4234 82.0456C15.5755 84.308 17.1881 91.5766 22.5378 91.5766H88C90.7614 91.5766 93 89.338 93 86.5766V50.0881C93 48.707 92.4287 47.3873 91.4216 46.4422Z" fill="#333942"/>
<path opacity="0.8" d="M88 91.5765H11.3878H10.2429C6.07865 91.5765 3.73921 86.784 6.30081 83.5008L31.5507 51.1383C32.8361 49.4909 35.0103 48.8164 37.0023 49.4472L58.2059 56.1617C60.498 56.8876 62.9822 55.8792 64.12 53.7612L83.5953 17.5072C86.0548 12.9288 93 14.6762 93 19.8734V49.1097V86.5765C93 89.338 90.7614 91.5765 88 91.5765Z" fill="#5C6BF6"/>
</svg>
