<svg width="84" height="87" viewBox="0 0 84 87" fill="none" xmlns="http://www.w3.org/2000/svg">
<circle cx="62.4047" cy="21.5" r="21.5" fill="#333942"/>
<path opacity="0.8" d="M32.9047 87C17.9047 82 -7.09529 59 1.9047 14.5C14.4047 14.5 22.9047 11 32.9047 4.5C42.4047 11 53.4047 15 64.9047 15C71.4047 63.5 46.738 82.1667 32.9047 87Z" fill="#5C6BF6"/>
<path d="M25.9047 38V42.9999H28.4047V38.4999C28.4047 34 37.4047 34 37.4047 38.4999V42.9999H39.9047V38C39.9047 31 25.9047 31 25.9047 38Z" fill="white"/>
<path d="M21.9047 48C21.9047 45.2386 24.1433 43 26.9047 43H38.9047C41.6661 43 43.9047 45.2386 43.9047 48V54C43.9047 56.7614 41.6661 59 38.9047 59H26.9047C24.1433 59 21.9047 56.7614 21.9047 54V48Z" fill="white"/>
<path d="M51.9047 22L49.4047 24.5L57.9047 32.5L73.4047 13.5L70.9047 11.5L57.4047 27.5L51.9047 22Z" fill="white"/>
</svg>
