<svg width="89" height="96" viewBox="0 0 89 96" fill="none" xmlns="http://www.w3.org/2000/svg">
<path d="M51.6743 3.77811L3.58716 17.9433C1.46025 18.5698 0 20.5223 0 22.7396V66.5867C0 80.7017 14.2268 90.3755 27.3532 85.186L51.8532 75.4999C59.4857 72.4824 64.5 65.1081 64.5 56.9007V13.3706C64.5 6.69276 58.08 1.89116 51.6743 3.77811Z" fill="#333942"/>
<path opacity="0.8" d="M7 29C2.5 29 -4.94718e-06 27 0 23.5V67C0 78.0457 8.95431 87 20 87H64.5C97 87 97 29 64.5 29H7Z" fill="#5C6BF6"/>
<circle cx="73" cy="58.5" r="6" fill="white"/>
</svg>
