<svg width="20" height="20" viewBox="0 0 20 20" fill="none" xmlns="http://www.w3.org/2000/svg">
<path d="M16.5 4H3.5C3.22344 4 3 4.22344 3 4.5V14.5C3 14.7766 3.22344 15 3.5 15H16.5C16.7766 15 17 14.7766 17 14.5V4.5C17 4.22344 16.7766 4 16.5 4ZM4 5H16V7H4V5ZM16 14H4V8.375H16V14ZM12.1719 12.875H14.75C14.8188 12.875 14.875 12.8188 14.875 12.75V12C14.875 11.9313 14.8188 11.875 14.75 11.875H12.1719C12.1031 11.875 12.0469 11.9313 12.0469 12V12.75C12.0469 12.8188 12.1031 12.875 12.1719 12.875Z" fill="#4F46E5"/>
</svg>
