<svg width="1550" height="1563" viewBox="0 0 1550 1563" fill="none" xmlns="http://www.w3.org/2000/svg">
<path d="M846 1326.09V1251.46L1139.58 1377.45V1460.81L846 1326.09Z" fill="#9CA3AF"/>
<path d="M1139.58 1264.63V1339.57L846 1214.11V1138.33L1139.58 1264.63Z" fill="#9CA3AF"/>
<path d="M846 1024.66V1101.28L1139.58 1226.74V1149.28L846 1024.66Z" fill="#9CA3AF"/>
<path d="M1175.76 1226.74V1149.28L1471.86 1023.82V1101.28L1175.76 1226.74Z" fill="#9CA3AF"/>
<path d="M1175.76 1339.57V1264.63L1471.86 1138.33V1214.11L1175.76 1339.57Z" fill="#9CA3AF"/>
<path d="M1471.86 1326.09V1251.46L1372.6 1294.1L1373.78 1370.72L1471.86 1326.09Z" fill="#9CA3AF"/>
<path d="M1175.76 1377.45V1460.81L1274.77 1415.77V1335.36L1175.76 1377.45Z" fill="#9CA3AF"/>
<path d="M1159.43 758.492L865 634.72L1159.43 516L1453.01 634.72L1159.43 758.492Z" fill="#E5E7EB"/>
<g opacity="0.7">
<path d="M1139.58 1033.88V1108.82L846 983.365V907.586L1139.58 1033.88Z" fill="#F3D557"/>
<path d="M846 793.918V870.539L1139.58 995.995V918.532L846 793.918Z" fill="#F3D557"/>
<path d="M1175.76 995.995V918.532L1471.86 793.076V870.539L1175.76 995.995Z" fill="#F3D557"/>
<path d="M1175.76 1108.82V1033.88L1471.86 907.586V983.365L1175.76 1108.82Z" fill="#F3D557"/>
</g>
<path d="M1139.58 800.614V878.076L846 752.937V676L1139.58 800.614Z" fill="#E5E7EB"/>
<path d="M1175.76 878.076V800.614L1471.86 676V752.621L1175.76 878.076Z" fill="#E5E7EB"/>
<rect opacity="0.7" x="78" y="793" width="700" height="189" fill="#F3D557"/>
<rect x="78" y="1024" width="700" height="301" fill="#9CA3AF"/>
<rect x="78" y="676" width="700" height="76" fill="#E5E7EB"/>
<path d="M143.188 729V710.28L138.436 713.952L135.304 709.668L143.692 703.512H149.236V729H143.188ZM177.873 716.184C177.873 717.984 177.693 719.7 177.333 721.332C176.973 722.964 176.397 724.404 175.605 725.652C174.813 726.876 173.781 727.86 172.509 728.604C171.261 729.324 169.737 729.684 167.937 729.684C166.137 729.684 164.601 729.324 163.329 728.604C162.057 727.86 161.013 726.876 160.197 725.652C159.405 724.404 158.829 722.964 158.469 721.332C158.109 719.7 157.929 717.984 157.929 716.184C157.929 714.384 158.109 712.68 158.469 711.072C158.829 709.44 159.405 708.024 160.197 706.824C161.013 705.6 162.057 704.628 163.329 703.908C164.601 703.188 166.137 702.828 167.937 702.828C169.737 702.828 171.261 703.188 172.509 703.908C173.781 704.628 174.813 705.6 175.605 706.824C176.397 708.024 176.973 709.44 177.333 711.072C177.693 712.68 177.873 714.384 177.873 716.184ZM171.681 716.184C171.681 715.392 171.633 714.516 171.537 713.556C171.441 712.596 171.261 711.708 170.997 710.892C170.733 710.052 170.349 709.356 169.845 708.804C169.365 708.228 168.729 707.94 167.937 707.94C167.145 707.94 166.497 708.228 165.993 708.804C165.489 709.356 165.093 710.052 164.805 710.892C164.541 711.708 164.361 712.596 164.265 713.556C164.169 714.516 164.121 715.392 164.121 716.184C164.121 717 164.169 717.9 164.265 718.884C164.361 719.844 164.541 720.744 164.805 721.584C165.093 722.4 165.489 723.096 165.993 723.672C166.497 724.224 167.145 724.5 167.937 724.5C168.729 724.5 169.365 724.224 169.845 723.672C170.349 723.096 170.733 722.4 170.997 721.584C171.261 720.744 171.441 719.844 171.537 718.884C171.633 717.9 171.681 717 171.681 716.184ZM211.551 722.628C211.551 723.564 211.371 724.452 211.011 725.292C210.651 726.108 210.159 726.828 209.535 727.452C208.935 728.052 208.215 728.532 207.375 728.892C206.535 729.252 205.647 729.432 204.711 729.432C203.775 729.432 202.887 729.252 202.047 728.892C201.207 728.532 200.475 728.052 199.851 727.452C199.251 726.828 198.771 726.108 198.411 725.292C198.051 724.452 197.871 723.564 197.871 722.628C197.871 721.692 198.051 720.816 198.411 720C198.771 719.16 199.251 718.44 199.851 717.84C200.475 717.216 201.207 716.724 202.047 716.364C202.887 716.004 203.775 715.824 204.711 715.824C205.647 715.824 206.535 716.004 207.375 716.364C208.215 716.724 208.935 717.216 209.535 717.84C210.159 718.44 210.651 719.16 211.011 720C211.371 720.816 211.551 721.692 211.551 722.628ZM207.519 722.628C207.519 722.244 207.435 721.884 207.267 721.548C207.123 721.188 206.919 720.888 206.655 720.648C206.415 720.384 206.127 720.18 205.791 720.036C205.455 719.892 205.095 719.82 204.711 719.82C203.943 719.82 203.283 720.096 202.731 720.648C202.179 721.2 201.903 721.86 201.903 722.628C201.903 723.396 202.179 724.056 202.731 724.608C203.283 725.136 203.943 725.4 204.711 725.4C205.095 725.4 205.455 725.328 205.791 725.184C206.127 725.04 206.415 724.848 206.655 724.608C206.919 724.344 207.123 724.044 207.267 723.708C207.435 723.372 207.519 723.012 207.519 722.628ZM194.271 709.884C194.271 710.82 194.091 711.708 193.731 712.548C193.371 713.364 192.879 714.084 192.255 714.708C191.655 715.308 190.935 715.788 190.095 716.148C189.255 716.508 188.367 716.688 187.431 716.688C186.495 716.688 185.607 716.508 184.767 716.148C183.927 715.788 183.195 715.308 182.571 714.708C181.971 714.084 181.491 713.364 181.131 712.548C180.771 711.708 180.591 710.82 180.591 709.884C180.591 708.924 180.771 708.036 181.131 707.22C181.491 706.38 181.971 705.66 182.571 705.06C183.195 704.436 183.927 703.956 184.767 703.62C185.607 703.26 186.495 703.08 187.431 703.08C188.367 703.08 189.255 703.26 190.095 703.62C190.935 703.956 191.655 704.436 192.255 705.06C192.879 705.66 193.371 706.38 193.731 707.22C194.091 708.036 194.271 708.924 194.271 709.884ZM190.239 709.884C190.239 709.116 189.963 708.456 189.411 707.904C188.859 707.352 188.199 707.076 187.431 707.076C186.663 707.076 186.003 707.352 185.451 707.904C184.899 708.456 184.623 709.116 184.623 709.884C184.623 710.652 184.899 711.312 185.451 711.864C186.003 712.392 186.663 712.656 187.431 712.656C188.199 712.656 188.859 712.392 189.411 711.864C189.963 711.312 190.239 710.652 190.239 709.884ZM190.203 730.224L186.999 728.64L201.867 702.36L205.215 703.98L190.203 730.224ZM237.332 724.608H237.368L245.9 703.512H249.86V729H247.268V706.86H247.196L237.98 729H236.612L227.396 706.86H227.324V729H224.732V703.512H228.692L237.332 724.608ZM267.094 718.128C267.094 716.664 266.71 715.572 265.942 714.852C265.174 714.132 264.058 713.772 262.594 713.772C261.586 713.772 260.65 713.952 259.786 714.312C258.922 714.672 258.19 715.152 257.59 715.752L256.222 714.132C256.918 713.436 257.83 712.86 258.958 712.404C260.11 711.948 261.406 711.72 262.846 711.72C263.758 711.72 264.61 711.852 265.402 712.116C266.194 712.356 266.89 712.728 267.49 713.232C268.09 713.736 268.558 714.372 268.894 715.14C269.23 715.908 269.398 716.808 269.398 717.84V725.22C269.398 725.868 269.422 726.54 269.47 727.236C269.518 727.932 269.59 728.52 269.686 729H267.49C267.418 728.592 267.358 728.148 267.31 727.668C267.262 727.188 267.238 726.72 267.238 726.264H267.166C266.398 727.392 265.522 728.208 264.538 728.712C263.578 729.192 262.414 729.432 261.046 729.432C260.398 729.432 259.726 729.336 259.03 729.144C258.358 728.976 257.734 728.688 257.158 728.28C256.606 727.872 256.138 727.344 255.754 726.696C255.394 726.048 255.214 725.256 255.214 724.32C255.214 723.024 255.538 722.004 256.186 721.26C256.858 720.492 257.746 719.928 258.85 719.568C259.954 719.184 261.214 718.944 262.63 718.848C264.07 718.728 265.558 718.668 267.094 718.668V718.128ZM266.374 720.576C265.366 720.576 264.346 720.624 263.314 720.72C262.306 720.792 261.382 720.96 260.542 721.224C259.726 721.464 259.054 721.824 258.526 722.304C257.998 722.784 257.734 723.42 257.734 724.212C257.734 724.812 257.842 725.316 258.058 725.724C258.298 726.132 258.61 726.468 258.994 726.732C259.378 726.972 259.798 727.152 260.254 727.272C260.734 727.368 261.214 727.416 261.694 727.416C262.558 727.416 263.326 727.272 263.998 726.984C264.67 726.672 265.234 726.264 265.69 725.76C266.146 725.232 266.494 724.632 266.734 723.96C266.974 723.288 267.094 722.58 267.094 721.836V720.576H266.374ZM277.901 712.152C277.949 712.608 277.985 713.112 278.009 713.664C278.033 714.216 278.045 714.672 278.045 715.032H278.117C278.597 714.048 279.377 713.256 280.457 712.656C281.537 712.032 282.677 711.72 283.877 711.72C286.013 711.72 287.609 712.356 288.665 713.628C289.745 714.9 290.285 716.58 290.285 718.668V729H287.837V719.676C287.837 718.788 287.765 717.984 287.621 717.264C287.477 716.544 287.225 715.932 286.865 715.428C286.529 714.9 286.061 714.492 285.461 714.204C284.885 713.916 284.153 713.772 283.265 713.772C282.617 713.772 281.981 713.904 281.357 714.168C280.757 714.432 280.217 714.84 279.737 715.392C279.257 715.92 278.873 716.604 278.585 717.444C278.297 718.26 278.153 719.232 278.153 720.36V729H275.705V715.86C275.705 715.404 275.693 714.816 275.669 714.096C275.645 713.376 275.609 712.728 275.561 712.152H277.901ZM307.243 718.128C307.243 716.664 306.859 715.572 306.091 714.852C305.323 714.132 304.207 713.772 302.743 713.772C301.735 713.772 300.799 713.952 299.935 714.312C299.071 714.672 298.339 715.152 297.739 715.752L296.371 714.132C297.067 713.436 297.979 712.86 299.107 712.404C300.259 711.948 301.555 711.72 302.995 711.72C303.907 711.72 304.759 711.852 305.551 712.116C306.343 712.356 307.039 712.728 307.639 713.232C308.239 713.736 308.707 714.372 309.043 715.14C309.379 715.908 309.547 716.808 309.547 717.84V725.22C309.547 725.868 309.571 726.54 309.619 727.236C309.667 727.932 309.739 728.52 309.835 729H307.639C307.567 728.592 307.507 728.148 307.459 727.668C307.411 727.188 307.387 726.72 307.387 726.264H307.315C306.547 727.392 305.671 728.208 304.687 728.712C303.727 729.192 302.563 729.432 301.195 729.432C300.547 729.432 299.875 729.336 299.179 729.144C298.507 728.976 297.883 728.688 297.307 728.28C296.755 727.872 296.287 727.344 295.903 726.696C295.543 726.048 295.363 725.256 295.363 724.32C295.363 723.024 295.687 722.004 296.335 721.26C297.007 720.492 297.895 719.928 298.999 719.568C300.103 719.184 301.363 718.944 302.779 718.848C304.219 718.728 305.707 718.668 307.243 718.668V718.128ZM306.523 720.576C305.515 720.576 304.495 720.624 303.463 720.72C302.455 720.792 301.531 720.96 300.691 721.224C299.875 721.464 299.203 721.824 298.675 722.304C298.147 722.784 297.883 723.42 297.883 724.212C297.883 724.812 297.991 725.316 298.207 725.724C298.447 726.132 298.759 726.468 299.143 726.732C299.527 726.972 299.947 727.152 300.403 727.272C300.883 727.368 301.363 727.416 301.843 727.416C302.707 727.416 303.475 727.272 304.147 726.984C304.819 726.672 305.383 726.264 305.839 725.76C306.295 725.232 306.643 724.632 306.883 723.96C307.123 723.288 307.243 722.58 307.243 721.836V720.576H306.523ZM316.753 732.384C317.425 733.248 318.337 733.98 319.489 734.58C320.665 735.18 321.901 735.48 323.197 735.48C324.397 735.48 325.417 735.3 326.257 734.94C327.097 734.604 327.769 734.136 328.273 733.536C328.801 732.936 329.185 732.228 329.425 731.412C329.665 730.62 329.785 729.768 329.785 728.856V725.688H329.713C329.065 726.744 328.141 727.56 326.941 728.136C325.765 728.712 324.565 729 323.341 729C322.021 729 320.821 728.784 319.741 728.352C318.685 727.92 317.773 727.332 317.005 726.588C316.261 725.82 315.673 724.908 315.241 723.852C314.833 722.796 314.629 721.656 314.629 720.432C314.629 719.232 314.833 718.104 315.241 717.048C315.673 715.992 316.261 715.068 317.005 714.276C317.773 713.484 318.685 712.86 319.741 712.404C320.821 711.948 322.021 711.72 323.341 711.72C324.565 711.72 325.765 712.008 326.941 712.584C328.117 713.16 329.041 713.988 329.713 715.068H329.785V712.152H332.233V728.856C332.233 729.768 332.101 730.74 331.837 731.772C331.597 732.804 331.129 733.752 330.433 734.616C329.761 735.48 328.837 736.2 327.661 736.776C326.485 737.352 324.961 737.64 323.089 737.64C321.529 737.64 320.041 737.34 318.625 736.74C317.209 736.14 315.997 735.312 314.989 734.256L316.753 732.384ZM317.221 720.36C317.221 721.248 317.365 722.088 317.653 722.88C317.941 723.672 318.349 724.368 318.877 724.968C319.429 725.568 320.101 726.048 320.893 726.408C321.685 726.744 322.585 726.912 323.593 726.912C324.529 726.912 325.393 726.756 326.185 726.444C326.977 726.132 327.661 725.688 328.237 725.112C328.813 724.536 329.257 723.852 329.569 723.06C329.905 722.244 330.073 721.344 330.073 720.36C330.073 719.472 329.905 718.632 329.569 717.84C329.257 717.048 328.813 716.352 328.237 715.752C327.661 715.152 326.977 714.672 326.185 714.312C325.393 713.952 324.529 713.772 323.593 713.772C322.585 713.772 321.685 713.952 320.893 714.312C320.101 714.672 319.429 715.152 318.877 715.752C318.349 716.352 317.941 717.048 317.653 717.84C317.365 718.632 317.221 719.472 317.221 720.36ZM341.083 729H338.635V712.152H341.083V729ZM341.587 705.672C341.587 706.176 341.407 706.596 341.047 706.932C340.687 707.244 340.291 707.4 339.859 707.4C339.427 707.4 339.031 707.244 338.671 706.932C338.311 706.596 338.131 706.176 338.131 705.672C338.131 705.168 338.311 704.76 338.671 704.448C339.031 704.112 339.427 703.944 339.859 703.944C340.291 703.944 340.687 704.112 341.047 704.448C341.407 704.76 341.587 705.168 341.587 705.672ZM349.795 712.152C349.843 712.608 349.879 713.112 349.903 713.664C349.927 714.216 349.939 714.672 349.939 715.032H350.011C350.491 714.048 351.271 713.256 352.351 712.656C353.431 712.032 354.571 711.72 355.771 711.72C357.907 711.72 359.503 712.356 360.559 713.628C361.639 714.9 362.179 716.58 362.179 718.668V729H359.731V719.676C359.731 718.788 359.659 717.984 359.515 717.264C359.371 716.544 359.119 715.932 358.759 715.428C358.423 714.9 357.955 714.492 357.355 714.204C356.779 713.916 356.047 713.772 355.159 713.772C354.511 713.772 353.875 713.904 353.251 714.168C352.651 714.432 352.111 714.84 351.631 715.392C351.151 715.92 350.767 716.604 350.479 717.444C350.191 718.26 350.047 719.232 350.047 720.36V729H347.599V715.86C347.599 715.404 347.587 714.816 347.563 714.096C347.539 713.376 347.503 712.728 347.455 712.152H349.795ZM369.417 732.384C370.089 733.248 371.001 733.98 372.153 734.58C373.329 735.18 374.565 735.48 375.861 735.48C377.061 735.48 378.081 735.3 378.921 734.94C379.761 734.604 380.433 734.136 380.937 733.536C381.465 732.936 381.849 732.228 382.089 731.412C382.329 730.62 382.449 729.768 382.449 728.856V725.688H382.377C381.729 726.744 380.805 727.56 379.605 728.136C378.429 728.712 377.229 729 376.005 729C374.685 729 373.485 728.784 372.405 728.352C371.349 727.92 370.437 727.332 369.669 726.588C368.925 725.82 368.337 724.908 367.905 723.852C367.497 722.796 367.293 721.656 367.293 720.432C367.293 719.232 367.497 718.104 367.905 717.048C368.337 715.992 368.925 715.068 369.669 714.276C370.437 713.484 371.349 712.86 372.405 712.404C373.485 711.948 374.685 711.72 376.005 711.72C377.229 711.72 378.429 712.008 379.605 712.584C380.781 713.16 381.705 713.988 382.377 715.068H382.449V712.152H384.897V728.856C384.897 729.768 384.765 730.74 384.501 731.772C384.261 732.804 383.793 733.752 383.097 734.616C382.425 735.48 381.501 736.2 380.325 736.776C379.149 737.352 377.625 737.64 375.753 737.64C374.193 737.64 372.705 737.34 371.289 736.74C369.873 736.14 368.661 735.312 367.653 734.256L369.417 732.384ZM369.885 720.36C369.885 721.248 370.029 722.088 370.317 722.88C370.605 723.672 371.013 724.368 371.541 724.968C372.093 725.568 372.765 726.048 373.557 726.408C374.349 726.744 375.249 726.912 376.257 726.912C377.193 726.912 378.057 726.756 378.849 726.444C379.641 726.132 380.325 725.688 380.901 725.112C381.477 724.536 381.921 723.852 382.233 723.06C382.569 722.244 382.737 721.344 382.737 720.36C382.737 719.472 382.569 718.632 382.233 717.84C381.921 717.048 381.477 716.352 380.901 715.752C380.325 715.152 379.641 714.672 378.849 714.312C378.057 713.952 377.193 713.772 376.257 713.772C375.249 713.772 374.349 713.952 373.557 714.312C372.765 714.672 372.093 715.152 371.541 715.752C371.013 716.352 370.605 717.048 370.317 717.84C370.029 718.632 369.885 719.472 369.885 720.36ZM402.999 726.696H416.643V729H400.407V703.512H416.211V705.816H402.999V714.6H415.347V716.868H402.999V726.696ZM423.764 712.152C423.812 712.608 423.848 713.112 423.872 713.664C423.896 714.216 423.908 714.672 423.908 715.032H423.98C424.46 714.048 425.24 713.256 426.32 712.656C427.4 712.032 428.54 711.72 429.74 711.72C431.876 711.72 433.472 712.356 434.528 713.628C435.608 714.9 436.148 716.58 436.148 718.668V729H433.7V719.676C433.7 718.788 433.628 717.984 433.484 717.264C433.34 716.544 433.088 715.932 432.728 715.428C432.392 714.9 431.924 714.492 431.324 714.204C430.748 713.916 430.016 713.772 429.128 713.772C428.48 713.772 427.844 713.904 427.22 714.168C426.62 714.432 426.08 714.84 425.6 715.392C425.12 715.92 424.736 716.604 424.448 717.444C424.16 718.26 424.016 719.232 424.016 720.36V729H421.568V715.86C421.568 715.404 421.556 714.816 421.532 714.096C421.508 713.376 421.472 712.728 421.424 712.152H423.764ZM450.082 714.204H445.33V724.032C445.33 724.656 445.39 725.172 445.51 725.58C445.63 725.988 445.798 726.312 446.014 726.552C446.254 726.768 446.53 726.924 446.842 727.02C447.154 727.092 447.49 727.128 447.85 727.128C448.186 727.128 448.534 727.08 448.894 726.984C449.278 726.888 449.638 726.756 449.974 726.588L450.082 728.712C449.65 728.88 449.194 729 448.714 729.072C448.258 729.168 447.754 729.216 447.202 729.216C446.746 729.216 446.266 729.156 445.762 729.036C445.258 728.916 444.79 728.688 444.358 728.352C443.926 728.016 443.566 727.56 443.278 726.984C443.014 726.408 442.882 725.652 442.882 724.716V714.204H439.39V712.152H442.882V707.4H445.33V712.152H450.082V714.204ZM456.396 729H453.948V712.152H456.396V729ZM456.9 705.672C456.9 706.176 456.72 706.596 456.36 706.932C456 707.244 455.604 707.4 455.172 707.4C454.74 707.4 454.344 707.244 453.984 706.932C453.624 706.596 453.444 706.176 453.444 705.672C453.444 705.168 453.624 704.76 453.984 704.448C454.344 704.112 454.74 703.944 455.172 703.944C455.604 703.944 456 704.112 456.36 704.448C456.72 704.76 456.9 705.168 456.9 705.672ZM470.508 714.204H465.756V724.032C465.756 724.656 465.816 725.172 465.936 725.58C466.056 725.988 466.224 726.312 466.44 726.552C466.68 726.768 466.956 726.924 467.268 727.02C467.58 727.092 467.916 727.128 468.276 727.128C468.612 727.128 468.96 727.08 469.32 726.984C469.704 726.888 470.064 726.756 470.4 726.588L470.508 728.712C470.076 728.88 469.62 729 469.14 729.072C468.684 729.168 468.18 729.216 467.628 729.216C467.172 729.216 466.692 729.156 466.188 729.036C465.684 728.916 465.216 728.688 464.784 728.352C464.352 728.016 463.992 727.56 463.704 726.984C463.44 726.408 463.308 725.652 463.308 724.716V714.204H459.816V712.152H463.308V707.4H465.756V712.152H470.508V714.204ZM480.134 726.372H480.206L485.426 712.152H488.09L479.702 733.356C479.198 734.652 478.55 735.684 477.758 736.452C476.99 737.244 475.874 737.64 474.41 737.64C473.666 737.64 472.934 737.568 472.214 737.424L472.466 735.192C473.042 735.384 473.642 735.48 474.266 735.48C475.106 735.48 475.766 735.216 476.246 734.688C476.726 734.184 477.146 733.452 477.506 732.492L478.874 728.964L471.674 712.152H474.41L480.134 726.372Z" fill="black"/>
<path d="M136.448 900V894.96L146.384 885.96C147.008 885.36 147.512 884.748 147.896 884.124C148.28 883.5 148.472 882.804 148.472 882.036C148.472 881.124 148.184 880.392 147.608 879.84C147.032 879.264 146.264 878.976 145.304 878.976C144.296 878.976 143.468 879.336 142.82 880.056C142.196 880.752 141.824 881.676 141.704 882.828L135.908 882.036C136.052 880.74 136.4 879.588 136.952 878.58C137.528 877.572 138.248 876.72 139.112 876.024C139.976 875.304 140.96 874.764 142.064 874.404C143.192 874.02 144.38 873.828 145.628 873.828C146.804 873.828 147.944 873.984 149.048 874.296C150.152 874.608 151.136 875.088 152 875.736C152.864 876.384 153.548 877.2 154.052 878.184C154.58 879.168 154.844 880.32 154.844 881.64C154.844 882.552 154.724 883.38 154.484 884.124C154.244 884.844 153.908 885.516 153.476 886.14C153.068 886.764 152.588 887.352 152.036 887.904C151.508 888.432 150.956 888.96 150.38 889.488L144.476 894.744H154.88V900H136.448ZM178.873 887.184C178.873 888.984 178.693 890.7 178.333 892.332C177.973 893.964 177.397 895.404 176.605 896.652C175.813 897.876 174.781 898.86 173.509 899.604C172.261 900.324 170.737 900.684 168.937 900.684C167.137 900.684 165.601 900.324 164.329 899.604C163.057 898.86 162.013 897.876 161.197 896.652C160.405 895.404 159.829 893.964 159.469 892.332C159.109 890.7 158.929 888.984 158.929 887.184C158.929 885.384 159.109 883.68 159.469 882.072C159.829 880.44 160.405 879.024 161.197 877.824C162.013 876.6 163.057 875.628 164.329 874.908C165.601 874.188 167.137 873.828 168.937 873.828C170.737 873.828 172.261 874.188 173.509 874.908C174.781 875.628 175.813 876.6 176.605 877.824C177.397 879.024 177.973 880.44 178.333 882.072C178.693 883.68 178.873 885.384 178.873 887.184ZM172.681 887.184C172.681 886.392 172.633 885.516 172.537 884.556C172.441 883.596 172.261 882.708 171.997 881.892C171.733 881.052 171.349 880.356 170.845 879.804C170.365 879.228 169.729 878.94 168.937 878.94C168.145 878.94 167.497 879.228 166.993 879.804C166.489 880.356 166.093 881.052 165.805 881.892C165.541 882.708 165.361 883.596 165.265 884.556C165.169 885.516 165.121 886.392 165.121 887.184C165.121 888 165.169 888.9 165.265 889.884C165.361 890.844 165.541 891.744 165.805 892.584C166.093 893.4 166.489 894.096 166.993 894.672C167.497 895.224 168.145 895.5 168.937 895.5C169.729 895.5 170.365 895.224 170.845 894.672C171.349 894.096 171.733 893.4 171.997 892.584C172.261 891.744 172.441 890.844 172.537 889.884C172.633 888.9 172.681 888 172.681 887.184ZM212.551 893.628C212.551 894.564 212.371 895.452 212.011 896.292C211.651 897.108 211.159 897.828 210.535 898.452C209.935 899.052 209.215 899.532 208.375 899.892C207.535 900.252 206.647 900.432 205.711 900.432C204.775 900.432 203.887 900.252 203.047 899.892C202.207 899.532 201.475 899.052 200.851 898.452C200.251 897.828 199.771 897.108 199.411 896.292C199.051 895.452 198.871 894.564 198.871 893.628C198.871 892.692 199.051 891.816 199.411 891C199.771 890.16 200.251 889.44 200.851 888.84C201.475 888.216 202.207 887.724 203.047 887.364C203.887 887.004 204.775 886.824 205.711 886.824C206.647 886.824 207.535 887.004 208.375 887.364C209.215 887.724 209.935 888.216 210.535 888.84C211.159 889.44 211.651 890.16 212.011 891C212.371 891.816 212.551 892.692 212.551 893.628ZM208.519 893.628C208.519 893.244 208.435 892.884 208.267 892.548C208.123 892.188 207.919 891.888 207.655 891.648C207.415 891.384 207.127 891.18 206.791 891.036C206.455 890.892 206.095 890.82 205.711 890.82C204.943 890.82 204.283 891.096 203.731 891.648C203.179 892.2 202.903 892.86 202.903 893.628C202.903 894.396 203.179 895.056 203.731 895.608C204.283 896.136 204.943 896.4 205.711 896.4C206.095 896.4 206.455 896.328 206.791 896.184C207.127 896.04 207.415 895.848 207.655 895.608C207.919 895.344 208.123 895.044 208.267 894.708C208.435 894.372 208.519 894.012 208.519 893.628ZM195.271 880.884C195.271 881.82 195.091 882.708 194.731 883.548C194.371 884.364 193.879 885.084 193.255 885.708C192.655 886.308 191.935 886.788 191.095 887.148C190.255 887.508 189.367 887.688 188.431 887.688C187.495 887.688 186.607 887.508 185.767 887.148C184.927 886.788 184.195 886.308 183.571 885.708C182.971 885.084 182.491 884.364 182.131 883.548C181.771 882.708 181.591 881.82 181.591 880.884C181.591 879.924 181.771 879.036 182.131 878.22C182.491 877.38 182.971 876.66 183.571 876.06C184.195 875.436 184.927 874.956 185.767 874.62C186.607 874.26 187.495 874.08 188.431 874.08C189.367 874.08 190.255 874.26 191.095 874.62C191.935 874.956 192.655 875.436 193.255 876.06C193.879 876.66 194.371 877.38 194.731 878.22C195.091 879.036 195.271 879.924 195.271 880.884ZM191.239 880.884C191.239 880.116 190.963 879.456 190.411 878.904C189.859 878.352 189.199 878.076 188.431 878.076C187.663 878.076 187.003 878.352 186.451 878.904C185.899 879.456 185.623 880.116 185.623 880.884C185.623 881.652 185.899 882.312 186.451 882.864C187.003 883.392 187.663 883.656 188.431 883.656C189.199 883.656 189.859 883.392 190.411 882.864C190.963 882.312 191.239 881.652 191.239 880.884ZM191.203 901.224L187.999 899.64L202.867 873.36L206.215 874.98L191.203 901.224ZM247.188 895.896C246.756 896.544 246.228 897.156 245.604 897.732C245.004 898.308 244.296 898.812 243.48 899.244C242.688 899.676 241.8 900.012 240.816 900.252C239.856 900.516 238.8 900.648 237.648 900.648C235.728 900.648 233.952 900.312 232.32 899.64C230.688 898.968 229.284 898.044 228.108 896.868C226.932 895.668 226.008 894.252 225.336 892.62C224.688 890.988 224.364 889.2 224.364 887.256C224.364 885.312 224.7 883.524 225.372 881.892C226.044 880.26 226.968 878.856 228.144 877.68C229.344 876.48 230.748 875.544 232.356 874.872C233.988 874.2 235.752 873.864 237.648 873.864C238.584 873.864 239.496 873.96 240.384 874.152C241.296 874.344 242.148 874.62 242.94 874.98C243.732 875.316 244.452 875.736 245.1 876.24C245.748 876.72 246.288 877.272 246.72 877.896L244.56 879.48C244.296 879.072 243.936 878.664 243.48 878.256C243.048 877.848 242.532 877.488 241.932 877.176C241.332 876.864 240.672 876.612 239.952 876.42C239.256 876.228 238.5 876.132 237.684 876.132C236.028 876.132 234.54 876.432 233.22 877.032C231.924 877.632 230.82 878.448 229.908 879.48C228.996 880.488 228.3 881.664 227.82 883.008C227.34 884.352 227.1 885.768 227.1 887.256C227.1 888.744 227.34 890.16 227.82 891.504C228.324 892.848 229.032 894.036 229.944 895.068C230.856 896.076 231.96 896.88 233.256 897.48C234.576 898.08 236.052 898.38 237.684 898.38C239.148 898.38 240.54 898.08 241.86 897.48C243.18 896.88 244.284 895.92 245.172 894.6L247.188 895.896ZM251.498 886.86C251.498 886.404 251.486 885.816 251.462 885.096C251.438 884.376 251.402 883.728 251.354 883.152H253.694C253.742 883.608 253.778 884.112 253.802 884.664C253.826 885.216 253.838 885.672 253.838 886.032H253.91C254.39 885.048 255.11 884.256 256.07 883.656C257.03 883.032 258.11 882.72 259.31 882.72C259.622 882.72 259.898 882.732 260.138 882.756C260.402 882.78 260.666 882.828 260.93 882.9L260.606 885.204C260.462 885.156 260.222 885.108 259.886 885.06C259.55 885.012 259.214 884.988 258.878 884.988C258.23 884.988 257.606 885.108 257.006 885.348C256.406 885.588 255.878 885.972 255.422 886.5C254.99 887.004 254.63 887.664 254.342 888.48C254.078 889.272 253.946 890.232 253.946 891.36V900H251.498V886.86ZM280.578 891.576C280.578 892.848 280.35 894.024 279.894 895.104C279.462 896.184 278.85 897.12 278.058 897.912C277.266 898.704 276.318 899.328 275.214 899.784C274.11 900.216 272.898 900.432 271.578 900.432C270.282 900.432 269.082 900.216 267.978 899.784C266.874 899.328 265.926 898.704 265.134 897.912C264.342 897.12 263.718 896.184 263.262 895.104C262.83 894.024 262.614 892.848 262.614 891.576C262.614 890.304 262.83 889.128 263.262 888.048C263.718 886.968 264.342 886.032 265.134 885.24C265.926 884.448 266.874 883.836 267.978 883.404C269.082 882.948 270.282 882.72 271.578 882.72C272.898 882.72 274.11 882.948 275.214 883.404C276.318 883.836 277.266 884.448 278.058 885.24C278.85 886.032 279.462 886.968 279.894 888.048C280.35 889.128 280.578 890.304 280.578 891.576ZM277.986 891.576C277.986 890.64 277.83 889.764 277.518 888.948C277.23 888.108 276.81 887.388 276.258 886.788C275.706 886.164 275.034 885.672 274.242 885.312C273.45 884.952 272.562 884.772 271.578 884.772C270.594 884.772 269.706 884.952 268.914 885.312C268.146 885.672 267.486 886.164 266.934 886.788C266.382 887.388 265.95 888.108 265.638 888.948C265.35 889.764 265.206 890.64 265.206 891.576C265.206 892.512 265.35 893.4 265.638 894.24C265.95 895.056 266.382 895.776 266.934 896.4C267.486 897 268.146 897.48 268.914 897.84C269.706 898.176 270.594 898.344 271.578 898.344C272.562 898.344 273.45 898.176 274.242 897.84C275.034 897.48 275.706 897 276.258 896.4C276.81 895.776 277.23 895.056 277.518 894.24C277.83 893.4 277.986 892.512 277.986 891.576ZM286.169 883.152L290.237 896.832H290.309L294.845 883.152H297.221L301.829 896.832H301.901L305.933 883.152H308.525L303.197 900H300.533L296.033 886.356H295.961L291.533 900H288.869L283.541 883.152H286.169ZM326.565 897.156C325.845 898.236 324.909 899.052 323.757 899.604C322.605 900.156 321.417 900.432 320.193 900.432C318.873 900.432 317.673 900.204 316.593 899.748C315.537 899.292 314.625 898.668 313.857 897.876C313.113 897.084 312.525 896.148 312.093 895.068C311.685 893.988 311.481 892.824 311.481 891.576C311.481 890.328 311.685 889.164 312.093 888.084C312.525 887.004 313.113 886.068 313.857 885.276C314.625 884.484 315.537 883.86 316.593 883.404C317.673 882.948 318.873 882.72 320.193 882.72C321.417 882.72 322.605 883.008 323.757 883.584C324.909 884.136 325.845 884.964 326.565 886.068H326.637V872.784H329.085V900H326.637V897.156H326.565ZM314.073 891.576C314.073 892.512 314.217 893.4 314.505 894.24C314.793 895.056 315.201 895.776 315.729 896.4C316.281 897 316.953 897.48 317.745 897.84C318.537 898.176 319.437 898.344 320.445 898.344C321.381 898.344 322.245 898.176 323.037 897.84C323.829 897.48 324.513 897 325.089 896.4C325.665 895.8 326.109 895.092 326.421 894.276C326.757 893.436 326.925 892.536 326.925 891.576C326.925 890.616 326.757 889.728 326.421 888.912C326.109 888.072 325.665 887.352 325.089 886.752C324.513 886.128 323.829 885.648 323.037 885.312C322.245 884.952 321.381 884.772 320.445 884.772C319.437 884.772 318.537 884.952 317.745 885.312C316.953 885.672 316.281 886.164 315.729 886.788C315.201 887.388 314.793 888.108 314.505 888.948C314.217 889.764 314.073 890.64 314.073 891.576ZM344.591 887.148C344.231 886.452 343.679 885.888 342.935 885.456C342.215 885 341.387 884.772 340.451 884.772C340.019 884.772 339.587 884.82 339.155 884.916C338.723 885.012 338.339 885.168 338.003 885.384C337.667 885.6 337.391 885.876 337.175 886.212C336.983 886.548 336.887 886.944 336.887 887.4C336.887 888.192 337.211 888.804 337.859 889.236C338.507 889.644 339.527 889.992 340.919 890.28C342.911 890.688 344.375 891.288 345.311 892.08C346.271 892.848 346.751 893.892 346.751 895.212C346.751 896.172 346.559 896.988 346.175 897.66C345.815 898.308 345.335 898.848 344.735 899.28C344.135 899.688 343.451 899.976 342.683 900.144C341.939 900.336 341.183 900.432 340.415 900.432C339.143 900.432 337.907 900.168 336.707 899.64C335.507 899.112 334.523 898.284 333.755 897.156L335.699 895.716C336.131 896.46 336.767 897.084 337.607 897.588C338.447 898.092 339.371 898.344 340.379 898.344C340.907 898.344 341.411 898.296 341.891 898.2C342.371 898.104 342.791 897.936 343.151 897.696C343.511 897.456 343.799 897.156 344.015 896.796C344.231 896.412 344.339 895.944 344.339 895.392C344.339 894.504 343.907 893.844 343.043 893.412C342.203 892.956 340.979 892.536 339.371 892.152C338.867 892.032 338.327 891.888 337.751 891.72C337.199 891.528 336.683 891.264 336.203 890.928C335.723 890.568 335.327 890.124 335.015 889.596C334.703 889.068 334.547 888.408 334.547 887.616C334.547 886.752 334.715 886.02 335.051 885.42C335.387 884.796 335.831 884.292 336.383 883.908C336.959 883.5 337.607 883.2 338.327 883.008C339.047 882.816 339.791 882.72 340.559 882.72C341.735 882.72 342.875 882.984 343.979 883.512C345.083 884.04 345.911 884.784 346.463 885.744L344.591 887.148ZM368.363 891.576C368.363 892.848 368.135 894.024 367.679 895.104C367.247 896.184 366.635 897.12 365.843 897.912C365.051 898.704 364.103 899.328 362.999 899.784C361.895 900.216 360.683 900.432 359.363 900.432C358.067 900.432 356.867 900.216 355.763 899.784C354.659 899.328 353.711 898.704 352.919 897.912C352.127 897.12 351.503 896.184 351.047 895.104C350.615 894.024 350.399 892.848 350.399 891.576C350.399 890.304 350.615 889.128 351.047 888.048C351.503 886.968 352.127 886.032 352.919 885.24C353.711 884.448 354.659 883.836 355.763 883.404C356.867 882.948 358.067 882.72 359.363 882.72C360.683 882.72 361.895 882.948 362.999 883.404C364.103 883.836 365.051 884.448 365.843 885.24C366.635 886.032 367.247 886.968 367.679 888.048C368.135 889.128 368.363 890.304 368.363 891.576ZM365.771 891.576C365.771 890.64 365.615 889.764 365.303 888.948C365.015 888.108 364.595 887.388 364.043 886.788C363.491 886.164 362.819 885.672 362.027 885.312C361.235 884.952 360.347 884.772 359.363 884.772C358.379 884.772 357.491 884.952 356.699 885.312C355.931 885.672 355.271 886.164 354.719 886.788C354.167 887.388 353.735 888.108 353.423 888.948C353.135 889.764 352.991 890.64 352.991 891.576C352.991 892.512 353.135 893.4 353.423 894.24C353.735 895.056 354.167 895.776 354.719 896.4C355.271 897 355.931 897.48 356.699 897.84C357.491 898.176 358.379 898.344 359.363 898.344C360.347 898.344 361.235 898.176 362.027 897.84C362.819 897.48 363.491 897 364.043 896.4C364.595 895.776 365.015 895.056 365.303 894.24C365.615 893.4 365.771 892.512 365.771 891.576ZM385.871 900C385.823 899.544 385.787 899.04 385.763 898.488C385.739 897.936 385.727 897.48 385.727 897.12H385.655C385.175 898.104 384.395 898.908 383.315 899.532C382.235 900.132 381.095 900.432 379.895 900.432C377.759 900.432 376.151 899.796 375.071 898.524C374.015 897.252 373.487 895.572 373.487 893.484V883.152H375.935V892.476C375.935 893.364 376.007 894.168 376.151 894.888C376.295 895.608 376.535 896.232 376.871 896.76C377.231 897.264 377.699 897.66 378.275 897.948C378.875 898.236 379.619 898.38 380.507 898.38C381.155 898.38 381.779 898.248 382.379 897.984C383.003 897.72 383.555 897.324 384.035 896.796C384.515 896.244 384.899 895.56 385.187 894.744C385.475 893.904 385.619 892.92 385.619 891.792V883.152H388.067V896.292C388.067 896.748 388.079 897.336 388.103 898.056C388.127 898.776 388.163 899.424 388.211 900H385.871ZM394.549 886.86C394.549 886.404 394.537 885.816 394.513 885.096C394.489 884.376 394.453 883.728 394.405 883.152H396.745C396.793 883.608 396.829 884.112 396.853 884.664C396.877 885.216 396.889 885.672 396.889 886.032H396.961C397.441 885.048 398.161 884.256 399.121 883.656C400.081 883.032 401.161 882.72 402.361 882.72C402.673 882.72 402.949 882.732 403.189 882.756C403.453 882.78 403.717 882.828 403.981 882.9L403.657 885.204C403.513 885.156 403.273 885.108 402.937 885.06C402.601 885.012 402.265 884.988 401.929 884.988C401.281 884.988 400.657 885.108 400.057 885.348C399.457 885.588 398.929 885.972 398.473 886.5C398.041 887.004 397.681 887.664 397.393 888.48C397.129 889.272 396.997 890.232 396.997 891.36V900H394.549V886.86ZM419.02 887.004C418.612 886.356 418.012 885.828 417.22 885.42C416.452 884.988 415.612 884.772 414.7 884.772C413.716 884.772 412.828 884.952 412.036 885.312C411.244 885.648 410.56 886.128 409.984 886.752C409.432 887.352 409 888.072 408.688 888.912C408.4 889.728 408.256 890.616 408.256 891.576C408.256 892.536 408.4 893.424 408.688 894.24C409 895.056 409.432 895.776 409.984 896.4C410.536 897 411.208 897.48 412 897.84C412.792 898.176 413.68 898.344 414.664 898.344C415.744 898.344 416.656 898.14 417.4 897.732C418.144 897.324 418.756 896.796 419.236 896.148L421.072 897.516C420.352 898.404 419.464 899.112 418.408 899.64C417.376 900.168 416.128 900.432 414.664 900.432C413.296 900.432 412.06 900.216 410.956 899.784C409.852 899.328 408.904 898.704 408.112 897.912C407.344 897.12 406.744 896.184 406.312 895.104C405.88 894.024 405.664 892.848 405.664 891.576C405.664 890.304 405.88 889.128 406.312 888.048C406.744 886.968 407.344 886.032 408.112 885.24C408.904 884.448 409.852 883.836 410.956 883.404C412.06 882.948 413.296 882.72 414.664 882.72C415.792 882.72 416.932 882.972 418.084 883.476C419.26 883.956 420.208 884.676 420.928 885.636L419.02 887.004ZM427.372 900H424.924V883.152H427.372V900ZM427.876 876.672C427.876 877.176 427.696 877.596 427.336 877.932C426.976 878.244 426.58 878.4 426.148 878.4C425.716 878.4 425.32 878.244 424.96 877.932C424.6 877.596 424.42 877.176 424.42 876.672C424.42 876.168 424.6 875.76 424.96 875.448C425.32 875.112 425.716 874.944 426.148 874.944C426.58 874.944 426.976 875.112 427.336 875.448C427.696 875.76 427.876 876.168 427.876 876.672ZM436.084 883.152C436.132 883.608 436.168 884.112 436.192 884.664C436.216 885.216 436.228 885.672 436.228 886.032H436.3C436.78 885.048 437.56 884.256 438.64 883.656C439.72 883.032 440.86 882.72 442.06 882.72C444.196 882.72 445.792 883.356 446.848 884.628C447.928 885.9 448.468 887.58 448.468 889.668V900H446.02V890.676C446.02 889.788 445.948 888.984 445.804 888.264C445.66 887.544 445.408 886.932 445.048 886.428C444.712 885.9 444.244 885.492 443.644 885.204C443.068 884.916 442.336 884.772 441.448 884.772C440.8 884.772 440.164 884.904 439.54 885.168C438.94 885.432 438.4 885.84 437.92 886.392C437.44 886.92 437.056 887.604 436.768 888.444C436.48 889.26 436.336 890.232 436.336 891.36V900H433.888V886.86C433.888 886.404 433.876 885.816 433.852 885.096C433.828 884.376 433.792 883.728 433.744 883.152H436.084ZM455.706 903.384C456.378 904.248 457.29 904.98 458.442 905.58C459.618 906.18 460.854 906.48 462.15 906.48C463.35 906.48 464.37 906.3 465.21 905.94C466.05 905.604 466.722 905.136 467.226 904.536C467.754 903.936 468.138 903.228 468.378 902.412C468.618 901.62 468.738 900.768 468.738 899.856V896.688H468.666C468.018 897.744 467.094 898.56 465.894 899.136C464.718 899.712 463.518 900 462.294 900C460.974 900 459.774 899.784 458.694 899.352C457.638 898.92 456.726 898.332 455.958 897.588C455.214 896.82 454.626 895.908 454.194 894.852C453.786 893.796 453.582 892.656 453.582 891.432C453.582 890.232 453.786 889.104 454.194 888.048C454.626 886.992 455.214 886.068 455.958 885.276C456.726 884.484 457.638 883.86 458.694 883.404C459.774 882.948 460.974 882.72 462.294 882.72C463.518 882.72 464.718 883.008 465.894 883.584C467.07 884.16 467.994 884.988 468.666 886.068H468.738V883.152H471.186V899.856C471.186 900.768 471.054 901.74 470.79 902.772C470.55 903.804 470.082 904.752 469.386 905.616C468.714 906.48 467.79 907.2 466.614 907.776C465.438 908.352 463.914 908.64 462.042 908.64C460.482 908.64 458.994 908.34 457.578 907.74C456.162 907.14 454.95 906.312 453.942 905.256L455.706 903.384ZM456.174 891.36C456.174 892.248 456.318 893.088 456.606 893.88C456.894 894.672 457.302 895.368 457.83 895.968C458.382 896.568 459.054 897.048 459.846 897.408C460.638 897.744 461.538 897.912 462.546 897.912C463.482 897.912 464.346 897.756 465.138 897.444C465.93 897.132 466.614 896.688 467.19 896.112C467.766 895.536 468.21 894.852 468.522 894.06C468.858 893.244 469.026 892.344 469.026 891.36C469.026 890.472 468.858 889.632 468.522 888.84C468.21 888.048 467.766 887.352 467.19 886.752C466.614 886.152 465.93 885.672 465.138 885.312C464.346 884.952 463.482 884.772 462.546 884.772C461.538 884.772 460.638 884.952 459.846 885.312C459.054 885.672 458.382 886.152 457.83 886.752C457.302 887.352 456.894 888.048 456.606 888.84C456.318 889.632 456.174 890.472 456.174 891.36Z" fill="black"/>
<path d="M155.952 1172.58C155.952 1174.14 155.676 1175.49 155.124 1176.64C154.572 1177.77 153.828 1178.71 152.892 1179.45C151.98 1180.2 150.936 1180.75 149.76 1181.11C148.584 1181.49 147.372 1181.68 146.124 1181.68C144.972 1181.68 143.868 1181.53 142.812 1181.22C141.78 1180.93 140.832 1180.51 139.968 1179.96C139.128 1179.4 138.396 1178.73 137.772 1177.94C137.172 1177.12 136.728 1176.21 136.44 1175.2L141.948 1173.51C142.212 1174.4 142.704 1175.13 143.424 1175.71C144.168 1176.28 145.044 1176.57 146.052 1176.57C147.084 1176.57 147.972 1176.26 148.716 1175.64C149.484 1175.01 149.868 1174.09 149.868 1172.86C149.868 1172.12 149.712 1171.5 149.4 1170.99C149.088 1170.49 148.68 1170.09 148.176 1169.8C147.696 1169.49 147.144 1169.28 146.52 1169.16C145.896 1169.04 145.272 1168.98 144.648 1168.98C143.736 1168.98 142.692 1169.08 141.516 1169.3C140.364 1169.49 139.332 1169.76 138.42 1170.09L139.032 1155.51H154.656V1160.7H144.396L144.18 1164.73C144.564 1164.63 144.984 1164.57 145.44 1164.55C145.92 1164.5 146.352 1164.48 146.736 1164.48C148.008 1164.48 149.208 1164.64 150.336 1164.98C151.464 1165.32 152.436 1165.83 153.252 1166.53C154.092 1167.2 154.752 1168.04 155.232 1169.05C155.712 1170.06 155.952 1171.23 155.952 1172.58ZM179.873 1168.18C179.873 1169.98 179.693 1171.7 179.333 1173.33C178.973 1174.96 178.397 1176.4 177.605 1177.65C176.813 1178.88 175.781 1179.86 174.509 1180.6C173.261 1181.32 171.737 1181.68 169.937 1181.68C168.137 1181.68 166.601 1181.32 165.329 1180.6C164.057 1179.86 163.013 1178.88 162.197 1177.65C161.405 1176.4 160.829 1174.96 160.469 1173.33C160.109 1171.7 159.929 1169.98 159.929 1168.18C159.929 1166.38 160.109 1164.68 160.469 1163.07C160.829 1161.44 161.405 1160.02 162.197 1158.82C163.013 1157.6 164.057 1156.63 165.329 1155.91C166.601 1155.19 168.137 1154.83 169.937 1154.83C171.737 1154.83 173.261 1155.19 174.509 1155.91C175.781 1156.63 176.813 1157.6 177.605 1158.82C178.397 1160.02 178.973 1161.44 179.333 1163.07C179.693 1164.68 179.873 1166.38 179.873 1168.18ZM173.681 1168.18C173.681 1167.39 173.633 1166.52 173.537 1165.56C173.441 1164.6 173.261 1163.71 172.997 1162.89C172.733 1162.05 172.349 1161.36 171.845 1160.8C171.365 1160.23 170.729 1159.94 169.937 1159.94C169.145 1159.94 168.497 1160.23 167.993 1160.8C167.489 1161.36 167.093 1162.05 166.805 1162.89C166.541 1163.71 166.361 1164.6 166.265 1165.56C166.169 1166.52 166.121 1167.39 166.121 1168.18C166.121 1169 166.169 1169.9 166.265 1170.88C166.361 1171.84 166.541 1172.74 166.805 1173.58C167.093 1174.4 167.489 1175.1 167.993 1175.67C168.497 1176.22 169.145 1176.5 169.937 1176.5C170.729 1176.5 171.365 1176.22 171.845 1175.67C172.349 1175.1 172.733 1174.4 172.997 1173.58C173.261 1172.74 173.441 1171.84 173.537 1170.88C173.633 1169.9 173.681 1169 173.681 1168.18ZM213.551 1174.63C213.551 1175.56 213.371 1176.45 213.011 1177.29C212.651 1178.11 212.159 1178.83 211.535 1179.45C210.935 1180.05 210.215 1180.53 209.375 1180.89C208.535 1181.25 207.647 1181.43 206.711 1181.43C205.775 1181.43 204.887 1181.25 204.047 1180.89C203.207 1180.53 202.475 1180.05 201.851 1179.45C201.251 1178.83 200.771 1178.11 200.411 1177.29C200.051 1176.45 199.871 1175.56 199.871 1174.63C199.871 1173.69 200.051 1172.82 200.411 1172C200.771 1171.16 201.251 1170.44 201.851 1169.84C202.475 1169.22 203.207 1168.72 204.047 1168.36C204.887 1168 205.775 1167.82 206.711 1167.82C207.647 1167.82 208.535 1168 209.375 1168.36C210.215 1168.72 210.935 1169.22 211.535 1169.84C212.159 1170.44 212.651 1171.16 213.011 1172C213.371 1172.82 213.551 1173.69 213.551 1174.63ZM209.519 1174.63C209.519 1174.24 209.435 1173.88 209.267 1173.55C209.123 1173.19 208.919 1172.89 208.655 1172.65C208.415 1172.38 208.127 1172.18 207.791 1172.04C207.455 1171.89 207.095 1171.82 206.711 1171.82C205.943 1171.82 205.283 1172.1 204.731 1172.65C204.179 1173.2 203.903 1173.86 203.903 1174.63C203.903 1175.4 204.179 1176.06 204.731 1176.61C205.283 1177.14 205.943 1177.4 206.711 1177.4C207.095 1177.4 207.455 1177.33 207.791 1177.18C208.127 1177.04 208.415 1176.85 208.655 1176.61C208.919 1176.34 209.123 1176.04 209.267 1175.71C209.435 1175.37 209.519 1175.01 209.519 1174.63ZM196.271 1161.88C196.271 1162.82 196.091 1163.71 195.731 1164.55C195.371 1165.36 194.879 1166.08 194.255 1166.71C193.655 1167.31 192.935 1167.79 192.095 1168.15C191.255 1168.51 190.367 1168.69 189.431 1168.69C188.495 1168.69 187.607 1168.51 186.767 1168.15C185.927 1167.79 185.195 1167.31 184.571 1166.71C183.971 1166.08 183.491 1165.36 183.131 1164.55C182.771 1163.71 182.591 1162.82 182.591 1161.88C182.591 1160.92 182.771 1160.04 183.131 1159.22C183.491 1158.38 183.971 1157.66 184.571 1157.06C185.195 1156.44 185.927 1155.96 186.767 1155.62C187.607 1155.26 188.495 1155.08 189.431 1155.08C190.367 1155.08 191.255 1155.26 192.095 1155.62C192.935 1155.96 193.655 1156.44 194.255 1157.06C194.879 1157.66 195.371 1158.38 195.731 1159.22C196.091 1160.04 196.271 1160.92 196.271 1161.88ZM192.239 1161.88C192.239 1161.12 191.963 1160.46 191.411 1159.9C190.859 1159.35 190.199 1159.08 189.431 1159.08C188.663 1159.08 188.003 1159.35 187.451 1159.9C186.899 1160.46 186.623 1161.12 186.623 1161.88C186.623 1162.65 186.899 1163.31 187.451 1163.86C188.003 1164.39 188.663 1164.66 189.431 1164.66C190.199 1164.66 190.859 1164.39 191.411 1163.86C191.963 1163.31 192.239 1162.65 192.239 1161.88ZM192.203 1182.22L188.999 1180.64L203.867 1154.36L207.215 1155.98L192.203 1182.22ZM239.08 1159.62C238.528 1158.85 237.82 1158.24 236.956 1157.78C236.092 1157.3 235.048 1157.06 233.824 1157.06C233.2 1157.06 232.564 1157.16 231.916 1157.35C231.268 1157.54 230.68 1157.84 230.152 1158.25C229.624 1158.63 229.192 1159.12 228.856 1159.72C228.544 1160.32 228.388 1161.03 228.388 1161.85C228.388 1162.66 228.544 1163.34 228.856 1163.86C229.168 1164.39 229.576 1164.85 230.08 1165.23C230.608 1165.59 231.196 1165.89 231.844 1166.13C232.516 1166.37 233.212 1166.61 233.932 1166.85C234.82 1167.14 235.708 1167.45 236.596 1167.79C237.508 1168.12 238.324 1168.57 239.044 1169.12C239.764 1169.65 240.352 1170.33 240.808 1171.17C241.264 1171.99 241.492 1173.03 241.492 1174.3C241.492 1175.58 241.24 1176.68 240.736 1177.62C240.256 1178.53 239.62 1179.28 238.828 1179.88C238.06 1180.48 237.172 1180.93 236.164 1181.22C235.18 1181.5 234.184 1181.65 233.176 1181.65C232.408 1181.65 231.64 1181.56 230.872 1181.4C230.104 1181.25 229.372 1181.02 228.676 1180.71C227.98 1180.4 227.332 1180 226.732 1179.52C226.132 1179.04 225.604 1178.49 225.148 1177.87L227.38 1176.21C227.932 1177.12 228.7 1177.89 229.684 1178.52C230.692 1179.12 231.868 1179.42 233.212 1179.42C233.86 1179.42 234.52 1179.32 235.192 1179.13C235.864 1178.91 236.464 1178.6 236.992 1178.19C237.544 1177.76 237.988 1177.24 238.324 1176.64C238.684 1176.02 238.864 1175.3 238.864 1174.48C238.864 1173.6 238.684 1172.86 238.324 1172.29C237.988 1171.69 237.532 1171.2 236.956 1170.81C236.38 1170.4 235.72 1170.07 234.976 1169.8C234.232 1169.54 233.452 1169.28 232.636 1169.01C231.796 1168.75 230.968 1168.45 230.152 1168.11C229.336 1167.78 228.604 1167.34 227.956 1166.82C227.308 1166.26 226.78 1165.59 226.372 1164.8C225.988 1164.01 225.796 1163.04 225.796 1161.88C225.796 1160.66 226.036 1159.6 226.516 1158.72C227.02 1157.83 227.668 1157.1 228.46 1156.52C229.252 1155.94 230.128 1155.52 231.088 1155.26C232.048 1155 232.996 1154.86 233.932 1154.86C235.66 1154.86 237.136 1155.18 238.36 1155.8C239.584 1156.4 240.508 1157.12 241.132 1157.96L239.08 1159.62ZM249.356 1189.64H246.908V1164.15H249.356V1167.07H249.464C250.16 1165.96 251.084 1165.14 252.236 1164.58C253.412 1164.01 254.6 1163.72 255.8 1163.72C257.12 1163.72 258.308 1163.95 259.364 1164.4C260.444 1164.86 261.356 1165.48 262.1 1166.28C262.868 1167.07 263.456 1168 263.864 1169.08C264.296 1170.16 264.512 1171.33 264.512 1172.58C264.512 1173.82 264.296 1174.99 263.864 1176.07C263.456 1177.15 262.868 1178.08 262.1 1178.88C261.356 1179.67 260.444 1180.29 259.364 1180.75C258.308 1181.2 257.12 1181.43 255.8 1181.43C254.6 1181.43 253.412 1181.16 252.236 1180.6C251.084 1180.03 250.16 1179.21 249.464 1178.16H249.356V1189.64ZM261.92 1172.58C261.92 1171.64 261.776 1170.76 261.488 1169.95C261.2 1169.11 260.78 1168.39 260.228 1167.79C259.7 1167.16 259.04 1166.67 258.248 1166.31C257.456 1165.95 256.556 1165.77 255.548 1165.77C254.612 1165.77 253.748 1165.95 252.956 1166.31C252.164 1166.65 251.48 1167.13 250.904 1167.75C250.328 1168.35 249.872 1169.07 249.536 1169.91C249.224 1170.73 249.068 1171.62 249.068 1172.58C249.068 1173.54 249.224 1174.44 249.536 1175.28C249.872 1176.09 250.328 1176.8 250.904 1177.4C251.48 1178 252.164 1178.48 252.956 1178.84C253.748 1179.18 254.612 1179.34 255.548 1179.34C256.556 1179.34 257.456 1179.18 258.248 1178.84C259.04 1178.48 259.7 1178 260.228 1177.4C260.78 1176.78 261.2 1176.06 261.488 1175.24C261.776 1174.4 261.92 1173.51 261.92 1172.58ZM286.5 1172.58C286.5 1173.85 286.272 1175.02 285.816 1176.1C285.384 1177.18 284.772 1178.12 283.98 1178.91C283.188 1179.7 282.24 1180.33 281.136 1180.78C280.032 1181.22 278.82 1181.43 277.5 1181.43C276.204 1181.43 275.004 1181.22 273.9 1180.78C272.796 1180.33 271.848 1179.7 271.056 1178.91C270.264 1178.12 269.64 1177.18 269.184 1176.1C268.752 1175.02 268.536 1173.85 268.536 1172.58C268.536 1171.3 268.752 1170.13 269.184 1169.05C269.64 1167.97 270.264 1167.03 271.056 1166.24C271.848 1165.45 272.796 1164.84 273.9 1164.4C275.004 1163.95 276.204 1163.72 277.5 1163.72C278.82 1163.72 280.032 1163.95 281.136 1164.4C282.24 1164.84 283.188 1165.45 283.98 1166.24C284.772 1167.03 285.384 1167.97 285.816 1169.05C286.272 1170.13 286.5 1171.3 286.5 1172.58ZM283.908 1172.58C283.908 1171.64 283.752 1170.76 283.44 1169.95C283.152 1169.11 282.732 1168.39 282.18 1167.79C281.628 1167.16 280.956 1166.67 280.164 1166.31C279.372 1165.95 278.484 1165.77 277.5 1165.77C276.516 1165.77 275.628 1165.95 274.836 1166.31C274.068 1166.67 273.408 1167.16 272.856 1167.79C272.304 1168.39 271.872 1169.11 271.56 1169.95C271.272 1170.76 271.128 1171.64 271.128 1172.58C271.128 1173.51 271.272 1174.4 271.56 1175.24C271.872 1176.06 272.304 1176.78 272.856 1177.4C273.408 1178 274.068 1178.48 274.836 1178.84C275.628 1179.18 276.516 1179.34 277.5 1179.34C278.484 1179.34 279.372 1179.18 280.164 1178.84C280.956 1178.48 281.628 1178 282.18 1177.4C282.732 1176.78 283.152 1176.06 283.44 1175.24C283.752 1174.4 283.908 1173.51 283.908 1172.58ZM293.963 1164.15C294.011 1164.61 294.047 1165.11 294.071 1165.66C294.095 1166.22 294.107 1166.67 294.107 1167.03H294.179C294.659 1166.05 295.439 1165.26 296.519 1164.66C297.599 1164.03 298.739 1163.72 299.939 1163.72C302.075 1163.72 303.671 1164.36 304.727 1165.63C305.807 1166.9 306.347 1168.58 306.347 1170.67V1181H303.899V1171.68C303.899 1170.79 303.827 1169.98 303.683 1169.26C303.539 1168.54 303.287 1167.93 302.927 1167.43C302.591 1166.9 302.123 1166.49 301.523 1166.2C300.947 1165.92 300.215 1165.77 299.327 1165.77C298.679 1165.77 298.043 1165.9 297.419 1166.17C296.819 1166.43 296.279 1166.84 295.799 1167.39C295.319 1167.92 294.935 1168.6 294.647 1169.44C294.359 1170.26 294.215 1171.23 294.215 1172.36V1181H291.767V1167.86C291.767 1167.4 291.755 1166.82 291.731 1166.1C291.707 1165.38 291.671 1164.73 291.623 1164.15H293.963ZM321.649 1168.15C321.289 1167.45 320.737 1166.89 319.993 1166.46C319.273 1166 318.445 1165.77 317.509 1165.77C317.077 1165.77 316.645 1165.82 316.213 1165.92C315.781 1166.01 315.397 1166.17 315.061 1166.38C314.725 1166.6 314.449 1166.88 314.233 1167.21C314.041 1167.55 313.945 1167.94 313.945 1168.4C313.945 1169.19 314.269 1169.8 314.917 1170.24C315.565 1170.64 316.585 1170.99 317.977 1171.28C319.969 1171.69 321.433 1172.29 322.369 1173.08C323.329 1173.85 323.809 1174.89 323.809 1176.21C323.809 1177.17 323.617 1177.99 323.233 1178.66C322.873 1179.31 322.393 1179.85 321.793 1180.28C321.193 1180.69 320.509 1180.98 319.741 1181.14C318.997 1181.34 318.241 1181.43 317.473 1181.43C316.201 1181.43 314.965 1181.17 313.765 1180.64C312.565 1180.11 311.581 1179.28 310.813 1178.16L312.757 1176.72C313.189 1177.46 313.825 1178.08 314.665 1178.59C315.505 1179.09 316.429 1179.34 317.437 1179.34C317.965 1179.34 318.469 1179.3 318.949 1179.2C319.429 1179.1 319.849 1178.94 320.209 1178.7C320.569 1178.46 320.857 1178.16 321.073 1177.8C321.289 1177.41 321.397 1176.94 321.397 1176.39C321.397 1175.5 320.965 1174.84 320.101 1174.41C319.261 1173.96 318.037 1173.54 316.429 1173.15C315.925 1173.03 315.385 1172.89 314.809 1172.72C314.257 1172.53 313.741 1172.26 313.261 1171.93C312.781 1171.57 312.385 1171.12 312.073 1170.6C311.761 1170.07 311.605 1169.41 311.605 1168.62C311.605 1167.75 311.773 1167.02 312.109 1166.42C312.445 1165.8 312.889 1165.29 313.441 1164.91C314.017 1164.5 314.665 1164.2 315.385 1164.01C316.105 1163.82 316.849 1163.72 317.617 1163.72C318.793 1163.72 319.933 1163.98 321.037 1164.51C322.141 1165.04 322.969 1165.78 323.521 1166.74L321.649 1168.15ZM345.421 1172.58C345.421 1173.85 345.193 1175.02 344.737 1176.1C344.305 1177.18 343.693 1178.12 342.901 1178.91C342.109 1179.7 341.161 1180.33 340.057 1180.78C338.953 1181.22 337.741 1181.43 336.421 1181.43C335.125 1181.43 333.925 1181.22 332.821 1180.78C331.717 1180.33 330.769 1179.7 329.977 1178.91C329.185 1178.12 328.561 1177.18 328.105 1176.1C327.673 1175.02 327.457 1173.85 327.457 1172.58C327.457 1171.3 327.673 1170.13 328.105 1169.05C328.561 1167.97 329.185 1167.03 329.977 1166.24C330.769 1165.45 331.717 1164.84 332.821 1164.4C333.925 1163.95 335.125 1163.72 336.421 1163.72C337.741 1163.72 338.953 1163.95 340.057 1164.4C341.161 1164.84 342.109 1165.45 342.901 1166.24C343.693 1167.03 344.305 1167.97 344.737 1169.05C345.193 1170.13 345.421 1171.3 345.421 1172.58ZM342.829 1172.58C342.829 1171.64 342.673 1170.76 342.361 1169.95C342.073 1169.11 341.653 1168.39 341.101 1167.79C340.549 1167.16 339.877 1166.67 339.085 1166.31C338.293 1165.95 337.405 1165.77 336.421 1165.77C335.437 1165.77 334.549 1165.95 333.757 1166.31C332.989 1166.67 332.329 1167.16 331.777 1167.79C331.225 1168.39 330.793 1169.11 330.481 1169.95C330.193 1170.76 330.049 1171.64 330.049 1172.58C330.049 1173.51 330.193 1174.4 330.481 1175.24C330.793 1176.06 331.225 1176.78 331.777 1177.4C332.329 1178 332.989 1178.48 333.757 1178.84C334.549 1179.18 335.437 1179.34 336.421 1179.34C337.405 1179.34 338.293 1179.18 339.085 1178.84C339.877 1178.48 340.549 1178 341.101 1177.4C341.653 1176.78 342.073 1176.06 342.361 1175.24C342.673 1174.4 342.829 1173.51 342.829 1172.58ZM350.689 1167.86C350.689 1167.4 350.677 1166.82 350.653 1166.1C350.629 1165.38 350.593 1164.73 350.545 1164.15H352.885C352.933 1164.61 352.969 1165.11 352.993 1165.66C353.017 1166.22 353.029 1166.67 353.029 1167.03H353.101C353.581 1166.05 354.301 1165.26 355.261 1164.66C356.221 1164.03 357.301 1163.72 358.501 1163.72C358.813 1163.72 359.089 1163.73 359.329 1163.76C359.593 1163.78 359.857 1163.83 360.121 1163.9L359.797 1166.2C359.653 1166.16 359.413 1166.11 359.077 1166.06C358.741 1166.01 358.405 1165.99 358.069 1165.99C357.421 1165.99 356.797 1166.11 356.197 1166.35C355.597 1166.59 355.069 1166.97 354.613 1167.5C354.181 1168 353.821 1168.66 353.533 1169.48C353.269 1170.27 353.137 1171.23 353.137 1172.36V1181H350.689V1167.86Z" fill="black"/>
<path d="M537.752 79.024H555.032V130H537.752V79.024ZM564.541 79.024H581.605L596.149 104.872H596.437L595.717 79.024H611.989V130H594.493L580.381 105.664H580.093L580.813 130H564.541V79.024ZM615.59 79.024H634.958L643.382 110.56H643.67L651.734 79.024H671.102L652.67 130H633.662L615.59 79.024ZM674.721 79.024H709.785V93.28H690.849V97.672H708.633V110.992H690.849V115.744H711.009V130H674.721V79.024ZM734.808 131.44C732.744 131.44 730.704 131.248 728.688 130.864C726.72 130.528 724.8 130.024 722.928 129.352C721.104 128.632 719.376 127.816 717.744 126.904C716.112 125.944 714.648 124.888 713.352 123.736L723.792 112.36C724.992 113.656 726.576 114.808 728.544 115.816C730.56 116.824 732.624 117.328 734.736 117.328C735.696 117.328 736.56 117.16 737.328 116.824C738.144 116.488 738.552 115.864 738.552 114.952C738.552 114.472 738.408 114.064 738.12 113.728C737.88 113.392 737.424 113.056 736.752 112.72C736.08 112.336 735.144 111.928 733.944 111.496C732.792 111.064 731.328 110.56 729.552 109.984C727.824 109.408 726.168 108.736 724.584 107.968C723 107.152 721.584 106.168 720.336 105.016C719.136 103.864 718.176 102.496 717.456 100.912C716.736 99.28 716.376 97.336 716.376 95.08C716.376 91.912 717.024 89.224 718.32 87.016C719.616 84.808 721.272 83.008 723.288 81.616C725.352 80.176 727.656 79.144 730.2 78.52C732.744 77.896 735.264 77.584 737.76 77.584C741.12 77.584 744.528 78.232 747.984 79.528C751.488 80.824 754.56 82.696 757.2 85.144L746.544 96.016C745.392 94.576 743.976 93.496 742.296 92.776C740.616 92.008 739.104 91.624 737.76 91.624C736.512 91.624 735.504 91.816 734.736 92.2C733.968 92.536 733.584 93.112 733.584 93.928C733.584 94.696 733.968 95.272 734.736 95.656C735.552 96.04 736.848 96.52 738.624 97.096C740.448 97.672 742.368 98.344 744.384 99.112C746.4 99.88 748.248 100.888 749.928 102.136C751.656 103.336 753.072 104.824 754.176 106.6C755.28 108.376 755.832 110.584 755.832 113.224C755.832 116.296 755.208 118.984 753.96 121.288C752.76 123.544 751.152 125.44 749.136 126.976C747.168 128.464 744.936 129.568 742.44 130.288C739.944 131.056 737.4 131.44 734.808 131.44ZM787.113 130H769.977V93.496H757.449V79.024H799.641V93.496H787.113V130ZM820.061 101.2L820.853 130H804.869V79.024H827.261L836.477 106.456H836.837L844.829 79.024H867.941V130H851.309L851.813 101.344L851.381 101.272L841.877 130H829.781L820.421 101.2H820.061ZM877.432 79.024H912.496V93.28H893.56V97.672H911.344V110.992H893.56V115.744H913.72V130H877.432V79.024ZM920.814 79.024H937.879L952.422 104.872H952.711L951.991 79.024H968.263V130H950.767L936.655 105.664H936.367L937.087 130H920.814V79.024ZM1003.18 130H986.048V93.496H973.52V79.024H1015.71V93.496H1003.18V130Z" fill="black"/>
<path d="M588.88 235H584.128V201.016H605.344V205.192H588.88V215.752H604.288V219.832H588.88V235ZM625.186 235C625.122 234.424 625.074 233.784 625.042 233.08C625.01 232.344 624.994 231.736 624.994 231.256H624.898C624.322 232.472 623.346 233.512 621.97 234.376C620.626 235.208 619.122 235.624 617.458 235.624C615.986 235.624 614.706 235.384 613.618 234.904C612.562 234.424 611.682 233.768 610.978 232.936C610.306 232.072 609.794 231.08 609.442 229.96C609.122 228.84 608.962 227.64 608.962 226.36V212.248H613.474V224.824C613.474 225.752 613.538 226.648 613.666 227.512C613.826 228.344 614.098 229.08 614.482 229.72C614.866 230.36 615.394 230.872 616.066 231.256C616.738 231.64 617.602 231.832 618.658 231.832C620.482 231.832 621.954 231.16 623.074 229.816C624.194 228.44 624.754 226.616 624.754 224.344V212.248H629.266V230.104C629.266 230.712 629.282 231.496 629.314 232.456C629.346 233.416 629.394 234.264 629.458 235H625.186ZM641.171 212.248C641.235 212.824 641.283 213.48 641.315 214.216C641.347 214.92 641.363 215.512 641.363 215.992H641.507C641.795 215.384 642.179 214.824 642.659 214.312C643.171 213.768 643.747 213.304 644.387 212.92C645.027 212.504 645.731 212.184 646.499 211.96C647.267 211.736 648.067 211.624 648.899 211.624C650.371 211.624 651.635 211.88 652.691 212.392C653.747 212.872 654.627 213.528 655.331 214.36C656.035 215.192 656.547 216.168 656.867 217.288C657.219 218.408 657.395 219.608 657.395 220.888V235H652.883V222.376C652.883 221.448 652.803 220.568 652.643 219.736C652.515 218.904 652.259 218.168 651.875 217.528C651.491 216.888 650.963 216.376 650.291 215.992C649.619 215.608 648.755 215.416 647.699 215.416C645.907 215.416 644.435 216.104 643.283 217.48C642.163 218.824 641.603 220.632 641.603 222.904V235H637.091V217.144C637.091 216.536 637.075 215.752 637.043 214.792C637.011 213.832 636.963 212.984 636.899 212.248H641.171ZM683.173 231.4C682.309 232.776 681.125 233.832 679.621 234.568C678.149 235.272 676.597 235.624 674.965 235.624C673.205 235.624 671.621 235.32 670.213 234.712C668.805 234.072 667.605 233.208 666.613 232.12C665.621 231.032 664.853 229.752 664.309 228.28C663.765 226.808 663.493 225.24 663.493 223.576C663.493 221.912 663.765 220.36 664.309 218.92C664.853 217.448 665.621 216.168 666.613 215.08C667.637 213.992 668.853 213.144 670.261 212.536C671.669 211.928 673.221 211.624 674.917 211.624C676.773 211.624 678.389 212.024 679.765 212.824C681.141 213.592 682.229 214.536 683.029 215.656H683.125V198.712H687.637V235H683.269V231.4H683.173ZM668.197 223.576C668.197 224.632 668.357 225.656 668.677 226.648C668.997 227.64 669.477 228.52 670.117 229.288C670.757 230.056 671.541 230.68 672.469 231.16C673.397 231.608 674.485 231.832 675.733 231.832C676.885 231.832 677.925 231.608 678.853 231.16C679.813 230.712 680.629 230.12 681.301 229.384C681.973 228.616 682.485 227.736 682.837 226.744C683.221 225.752 683.413 224.712 683.413 223.624C683.413 222.536 683.221 221.496 682.837 220.504C682.485 219.512 681.973 218.632 681.301 217.864C680.629 217.096 679.813 216.488 678.853 216.04C677.925 215.592 676.885 215.368 675.733 215.368C674.485 215.368 673.397 215.592 672.469 216.04C671.541 216.488 670.757 217.096 670.117 217.864C669.477 218.632 668.997 219.512 668.677 220.504C668.357 221.496 668.197 222.52 668.197 223.576ZM695.497 217.144C695.497 216.536 695.481 215.752 695.449 214.792C695.417 213.832 695.369 212.984 695.305 212.248H699.577C699.641 212.824 699.689 213.496 699.721 214.264C699.753 215 699.769 215.608 699.769 216.088H699.913C700.553 214.744 701.481 213.672 702.697 212.872C703.945 212.04 705.337 211.624 706.873 211.624C707.577 211.624 708.169 211.688 708.649 211.816L708.457 215.992C707.817 215.832 707.129 215.752 706.393 215.752C705.305 215.752 704.361 215.96 703.561 216.376C702.761 216.76 702.089 217.288 701.545 217.96C701.033 218.632 700.649 219.416 700.393 220.312C700.137 221.176 700.009 222.088 700.009 223.048V235H695.497V217.144ZM726.439 220.264C726.439 218.568 725.927 217.32 724.903 216.52C723.879 215.688 722.519 215.272 720.823 215.272C719.543 215.272 718.327 215.528 717.175 216.04C716.055 216.52 715.111 217.144 714.343 217.912L711.943 215.032C713.063 213.976 714.423 213.144 716.023 212.536C717.655 211.928 719.399 211.624 721.255 211.624C722.887 211.624 724.295 211.864 725.479 212.344C726.695 212.792 727.687 213.416 728.455 214.216C729.223 215.016 729.799 215.96 730.183 217.048C730.567 218.136 730.759 219.304 730.759 220.552V230.488C730.759 231.256 730.775 232.072 730.807 232.936C730.871 233.768 730.967 234.456 731.095 235H727.015C726.759 233.912 726.631 232.824 726.631 231.736H726.487C725.655 232.952 724.599 233.896 723.319 234.568C722.071 235.24 720.583 235.576 718.855 235.576C717.959 235.576 717.015 235.448 716.023 235.192C715.063 234.968 714.183 234.584 713.383 234.04C712.583 233.496 711.911 232.776 711.367 231.88C710.855 230.984 710.599 229.88 710.599 228.568C710.599 226.84 711.063 225.48 711.991 224.488C712.919 223.464 714.135 222.696 715.639 222.184C717.143 221.64 718.839 221.288 720.727 221.128C722.615 220.968 724.519 220.888 726.439 220.888V220.264ZM725.335 224.152C724.215 224.152 723.047 224.2 721.831 224.296C720.647 224.392 719.559 224.584 718.567 224.872C717.607 225.16 716.807 225.592 716.167 226.168C715.527 226.744 715.207 227.512 715.207 228.472C715.207 229.144 715.335 229.704 715.591 230.152C715.879 230.6 716.247 230.968 716.695 231.256C717.143 231.544 717.639 231.752 718.183 231.88C718.727 231.976 719.287 232.024 719.863 232.024C721.975 232.024 723.591 231.4 724.711 230.152C725.863 228.872 726.439 227.272 726.439 225.352V224.152H725.335ZM742.854 235H738.342V212.248H742.854V235ZM743.622 204.04C743.622 204.872 743.318 205.56 742.71 206.104C742.134 206.648 741.43 206.92 740.598 206.92C739.766 206.92 739.062 206.648 738.486 206.104C737.91 205.528 737.622 204.84 737.622 204.04C737.622 203.208 737.91 202.52 738.486 201.976C739.062 201.4 739.766 201.112 740.598 201.112C741.43 201.112 742.134 201.4 742.71 201.976C743.318 202.52 743.622 203.208 743.622 204.04ZM763.004 218.008C762.492 217.176 761.772 216.504 760.844 215.992C759.916 215.448 758.876 215.176 757.724 215.176C757.212 215.176 756.7 215.24 756.188 215.368C755.676 215.464 755.212 215.64 754.796 215.896C754.412 216.12 754.092 216.424 753.836 216.808C753.612 217.16 753.5 217.608 753.5 218.152C753.5 219.112 753.932 219.832 754.796 220.312C755.66 220.76 756.956 221.176 758.684 221.56C759.772 221.816 760.78 222.12 761.708 222.472C762.636 222.824 763.436 223.272 764.108 223.816C764.812 224.328 765.356 224.952 765.74 225.688C766.124 226.424 766.316 227.288 766.316 228.28C766.316 229.624 766.06 230.76 765.548 231.688C765.036 232.616 764.348 233.384 763.484 233.992C762.652 234.568 761.692 234.984 760.604 235.24C759.516 235.496 758.396 235.624 757.244 235.624C755.516 235.624 753.82 235.288 752.156 234.616C750.524 233.944 749.164 232.92 748.076 231.544L751.292 228.808C751.9 229.704 752.732 230.456 753.788 231.064C754.876 231.672 756.06 231.976 757.34 231.976C757.916 231.976 758.46 231.928 758.972 231.832C759.516 231.704 759.996 231.512 760.412 231.256C760.86 231 761.212 230.664 761.468 230.248C761.724 229.832 761.852 229.304 761.852 228.664C761.852 227.608 761.34 226.824 760.316 226.312C759.324 225.8 757.852 225.32 755.9 224.872C755.132 224.68 754.348 224.456 753.548 224.2C752.78 223.912 752.076 223.528 751.436 223.048C750.796 222.568 750.268 221.976 749.852 221.272C749.468 220.536 749.276 219.64 749.276 218.584C749.276 217.368 749.516 216.328 749.996 215.464C750.508 214.568 751.164 213.848 751.964 213.304C752.764 212.728 753.676 212.312 754.7 212.056C755.724 211.768 756.78 211.624 757.868 211.624C759.5 211.624 761.068 211.944 762.572 212.584C764.108 213.224 765.292 214.152 766.124 215.368L763.004 218.008ZM776.604 235H772.092V212.248H776.604V235ZM777.372 204.04C777.372 204.872 777.068 205.56 776.46 206.104C775.884 206.648 775.18 206.92 774.348 206.92C773.516 206.92 772.812 206.648 772.236 206.104C771.66 205.528 771.372 204.84 771.372 204.04C771.372 203.208 771.66 202.52 772.236 201.976C772.812 201.4 773.516 201.112 774.348 201.112C775.18 201.112 775.884 201.4 776.46 201.976C777.068 202.52 777.372 203.208 777.372 204.04ZM788.546 212.248C788.61 212.824 788.658 213.48 788.69 214.216C788.722 214.92 788.738 215.512 788.738 215.992H788.882C789.17 215.384 789.554 214.824 790.034 214.312C790.546 213.768 791.122 213.304 791.762 212.92C792.402 212.504 793.106 212.184 793.874 211.96C794.642 211.736 795.442 211.624 796.274 211.624C797.746 211.624 799.01 211.88 800.066 212.392C801.122 212.872 802.002 213.528 802.706 214.36C803.41 215.192 803.922 216.168 804.242 217.288C804.594 218.408 804.77 219.608 804.77 220.888V235H800.258V222.376C800.258 221.448 800.178 220.568 800.018 219.736C799.89 218.904 799.634 218.168 799.25 217.528C798.866 216.888 798.338 216.376 797.666 215.992C796.994 215.608 796.13 215.416 795.074 215.416C793.282 215.416 791.81 216.104 790.658 217.48C789.538 218.824 788.978 220.632 788.978 222.904V235H784.466V217.144C784.466 216.536 784.45 215.752 784.418 214.792C784.386 213.832 784.338 212.984 784.274 212.248H788.546ZM814.18 238.888C815.172 240.008 816.404 240.904 817.876 241.576C819.38 242.248 820.916 242.584 822.484 242.584C823.988 242.584 825.252 242.36 826.276 241.912C827.3 241.496 828.116 240.904 828.724 240.136C829.364 239.4 829.812 238.52 830.068 237.496C830.356 236.472 830.5 235.368 830.5 234.184V231.256H830.404C829.572 232.536 828.436 233.512 826.996 234.184C825.556 234.856 824.02 235.192 822.388 235.192C820.66 235.192 819.076 234.888 817.636 234.28C816.228 233.672 815.028 232.84 814.036 231.784C813.044 230.728 812.276 229.496 811.732 228.088C811.188 226.648 810.916 225.112 810.916 223.48C810.916 221.848 811.188 220.312 811.732 218.872C812.276 217.432 813.044 216.184 814.036 215.128C815.028 214.04 816.228 213.192 817.636 212.584C819.044 211.944 820.612 211.624 822.34 211.624C823.972 211.624 825.524 211.976 826.996 212.68C828.5 213.384 829.684 214.456 830.548 215.896H830.644V212.248H835.012V233.848C835.012 235.512 834.804 237.096 834.388 238.6C833.972 240.136 833.268 241.48 832.276 242.632C831.284 243.816 829.988 244.76 828.388 245.464C826.788 246.168 824.804 246.52 822.436 246.52C820.452 246.52 818.452 246.152 816.436 245.416C814.452 244.712 812.74 243.704 811.3 242.392L814.18 238.888ZM815.572 223.384C815.572 224.44 815.732 225.448 816.052 226.408C816.404 227.368 816.9 228.216 817.54 228.952C818.212 229.688 819.012 230.28 819.94 230.728C820.868 231.176 821.924 231.4 823.108 231.4C824.26 231.4 825.316 231.192 826.276 230.776C827.236 230.36 828.052 229.8 828.724 229.096C829.396 228.36 829.908 227.512 830.26 226.552C830.644 225.56 830.836 224.504 830.836 223.384C830.836 222.296 830.644 221.272 830.26 220.312C829.908 219.352 829.38 218.504 828.676 217.768C828.004 217.032 827.188 216.456 826.228 216.04C825.3 215.592 824.26 215.368 823.108 215.368C821.924 215.368 820.868 215.592 819.94 216.04C819.012 216.456 818.212 217.032 817.54 217.768C816.9 218.472 816.404 219.32 816.052 220.312C815.732 221.272 815.572 222.296 815.572 223.384ZM871.868 207.304C871.196 206.376 870.284 205.624 869.132 205.048C867.98 204.44 866.684 204.136 865.244 204.136C864.476 204.136 863.692 204.248 862.892 204.472C862.124 204.664 861.42 205 860.78 205.48C860.14 205.928 859.612 206.504 859.196 207.208C858.812 207.88 858.62 208.696 858.62 209.656C858.62 210.584 858.796 211.368 859.148 212.008C859.532 212.616 860.028 213.144 860.636 213.592C861.276 214.008 862.012 214.376 862.844 214.696C863.708 214.984 864.62 215.288 865.58 215.608C866.732 215.96 867.9 216.36 869.084 216.808C870.268 217.256 871.34 217.848 872.3 218.584C873.26 219.32 874.044 220.248 874.652 221.368C875.26 222.456 875.564 223.848 875.564 225.544C875.564 227.304 875.228 228.84 874.556 230.152C873.916 231.432 873.052 232.504 871.964 233.368C870.876 234.2 869.612 234.824 868.172 235.24C866.764 235.656 865.308 235.864 863.804 235.864C861.66 235.864 859.58 235.448 857.564 234.616C855.58 233.784 853.932 232.552 852.62 230.92L856.316 227.8C857.116 228.984 858.188 229.944 859.532 230.68C860.876 231.416 862.332 231.784 863.9 231.784C864.7 231.784 865.5 231.672 866.3 231.448C867.1 231.224 867.82 230.872 868.46 230.392C869.132 229.912 869.676 229.32 870.092 228.616C870.508 227.88 870.716 227 870.716 225.976C870.716 224.952 870.492 224.104 870.044 223.432C869.628 222.728 869.052 222.136 868.316 221.656C867.58 221.176 866.716 220.776 865.724 220.456C864.764 220.104 863.74 219.752 862.652 219.4C861.564 219.08 860.492 218.696 859.436 218.248C858.38 217.768 857.436 217.176 856.604 216.472C855.772 215.736 855.1 214.84 854.588 213.784C854.076 212.728 853.82 211.416 853.82 209.848C853.82 208.152 854.156 206.696 854.828 205.48C855.532 204.264 856.428 203.256 857.516 202.456C858.636 201.656 859.884 201.08 861.26 200.728C862.668 200.344 864.076 200.152 865.484 200.152C867.468 200.152 869.324 200.504 871.052 201.208C872.78 201.912 874.172 202.856 875.228 204.04L871.868 207.304ZM892.915 215.944H886.867V227.8C886.867 229.176 887.123 230.168 887.635 230.776C888.147 231.352 888.963 231.64 890.083 231.64C890.499 231.64 890.947 231.592 891.427 231.496C891.907 231.4 892.339 231.256 892.723 231.064L892.867 234.76C892.323 234.952 891.715 235.096 891.043 235.192C890.403 235.32 889.731 235.384 889.027 235.384C886.883 235.384 885.235 234.792 884.083 233.608C882.963 232.424 882.403 230.648 882.403 228.28V215.944H878.035V212.248H882.403V205.72H886.867V212.248H892.915V215.944ZM911.736 220.264C911.736 218.568 911.224 217.32 910.2 216.52C909.176 215.688 907.816 215.272 906.12 215.272C904.84 215.272 903.624 215.528 902.472 216.04C901.352 216.52 900.408 217.144 899.64 217.912L897.24 215.032C898.36 213.976 899.72 213.144 901.32 212.536C902.952 211.928 904.696 211.624 906.552 211.624C908.184 211.624 909.592 211.864 910.776 212.344C911.992 212.792 912.984 213.416 913.752 214.216C914.52 215.016 915.096 215.96 915.48 217.048C915.864 218.136 916.056 219.304 916.056 220.552V230.488C916.056 231.256 916.072 232.072 916.104 232.936C916.168 233.768 916.264 234.456 916.392 235H912.312C912.056 233.912 911.928 232.824 911.928 231.736H911.784C910.952 232.952 909.896 233.896 908.616 234.568C907.368 235.24 905.88 235.576 904.152 235.576C903.256 235.576 902.312 235.448 901.32 235.192C900.36 234.968 899.48 234.584 898.68 234.04C897.88 233.496 897.208 232.776 896.664 231.88C896.152 230.984 895.896 229.88 895.896 228.568C895.896 226.84 896.36 225.48 897.288 224.488C898.216 223.464 899.432 222.696 900.936 222.184C902.44 221.64 904.136 221.288 906.023 221.128C907.912 220.968 909.816 220.888 911.736 220.888V220.264ZM910.632 224.152C909.512 224.152 908.344 224.2 907.128 224.296C905.944 224.392 904.856 224.584 903.864 224.872C902.904 225.16 902.104 225.592 901.464 226.168C900.824 226.744 900.504 227.512 900.504 228.472C900.504 229.144 900.632 229.704 900.888 230.152C901.176 230.6 901.544 230.968 901.992 231.256C902.44 231.544 902.936 231.752 903.48 231.88C904.024 231.976 904.584 232.024 905.16 232.024C907.272 232.024 908.888 231.4 910.008 230.152C911.16 228.872 911.736 227.272 911.736 225.352V224.152H910.632ZM939.527 218.008C939.047 217.272 938.327 216.664 937.367 216.184C936.407 215.672 935.383 215.416 934.295 215.416C933.111 215.416 932.055 215.64 931.127 216.088C930.231 216.536 929.463 217.144 928.823 217.912C928.183 218.648 927.687 219.512 927.335 220.504C927.015 221.496 926.855 222.536 926.855 223.624C926.855 224.712 927.015 225.752 927.335 226.744C927.687 227.736 928.183 228.616 928.823 229.384C929.463 230.12 930.247 230.712 931.175 231.16C932.103 231.608 933.159 231.832 934.343 231.832C935.495 231.832 936.535 231.608 937.463 231.16C938.423 230.712 939.207 230.104 939.815 229.336L942.839 232.072C941.879 233.192 940.679 234.072 939.239 234.712C937.799 235.32 936.167 235.624 934.343 235.624C932.583 235.624 930.951 235.336 929.447 234.76C927.975 234.184 926.695 233.384 925.607 232.36C924.519 231.304 923.655 230.04 923.015 228.568C922.407 227.096 922.103 225.448 922.103 223.624C922.103 221.832 922.407 220.2 923.015 218.728C923.623 217.256 924.471 215.992 925.559 214.936C926.647 213.88 927.927 213.064 929.399 212.488C930.903 211.912 932.519 211.624 934.247 211.624C935.847 211.624 937.431 211.944 938.999 212.584C940.599 213.224 941.863 214.152 942.791 215.368L939.527 218.008ZM951.918 222.136H952.062L961.614 212.248H967.662L957.006 222.568L968.574 235H962.334L952.062 223.192H951.918V235H947.406V198.712H951.918V222.136Z" fill="#717F93"/>
</svg>
