<svg width="20" height="20" viewBox="0 0 20 20" fill="none" xmlns="http://www.w3.org/2000/svg">
<path fill-rule="evenodd" clip-rule="evenodd" d="M17.817 2.11282C17.8743 2.15976 17.9204 2.21882 17.952 2.28575C17.9837 2.35267 18 2.42579 18 2.49982V16.4998C17.9999 16.6154 17.9598 16.7273 17.8866 16.8167C17.8133 16.906 17.7113 16.9672 17.598 16.9898L12.598 17.9898C12.5333 18.0027 12.4667 18.0027 12.402 17.9898L7.5 17.0098L2.598 17.9898C2.52549 18.0043 2.45067 18.0025 2.37892 17.9846C2.30718 17.9667 2.2403 17.9331 2.1831 17.8863C2.1259 17.8394 2.07981 17.7804 2.04815 17.7136C2.01649 17.6468 2.00004 17.5738 2 17.4998V3.49982C2.00007 3.38428 2.04016 3.27232 2.11344 3.18299C2.18673 3.09366 2.28869 3.03247 2.402 3.00982L7.402 2.00982C7.46669 1.99689 7.53331 1.99689 7.598 2.00982L12.5 2.98982L17.402 2.00982C17.4745 1.99524 17.5493 1.99691 17.6211 2.01472C17.6928 2.03253 17.7597 2.06604 17.817 2.11282ZM12 3.90982L8 3.10982V16.0898L12 16.8898V3.90982ZM13 16.8898L17 16.0898V3.10982L13 3.90982V16.8898ZM7 16.0898V3.10982L3 3.90982V16.8898L7 16.0898Z" fill="#4F46E5"/>
</svg>
