<svg width="20" height="20" viewBox="0 0 20 20" fill="none" xmlns="http://www.w3.org/2000/svg">
<path d="M13.3333 15.3332H16.6666V13.9998C16.6666 12.8953 15.7712 11.9998 14.6666 11.9998C14.0295 11.9998 13.462 12.2977 13.0958 12.7618M13.3333 15.3332H6.66659M13.3333 15.3332V13.9998C13.3333 13.5623 13.249 13.1445 13.0958 12.7618M6.66659 15.3332H3.33325V13.9998C3.33325 12.8953 4.22868 11.9998 5.33325 11.9998C5.97032 11.9998 6.53782 12.2977 6.90408 12.7618M6.66659 15.3332V13.9998C6.66659 13.5623 6.75087 13.1445 6.90408 12.7618M6.90408 12.7618C7.39559 11.5339 8.59646 10.6665 9.99992 10.6665C11.4034 10.6665 12.6043 11.5339 13.0958 12.7618M11.9999 6.6665C11.9999 7.77107 11.1045 8.6665 9.99992 8.6665C8.89535 8.6665 7.99992 7.77107 7.99992 6.6665C7.99992 5.56193 8.89535 4.6665 9.99992 4.6665C11.1045 4.6665 11.9999 5.56193 11.9999 6.6665ZM15.9999 8.6665C15.9999 9.40288 15.403 9.99984 14.6666 9.99984C13.9302 9.99984 13.3333 9.40288 13.3333 8.6665C13.3333 7.93012 13.9302 7.33317 14.6666 7.33317C15.403 7.33317 15.9999 7.93012 15.9999 8.6665ZM6.66659 8.6665C6.66659 9.40288 6.06963 9.99984 5.33325 9.99984C4.59687 9.99984 3.99992 9.40288 3.99992 8.6665C3.99992 7.93012 4.59687 7.33317 5.33325 7.33317C6.06963 7.33317 6.66659 7.93012 6.66659 8.6665Z" stroke="#4F46E5" stroke-linecap="round" stroke-linejoin="round"/>
</svg>
