<svg width="20" height="20" viewBox="0 0 20 20" fill="none" xmlns="http://www.w3.org/2000/svg">
<path d="M8.31251 9.02389H10.0833C10.2712 9.02389 10.4514 8.94926 10.5842 8.81642C10.717 8.68358 10.7917 8.50342 10.7917 8.31555C10.7917 8.12769 10.717 7.94753 10.5842 7.81469C10.4514 7.68185 10.2712 7.60722 10.0833 7.60722H9.37501V7.25305C9.37501 7.06519 9.30038 6.88503 9.16754 6.75219C9.0347 6.61935 8.85453 6.54472 8.66667 6.54472C8.47881 6.54472 8.29864 6.61935 8.1658 6.75219C8.03297 6.88503 7.95834 7.06519 7.95834 7.25305V7.64264C7.52797 7.73003 7.14543 7.97421 6.88497 8.32778C6.62451 8.68136 6.50472 9.1191 6.54886 9.55602C6.59299 9.99295 6.7979 10.3979 7.1238 10.6922C7.44971 10.9866 7.87336 11.1493 8.31251 11.1489H9.02084C9.11477 11.1489 9.20485 11.1862 9.27127 11.2526C9.33769 11.319 9.37501 11.4091 9.37501 11.503C9.37501 11.597 9.33769 11.6871 9.27127 11.7535C9.20485 11.8199 9.11477 11.8572 9.02084 11.8572H7.25001C7.06214 11.8572 6.88198 11.9318 6.74914 12.0647C6.6163 12.1975 6.54167 12.3777 6.54167 12.5655C6.54167 12.7534 6.6163 12.9336 6.74914 13.0664C6.88198 13.1993 7.06214 13.2739 7.25001 13.2739H7.95834V13.628C7.95834 13.8159 8.03297 13.9961 8.1658 14.1289C8.29864 14.2618 8.47881 14.3364 8.66667 14.3364C8.85453 14.3364 9.0347 14.2618 9.16754 14.1289C9.30038 13.9961 9.37501 13.8159 9.37501 13.628V13.2385C9.80537 13.1511 10.1879 12.9069 10.4484 12.5533C10.7088 12.1997 10.8286 11.762 10.7845 11.3251C10.7404 10.8882 10.5354 10.4832 10.2095 10.1889C9.88364 9.89453 9.45999 9.73178 9.02084 9.73222H8.31251C8.21858 9.73222 8.12849 9.69491 8.06207 9.62849C7.99565 9.56207 7.95834 9.47198 7.95834 9.37805C7.95834 9.28412 7.99565 9.19404 8.06207 9.12762C8.12849 9.0612 8.21858 9.02389 8.31251 9.02389ZM16.4583 10.0864H14.3333V3.89816C14.3338 3.77334 14.3013 3.65061 14.2391 3.5424C14.177 3.43418 14.0873 3.34432 13.9792 3.28191C13.8715 3.21974 13.7493 3.18701 13.625 3.18701C13.5007 3.18701 13.3785 3.21974 13.2708 3.28191L11.1458 4.50024L9.02084 3.28191C8.91316 3.21974 8.79101 3.18701 8.66667 3.18701C8.54233 3.18701 8.42019 3.21974 8.31251 3.28191L6.18751 4.50024L4.06251 3.28191C3.95483 3.21974 3.83268 3.18701 3.70834 3.18701C3.584 3.18701 3.46185 3.21974 3.35417 3.28191C3.24608 3.34432 3.15639 3.43418 3.0942 3.5424C3.032 3.65061 2.99951 3.77334 3.00001 3.89816L3.00001 15.0447C3.00001 15.6083 3.22389 16.1488 3.6224 16.5473C4.02092 16.9458 4.43641 17 5 17L15.1453 16.8963C15.7089 16.8963 16.1458 16.9458 16.5443 16.5473C16.9428 16.1488 17.1667 15.6083 17.1667 15.0447V10.7947C17.1667 10.6069 17.092 10.4267 16.9592 10.2939C16.8264 10.161 16.6462 10.0864 16.4583 10.0864ZM4.89721 15.8187C4.70934 15.8187 4.5 15.5075 4.5 15.5075C4.5 15.5075 4.18887 15.2982 4.18887 15.1103V4.57222L5.83334 5.50024C5.94266 5.55734 6.06417 5.58716 6.18751 5.58716C6.31084 5.58716 6.43235 5.55734 6.54167 5.50024L8.66667 4.2848L10.7917 5.50024C10.901 5.55734 11.0225 5.58716 11.1458 5.58716C11.2692 5.58716 11.3907 5.55734 11.5 5.50024L13.0667 4.57222L13 15.0447C13.0019 15.2864 13.0814 15.5915 13.1639 15.8187H4.89721ZM16 15.0447C16 15.2326 15.9254 15.4127 15.7925 15.5456C15.4023 15.753 15.2295 15.753 15.0417 15.753C14.8538 15.753 14.6736 15.6784 14.5408 15.5456C14.408 15.4127 14.3333 15.2326 14.3333 15.0447V11.2584L16 11.2526V15.0447Z" fill="#4F46E5"/>
</svg>
