<svg width="1550" height="1563" viewBox="0 0 1550 1563" fill="none" xmlns="http://www.w3.org/2000/svg">
<path d="M836 1351.27V1276.64L1129.58 1402.63V1485.99L836 1351.27Z" fill="#9CA3AF"/>
<path d="M1129.58 1289.81V1364.74L836 1239.29V1163.51L1129.58 1289.81Z" fill="#9CA3AF"/>
<path d="M836 1049.84V1126.46L1129.58 1251.92V1174.46L836 1049.84Z" fill="#9CA3AF"/>
<path d="M1165.76 1251.92V1174.46L1461.86 1049V1126.46L1165.76 1251.92Z" fill="#9CA3AF"/>
<path d="M1165.76 1364.74V1289.81L1461.86 1163.51V1239.29L1165.76 1364.74Z" fill="#9CA3AF"/>
<path d="M1461.86 1351.27V1276.64L1362.6 1319.28L1363.78 1395.9L1461.86 1351.27Z" fill="#9CA3AF"/>
<path d="M1165.76 1402.63V1485.99L1264.77 1440.94V1360.53L1165.76 1402.63Z" fill="#9CA3AF"/>
<path opacity="0.7" d="M1134.43 896.492L840 772.72L1134.43 654L1428.01 772.72L1134.43 896.492Z" fill="#5C6BF6"/>
<path d="M1129.58 1059.3V1134.23L836 1008.78V933L1129.58 1059.3Z" fill="#D1D5DB"/>
<path d="M1165.76 1134.23V1059.3L1461.86 933V1008.78L1165.76 1134.23Z" fill="#D1D5DB"/>
<g opacity="0.7">
<path d="M836 816.352V892.972L1129.58 1018.43V940.966L836 816.352Z" fill="#5C6BF6"/>
<path d="M1165.76 1018.43V940.966L1461.86 815.51V892.972L1165.76 1018.43Z" fill="#5C6BF6"/>
</g>
<rect x="88" y="933" width="700" height="76" fill="#D1D5DB"/>
<rect x="88" y="1050" width="700" height="301" fill="#9CA3AF"/>
<rect opacity="0.7" x="88" y="816" width="700" height="77" fill="#5C6BF6"/>
<path d="M155.188 869V850.28L150.436 853.952L147.304 849.668L155.692 843.512H161.236V869H155.188ZM189.873 856.184C189.873 857.984 189.693 859.7 189.333 861.332C188.973 862.964 188.397 864.404 187.605 865.652C186.813 866.876 185.781 867.86 184.509 868.604C183.261 869.324 181.737 869.684 179.937 869.684C178.137 869.684 176.601 869.324 175.329 868.604C174.057 867.86 173.013 866.876 172.197 865.652C171.405 864.404 170.829 862.964 170.469 861.332C170.109 859.7 169.929 857.984 169.929 856.184C169.929 854.384 170.109 852.68 170.469 851.072C170.829 849.44 171.405 848.024 172.197 846.824C173.013 845.6 174.057 844.628 175.329 843.908C176.601 843.188 178.137 842.828 179.937 842.828C181.737 842.828 183.261 843.188 184.509 843.908C185.781 844.628 186.813 845.6 187.605 846.824C188.397 848.024 188.973 849.44 189.333 851.072C189.693 852.68 189.873 854.384 189.873 856.184ZM183.681 856.184C183.681 855.392 183.633 854.516 183.537 853.556C183.441 852.596 183.261 851.708 182.997 850.892C182.733 850.052 182.349 849.356 181.845 848.804C181.365 848.228 180.729 847.94 179.937 847.94C179.145 847.94 178.497 848.228 177.993 848.804C177.489 849.356 177.093 850.052 176.805 850.892C176.541 851.708 176.361 852.596 176.265 853.556C176.169 854.516 176.121 855.392 176.121 856.184C176.121 857 176.169 857.9 176.265 858.884C176.361 859.844 176.541 860.744 176.805 861.584C177.093 862.4 177.489 863.096 177.993 863.672C178.497 864.224 179.145 864.5 179.937 864.5C180.729 864.5 181.365 864.224 181.845 863.672C182.349 863.096 182.733 862.4 182.997 861.584C183.261 860.744 183.441 859.844 183.537 858.884C183.633 857.9 183.681 857 183.681 856.184ZM223.551 862.628C223.551 863.564 223.371 864.452 223.011 865.292C222.651 866.108 222.159 866.828 221.535 867.452C220.935 868.052 220.215 868.532 219.375 868.892C218.535 869.252 217.647 869.432 216.711 869.432C215.775 869.432 214.887 869.252 214.047 868.892C213.207 868.532 212.475 868.052 211.851 867.452C211.251 866.828 210.771 866.108 210.411 865.292C210.051 864.452 209.871 863.564 209.871 862.628C209.871 861.692 210.051 860.816 210.411 860C210.771 859.16 211.251 858.44 211.851 857.84C212.475 857.216 213.207 856.724 214.047 856.364C214.887 856.004 215.775 855.824 216.711 855.824C217.647 855.824 218.535 856.004 219.375 856.364C220.215 856.724 220.935 857.216 221.535 857.84C222.159 858.44 222.651 859.16 223.011 860C223.371 860.816 223.551 861.692 223.551 862.628ZM219.519 862.628C219.519 862.244 219.435 861.884 219.267 861.548C219.123 861.188 218.919 860.888 218.655 860.648C218.415 860.384 218.127 860.18 217.791 860.036C217.455 859.892 217.095 859.82 216.711 859.82C215.943 859.82 215.283 860.096 214.731 860.648C214.179 861.2 213.903 861.86 213.903 862.628C213.903 863.396 214.179 864.056 214.731 864.608C215.283 865.136 215.943 865.4 216.711 865.4C217.095 865.4 217.455 865.328 217.791 865.184C218.127 865.04 218.415 864.848 218.655 864.608C218.919 864.344 219.123 864.044 219.267 863.708C219.435 863.372 219.519 863.012 219.519 862.628ZM206.271 849.884C206.271 850.82 206.091 851.708 205.731 852.548C205.371 853.364 204.879 854.084 204.255 854.708C203.655 855.308 202.935 855.788 202.095 856.148C201.255 856.508 200.367 856.688 199.431 856.688C198.495 856.688 197.607 856.508 196.767 856.148C195.927 855.788 195.195 855.308 194.571 854.708C193.971 854.084 193.491 853.364 193.131 852.548C192.771 851.708 192.591 850.82 192.591 849.884C192.591 848.924 192.771 848.036 193.131 847.22C193.491 846.38 193.971 845.66 194.571 845.06C195.195 844.436 195.927 843.956 196.767 843.62C197.607 843.26 198.495 843.08 199.431 843.08C200.367 843.08 201.255 843.26 202.095 843.62C202.935 843.956 203.655 844.436 204.255 845.06C204.879 845.66 205.371 846.38 205.731 847.22C206.091 848.036 206.271 848.924 206.271 849.884ZM202.239 849.884C202.239 849.116 201.963 848.456 201.411 847.904C200.859 847.352 200.199 847.076 199.431 847.076C198.663 847.076 198.003 847.352 197.451 847.904C196.899 848.456 196.623 849.116 196.623 849.884C196.623 850.652 196.899 851.312 197.451 851.864C198.003 852.392 198.663 852.656 199.431 852.656C200.199 852.656 200.859 852.392 201.411 851.864C201.963 851.312 202.239 850.652 202.239 849.884ZM202.203 870.224L198.999 868.64L213.867 842.36L217.215 843.98L202.203 870.224ZM244.025 869H241.433V845.816H232.901V843.512H252.557V845.816H244.025V869ZM269.535 860.576C269.535 861.848 269.307 863.024 268.851 864.104C268.419 865.184 267.807 866.12 267.015 866.912C266.223 867.704 265.275 868.328 264.171 868.784C263.067 869.216 261.855 869.432 260.535 869.432C259.239 869.432 258.039 869.216 256.935 868.784C255.831 868.328 254.883 867.704 254.091 866.912C253.299 866.12 252.675 865.184 252.219 864.104C251.787 863.024 251.571 861.848 251.571 860.576C251.571 859.304 251.787 858.128 252.219 857.048C252.675 855.968 253.299 855.032 254.091 854.24C254.883 853.448 255.831 852.836 256.935 852.404C258.039 851.948 259.239 851.72 260.535 851.72C261.855 851.72 263.067 851.948 264.171 852.404C265.275 852.836 266.223 853.448 267.015 854.24C267.807 855.032 268.419 855.968 268.851 857.048C269.307 858.128 269.535 859.304 269.535 860.576ZM266.943 860.576C266.943 859.64 266.787 858.764 266.475 857.948C266.187 857.108 265.767 856.388 265.215 855.788C264.663 855.164 263.991 854.672 263.199 854.312C262.407 853.952 261.519 853.772 260.535 853.772C259.551 853.772 258.663 853.952 257.871 854.312C257.103 854.672 256.443 855.164 255.891 855.788C255.339 856.388 254.907 857.108 254.595 857.948C254.307 858.764 254.163 859.64 254.163 860.576C254.163 861.512 254.307 862.4 254.595 863.24C254.907 864.056 255.339 864.776 255.891 865.4C256.443 866 257.103 866.48 257.871 866.84C258.663 867.176 259.551 867.344 260.535 867.344C261.519 867.344 262.407 867.176 263.199 866.84C263.991 866.48 264.663 866 265.215 865.4C265.767 864.776 266.187 864.056 266.475 863.24C266.787 862.4 266.943 861.512 266.943 860.576ZM277.323 859.748H277.431L285.207 852.152H288.735L280.239 859.856L289.599 869H285.999L277.431 860.144H277.323V869H274.875V841.784H277.323V859.748ZM305.373 859.28C305.301 857.696 304.785 856.388 303.825 855.356C302.889 854.3 301.545 853.772 299.793 853.772C298.977 853.772 298.221 853.928 297.525 854.24C296.829 854.528 296.217 854.936 295.689 855.464C295.161 855.968 294.741 856.556 294.429 857.228C294.117 857.876 293.937 858.56 293.889 859.28H305.373ZM307.857 860.072C307.857 860.24 307.857 860.42 307.857 860.612C307.857 860.804 307.845 861.008 307.821 861.224H293.853C293.877 862.064 294.045 862.856 294.357 863.6C294.669 864.344 295.101 864.992 295.653 865.544C296.205 866.096 296.853 866.54 297.597 866.876C298.341 867.188 299.145 867.344 300.009 867.344C301.281 867.344 302.373 867.056 303.285 866.48C304.221 865.88 304.929 865.196 305.409 864.428L307.245 865.868C306.237 867.14 305.121 868.052 303.897 868.604C302.697 869.156 301.401 869.432 300.009 869.432C298.761 869.432 297.597 869.216 296.517 868.784C295.461 868.328 294.549 867.704 293.781 866.912C293.013 866.12 292.401 865.184 291.945 864.104C291.513 863.024 291.297 861.848 291.297 860.576C291.297 859.304 291.513 858.128 291.945 857.048C292.377 855.968 292.977 855.032 293.745 854.24C294.513 853.448 295.413 852.836 296.445 852.404C297.477 851.948 298.593 851.72 299.793 851.72C301.113 851.72 302.277 851.948 303.285 852.404C304.293 852.836 305.133 853.436 305.805 854.204C306.477 854.948 306.981 855.824 307.317 856.832C307.677 857.84 307.857 858.92 307.857 860.072ZM315.319 852.152C315.367 852.608 315.403 853.112 315.427 853.664C315.451 854.216 315.463 854.672 315.463 855.032H315.535C316.015 854.048 316.795 853.256 317.875 852.656C318.955 852.032 320.095 851.72 321.295 851.72C323.431 851.72 325.027 852.356 326.083 853.628C327.163 854.9 327.703 856.58 327.703 858.668V869H325.255V859.676C325.255 858.788 325.183 857.984 325.039 857.264C324.895 856.544 324.643 855.932 324.283 855.428C323.947 854.9 323.479 854.492 322.879 854.204C322.303 853.916 321.571 853.772 320.683 853.772C320.035 853.772 319.399 853.904 318.775 854.168C318.175 854.432 317.635 854.84 317.155 855.392C316.675 855.92 316.291 856.604 316.003 857.444C315.715 858.26 315.571 859.232 315.571 860.36V869H313.123V855.86C313.123 855.404 313.111 854.816 313.087 854.096C313.063 853.376 313.027 852.728 312.979 852.152H315.319ZM336.525 869H334.077V852.152H336.525V869ZM337.029 845.672C337.029 846.176 336.849 846.596 336.489 846.932C336.129 847.244 335.733 847.4 335.301 847.4C334.869 847.4 334.473 847.244 334.113 846.932C333.753 846.596 333.573 846.176 333.573 845.672C333.573 845.168 333.753 844.76 334.113 844.448C334.473 844.112 334.869 843.944 335.301 843.944C335.733 843.944 336.129 844.112 336.489 844.448C336.849 844.76 337.029 845.168 337.029 845.672ZM354.237 853.88L344.157 866.876H354.597V869H340.917V867.272L350.961 854.204H341.421V852.152H354.237V853.88ZM369.587 858.128C369.587 856.664 369.203 855.572 368.435 854.852C367.667 854.132 366.551 853.772 365.087 853.772C364.079 853.772 363.143 853.952 362.279 854.312C361.415 854.672 360.683 855.152 360.083 855.752L358.715 854.132C359.411 853.436 360.323 852.86 361.451 852.404C362.603 851.948 363.899 851.72 365.339 851.72C366.251 851.72 367.103 851.852 367.895 852.116C368.687 852.356 369.383 852.728 369.983 853.232C370.583 853.736 371.051 854.372 371.387 855.14C371.723 855.908 371.891 856.808 371.891 857.84V865.22C371.891 865.868 371.915 866.54 371.963 867.236C372.011 867.932 372.083 868.52 372.179 869H369.983C369.911 868.592 369.851 868.148 369.803 867.668C369.755 867.188 369.731 866.72 369.731 866.264H369.659C368.891 867.392 368.015 868.208 367.031 868.712C366.071 869.192 364.907 869.432 363.539 869.432C362.891 869.432 362.219 869.336 361.523 869.144C360.851 868.976 360.227 868.688 359.651 868.28C359.099 867.872 358.631 867.344 358.247 866.696C357.887 866.048 357.707 865.256 357.707 864.32C357.707 863.024 358.031 862.004 358.679 861.26C359.351 860.492 360.239 859.928 361.343 859.568C362.447 859.184 363.707 858.944 365.123 858.848C366.563 858.728 368.051 858.668 369.587 858.668V858.128ZM368.867 860.576C367.859 860.576 366.839 860.624 365.807 860.72C364.799 860.792 363.875 860.96 363.035 861.224C362.219 861.464 361.547 861.824 361.019 862.304C360.491 862.784 360.227 863.42 360.227 864.212C360.227 864.812 360.335 865.316 360.551 865.724C360.791 866.132 361.103 866.468 361.487 866.732C361.871 866.972 362.291 867.152 362.747 867.272C363.227 867.368 363.707 867.416 364.187 867.416C365.051 867.416 365.819 867.272 366.491 866.984C367.163 866.672 367.727 866.264 368.183 865.76C368.639 865.232 368.987 864.632 369.227 863.96C369.467 863.288 369.587 862.58 369.587 861.836V860.576H368.867ZM385.441 854.204H380.689V864.032C380.689 864.656 380.749 865.172 380.869 865.58C380.989 865.988 381.157 866.312 381.373 866.552C381.613 866.768 381.889 866.924 382.201 867.02C382.513 867.092 382.849 867.128 383.209 867.128C383.545 867.128 383.893 867.08 384.253 866.984C384.637 866.888 384.997 866.756 385.333 866.588L385.441 868.712C385.009 868.88 384.553 869 384.073 869.072C383.617 869.168 383.113 869.216 382.561 869.216C382.105 869.216 381.625 869.156 381.121 869.036C380.617 868.916 380.149 868.688 379.717 868.352C379.285 868.016 378.925 867.56 378.637 866.984C378.373 866.408 378.241 865.652 378.241 864.716V854.204H374.749V852.152H378.241V847.4H380.689V852.152H385.441V854.204ZM391.755 869H389.307V852.152H391.755V869ZM392.259 845.672C392.259 846.176 392.079 846.596 391.719 846.932C391.359 847.244 390.963 847.4 390.531 847.4C390.099 847.4 389.703 847.244 389.343 846.932C388.983 846.596 388.803 846.176 388.803 845.672C388.803 845.168 388.983 844.76 389.343 844.448C389.703 844.112 390.099 843.944 390.531 843.944C390.963 843.944 391.359 844.112 391.719 844.448C392.079 844.76 392.259 845.168 392.259 845.672ZM415.011 860.576C415.011 861.848 414.783 863.024 414.327 864.104C413.895 865.184 413.283 866.12 412.491 866.912C411.699 867.704 410.751 868.328 409.647 868.784C408.543 869.216 407.331 869.432 406.011 869.432C404.715 869.432 403.515 869.216 402.411 868.784C401.307 868.328 400.359 867.704 399.567 866.912C398.775 866.12 398.151 865.184 397.695 864.104C397.263 863.024 397.047 861.848 397.047 860.576C397.047 859.304 397.263 858.128 397.695 857.048C398.151 855.968 398.775 855.032 399.567 854.24C400.359 853.448 401.307 852.836 402.411 852.404C403.515 851.948 404.715 851.72 406.011 851.72C407.331 851.72 408.543 851.948 409.647 852.404C410.751 852.836 411.699 853.448 412.491 854.24C413.283 855.032 413.895 855.968 414.327 857.048C414.783 858.128 415.011 859.304 415.011 860.576ZM412.419 860.576C412.419 859.64 412.263 858.764 411.951 857.948C411.663 857.108 411.243 856.388 410.691 855.788C410.139 855.164 409.467 854.672 408.675 854.312C407.883 853.952 406.995 853.772 406.011 853.772C405.027 853.772 404.139 853.952 403.347 854.312C402.579 854.672 401.919 855.164 401.367 855.788C400.815 856.388 400.383 857.108 400.071 857.948C399.783 858.764 399.639 859.64 399.639 860.576C399.639 861.512 399.783 862.4 400.071 863.24C400.383 864.056 400.815 864.776 401.367 865.4C401.919 866 402.579 866.48 403.347 866.84C404.139 867.176 405.027 867.344 406.011 867.344C406.995 867.344 407.883 867.176 408.675 866.84C409.467 866.48 410.139 866 410.691 865.4C411.243 864.776 411.663 864.056 411.951 863.24C412.263 862.4 412.419 861.512 412.419 860.576ZM422.475 852.152C422.523 852.608 422.559 853.112 422.583 853.664C422.607 854.216 422.619 854.672 422.619 855.032H422.691C423.171 854.048 423.951 853.256 425.031 852.656C426.111 852.032 427.251 851.72 428.451 851.72C430.587 851.72 432.183 852.356 433.239 853.628C434.319 854.9 434.859 856.58 434.859 858.668V869H432.411V859.676C432.411 858.788 432.339 857.984 432.195 857.264C432.051 856.544 431.799 855.932 431.439 855.428C431.103 854.9 430.635 854.492 430.035 854.204C429.459 853.916 428.727 853.772 427.839 853.772C427.191 853.772 426.555 853.904 425.931 854.168C425.331 854.432 424.791 854.84 424.311 855.392C423.831 855.92 423.447 856.604 423.159 857.444C422.871 858.26 422.727 859.232 422.727 860.36V869H420.279V855.86C420.279 855.404 420.267 854.816 420.243 854.096C420.219 853.376 420.183 852.728 420.135 852.152H422.475Z" fill="black"/>
<path d="M155.188 985V966.28L150.436 969.952L147.304 965.668L155.692 959.512H161.236V985H155.188ZM189.873 972.184C189.873 973.984 189.693 975.7 189.333 977.332C188.973 978.964 188.397 980.404 187.605 981.652C186.813 982.876 185.781 983.86 184.509 984.604C183.261 985.324 181.737 985.684 179.937 985.684C178.137 985.684 176.601 985.324 175.329 984.604C174.057 983.86 173.013 982.876 172.197 981.652C171.405 980.404 170.829 978.964 170.469 977.332C170.109 975.7 169.929 973.984 169.929 972.184C169.929 970.384 170.109 968.68 170.469 967.072C170.829 965.44 171.405 964.024 172.197 962.824C173.013 961.6 174.057 960.628 175.329 959.908C176.601 959.188 178.137 958.828 179.937 958.828C181.737 958.828 183.261 959.188 184.509 959.908C185.781 960.628 186.813 961.6 187.605 962.824C188.397 964.024 188.973 965.44 189.333 967.072C189.693 968.68 189.873 970.384 189.873 972.184ZM183.681 972.184C183.681 971.392 183.633 970.516 183.537 969.556C183.441 968.596 183.261 967.708 182.997 966.892C182.733 966.052 182.349 965.356 181.845 964.804C181.365 964.228 180.729 963.94 179.937 963.94C179.145 963.94 178.497 964.228 177.993 964.804C177.489 965.356 177.093 966.052 176.805 966.892C176.541 967.708 176.361 968.596 176.265 969.556C176.169 970.516 176.121 971.392 176.121 972.184C176.121 973 176.169 973.9 176.265 974.884C176.361 975.844 176.541 976.744 176.805 977.584C177.093 978.4 177.489 979.096 177.993 979.672C178.497 980.224 179.145 980.5 179.937 980.5C180.729 980.5 181.365 980.224 181.845 979.672C182.349 979.096 182.733 978.4 182.997 977.584C183.261 976.744 183.441 975.844 183.537 974.884C183.633 973.9 183.681 973 183.681 972.184ZM223.551 978.628C223.551 979.564 223.371 980.452 223.011 981.292C222.651 982.108 222.159 982.828 221.535 983.452C220.935 984.052 220.215 984.532 219.375 984.892C218.535 985.252 217.647 985.432 216.711 985.432C215.775 985.432 214.887 985.252 214.047 984.892C213.207 984.532 212.475 984.052 211.851 983.452C211.251 982.828 210.771 982.108 210.411 981.292C210.051 980.452 209.871 979.564 209.871 978.628C209.871 977.692 210.051 976.816 210.411 976C210.771 975.16 211.251 974.44 211.851 973.84C212.475 973.216 213.207 972.724 214.047 972.364C214.887 972.004 215.775 971.824 216.711 971.824C217.647 971.824 218.535 972.004 219.375 972.364C220.215 972.724 220.935 973.216 221.535 973.84C222.159 974.44 222.651 975.16 223.011 976C223.371 976.816 223.551 977.692 223.551 978.628ZM219.519 978.628C219.519 978.244 219.435 977.884 219.267 977.548C219.123 977.188 218.919 976.888 218.655 976.648C218.415 976.384 218.127 976.18 217.791 976.036C217.455 975.892 217.095 975.82 216.711 975.82C215.943 975.82 215.283 976.096 214.731 976.648C214.179 977.2 213.903 977.86 213.903 978.628C213.903 979.396 214.179 980.056 214.731 980.608C215.283 981.136 215.943 981.4 216.711 981.4C217.095 981.4 217.455 981.328 217.791 981.184C218.127 981.04 218.415 980.848 218.655 980.608C218.919 980.344 219.123 980.044 219.267 979.708C219.435 979.372 219.519 979.012 219.519 978.628ZM206.271 965.884C206.271 966.82 206.091 967.708 205.731 968.548C205.371 969.364 204.879 970.084 204.255 970.708C203.655 971.308 202.935 971.788 202.095 972.148C201.255 972.508 200.367 972.688 199.431 972.688C198.495 972.688 197.607 972.508 196.767 972.148C195.927 971.788 195.195 971.308 194.571 970.708C193.971 970.084 193.491 969.364 193.131 968.548C192.771 967.708 192.591 966.82 192.591 965.884C192.591 964.924 192.771 964.036 193.131 963.22C193.491 962.38 193.971 961.66 194.571 961.06C195.195 960.436 195.927 959.956 196.767 959.62C197.607 959.26 198.495 959.08 199.431 959.08C200.367 959.08 201.255 959.26 202.095 959.62C202.935 959.956 203.655 960.436 204.255 961.06C204.879 961.66 205.371 962.38 205.731 963.22C206.091 964.036 206.271 964.924 206.271 965.884ZM202.239 965.884C202.239 965.116 201.963 964.456 201.411 963.904C200.859 963.352 200.199 963.076 199.431 963.076C198.663 963.076 198.003 963.352 197.451 963.904C196.899 964.456 196.623 965.116 196.623 965.884C196.623 966.652 196.899 967.312 197.451 967.864C198.003 968.392 198.663 968.656 199.431 968.656C200.199 968.656 200.859 968.392 201.411 967.864C201.963 967.312 202.239 966.652 202.239 965.884ZM202.203 986.224L198.999 984.64L213.867 958.36L217.215 959.98L202.203 986.224ZM239.324 982.696H252.968V985H236.732V959.512H252.536V961.816H239.324V970.6H251.672V972.868H239.324V982.696ZM271.716 982.156C271.02 983.212 270.084 984.028 268.908 984.604C267.756 985.156 266.58 985.432 265.38 985.432C264.06 985.432 262.86 985.204 261.78 984.748C260.724 984.292 259.812 983.668 259.044 982.876C258.3 982.084 257.712 981.148 257.28 980.068C256.872 978.988 256.668 977.824 256.668 976.576C256.668 975.328 256.872 974.164 257.28 973.084C257.712 972.004 258.3 971.068 259.044 970.276C259.812 969.484 260.724 968.86 261.78 968.404C262.86 967.948 264.06 967.72 265.38 967.72C266.58 967.72 267.756 968.008 268.908 968.584C270.084 969.136 271.02 969.964 271.716 971.068H271.824V968.152H274.272V993.64H271.824V982.156H271.716ZM259.26 976.576C259.26 977.512 259.404 978.4 259.692 979.24C259.98 980.056 260.388 980.776 260.916 981.4C261.468 982 262.14 982.48 262.932 982.84C263.724 983.176 264.624 983.344 265.632 983.344C266.568 983.344 267.432 983.176 268.224 982.84C269.016 982.48 269.7 982 270.276 981.4C270.852 980.8 271.296 980.092 271.608 979.276C271.944 978.436 272.112 977.536 272.112 976.576C272.112 975.616 271.944 974.728 271.608 973.912C271.296 973.072 270.852 972.352 270.276 971.752C269.7 971.128 269.016 970.648 268.224 970.312C267.432 969.952 266.568 969.772 265.632 969.772C264.624 969.772 263.724 969.952 262.932 970.312C262.14 970.672 261.468 971.164 260.916 971.788C260.388 972.388 259.98 973.108 259.692 973.948C259.404 974.764 259.26 975.64 259.26 976.576ZM292.984 985C292.936 984.544 292.9 984.04 292.876 983.488C292.852 982.936 292.84 982.48 292.84 982.12H292.768C292.288 983.104 291.508 983.908 290.428 984.532C289.348 985.132 288.208 985.432 287.008 985.432C284.872 985.432 283.264 984.796 282.184 983.524C281.128 982.252 280.6 980.572 280.6 978.484V968.152H283.048V977.476C283.048 978.364 283.12 979.168 283.264 979.888C283.408 980.608 283.648 981.232 283.984 981.76C284.344 982.264 284.812 982.66 285.388 982.948C285.988 983.236 286.732 983.38 287.62 983.38C288.268 983.38 288.892 983.248 289.492 982.984C290.116 982.72 290.668 982.324 291.148 981.796C291.628 981.244 292.012 980.56 292.3 979.744C292.588 978.904 292.732 977.92 292.732 976.792V968.152H295.18V981.292C295.18 981.748 295.192 982.336 295.216 983.056C295.24 983.776 295.276 984.424 295.324 985H292.984ZM304.146 985H301.698V968.152H304.146V985ZM304.65 961.672C304.65 962.176 304.47 962.596 304.11 962.932C303.75 963.244 303.354 963.4 302.922 963.4C302.49 963.4 302.094 963.244 301.734 962.932C301.374 962.596 301.194 962.176 301.194 961.672C301.194 961.168 301.374 960.76 301.734 960.448C302.094 960.112 302.49 959.944 302.922 959.944C303.354 959.944 303.75 960.112 304.11 960.448C304.47 960.76 304.65 961.168 304.65 961.672ZM318.258 970.204H313.506V980.032C313.506 980.656 313.566 981.172 313.686 981.58C313.806 981.988 313.974 982.312 314.19 982.552C314.43 982.768 314.706 982.924 315.018 983.02C315.33 983.092 315.666 983.128 316.026 983.128C316.362 983.128 316.71 983.08 317.07 982.984C317.454 982.888 317.814 982.756 318.15 982.588L318.258 984.712C317.826 984.88 317.37 985 316.89 985.072C316.434 985.168 315.93 985.216 315.378 985.216C314.922 985.216 314.442 985.156 313.938 985.036C313.434 984.916 312.966 984.688 312.534 984.352C312.102 984.016 311.742 983.56 311.454 982.984C311.19 982.408 311.058 981.652 311.058 980.716V970.204H307.566V968.152H311.058V963.4H313.506V968.152H318.258V970.204ZM327.884 982.372H327.956L333.176 968.152H335.84L327.452 989.356C326.948 990.652 326.3 991.684 325.508 992.452C324.74 993.244 323.624 993.64 322.16 993.64C321.416 993.64 320.684 993.568 319.964 993.424L320.216 991.192C320.792 991.384 321.392 991.48 322.016 991.48C322.856 991.48 323.516 991.216 323.996 990.688C324.476 990.184 324.896 989.452 325.256 988.492L326.624 984.964L319.424 968.152H322.16L327.884 982.372Z" fill="black"/>
<path d="M165.952 1200.58C165.952 1202.14 165.676 1203.49 165.124 1204.64C164.572 1205.77 163.828 1206.71 162.892 1207.45C161.98 1208.2 160.936 1208.75 159.76 1209.11C158.584 1209.49 157.372 1209.68 156.124 1209.68C154.972 1209.68 153.868 1209.53 152.812 1209.22C151.78 1208.93 150.832 1208.51 149.968 1207.96C149.128 1207.4 148.396 1206.73 147.772 1205.94C147.172 1205.12 146.728 1204.21 146.44 1203.2L151.948 1201.51C152.212 1202.4 152.704 1203.13 153.424 1203.71C154.168 1204.28 155.044 1204.57 156.052 1204.57C157.084 1204.57 157.972 1204.26 158.716 1203.64C159.484 1203.01 159.868 1202.09 159.868 1200.86C159.868 1200.12 159.712 1199.5 159.4 1198.99C159.088 1198.49 158.68 1198.09 158.176 1197.8C157.696 1197.49 157.144 1197.28 156.52 1197.16C155.896 1197.04 155.272 1196.98 154.648 1196.98C153.736 1196.98 152.692 1197.08 151.516 1197.3C150.364 1197.49 149.332 1197.76 148.42 1198.09L149.032 1183.51H164.656V1188.7H154.396L154.18 1192.73C154.564 1192.63 154.984 1192.57 155.44 1192.55C155.92 1192.5 156.352 1192.48 156.736 1192.48C158.008 1192.48 159.208 1192.64 160.336 1192.98C161.464 1193.32 162.436 1193.83 163.252 1194.53C164.092 1195.2 164.752 1196.04 165.232 1197.05C165.712 1198.06 165.952 1199.23 165.952 1200.58ZM189.873 1196.18C189.873 1197.98 189.693 1199.7 189.333 1201.33C188.973 1202.96 188.397 1204.4 187.605 1205.65C186.813 1206.88 185.781 1207.86 184.509 1208.6C183.261 1209.32 181.737 1209.68 179.937 1209.68C178.137 1209.68 176.601 1209.32 175.329 1208.6C174.057 1207.86 173.013 1206.88 172.197 1205.65C171.405 1204.4 170.829 1202.96 170.469 1201.33C170.109 1199.7 169.929 1197.98 169.929 1196.18C169.929 1194.38 170.109 1192.68 170.469 1191.07C170.829 1189.44 171.405 1188.02 172.197 1186.82C173.013 1185.6 174.057 1184.63 175.329 1183.91C176.601 1183.19 178.137 1182.83 179.937 1182.83C181.737 1182.83 183.261 1183.19 184.509 1183.91C185.781 1184.63 186.813 1185.6 187.605 1186.82C188.397 1188.02 188.973 1189.44 189.333 1191.07C189.693 1192.68 189.873 1194.38 189.873 1196.18ZM183.681 1196.18C183.681 1195.39 183.633 1194.52 183.537 1193.56C183.441 1192.6 183.261 1191.71 182.997 1190.89C182.733 1190.05 182.349 1189.36 181.845 1188.8C181.365 1188.23 180.729 1187.94 179.937 1187.94C179.145 1187.94 178.497 1188.23 177.993 1188.8C177.489 1189.36 177.093 1190.05 176.805 1190.89C176.541 1191.71 176.361 1192.6 176.265 1193.56C176.169 1194.52 176.121 1195.39 176.121 1196.18C176.121 1197 176.169 1197.9 176.265 1198.88C176.361 1199.84 176.541 1200.74 176.805 1201.58C177.093 1202.4 177.489 1203.1 177.993 1203.67C178.497 1204.22 179.145 1204.5 179.937 1204.5C180.729 1204.5 181.365 1204.22 181.845 1203.67C182.349 1203.1 182.733 1202.4 182.997 1201.58C183.261 1200.74 183.441 1199.84 183.537 1198.88C183.633 1197.9 183.681 1197 183.681 1196.18ZM223.551 1202.63C223.551 1203.56 223.371 1204.45 223.011 1205.29C222.651 1206.11 222.159 1206.83 221.535 1207.45C220.935 1208.05 220.215 1208.53 219.375 1208.89C218.535 1209.25 217.647 1209.43 216.711 1209.43C215.775 1209.43 214.887 1209.25 214.047 1208.89C213.207 1208.53 212.475 1208.05 211.851 1207.45C211.251 1206.83 210.771 1206.11 210.411 1205.29C210.051 1204.45 209.871 1203.56 209.871 1202.63C209.871 1201.69 210.051 1200.82 210.411 1200C210.771 1199.16 211.251 1198.44 211.851 1197.84C212.475 1197.22 213.207 1196.72 214.047 1196.36C214.887 1196 215.775 1195.82 216.711 1195.82C217.647 1195.82 218.535 1196 219.375 1196.36C220.215 1196.72 220.935 1197.22 221.535 1197.84C222.159 1198.44 222.651 1199.16 223.011 1200C223.371 1200.82 223.551 1201.69 223.551 1202.63ZM219.519 1202.63C219.519 1202.24 219.435 1201.88 219.267 1201.55C219.123 1201.19 218.919 1200.89 218.655 1200.65C218.415 1200.38 218.127 1200.18 217.791 1200.04C217.455 1199.89 217.095 1199.82 216.711 1199.82C215.943 1199.82 215.283 1200.1 214.731 1200.65C214.179 1201.2 213.903 1201.86 213.903 1202.63C213.903 1203.4 214.179 1204.06 214.731 1204.61C215.283 1205.14 215.943 1205.4 216.711 1205.4C217.095 1205.4 217.455 1205.33 217.791 1205.18C218.127 1205.04 218.415 1204.85 218.655 1204.61C218.919 1204.34 219.123 1204.04 219.267 1203.71C219.435 1203.37 219.519 1203.01 219.519 1202.63ZM206.271 1189.88C206.271 1190.82 206.091 1191.71 205.731 1192.55C205.371 1193.36 204.879 1194.08 204.255 1194.71C203.655 1195.31 202.935 1195.79 202.095 1196.15C201.255 1196.51 200.367 1196.69 199.431 1196.69C198.495 1196.69 197.607 1196.51 196.767 1196.15C195.927 1195.79 195.195 1195.31 194.571 1194.71C193.971 1194.08 193.491 1193.36 193.131 1192.55C192.771 1191.71 192.591 1190.82 192.591 1189.88C192.591 1188.92 192.771 1188.04 193.131 1187.22C193.491 1186.38 193.971 1185.66 194.571 1185.06C195.195 1184.44 195.927 1183.96 196.767 1183.62C197.607 1183.26 198.495 1183.08 199.431 1183.08C200.367 1183.08 201.255 1183.26 202.095 1183.62C202.935 1183.96 203.655 1184.44 204.255 1185.06C204.879 1185.66 205.371 1186.38 205.731 1187.22C206.091 1188.04 206.271 1188.92 206.271 1189.88ZM202.239 1189.88C202.239 1189.12 201.963 1188.46 201.411 1187.9C200.859 1187.35 200.199 1187.08 199.431 1187.08C198.663 1187.08 198.003 1187.35 197.451 1187.9C196.899 1188.46 196.623 1189.12 196.623 1189.88C196.623 1190.65 196.899 1191.31 197.451 1191.86C198.003 1192.39 198.663 1192.66 199.431 1192.66C200.199 1192.66 200.859 1192.39 201.411 1191.86C201.963 1191.31 202.239 1190.65 202.239 1189.88ZM202.203 1210.22L198.999 1208.64L213.867 1182.36L217.215 1183.98L202.203 1210.22ZM239.324 1206.7H251.204V1209H236.732V1183.51H239.324V1206.7ZM271.046 1200.58C271.046 1201.85 270.818 1203.02 270.362 1204.1C269.93 1205.18 269.318 1206.12 268.526 1206.91C267.734 1207.7 266.786 1208.33 265.682 1208.78C264.578 1209.22 263.366 1209.43 262.046 1209.43C260.75 1209.43 259.55 1209.22 258.446 1208.78C257.342 1208.33 256.394 1207.7 255.602 1206.91C254.81 1206.12 254.186 1205.18 253.73 1204.1C253.298 1203.02 253.082 1201.85 253.082 1200.58C253.082 1199.3 253.298 1198.13 253.73 1197.05C254.186 1195.97 254.81 1195.03 255.602 1194.24C256.394 1193.45 257.342 1192.84 258.446 1192.4C259.55 1191.95 260.75 1191.72 262.046 1191.72C263.366 1191.72 264.578 1191.95 265.682 1192.4C266.786 1192.84 267.734 1193.45 268.526 1194.24C269.318 1195.03 269.93 1195.97 270.362 1197.05C270.818 1198.13 271.046 1199.3 271.046 1200.58ZM268.454 1200.58C268.454 1199.64 268.298 1198.76 267.986 1197.95C267.698 1197.11 267.278 1196.39 266.726 1195.79C266.174 1195.16 265.502 1194.67 264.71 1194.31C263.918 1193.95 263.03 1193.77 262.046 1193.77C261.062 1193.77 260.174 1193.95 259.382 1194.31C258.614 1194.67 257.954 1195.16 257.402 1195.79C256.85 1196.39 256.418 1197.11 256.106 1197.95C255.818 1198.76 255.674 1199.64 255.674 1200.58C255.674 1201.51 255.818 1202.4 256.106 1203.24C256.418 1204.06 256.85 1204.78 257.402 1205.4C257.954 1206 258.614 1206.48 259.382 1206.84C260.174 1207.18 261.062 1207.34 262.046 1207.34C263.03 1207.34 263.918 1207.18 264.71 1206.84C265.502 1206.48 266.174 1206 266.726 1205.4C267.278 1204.78 267.698 1204.06 267.986 1203.24C268.298 1202.4 268.454 1201.51 268.454 1200.58ZM286.934 1198.13C286.934 1196.66 286.55 1195.57 285.782 1194.85C285.014 1194.13 283.898 1193.77 282.434 1193.77C281.426 1193.77 280.49 1193.95 279.626 1194.31C278.762 1194.67 278.03 1195.15 277.43 1195.75L276.062 1194.13C276.758 1193.44 277.67 1192.86 278.798 1192.4C279.95 1191.95 281.246 1191.72 282.686 1191.72C283.598 1191.72 284.45 1191.85 285.242 1192.12C286.034 1192.36 286.73 1192.73 287.33 1193.23C287.93 1193.74 288.398 1194.37 288.734 1195.14C289.07 1195.91 289.238 1196.81 289.238 1197.84V1205.22C289.238 1205.87 289.262 1206.54 289.31 1207.24C289.358 1207.93 289.43 1208.52 289.526 1209H287.33C287.258 1208.59 287.198 1208.15 287.15 1207.67C287.102 1207.19 287.078 1206.72 287.078 1206.26H287.006C286.238 1207.39 285.362 1208.21 284.378 1208.71C283.418 1209.19 282.254 1209.43 280.886 1209.43C280.238 1209.43 279.566 1209.34 278.87 1209.14C278.198 1208.98 277.574 1208.69 276.998 1208.28C276.446 1207.87 275.978 1207.34 275.594 1206.7C275.234 1206.05 275.054 1205.26 275.054 1204.32C275.054 1203.02 275.378 1202 276.026 1201.26C276.698 1200.49 277.586 1199.93 278.69 1199.57C279.794 1199.18 281.054 1198.94 282.47 1198.85C283.91 1198.73 285.398 1198.67 286.934 1198.67V1198.13ZM286.214 1200.58C285.206 1200.58 284.186 1200.62 283.154 1200.72C282.146 1200.79 281.222 1200.96 280.382 1201.22C279.566 1201.46 278.894 1201.82 278.366 1202.3C277.838 1202.78 277.574 1203.42 277.574 1204.21C277.574 1204.81 277.682 1205.32 277.898 1205.72C278.138 1206.13 278.45 1206.47 278.834 1206.73C279.218 1206.97 279.638 1207.15 280.094 1207.27C280.574 1207.37 281.054 1207.42 281.534 1207.42C282.398 1207.42 283.166 1207.27 283.838 1206.98C284.51 1206.67 285.074 1206.26 285.53 1205.76C285.986 1205.23 286.334 1204.63 286.574 1203.96C286.814 1203.29 286.934 1202.58 286.934 1201.84V1200.58H286.214ZM297.741 1192.15C297.789 1192.61 297.825 1193.11 297.849 1193.66C297.873 1194.22 297.885 1194.67 297.885 1195.03H297.957C298.437 1194.05 299.217 1193.26 300.297 1192.66C301.377 1192.03 302.517 1191.72 303.717 1191.72C305.853 1191.72 307.449 1192.36 308.505 1193.63C309.585 1194.9 310.125 1196.58 310.125 1198.67V1209H307.677V1199.68C307.677 1198.79 307.605 1197.98 307.461 1197.26C307.317 1196.54 307.065 1195.93 306.705 1195.43C306.369 1194.9 305.901 1194.49 305.301 1194.2C304.725 1193.92 303.993 1193.77 303.105 1193.77C302.457 1193.77 301.821 1193.9 301.197 1194.17C300.597 1194.43 300.057 1194.84 299.577 1195.39C299.097 1195.92 298.713 1196.6 298.425 1197.44C298.137 1198.26 297.993 1199.23 297.993 1200.36V1209H295.545V1195.86C295.545 1195.4 295.533 1194.82 295.509 1194.1C295.485 1193.38 295.449 1192.73 295.401 1192.15H297.741Z" fill="black"/>
<path d="M534.752 79.024H556.712C559.208 79.024 561.68 79.288 564.128 79.816C566.624 80.296 568.832 81.184 570.752 82.48C572.72 83.728 574.304 85.432 575.504 87.592C576.704 89.704 577.304 92.368 577.304 95.584C577.304 98.704 576.536 101.464 575 103.864C573.464 106.216 571.256 108.04 568.376 109.336L581.336 130H561.608L551.816 111.784H551.312V130H534.752V79.024ZM551.168 100.552H554.552C555.128 100.552 555.752 100.504 556.424 100.408C557.144 100.312 557.792 100.12 558.368 99.832C558.992 99.496 559.496 99.064 559.88 98.536C560.312 97.96 560.528 97.216 560.528 96.304C560.528 95.392 560.36 94.672 560.024 94.144C559.688 93.616 559.256 93.232 558.728 92.992C558.2 92.704 557.624 92.536 557 92.488C556.376 92.392 555.8 92.344 555.272 92.344H551.168V100.552ZM586.15 79.024H621.214V93.28H602.278V97.672H620.062V110.992H602.278V115.744H622.438V130H586.15V79.024ZM646.237 131.44C644.173 131.44 642.133 131.248 640.117 130.864C638.149 130.528 636.229 130.024 634.357 129.352C632.533 128.632 630.805 127.816 629.173 126.904C627.541 125.944 626.077 124.888 624.781 123.736L635.221 112.36C636.421 113.656 638.005 114.808 639.973 115.816C641.989 116.824 644.053 117.328 646.165 117.328C647.125 117.328 647.989 117.16 648.757 116.824C649.573 116.488 649.981 115.864 649.981 114.952C649.981 114.472 649.837 114.064 649.549 113.728C649.309 113.392 648.853 113.056 648.181 112.72C647.509 112.336 646.573 111.928 645.373 111.496C644.221 111.064 642.757 110.56 640.981 109.984C639.253 109.408 637.597 108.736 636.013 107.968C634.429 107.152 633.013 106.168 631.765 105.016C630.565 103.864 629.605 102.496 628.885 100.912C628.165 99.28 627.805 97.336 627.805 95.08C627.805 91.912 628.453 89.224 629.749 87.016C631.045 84.808 632.701 83.008 634.717 81.616C636.781 80.176 639.085 79.144 641.629 78.52C644.173 77.896 646.693 77.584 649.189 77.584C652.549 77.584 655.957 78.232 659.413 79.528C662.917 80.824 665.989 82.696 668.629 85.144L657.973 96.016C656.821 94.576 655.405 93.496 653.725 92.776C652.045 92.008 650.533 91.624 649.189 91.624C647.941 91.624 646.933 91.816 646.165 92.2C645.397 92.536 645.013 93.112 645.013 93.928C645.013 94.696 645.397 95.272 646.165 95.656C646.981 96.04 648.277 96.52 650.053 97.096C651.877 97.672 653.797 98.344 655.813 99.112C657.829 99.88 659.677 100.888 661.357 102.136C663.085 103.336 664.501 104.824 665.605 106.6C666.709 108.376 667.261 110.584 667.261 113.224C667.261 116.296 666.637 118.984 665.389 121.288C664.189 123.544 662.581 125.44 660.565 126.976C658.597 128.464 656.365 129.568 653.869 130.288C651.373 131.056 648.829 131.44 646.237 131.44ZM673.971 79.024H691.251V130H673.971V79.024ZM700.76 130V79.024H719.768C723.8 79.024 727.64 79.432 731.288 80.248C734.984 81.016 738.224 82.384 741.008 84.352C743.84 86.272 746.096 88.84 747.776 92.056C749.456 95.272 750.296 99.328 750.296 104.224C750.296 108.688 749.48 112.552 747.848 115.816C746.264 119.08 744.128 121.768 741.44 123.88C738.752 125.944 735.656 127.48 732.152 128.488C728.648 129.496 725 130 721.208 130H700.76ZM717.248 93.568V115.312H720.416C724.448 115.312 727.544 114.448 729.704 112.72C731.864 110.944 732.944 108.064 732.944 104.08C732.944 100.768 731.864 98.2 729.704 96.376C727.544 94.504 724.664 93.568 721.064 93.568H717.248ZM757.502 79.024H792.566V93.28H773.63V97.672H791.414V110.992H773.63V115.744H793.79V130H757.502V79.024ZM800.885 79.024H817.949L832.493 104.872H832.781L832.061 79.024H848.333V130H830.837L816.725 105.664H816.437L817.157 130H800.885V79.024ZM883.254 130H866.118V93.496H853.59V79.024H895.782V93.496H883.254V130ZM901.01 79.024H918.29V130H901.01V79.024ZM941.983 79.024H960.199L980.071 130H961.423L958.759 122.512H942.559L940.039 130H921.895L941.983 79.024ZM950.839 96.808L946.663 109.408H954.943L950.839 96.808ZM983.697 79.024H1000.98V115.312H1017.9V130H983.697V79.024Z" fill="#333942"/>
<path d="M664.264 209.72C662.92 211.544 661.176 213.032 659.032 214.184C656.888 215.304 654.312 215.864 651.304 215.864C648.712 215.864 646.312 215.432 644.104 214.568C641.928 213.672 640.04 212.44 638.44 210.872C636.872 209.272 635.64 207.384 634.744 205.208C633.848 203 633.4 200.584 633.4 197.96C633.4 195.304 633.848 192.888 634.744 190.712C635.672 188.504 636.936 186.632 638.536 185.096C640.168 183.528 642.088 182.312 644.296 181.448C646.504 180.584 648.904 180.152 651.496 180.152C652.648 180.152 653.816 180.264 655 180.488C656.184 180.712 657.32 181.048 658.408 181.496C659.496 181.944 660.488 182.504 661.384 183.176C662.28 183.816 663.048 184.568 663.688 185.432L659.944 188.312C659.112 187.16 657.928 186.216 656.392 185.48C654.888 184.712 653.256 184.328 651.496 184.328C649.512 184.328 647.72 184.696 646.12 185.432C644.552 186.136 643.208 187.112 642.088 188.36C640.968 189.608 640.104 191.064 639.496 192.728C638.888 194.36 638.584 196.104 638.584 197.96C638.584 199.88 638.872 201.672 639.448 203.336C640.056 205 640.904 206.456 641.992 207.704C643.112 208.92 644.456 209.88 646.024 210.584C647.624 211.288 649.4 211.64 651.352 211.64C653.272 211.64 655.016 211.256 656.584 210.488C658.152 209.72 659.448 208.6 660.472 207.128L664.264 209.72ZM682.189 200.264C682.189 198.568 681.677 197.32 680.653 196.52C679.629 195.688 678.269 195.272 676.573 195.272C675.293 195.272 674.077 195.528 672.925 196.04C671.805 196.52 670.861 197.144 670.093 197.912L667.693 195.032C668.813 193.976 670.173 193.144 671.773 192.536C673.405 191.928 675.149 191.624 677.005 191.624C678.637 191.624 680.045 191.864 681.229 192.344C682.445 192.792 683.437 193.416 684.205 194.216C684.973 195.016 685.549 195.96 685.933 197.048C686.317 198.136 686.509 199.304 686.509 200.552V210.488C686.509 211.256 686.525 212.072 686.557 212.936C686.621 213.768 686.717 214.456 686.845 215H682.765C682.509 213.912 682.381 212.824 682.381 211.736H682.237C681.405 212.952 680.349 213.896 679.069 214.568C677.821 215.24 676.333 215.576 674.605 215.576C673.709 215.576 672.765 215.448 671.773 215.192C670.813 214.968 669.933 214.584 669.133 214.04C668.333 213.496 667.661 212.776 667.117 211.88C666.605 210.984 666.349 209.88 666.349 208.568C666.349 206.84 666.813 205.48 667.741 204.488C668.669 203.464 669.885 202.696 671.389 202.184C672.893 201.64 674.589 201.288 676.477 201.128C678.365 200.968 680.269 200.888 682.189 200.888V200.264ZM681.085 204.152C679.965 204.152 678.797 204.2 677.581 204.296C676.397 204.392 675.309 204.584 674.317 204.872C673.357 205.16 672.557 205.592 671.917 206.168C671.277 206.744 670.957 207.512 670.957 208.472C670.957 209.144 671.085 209.704 671.341 210.152C671.629 210.6 671.997 210.968 672.445 211.256C672.893 211.544 673.389 211.752 673.933 211.88C674.477 211.976 675.037 212.024 675.613 212.024C677.725 212.024 679.341 211.4 680.461 210.152C681.613 208.872 682.189 207.272 682.189 205.352V204.152H681.085ZM698.556 226.52H694.044V192.248H698.46V195.8H698.604C699.34 194.584 700.412 193.592 701.82 192.824C703.26 192.024 704.924 191.624 706.812 191.624C708.508 191.624 710.044 191.928 711.42 192.536C712.828 193.144 714.028 193.992 715.02 195.08C716.044 196.168 716.828 197.448 717.372 198.92C717.916 200.36 718.188 201.912 718.188 203.576C718.188 205.24 717.916 206.808 717.372 208.28C716.828 209.752 716.06 211.032 715.068 212.12C714.076 213.208 712.876 214.072 711.468 214.712C710.06 215.32 708.476 215.624 706.716 215.624C705.084 215.624 703.548 215.272 702.108 214.568C700.668 213.864 699.532 212.872 698.7 211.592H698.556V226.52ZM713.532 203.576C713.532 202.52 713.372 201.496 713.052 200.504C712.732 199.512 712.252 198.632 711.612 197.864C710.972 197.096 710.172 196.488 709.212 196.04C708.284 195.592 707.196 195.368 705.948 195.368C704.796 195.368 703.74 195.592 702.78 196.04C701.852 196.488 701.052 197.096 700.38 197.864C699.708 198.632 699.18 199.512 698.796 200.504C698.444 201.496 698.268 202.536 698.268 203.624C698.268 204.712 698.444 205.752 698.796 206.744C699.18 207.736 699.708 208.616 700.38 209.384C701.052 210.12 701.852 210.712 702.78 211.16C703.74 211.608 704.796 211.832 705.948 211.832C707.196 211.832 708.284 211.608 709.212 211.16C710.172 210.68 710.972 210.056 711.612 209.288C712.252 208.52 712.732 207.64 713.052 206.648C713.372 205.656 713.532 204.632 713.532 203.576ZM729.026 215H724.514V192.248H729.026V215ZM729.794 184.04C729.794 184.872 729.49 185.56 728.882 186.104C728.306 186.648 727.602 186.92 726.77 186.92C725.938 186.92 725.234 186.648 724.658 186.104C724.082 185.528 723.794 184.84 723.794 184.04C723.794 183.208 724.082 182.52 724.658 181.976C725.234 181.4 725.938 181.112 726.77 181.112C727.602 181.112 728.306 181.4 728.882 181.976C729.49 182.52 729.794 183.208 729.794 184.04ZM748.024 195.944H741.976V207.8C741.976 209.176 742.232 210.168 742.744 210.776C743.256 211.352 744.072 211.64 745.192 211.64C745.608 211.64 746.056 211.592 746.536 211.496C747.016 211.4 747.448 211.256 747.832 211.064L747.976 214.76C747.432 214.952 746.824 215.096 746.152 215.192C745.512 215.32 744.84 215.384 744.136 215.384C741.992 215.384 740.344 214.792 739.192 213.608C738.072 212.424 737.512 210.648 737.512 208.28V195.944H733.144V192.248H737.512V185.72H741.976V192.248H748.024V195.944ZM766.845 200.264C766.845 198.568 766.333 197.32 765.309 196.52C764.285 195.688 762.925 195.272 761.229 195.272C759.949 195.272 758.733 195.528 757.581 196.04C756.461 196.52 755.517 197.144 754.749 197.912L752.349 195.032C753.469 193.976 754.829 193.144 756.429 192.536C758.061 191.928 759.805 191.624 761.661 191.624C763.293 191.624 764.701 191.864 765.885 192.344C767.101 192.792 768.093 193.416 768.861 194.216C769.629 195.016 770.205 195.96 770.589 197.048C770.973 198.136 771.165 199.304 771.165 200.552V210.488C771.165 211.256 771.181 212.072 771.213 212.936C771.277 213.768 771.373 214.456 771.501 215H767.421C767.165 213.912 767.037 212.824 767.037 211.736H766.893C766.061 212.952 765.005 213.896 763.725 214.568C762.477 215.24 760.989 215.576 759.261 215.576C758.365 215.576 757.421 215.448 756.429 215.192C755.469 214.968 754.589 214.584 753.789 214.04C752.989 213.496 752.317 212.776 751.773 211.88C751.261 210.984 751.005 209.88 751.005 208.568C751.005 206.84 751.469 205.48 752.397 204.488C753.325 203.464 754.541 202.696 756.045 202.184C757.549 201.64 759.245 201.288 761.133 201.128C763.021 200.968 764.925 200.888 766.845 200.888V200.264ZM765.741 204.152C764.621 204.152 763.453 204.2 762.237 204.296C761.053 204.392 759.965 204.584 758.973 204.872C758.013 205.16 757.213 205.592 756.573 206.168C755.933 206.744 755.613 207.512 755.613 208.472C755.613 209.144 755.741 209.704 755.997 210.152C756.285 210.6 756.653 210.968 757.101 211.256C757.549 211.544 758.045 211.752 758.589 211.88C759.133 211.976 759.693 212.024 760.269 212.024C762.381 212.024 763.997 211.4 765.117 210.152C766.269 208.872 766.845 207.272 766.845 205.352V204.152H765.741ZM783.309 215H778.797V178.712H783.309V215ZM820.305 187.304C819.633 186.376 818.721 185.624 817.569 185.048C816.417 184.44 815.121 184.136 813.681 184.136C812.913 184.136 812.129 184.248 811.329 184.472C810.561 184.664 809.857 185 809.217 185.48C808.577 185.928 808.049 186.504 807.633 187.208C807.249 187.88 807.057 188.696 807.057 189.656C807.057 190.584 807.233 191.368 807.585 192.008C807.969 192.616 808.465 193.144 809.073 193.592C809.713 194.008 810.449 194.376 811.281 194.696C812.145 194.984 813.057 195.288 814.017 195.608C815.169 195.96 816.337 196.36 817.521 196.808C818.705 197.256 819.777 197.848 820.737 198.584C821.697 199.32 822.481 200.248 823.089 201.368C823.697 202.456 824.001 203.848 824.001 205.544C824.001 207.304 823.665 208.84 822.993 210.152C822.353 211.432 821.489 212.504 820.401 213.368C819.313 214.2 818.049 214.824 816.609 215.24C815.201 215.656 813.745 215.864 812.241 215.864C810.097 215.864 808.017 215.448 806.001 214.616C804.017 213.784 802.369 212.552 801.057 210.92L804.753 207.8C805.553 208.984 806.625 209.944 807.969 210.68C809.313 211.416 810.769 211.784 812.337 211.784C813.137 211.784 813.937 211.672 814.737 211.448C815.537 211.224 816.257 210.872 816.897 210.392C817.569 209.912 818.113 209.32 818.529 208.616C818.945 207.88 819.153 207 819.153 205.976C819.153 204.952 818.929 204.104 818.481 203.432C818.065 202.728 817.489 202.136 816.753 201.656C816.017 201.176 815.153 200.776 814.161 200.456C813.201 200.104 812.177 199.752 811.089 199.4C810.001 199.08 808.929 198.696 807.873 198.248C806.817 197.768 805.873 197.176 805.041 196.472C804.209 195.736 803.537 194.84 803.025 193.784C802.513 192.728 802.257 191.416 802.257 189.848C802.257 188.152 802.593 186.696 803.265 185.48C803.969 184.264 804.865 183.256 805.953 182.456C807.073 181.656 808.321 181.08 809.697 180.728C811.105 180.344 812.513 180.152 813.921 180.152C815.905 180.152 817.761 180.504 819.489 181.208C821.217 181.912 822.609 182.856 823.665 184.04L820.305 187.304ZM841.352 195.944H835.304V207.8C835.304 209.176 835.56 210.168 836.072 210.776C836.584 211.352 837.4 211.64 838.52 211.64C838.936 211.64 839.384 211.592 839.864 211.496C840.344 211.4 840.776 211.256 841.16 211.064L841.304 214.76C840.76 214.952 840.152 215.096 839.48 215.192C838.84 215.32 838.168 215.384 837.464 215.384C835.32 215.384 833.672 214.792 832.52 213.608C831.4 212.424 830.84 210.648 830.84 208.28V195.944H826.472V192.248H830.84V185.72H835.304V192.248H841.352V195.944ZM860.173 200.264C860.173 198.568 859.661 197.32 858.637 196.52C857.613 195.688 856.253 195.272 854.557 195.272C853.277 195.272 852.061 195.528 850.909 196.04C849.789 196.52 848.845 197.144 848.077 197.912L845.677 195.032C846.797 193.976 848.157 193.144 849.757 192.536C851.389 191.928 853.133 191.624 854.989 191.624C856.621 191.624 858.029 191.864 859.213 192.344C860.429 192.792 861.421 193.416 862.189 194.216C862.957 195.016 863.533 195.96 863.917 197.048C864.301 198.136 864.493 199.304 864.493 200.552V210.488C864.493 211.256 864.509 212.072 864.541 212.936C864.605 213.768 864.701 214.456 864.829 215H860.749C860.493 213.912 860.365 212.824 860.365 211.736H860.221C859.389 212.952 858.333 213.896 857.053 214.568C855.805 215.24 854.317 215.576 852.589 215.576C851.693 215.576 850.749 215.448 849.757 215.192C848.797 214.968 847.917 214.584 847.117 214.04C846.317 213.496 845.645 212.776 845.101 211.88C844.589 210.984 844.333 209.88 844.333 208.568C844.333 206.84 844.797 205.48 845.725 204.488C846.653 203.464 847.869 202.696 849.373 202.184C850.877 201.64 852.573 201.288 854.461 201.128C856.349 200.968 858.253 200.888 860.173 200.888V200.264ZM859.069 204.152C857.949 204.152 856.781 204.2 855.565 204.296C854.381 204.392 853.293 204.584 852.301 204.872C851.341 205.16 850.541 205.592 849.901 206.168C849.261 206.744 848.941 207.512 848.941 208.472C848.941 209.144 849.069 209.704 849.325 210.152C849.613 210.6 849.981 210.968 850.429 211.256C850.877 211.544 851.373 211.752 851.917 211.88C852.461 211.976 853.021 212.024 853.597 212.024C855.709 212.024 857.325 211.4 858.445 210.152C859.597 208.872 860.173 207.272 860.173 205.352V204.152H859.069ZM887.965 198.008C887.485 197.272 886.765 196.664 885.805 196.184C884.845 195.672 883.821 195.416 882.733 195.416C881.549 195.416 880.493 195.64 879.565 196.088C878.669 196.536 877.901 197.144 877.261 197.912C876.621 198.648 876.125 199.512 875.773 200.504C875.453 201.496 875.293 202.536 875.293 203.624C875.293 204.712 875.453 205.752 875.773 206.744C876.125 207.736 876.621 208.616 877.261 209.384C877.901 210.12 878.685 210.712 879.613 211.16C880.541 211.608 881.597 211.832 882.781 211.832C883.933 211.832 884.973 211.608 885.901 211.16C886.861 210.712 887.645 210.104 888.253 209.336L891.277 212.072C890.317 213.192 889.117 214.072 887.677 214.712C886.237 215.32 884.605 215.624 882.781 215.624C881.021 215.624 879.389 215.336 877.885 214.76C876.413 214.184 875.133 213.384 874.045 212.36C872.957 211.304 872.093 210.04 871.453 208.568C870.845 207.096 870.541 205.448 870.541 203.624C870.541 201.832 870.845 200.2 871.453 198.728C872.061 197.256 872.909 195.992 873.997 194.936C875.085 193.88 876.365 193.064 877.837 192.488C879.341 191.912 880.957 191.624 882.685 191.624C884.285 191.624 885.869 191.944 887.437 192.584C889.037 193.224 890.301 194.152 891.229 195.368L887.965 198.008ZM900.355 202.136H900.499L910.051 192.248H916.099L905.443 202.568L917.011 215H910.771L900.499 203.192H900.355V215H895.843V178.712H900.355V202.136Z" fill="#717F93"/>
</svg>
