<svg width="20" height="20" viewBox="0 0 20 20" fill="none" xmlns="http://www.w3.org/2000/svg">
<path d="M8 14.6667V10.6667C8 9.93029 7.40305 9.33333 6.66667 9.33333H5.33333C4.59695 9.33333 4 9.93029 4 10.6667V14.6667C4 15.403 4.59695 16 5.33333 16H6.66667C7.40305 16 8 15.403 8 14.6667ZM8 14.6667V8C8 7.26362 8.59695 6.66667 9.33333 6.66667H10.6667C11.403 6.66667 12 7.26362 12 8V14.6667M8 14.6667C8 15.403 8.59695 16 9.33333 16H10.6667C11.403 16 12 15.403 12 14.6667M12 14.6667V5.33333C12 4.59695 12.597 4 13.3333 4H14.6667C15.403 4 16 4.59695 16 5.33333V14.6667C16 15.403 15.403 16 14.6667 16H13.3333C12.597 16 12 15.403 12 14.6667Z" stroke="#4F46E5" stroke-linecap="round" stroke-linejoin="round"/>
</svg>
