<svg width="20" height="20" viewBox="0 0 20 20" fill="none" xmlns="http://www.w3.org/2000/svg">
<path d="M5.69512 4.88902C5.81801 4.64173 5.71717 4.34164 5.46988 4.21875C5.22259 4.09585 4.92249 4.1967 4.7996 4.44399L5.69512 4.88902ZM4.7996 15.5557C4.92249 15.803 5.22259 15.9038 5.46988 15.7809C5.71717 15.658 5.81801 15.3579 5.69512 15.1107L4.7996 15.5557ZM14.2189 15.1107C14.0961 15.3579 14.1969 15.658 14.4442 15.7809C14.6915 15.9038 14.9916 15.803 15.1145 15.5557L14.2189 15.1107ZM15.1145 4.44399C14.9916 4.1967 14.6915 4.09585 14.4442 4.21875C14.1969 4.34164 14.0961 4.64173 14.2189 4.88902L15.1145 4.44399ZM8 7.49984C7.72386 7.49984 7.5 7.72369 7.5 7.99984C7.5 8.27598 7.72386 8.49984 8 8.49984V7.49984ZM9.47148 8.48336L8.99072 8.62072L9.47148 8.48336ZM10.5285 12.183L10.0478 12.3203L10.5285 12.183ZM12 13.1665C12.2761 13.1665 12.5 12.9426 12.5 12.6665C12.5 12.3904 12.2761 12.1665 12 12.1665V13.1665ZM12.6667 8.49984C12.9428 8.49984 13.1667 8.27598 13.1667 7.99984C13.1667 7.72369 12.9428 7.49984 12.6667 7.49984V8.49984ZM11.6009 8.46545L11.9805 8.79084L11.6009 8.46545ZM8.3991 12.2009L8.77872 12.5263H8.77872L8.3991 12.2009ZM7.33333 12.1665C7.05719 12.1665 6.83333 12.3904 6.83333 12.6665C6.83333 12.9426 7.05719 13.1665 7.33333 13.1665V12.1665ZM4.5 9.99984C4.5 8.16297 4.93029 6.42804 5.69512 4.88902L4.7996 4.44399C3.96759 6.11819 3.5 8.00513 3.5 9.99984H4.5ZM5.69512 15.1107C4.93029 13.5716 4.5 11.8367 4.5 9.99984H3.5C3.5 11.9945 3.96759 13.8815 4.7996 15.5557L5.69512 15.1107ZM15.4141 9.99984C15.4141 11.8367 14.9838 13.5716 14.2189 15.1107L15.1145 15.5557C15.9465 13.8815 16.4141 11.9945 16.4141 9.99984H15.4141ZM14.2189 4.88902C14.9838 6.42804 15.4141 8.16297 15.4141 9.99984H16.4141C16.4141 8.00513 15.9465 6.11819 15.1145 4.44399L14.2189 4.88902ZM8 8.49984H8.83047V7.49984H8V8.49984ZM8.99072 8.62072L10.0478 12.3203L11.0093 12.0456L9.95224 8.346L8.99072 8.62072ZM11.1695 13.1665H12V12.1665H11.1695V13.1665ZM10.0478 12.3203C10.1909 12.8212 10.6486 13.1665 11.1695 13.1665V12.1665C11.0951 12.1665 11.0297 12.1172 11.0093 12.0456L10.0478 12.3203ZM8.83047 8.49984C8.90488 8.49984 8.97028 8.54917 8.99072 8.62072L9.95224 8.346C9.80914 7.84514 9.35136 7.49984 8.83047 7.49984V8.49984ZM12.6667 7.49984H12.6132V8.49984H12.6667V7.49984ZM11.2213 8.14005L8.01947 11.8755L8.77872 12.5263L11.9805 8.79084L11.2213 8.14005ZM7.38675 12.1665H7.33333V13.1665H7.38675V12.1665ZM8.01947 11.8755C7.86115 12.0602 7.63002 12.1665 7.38675 12.1665V13.1665C7.92195 13.1665 8.43042 12.9326 8.77872 12.5263L8.01947 11.8755ZM12.6132 7.49984C12.0781 7.49984 11.5696 7.7337 11.2213 8.14005L11.9805 8.79084C12.1389 8.60614 12.37 8.49984 12.6132 8.49984V7.49984Z" fill="#4F46E5"/>
</svg>
