<svg width="49" height="48" viewBox="0 0 49 48" fill="none" xmlns="http://www.w3.org/2000/svg">
<rect x="0.5" width="48" height="48" rx="6" fill="#6366F1"/>
<path d="M25.7929 15.2929L25.0858 16L25.0858 16L25.7929 15.2929ZM31.2071 20.7071L31.9142 20L31.2071 20.7071ZM22.5 32C21.9477 32 21.5 32.4477 21.5 33C21.5 33.5523 21.9477 34 22.5 34V32ZM16.5 28C16.5 28.5523 16.9477 29 17.5 29C18.0523 29 18.5 28.5523 18.5 28H16.5ZM16.7929 32.2929C16.4024 32.6834 16.4024 33.3166 16.7929 33.7071C17.1834 34.0976 17.8166 34.0976 18.2071 33.7071L16.7929 32.2929ZM19.5 16H25.0858V14H19.5V16ZM30.5 21.4142V31H32.5V21.4142H30.5ZM25.0858 16L30.5 21.4142L31.9142 20L26.5 14.5858L25.0858 16ZM32.5 21.4142C32.5 20.8838 32.2893 20.3751 31.9142 20L30.5 21.4142H30.5H32.5ZM25.0858 16V16L26.5 14.5858C26.1249 14.2107 25.6162 14 25.0858 14V16ZM29.5 34C31.1569 34 32.5 32.6569 32.5 31H30.5C30.5 31.5523 30.0523 32 29.5 32V34ZM18.5 17C18.5 16.4477 18.9477 16 19.5 16V14C17.8431 14 16.5 15.3431 16.5 17H18.5ZM29.5 32H22.5V34H29.5V32ZM18.5 28V17H16.5V28H18.5ZM26.5 26C26.5 27.1046 25.6046 28 24.5 28V30C26.7091 30 28.5 28.2091 28.5 26H26.5ZM22.5 26C22.5 24.8954 23.3954 24 24.5 24V22C22.2909 22 20.5 23.7909 20.5 26H22.5ZM24.5 24C25.6046 24 26.5 24.8954 26.5 26H28.5C28.5 23.7909 26.7091 22 24.5 22V24ZM21.6716 27.4142L16.7929 32.2929L18.2071 33.7071L23.0858 28.8284L21.6716 27.4142ZM24.5 28C23.9474 28 23.4488 27.7772 23.0858 27.4142L21.6716 28.8284C22.3943 29.5512 23.3957 30 24.5 30V28ZM23.0858 27.4142C22.7228 27.0512 22.5 26.5526 22.5 26H20.5C20.5 27.1043 20.9488 28.1057 21.6716 28.8284L23.0858 27.4142Z" fill="white"/>
</svg>
