<svg width="49" height="48" viewBox="0 0 49 48" fill="none" xmlns="http://www.w3.org/2000/svg">
<rect x="0.5" width="48" height="48" rx="6" fill="#6366F1"/>
<path d="M29.5 21V19C29.5 17.8954 28.6046 17 27.5 17H17.5C16.3954 17 15.5 17.8954 15.5 19V25C15.5 26.1046 16.3954 27 17.5 27H19.5M21.5 31H31.5C32.6046 31 33.5 30.1046 33.5 29V23C33.5 21.8954 32.6046 21 31.5 21H21.5C20.3954 21 19.5 21.8954 19.5 23V29C19.5 30.1046 20.3954 31 21.5 31ZM28.5 26C28.5 27.1046 27.6046 28 26.5 28C25.3954 28 24.5 27.1046 24.5 26C24.5 24.8954 25.3954 24 26.5 24C27.6046 24 28.5 24.8954 28.5 26Z" stroke="white" stroke-width="2" stroke-linecap="round" stroke-linejoin="round"/>
</svg>
