<svg width="20" height="20" viewBox="0 0 20 20" fill="none" xmlns="http://www.w3.org/2000/svg">
<path d="M1 4V15.5714H19V4H1ZM2 5H18V14.5H2V5ZM3.57143 6.57143V7.5H10V6.57143H3.57143ZM13.8571 6.57143V7.25479C13.1339 7.375 12.5714 7.98764 12.5714 8.74107C12.5714 9.22579 12.8401 9.67 13.2747 9.886L15.1429 10.8304C15.1445 10.8625 15.1394 10.8945 15.1279 10.9245C15.1164 10.9545 15.0987 10.9818 15.0759 11.0045C15.0532 11.0272 15.026 11.0449 14.996 11.0565C14.966 11.068 14.9339 11.0731 14.9018 11.0714H14.0982C14.0661 11.0731 14.034 11.068 14.004 11.0565C13.974 11.0449 13.9468 11.0272 13.9241 11.0045C13.9013 10.9818 13.8836 10.9545 13.8721 10.9245C13.8606 10.8945 13.8555 10.8625 13.8571 10.8304V10.4286H12.5714V10.8304C12.5714 11.5838 13.1339 12.1964 13.8571 12.3173V13H15.1429V12.3166C15.8661 12.1964 16.4286 11.5838 16.4286 10.8304C16.4286 10.3456 16.1599 9.904 15.7253 9.68543L13.8571 8.74107C13.8571 8.59771 13.9549 8.5 14.0982 8.5H14.9018C15.0451 8.5 15.1429 8.59771 15.1429 8.74107V9.14286H16.4286V8.74107C16.4286 7.98764 15.8661 7.375 15.1429 7.25414V6.57143H13.8571ZM3.57143 8.5V9.5H8.07143V8.5H3.57143ZM5.17857 10.7143C4.78964 10.7143 4.51579 10.9354 4.3345 11.136C4.1545 11.3372 4.02079 11.5603 3.91279 11.7994C3.69679 12.2784 3.57143 12.5101 3.57143 13H4.85714C4.85714 12.7943 4.95743 12.3469 5.09821 12.0357C5.13871 11.9457 5.17857 11.9149 5.21907 11.8551C5.26664 11.92 5.30136 11.9631 5.35921 12.0556C5.45243 12.2067 5.55529 12.3874 5.68064 12.5584C5.80664 12.7287 5.95964 13.0103 6.44436 13.0199C6.82621 13.0276 6.94386 12.8894 7.06729 12.7994C7.18943 12.7088 7.27557 12.6233 7.36814 12.5378C7.43114 12.4799 7.48129 12.4375 7.52886 12.3976C7.54686 12.4227 7.61693 12.4651 7.97114 12.6181C8.40057 12.8065 9.05114 13 10 13V12C9.20929 12 8.79721 11.8714 8.49314 11.739C8.18971 11.6059 7.95829 11.3571 7.42857 11.3571C7.04157 11.3571 6.94386 11.5076 6.82557 11.5982C6.72014 11.6786 6.6475 11.7641 6.56457 11.8393C6.52729 11.7789 6.50929 11.7493 6.46429 11.6786C6.34617 11.4752 6.20463 11.2865 6.04257 11.1161C5.85614 10.9277 5.563 10.7143 5.17857 10.7143Z" fill="#4F46E5"/>
</svg>
