<svg width="90" height="80" viewBox="0 0 90 80" fill="none" xmlns="http://www.w3.org/2000/svg">
<path d="M28.7667 24.8827L6.20562 13.1523C5.48753 12.7789 5.48733 11.7517 6.20528 11.378L27.6398 0.222851C27.9103 0.0820564 28.2303 0.072413 28.5088 0.196661L53.6063 11.3926C54.3818 11.7385 54.4005 12.8325 53.6372 13.2046L29.6663 24.8943C29.3815 25.0331 29.0478 25.0288 28.7667 24.8827Z" fill="#E0E0EB"/>
<path d="M0 51.353V16.2486C0 15.4984 0.795527 15.0153 1.46123 15.3613L28.7568 29.5502C29.0435 29.6992 29.3844 29.7005 29.6722 29.5538L57.5458 15.3432C58.2111 15.004 59 15.4873 59 16.2341V51.3477C59 51.7351 58.7763 52.0876 58.4258 52.2525L29.6436 65.7976C29.3715 65.9257 29.0563 65.9245 28.7852 65.7944L0.56739 52.2546C0.220609 52.0882 0 51.7376 0 51.353Z" fill="#E0E0EB"/>
<g opacity="0.8">
<path d="M58.7748 40.66L35.4018 28.5628C34.6741 28.1861 34.6834 27.1421 35.4178 26.7785L58.7512 15.2269C59.039 15.0844 59.3778 15.0888 59.6618 15.2388L83.5646 27.8613C84.2968 28.2479 84.2688 29.306 83.5171 29.6533L59.6539 40.6796C59.3735 40.8092 59.0491 40.8019 58.7748 40.66Z" fill="#5C6BF6"/>
<path d="M29 64.4235V30.4717C29 29.7168 29.8044 29.2342 30.4705 29.5893L58.7602 44.6719C59.0425 44.8225 59.3798 44.8288 59.6676 44.689L88.5631 30.6537C89.2273 30.3311 90 30.8148 90 31.5532V66.675C90 67.0804 89.7552 67.4458 89.3801 67.5999L59.6279 79.828C59.362 79.9373 59.0618 79.9269 58.8041 79.7993L29.5563 65.3197C29.2156 65.151 29 64.8037 29 64.4235Z" fill="#5C6BF6"/>
</g>
</svg>
