<svg width="80" height="91" viewBox="0 0 80 91" fill="none" xmlns="http://www.w3.org/2000/svg">
<path d="M0 73.8099V64.2872L37.5269 80.3636V91L0 73.8099Z" fill="#717F93"/>
<path d="M37.5269 65.9669V75.5289L0 59.5207V49.8512L37.5269 65.9669Z" fill="#717F93"/>
<path d="M0 35.3471V45.124L37.5269 61.1322V51.2479L0 35.3471Z" fill="#717F93"/>
<path d="M37.5269 36.5289V46.4132L0 30.4453V20.6281L37.5269 36.5289Z" fill="#717F93"/>
<path d="M42.1505 46.4132V36.5289L80 20.6281V30.405L42.1505 46.4132Z" fill="#717F93"/>
<path d="M42.1505 61.1322V51.2479L80 35.2397V45.124L42.1505 61.1322Z" fill="#717F93"/>
<path d="M42.1505 75.5289V65.9669L80 49.8512V59.5207L42.1505 75.5289Z" fill="#717F93"/>
<path d="M80 73.8099V64.2872L67.3118 69.7273L67.4624 79.5041L80 73.8099Z" fill="#717F93"/>
<path d="M42.1505 80.3636V91L54.8065 85.2521V74.9917L42.1505 80.3636Z" fill="#717F93"/>
<path d="M40.2151 30.9421L2.58065 15.1488L40.2151 0L77.7419 15.1488L40.2151 30.9421Z" fill="#717F93"/>
</svg>
