<svg width="81" height="81" viewBox="0 0 81 81" fill="none" xmlns="http://www.w3.org/2000/svg">
<circle cx="24.3128" cy="2.44282" r="1.96724" fill="#F3D557"/>
<circle cx="13.3783" cy="2.44282" r="1.96724" fill="#F3D557"/>
<circle cx="2.44371" cy="2.44282" r="1.96724" fill="#F3D557"/>
<circle cx="35.2474" cy="2.44282" r="1.96724" fill="#F3D557"/>
<circle cx="46.182" cy="2.44282" r="1.96724" fill="#F3D557"/>
<circle cx="57.1166" cy="2.44282" r="1.96724" fill="#F3D557"/>
<circle cx="68.0511" cy="2.44282" r="1.96724" fill="#F3D557"/>
<circle cx="78.9857" cy="2.44282" r="1.96724" fill="#F3D557"/>
<circle cx="24.3128" cy="13.3773" r="1.96724" fill="#F3D557"/>
<circle cx="13.3783" cy="13.3773" r="1.96724" fill="#F3D557"/>
<circle cx="2.44371" cy="13.3773" r="1.96724" fill="#F3D557"/>
<circle cx="35.2474" cy="13.3773" r="1.96724" fill="#F3D557"/>
<circle cx="46.182" cy="13.3773" r="1.96724" fill="#F3D557"/>
<circle cx="57.1166" cy="13.3773" r="1.96724" fill="#F3D557"/>
<circle cx="68.0511" cy="13.3773" r="1.96724" fill="#F3D557"/>
<circle cx="78.9857" cy="13.3773" r="1.96724" fill="#F3D557"/>
<circle cx="24.3128" cy="24.3117" r="1.96724" fill="#F3D557"/>
<circle cx="13.3783" cy="24.3117" r="1.96724" fill="#F3D557"/>
<circle cx="2.44371" cy="24.3117" r="1.96724" fill="#F3D557"/>
<circle cx="35.2474" cy="24.3117" r="1.96724" fill="#F3D557"/>
<circle cx="46.182" cy="24.3117" r="1.96724" fill="#F3D557"/>
<circle cx="57.1166" cy="24.3117" r="1.96724" fill="#F3D557"/>
<circle cx="68.0511" cy="24.3117" r="1.96724" fill="#F3D557"/>
<circle cx="78.9857" cy="24.3117" r="1.96724" fill="#F3D557"/>
<circle cx="24.3128" cy="35.2462" r="1.96724" fill="#F3D557"/>
<circle cx="13.3783" cy="35.2462" r="1.96724" fill="#F3D557"/>
<circle cx="2.44371" cy="35.2462" r="1.96724" fill="#F3D557"/>
<circle cx="35.2474" cy="35.2462" r="1.96724" fill="#F3D557"/>
<circle cx="46.182" cy="35.2462" r="1.96724" fill="#F3D557"/>
<circle cx="57.1166" cy="35.2462" r="1.96724" fill="#F3D557"/>
<circle cx="68.0511" cy="35.2462" r="1.96724" fill="#F3D557"/>
<circle cx="78.9857" cy="35.2462" r="1.96724" fill="#F3D557"/>
<circle cx="24.3128" cy="46.1806" r="1.96724" fill="#F3D557"/>
<circle cx="13.3783" cy="46.1806" r="1.96724" fill="#F3D557"/>
<circle cx="2.44371" cy="46.1806" r="1.96724" fill="#F3D557"/>
<circle cx="35.2474" cy="46.1806" r="1.96724" fill="#F3D557"/>
<circle cx="46.182" cy="46.1806" r="1.96724" fill="#F3D557"/>
<circle cx="57.1166" cy="46.1806" r="1.96724" fill="#F3D557"/>
<circle cx="68.0511" cy="46.1806" r="1.96724" fill="#F3D557"/>
<circle cx="78.9857" cy="46.1806" r="1.96724" fill="#F3D557"/>
<circle cx="24.3128" cy="57.1151" r="1.96724" fill="#F3D557"/>
<circle cx="13.3783" cy="57.1151" r="1.96724" fill="#F3D557"/>
<circle cx="2.44371" cy="57.1151" r="1.96724" fill="#F3D557"/>
<circle cx="35.2474" cy="57.1151" r="1.96724" fill="#F3D557"/>
<circle cx="46.182" cy="57.1151" r="1.96724" fill="#F3D557"/>
<circle cx="57.1166" cy="57.1151" r="1.96724" fill="#F3D557"/>
<circle cx="68.0511" cy="57.1151" r="1.96724" fill="#F3D557"/>
<circle cx="78.9857" cy="57.1151" r="1.96724" fill="#F3D557"/>
<circle cx="24.3128" cy="68.0495" r="1.96724" fill="#F3D557"/>
<circle cx="13.3783" cy="68.0495" r="1.96724" fill="#F3D557"/>
<circle cx="2.44371" cy="68.0495" r="1.96724" fill="#F3D557"/>
<circle cx="35.2474" cy="68.0495" r="1.96724" fill="#F3D557"/>
<circle cx="46.182" cy="68.0495" r="1.96724" fill="#F3D557"/>
<circle cx="57.1166" cy="68.0495" r="1.96724" fill="#F3D557"/>
<circle cx="68.0511" cy="68.0495" r="1.96724" fill="#F3D557"/>
<circle cx="78.9857" cy="68.0495" r="1.96724" fill="#F3D557"/>
<circle cx="24.3128" cy="78.984" r="1.96724" fill="#F3D557"/>
<circle cx="13.3783" cy="78.984" r="1.96724" fill="#F3D557"/>
<circle cx="2.44371" cy="78.984" r="1.96724" fill="#F3D557"/>
<circle cx="35.2474" cy="78.984" r="1.96724" fill="#F3D557"/>
<circle cx="46.182" cy="78.984" r="1.96724" fill="#F3D557"/>
<circle cx="57.1166" cy="78.984" r="1.96724" fill="#F3D557"/>
<circle cx="68.0511" cy="78.984" r="1.96724" fill="#F3D557"/>
<circle cx="78.9857" cy="78.984" r="1.96724" fill="#F3D557"/>
</svg>
