<svg xmlns="http://www.w3.org/2000/svg" width="350" height="145" viewBox="0 0 350 145" fill="none"><path d="M17.6768 104.658V93.436L61.9004 112.381V124.916L17.6768 104.658Z" fill="#717F93"></path><path d="M61.9004 95.4156V106.684L17.6768 87.819V76.424L61.9004 95.4156Z" fill="#717F93"></path><path d="M17.6768 59.3316V70.8531L61.9004 89.7181V78.0699L17.6768 59.3316Z" fill="#717F93"></path><path d="M61.9004 60.7243V72.3725L17.6768 53.555V41.986L61.9004 60.7243Z" fill="#717F93"></path><path d="M67.3491 72.3725V60.7243L111.953 41.986V53.5075L67.3491 72.3725Z" fill="#717F93"></path><path d="M67.3491 89.7181V78.0699L111.953 59.205V70.8531L67.3491 89.7181Z" fill="#717F93"></path><path d="M67.3491 106.684V95.4156L111.953 76.424V87.819L67.3491 106.684Z" fill="#717F93"></path><path d="M111.953 104.658V93.436L97.0005 99.8469L97.1779 111.368L111.953 104.658Z" fill="#717F93"></path><path d="M67.3491 112.381V124.916L82.2635 118.142V106.051L67.3491 112.381Z" fill="#717F93"></path><path d="M65.0682 54.1406L20.7179 35.5288L65.0682 17.6768L109.292 35.5288L65.0682 54.1406Z" fill="#717F93"></path><path d="M127.273 51.4591H142.355C144.069 51.4591 145.767 51.6391 147.449 51.9992C149.163 52.3265 150.679 52.9321 151.998 53.816C153.35 54.6671 154.438 55.8291 155.262 57.3022C156.086 58.7425 156.498 60.5593 156.498 62.7525C156.498 64.8803 155.971 66.7626 154.916 68.3993C153.861 70.0033 152.344 71.2472 150.366 72.1311L159.267 86.2234H145.718L138.992 73.8005H138.646V86.2234H127.273V51.4591ZM138.547 66.1406H140.872C141.267 66.1406 141.696 66.1079 142.157 66.0424C142.652 65.9769 143.097 65.846 143.492 65.6496C143.921 65.4204 144.267 65.1258 144.531 64.7657C144.828 64.3729 144.976 63.8655 144.976 63.2436C144.976 62.6216 144.861 62.1306 144.63 61.7705C144.399 61.4104 144.102 61.1485 143.74 60.9849C143.377 60.7885 142.982 60.6739 142.553 60.6412C142.124 60.5757 141.729 60.5429 141.366 60.5429H138.547V66.1406Z" fill="#333942"></path><path d="M178.659 69.8724C178.659 68.9558 178.313 68.2029 177.621 67.6137C176.961 67.0244 176.055 66.7298 174.901 66.7298C173.648 66.7298 172.676 67.0735 171.983 67.761C171.291 68.4484 170.895 69.1522 170.797 69.8724H178.659ZM188.5 73.555C188.5 73.9806 188.483 74.4225 188.45 74.8808C188.45 75.3063 188.434 75.6664 188.401 75.961H170.895C170.928 76.4193 171.077 76.8285 171.341 77.1886C171.637 77.5487 171.983 77.8596 172.379 78.1215C172.808 78.3834 173.269 78.5798 173.764 78.7107C174.291 78.8417 174.819 78.9071 175.346 78.9071C176.401 78.9071 177.275 78.7271 177.967 78.367C178.692 77.9742 179.236 77.5487 179.599 77.0904L187.709 81.1658C186.555 83.0317 184.874 84.5048 182.665 85.585C180.489 86.6653 177.95 87.2054 175.049 87.2054C173.17 87.2054 171.341 86.9108 169.56 86.3216C167.78 85.7323 166.198 84.8649 164.813 83.7192C163.461 82.5407 162.373 81.084 161.549 79.3491C160.725 77.6141 160.313 75.6009 160.313 73.3095C160.313 71.1817 160.692 69.2668 161.45 67.5646C162.209 65.8296 163.231 64.3729 164.516 63.1945C165.835 61.9833 167.368 61.0503 169.115 60.3956C170.895 59.7409 172.791 59.4136 174.802 59.4136C176.846 59.4136 178.709 59.7737 180.39 60.4938C182.071 61.1813 183.505 62.1633 184.692 63.44C185.912 64.6839 186.852 66.1733 187.511 67.9083C188.17 69.6432 188.5 71.5255 188.5 73.555Z" fill="#333942"></path><path d="M206.105 75.5191C204.424 75.5191 203.072 75.6991 202.05 76.0592C201.029 76.4193 200.518 77.0904 200.518 78.0724C200.518 78.4325 200.6 78.7435 200.765 79.0054C200.93 79.2345 201.144 79.4309 201.408 79.5946C201.671 79.7583 201.952 79.8892 202.248 79.9874C202.578 80.0529 202.875 80.0856 203.138 80.0856C204.226 80.0856 205.1 79.7419 205.759 79.0545C206.419 78.367 206.748 77.4832 206.748 76.4029V75.5191H206.105ZM206.007 69.8233C206.007 69.0376 205.726 68.4648 205.166 68.1047C204.638 67.7119 203.93 67.5154 203.04 67.5154C201.985 67.5154 200.979 67.7446 200.023 68.2029C199.1 68.6284 198.276 69.1358 197.55 69.725L191.864 64.1274C193.446 62.6216 195.325 61.4595 197.501 60.6412C199.677 59.8228 201.919 59.4136 204.226 59.4136C206.699 59.4136 208.743 59.7573 210.358 60.4447C211.974 61.1322 213.243 62.0815 214.166 63.2927C215.122 64.5039 215.781 65.9114 216.144 67.5154C216.54 69.1195 216.737 70.8217 216.737 72.6221V86.2234H206.402V84.1611H206.303C205.644 85.1431 204.704 85.8469 203.485 86.2725C202.265 86.698 201.078 86.9108 199.924 86.9108C198.902 86.9108 197.847 86.7635 196.759 86.4689C195.704 86.1743 194.732 85.6996 193.842 85.0449C192.985 84.3902 192.276 83.5391 191.715 82.4916C191.155 81.4441 190.875 80.1511 190.875 78.6125C190.875 76.8121 191.336 75.3554 192.259 74.2424C193.215 73.0967 194.419 72.2129 195.869 71.5909C197.32 70.9362 198.935 70.4943 200.715 70.2652C202.529 70.036 204.292 69.9215 206.007 69.9215V69.8233Z" fill="#333942"></path><path d="M221.426 49.1021H233.097V86.2234H221.426V49.1021Z" fill="#333942"></path><path d="M238.378 60.3956H249.801V86.2234H238.378V60.3956ZM238.18 52.9321C238.18 52.1465 238.328 51.4099 238.625 50.7225C238.955 50.0024 239.383 49.3804 239.911 48.8566C240.471 48.3329 241.114 47.9237 241.839 47.6291C242.565 47.3017 243.339 47.1381 244.163 47.1381C244.955 47.1381 245.696 47.3017 246.389 47.6291C247.081 47.9237 247.691 48.3329 248.218 48.8566C248.779 49.3804 249.207 50.0024 249.504 50.7225C249.834 51.4099 249.999 52.1465 249.999 52.9321C249.999 53.7505 249.834 54.5197 249.504 55.2399C249.207 55.9273 248.779 56.5329 248.218 57.0567C247.691 57.5477 247.081 57.9405 246.389 58.2351C245.696 58.5298 244.955 58.6771 244.163 58.6771C243.339 58.6771 242.565 58.5298 241.839 58.2351C241.114 57.9405 240.471 57.5477 239.911 57.0567C239.383 56.5329 238.955 55.9273 238.625 55.2399C238.328 54.5197 238.18 53.7505 238.18 52.9321Z" fill="#333942"></path><path d="M282.629 86.2234H271.503V83.3754H271.404C270.745 84.3247 269.756 85.1595 268.437 85.8797C267.151 86.5671 265.668 86.9108 263.987 86.9108C262.14 86.9108 260.624 86.5998 259.437 85.9779C258.25 85.3232 257.294 84.4884 256.569 83.4736C255.877 82.4261 255.382 81.264 255.085 79.9874C254.822 78.678 254.69 77.385 254.69 76.1083V60.3956H266.162V74.046C266.162 75.3554 266.36 76.272 266.756 76.7958C267.184 77.3195 267.811 77.5814 268.635 77.5814C269.393 77.5814 270.003 77.2868 270.465 76.6976C270.959 76.0756 271.206 75.1918 271.206 74.046V60.3956H282.629V86.2234Z" fill="#333942"></path><path d="M303.799 86.2234V72.6712C303.799 71.3618 303.634 70.4125 303.304 69.8233C302.974 69.234 302.43 68.9394 301.672 68.9394C301.112 68.9394 300.568 69.2013 300.04 69.725C299.546 70.2488 299.299 71.1817 299.299 72.5239V86.2234H287.875V60.3956H299.002V63.2436H299.101C299.43 62.818 299.826 62.4088 300.288 62.016C300.782 61.5905 301.326 61.214 301.919 60.8867C302.546 60.5266 303.238 60.2483 303.996 60.0519C304.755 59.8228 305.579 59.7082 306.469 59.7082C308.183 59.7082 309.667 60.0192 310.919 60.6412C312.172 61.2304 313.161 62.1633 313.886 63.44C314.744 62.3925 315.799 61.5086 317.051 60.7885C318.304 60.0683 319.886 59.7082 321.799 59.7082C323.645 59.7082 325.161 60.0683 326.348 60.7885C327.568 61.5086 328.524 62.4088 329.216 63.4891C329.941 64.5693 330.436 65.7478 330.7 67.0244C330.996 68.2683 331.145 69.4304 331.145 70.5107V86.2234H319.722V72.4748C319.722 71.0672 319.54 70.1342 319.178 69.6759C318.848 69.1849 318.321 68.9394 317.595 68.9394C316.936 68.9394 316.375 69.2504 315.914 69.8724C315.452 70.4616 315.222 71.3454 315.222 72.5239V86.2234H303.799Z" fill="#333942"></path></svg>